<svg xmlns="http://www.w3.org/2000/svg" width="512.827" height="275.494" viewBox="383.975 262.083 512.827 275.494"><path fill="#B89468" d="M694.374 393.29c-.471 1.71-2.53 3.76-3.479 3.76h-.011c-2.311-.06-3.71-5.33-3.7-9.09.03-5.81 2.511-10.72 4.9-15.47 1.909-3.79 3.72-7.38 4.22-11.25.41-3.2.271-7.42-.42-12.55-1.489-10.971-6-21.811-8.561-27.301-3.521-7.54-8.229-12.05-13.21-16.83-.021-.01-.029-.02-.04-.029 3.069 1.3 6.561 2.62 10.859 2.62.351 0 .71-.011 1.061-.03 6.881 11.85 10.601 28.82 13.881 43.8l.06.271c1.381 6.29 3.271 14.89 1.25 20.529-.521 1.44-1.449 2.8-2.43 4.261-1.091 1.6-2.21 3.26-2.88 5.17-.681 1.93-.78 4.25-.87 6.5-.091 1.939-.17 3.949-.63 5.639z"/><path fill="#DFD5C6" d="M587.469 334.781c1.225-7.872 2.267-6.825 6.017-10.393 3.881-3.668 8.633-6.713 13.05-8.349 2.647-.979 5.912-2.92 13.786-2.159.07.013.151-.033.224-.011 3.639 1.477 8.549 1.612 11.229 4.044 2.314 2.102 6.265-.217 7.802 2.963l1.314.068c2.95-5.021.468-1.827 4.621-4.712.314-.216.628-.512 1.001-.728 7.075-4.078 15.081-.42 17.67.534 4.518 1.669 10.087 5.555 13.036 8.349 4.62 4.386 9.23 12.576 9.23 21.243-.013 5.657-1.022 11.133-2.589 15.268-1.778 4.703-4.811 10.11-7.57 13.461-3.942 4.817-10.562 7.497-19.679 11.984-6.743 3.328-13.122 2.396-21.432 2.396-1.042 0-.111-.046-1.164-.147-5.567-.512-11.836-3.568-17.9-6.532-.747-.364-1.494-.728-2.233-1.091-7.316-3.532-15.669-11.224-17.73-13.812-2.616-3.306-4.657-9.919-6.295-14.258-1.933-5.099-3.278-12.393-2.388-18.118z"/><path fill="#B89468" d="M591.104 324.038c2.554-3.879 6.049-7.289 9.466-10.615a182.26 182.26 0 0 0 3.482-3.452c3.112-3.18 6.016-7.797 9.432-10.487 4.637-3.682 9.432-5.477 12.812-11.88.293-.552.629-1.053.953-1.532.94-1.387 1.915-2.815 1.803-5.517 3.607-.855 7.416-1.282 11.324-1.282 3.965 0 7.807.438 11.437 1.314.886 7.945 6.172 11.71 10.854 15.923l1.008.907c.438.386.84.792 1.243 1.179.739.729 1.513.47 2.375 1.138.638.5 1.345 1.886 2.026 2.262.718.396 1.399 1.771 2.006 2.251 1.12.896 2.317 2.2 3.473 3.462.648.698 1.287 1.387 1.927 2.023l.885.886c3.897 3.91 8.211 8.217 11.615 12.826-10.955-7.289-29.135-11.689-49.14-11.689-20.42-.001-38.263 4.535-48.981 12.283z"/><path fill="#B89468" d="M690.754 297.26l-.351.7c-1.069 2.1-2.399 3.98-4.3 6.07-9.32-.57-17.891-4.71-25.471-12.32l-.63-.63c-1.391-1.39-2.83-2.83-3.729-4.1-1.851-2.601-4.021-6.25-4.101-8.011-.05-1.529 3.08-8.069 5.851-11.109 1.119-1.24 1.68-1.33 1.83-1.33v-.812l3.914-1.345c-8.689 16.47 25.862 26.563 29.502 25.75 2.819-.628-1.335 4.847-2.515 7.137zM585.271 289.52c5.061 3.355 42.122-10.957 32.467-22.994.125-4.087 11.039 10.915 10.985 12.444-.086 1.761-2.401 5.41-4.378 8.011-.962 1.27-2.499 2.71-3.983 4.1l-.672.63c-8.096 7.61-17.246 11.75-27.2 12.32-2.029-2.09-3.449-3.971-4.592-6.07l-.374-.7c-1.26-2.291-4.816-9.441-2.253-7.741zM608.964 304.534l-1.899 1.63c-5.032 4.336-10.248 8.816-13.892 15.225-1.522 2.666-2.913 5.916-4.254 9.064l-.291.665c-3.412 7.997-8.104 18.968-6.411 31.127.623 4.511 3.023 8.438 5.339 12.222 2.742 4.48 5.568 9.104 5.774 14.958.111 3.373-1.23 9.534-4.411 9.801-1.388 0-3.775-2.132-4.35-3.864-.548-1.713-.684-3.773-.805-5.763-.135-2.234-.268-4.531-1.021-6.428-.878-2.225-2.231-3.947-3.534-5.629-1.791-2.297-3.484-4.471-3.912-7.812-.706-5.465 1-12.016 2.365-17.274l.206-.78c4.374-16.886 6.955-33.002 14.925-44.681 5.751.092 12.319-1.026 16.171-2.461z"/><path fill="#DFD5C6" d="M697.005 326.115c-.506-1.571-1.021-3.188-1.701-4.641 1.109-1.046 2.027-2.42 2.925-3.762 1.549-2.311 3.013-4.499 5.239-4.861 4.988 4.301 6.46 21.219 3.21 27.434-.438.847-1.624 1.166-1.985 1.243-.518-.021-.882.362-1.445-.649-.668-1.188-1.481-.651-3.028-.86-.537-3.431-3.204-13.871-3.215-13.904zM579.754 336.019c-1.781.209-2.717 1.673-3.484 2.86-.649 1.012-1.068 1.629-1.663 1.649-.417-.077-1.78-1.396-2.286-2.243-3.74-6.215-2.046-25.133 3.693-29.434 2.563.362 4.247 2.551 6.028 4.861 1.033 1.342 2.09 2.716 3.366 3.762-.781 1.452-1.375 3.069-1.958 4.641-.012.033-3.081 10.473-3.696 13.904z"/><path fill="#4F3D28" d="M662.137 268.161l.195-.124.257.009c-.615 1.758.195 4.158.694 5.166 2.021 4.087 6.939 7.408 11.483 10.116 5.599 3.338 11.233 6.351 18.634 6.586.274.008.555.008.834.01l-.024 1.544c-.805.041-1.612.049-2.399.024-7.4-.237-13.037-3.251-18.634-6.587-4.545-2.709-9.463-6.029-11.484-10.116-.666-1.343-1.881-5.148.444-6.628z"/><path fill="#4F3D28" d="M666.275 269.582c-.286 3.025 1.723 5.343 3.392 7.01 3.4 3.416 7.179 6.001 11.885 8.213 2.103.992 5.007 2.538 7.209.488.077-2.554-1.606-4.944-3.184-6.522-1.839-1.846-5.2-3.741-8.061-5.318-3.568-1.968-7.338-4.18-11.241-3.871z"/><path fill="#4F3D28" d="M711.419 315.214c-1.525-4.342-3.502-8.807-6.625-8.987-2.075-.111-4.498 1.497-5.88 2.88-.845.847-1.46 1.884-2.055 2.886-.712 1.197-1.391 2.341-2.403 3.094a130.818 130.818 0 0 0-2.14-4.073c-.64-1.186-1.298-2.405-1.923-3.642 3.28-4.301 7.244-9.618 7.49-15.767.241-5.978-3.139-9.543-6.119-12.69l-.68-.721c-5.492-5.866-10.672-10.363-18.104-13.242-3.099-1.198-7.51-2.48-10.597-2.48-.855 0-1.599.099-2.202.291-2.677.857-4.684 4.6-6.456 7.902-.652 1.217-1.276 2.38-1.858 3.252-2.987-1.167-7.016-1.805-11.434-1.805-4.383 0-8.604.647-11.719 1.787-.29-.543-.588-1.12-.895-1.717-1.953-3.796-4.386-8.52-7.97-9.432-.43-.11-.957-.166-1.563-.166-3.213 0-8.362 1.529-10.992 2.615a41.57 41.57 0 0 0-9.726 5.662c-4.225 3.299-13.012 10.161-14.51 17.147-1.469 6.854 2.021 11.864 5.103 16.283.77 1.104 1.502 2.155 2.154 3.216-.752 1.204-1.414 2.506-2.058 3.77-.656 1.291-1.332 2.621-2.092 3.812-.898-.766-1.529-1.829-2.193-2.945-.623-1.047-1.266-2.13-2.174-3.038-1.184-1.187-4.026-3.26-6.381-2.873-2.123.351-4.125 3.288-6.121 8.98-2.164 6.171-2.965 16.027-.184 22.138 1.042 2.295 3.725 5.964 6.268 5.777 1.476-.111 2.233-1.185 2.822-2.13-.505 2.714-1.208 5.345-1.943 8.095-1.735 6.499-3.533 13.22-2.549 21.359.408 3.38 1.982 5.818 3.506 8.174 1.062 1.646 2.064 3.197 2.687 5.043.549 1.633.651 3.791.753 5.879.099 2.054.2 4.179.724 5.934.773 2.603 3.938 6.44 6.962 6.124 1.138-.112 2.188-.778 3.124-1.98 2.23-2.864 3.559-8.629 3.088-13.41-.451-4.602-2.516-8.654-4.512-12.572-2.053-4.032-4.176-8.198-4.609-13.036-.332-3.68.082-7.553.686-11.014.411 2.191.904 4.499 1.642 6.546 3.392 9.417 11.735 20.292 19.41 25.292 7.181 4.68 18.186 10.471 29.836 11.479 2.353.203 4.315.2 6.497-.002 11.271-1.037 23.092-6.073 33.283-14.177 8.817-7.011 15.176-17.225 17.868-28.521.613 4.227 1.173 8.533.431 11.984-.817 3.811-2.568 7.364-4.258 10.801-2.08 4.225-4.229 8.591-4.666 13.467-.284 3.133.188 6.756 1.26 9.688 1.213 3.321 2.971 5.26 4.95 5.457.114.012.228.018.342.018 2.928-.001 5.879-3.637 6.623-6.142.527-1.773.617-3.922.702-5.997.09-2.155.183-4.381.77-6.048.641-1.814 1.62-3.306 2.66-4.885 1.55-2.355 3.152-4.793 3.535-8.353.873-8.095-.87-14.744-2.558-21.178-.671-2.564-1.36-5.193-1.871-7.893.583.949 1.367 1.974 3.052 2 2.309 0 4.884-3.378 5.976-5.778 2.938-6.464 1.965-16.006-.184-22.138zm-15.049 79.073c-.468 1.709-2.529 3.764-3.481 3.764h-.002c-2.315-.059-3.718-5.334-3.699-9.091.027-5.813 2.503-10.72 4.896-15.466 1.915-3.798 3.723-7.387 4.222-11.252.412-3.198.269-7.419-.425-12.548-1.482-10.972-5.999-21.819-8.559-27.309-3.518-7.536-8.227-12.049-13.211-16.825a.612.612 0 0 1-.037-.035c3.076 1.305 6.558 2.621 10.862 2.621.353 0 .707-.01 1.062-.028 6.871 11.855 10.592 28.819 13.877 43.807l.062.27c1.379 6.284 3.27 14.891 1.242 20.526-.516 1.435-1.441 2.803-2.425 4.255-1.087 1.604-2.21 3.264-2.881 5.175-.677 1.932-.777 4.254-.872 6.499-.083 1.944-.167 3.954-.631 5.637zm-106.355-53.998c1.207-6.927 5.205-13.049 8.925-16.186 3.833-3.232 8.534-5.912 12.901-7.35 2.619-.861 5.853-2.573 13.643-1.9.071.008.152-.038.226-.011 3.598 1.296 5.484 2.293 8.131 4.438 2.291 1.853 4.224 4.211 5.742 7.008l.605 1.118.699-1.058c2.919-4.418 5.409-6.886 9.52-9.43.306-.188.616-.453.985-.643 6.997-3.588 14.919-.368 17.484.477 4.463 1.468 9.979 4.884 12.902 7.35 4.566 3.854 9.126 11.064 9.122 18.698-.003 4.981-1.009 9.8-2.557 13.441-1.757 4.134-4.765 8.895-7.485 11.849-3.906 4.239-10.454 10.123-19.477 14.07-6.668 2.924-13.973 5.628-22.185 5.628-1.037 0-2.09-.043-3.131-.127-5.517-.452-11.72-3.146-17.718-5.754-.737-.319-1.473-.642-2.205-.955-7.237-3.113-14.452-10.81-16.489-13.096-2.598-2.909-5.66-7.794-7.285-11.615-1.908-4.494-3.23-10.914-2.353-15.952zm6.352-20.168c2.273-3.721 5.397-6.99 8.441-10.177 1.029-1.079 2.097-2.192 3.113-3.311 2.779-3.049 5.373-5.562 8.416-8.147 4.144-3.521 8.426-7.164 11.445-13.308.262-.53.562-1.007.854-1.467.84-1.332 1.708-2.706 1.61-5.292 3.218-.819 6.614-1.234 10.11-1.234 3.529 0 6.964.424 10.208 1.26.79 7.624 5.512 12.191 9.688 16.231l.9.874c.384.374.747.756 1.104 1.131.663.693 1.35 1.409 2.126 2.053.569.472 1.199.846 1.81 1.207.642.379 1.248.737 1.784 1.2 1.002.862 2.071 2.108 3.105 3.313.577.672 1.15 1.339 1.712 1.942l.792.852c3.487 3.748 7.331 7.88 10.376 12.305-9.787-6.995-26.014-11.214-43.87-11.214-18.226.001-34.159 4.349-43.724 11.782zm96.388-22.86l-.354.696c-1.062 2.103-2.395 3.987-4.298 6.072-9.322-.568-17.889-4.713-25.466-12.321l-.632-.632c-1.392-1.39-2.832-2.826-3.736-4.1-1.845-2.593-4.021-6.245-4.092-8.004-.059-1.531 3.071-8.076 5.844-11.113 1.125-1.236 1.684-1.332 1.828-1.332v-.809l.014.809c9.836.412 18.408 4.679 26.213 13.049l.679.722c2.389 2.536 5.658 6.011 6.109 9.219.404 2.864-.931 5.457-2.109 7.744zm-75.018-30.736c2.969 0 4.297 2.459 5.979 5.57l.164.307c.117.215.249.451.39.704.93 1.673 2.336 4.202 2.269 5.866-.073 1.856-2.358 5.596-4.294 8.235-2.113 2.881-6.131 6.924-8.957 9.015-6.402 4.736-13.355 7.361-20.671 7.807-1.729-1.915-3.068-3.638-4.3-6.072l-.232-.461c-1.191-2.345-2.542-5.002-2.229-7.761.376-3.288 3.967-7.138 6.59-9.947l.197-.212c7.941-8.518 16.098-12.785 24.931-13.049l.163-.002zm-13.378 39.171c-.51.527-1.028 1.057-1.557 1.596-4.133 4.226-8.406 8.595-11.403 14.845-1.248 2.602-2.388 5.775-3.49 8.845l-.232.646c-2.806 7.808-6.648 18.504-5.265 30.364.514 4.403 2.48 8.226 4.386 11.922 2.246 4.364 4.57 8.876 4.732 14.584.094 3.292-1.013 9.302-3.615 9.562-1.137 0-3.105-2.081-3.57-3.771-.455-1.663-.559-3.674-.658-5.619-.109-2.176-.225-4.423-.84-6.266-.723-2.168-1.829-3.855-2.897-5.488-1.473-2.246-2.861-4.367-3.215-7.625-.581-5.328.817-11.718 1.94-16.852l.166-.755c3.588-16.468 7.355-32.193 13.889-43.58 4.722.083 8.47-1 11.629-2.408zm97.508 17.132c.94.087 2.307.704 2.994 1.417.601.626.512 1.337 1.489 1.686l.972.345.051-1.076c.067-1.465-.354-2.742-1.215-3.693-.988-1.094-2.558-1.721-4.302-1.721-1.985 0-2.75.84-4.034 2.646-.012-.026-.02-.053-.028-.079-.531-1.431-1.075-2.902-1.777-4.22 1.155-.953 2.117-2.204 3.056-3.418 1.619-2.104 3.151-4.093 5.482-4.422 5.217 3.908 6.756 21.105 3.363 26.758-.464.771-1.706 1.971-2.084 2.037-.536-.015-.924-.579-1.514-1.496-.694-1.082-1.546-2.41-3.165-2.599-.562-3.127-1.391-5.933-2.332-8.954 1.384-1.893 1.18-3.375 3.044-3.211zm-117.721-3.5c-.445.966-.901 1.951-1.26 3.066-1.314-1.582-1.913-2.612-4.146-2.612-3.066 0-5.211 1.928-5.604 5.029l-.104.841.801.076c.088.009.174.012.256.012h.002c1.233-2.343 2.228-2.805 3.034-2.915 5.464-.747 4.586 2.864 4.765 3.056-.224.831-.459 1.648-.692 2.465-.604 2.096-1.228 4.258-1.642 6.646-1.633.191-2.484 1.544-3.181 2.647-.452.719-.879 1.396-1.35 1.453-.438 0-1.688-1.146-2.229-2.042-3.811-6.351-1.304-22.459 3.033-26.778 2.472.119 3.955 2.062 5.521 4.114 1.009 1.32 2.046 2.68 3.395 3.616-.187.441-.389.877-.599 1.326z"/><g fill="#4F3D28"><path d="M663.341 328.062l-.077-.025-.082.013c-2.812.392-3.998 5.178-3.715 9.702.198 3.15 1.188 6.518 3.368 6.518.054 0 .108-.002.161-.008 1.544-.123 2.622-2.146 2.961-5.548.388-3.904-.319-9.944-2.616-10.652zM618.524 328.062l-.078-.025-.08.013c-2.814.392-3.999 5.178-3.715 9.702.196 3.15 1.186 6.518 3.366 6.518.056 0 .107-.002.162-.008 1.543-.123 2.621-2.146 2.959-5.548.39-3.904-.318-9.944-2.614-10.652z"/></g><path fill="#4F3D28" d="M619.03 268.161l-.194-.124-.257.009c.615 1.758-.195 4.158-.694 5.166-2.021 4.087-6.939 7.408-11.484 10.116-5.597 3.338-11.232 6.351-18.633 6.586-.274.008-.555.008-.834.01l.024 1.544c.805.041 1.612.049 2.4.024 7.399-.237 13.037-3.251 18.633-6.587 4.545-2.709 9.463-6.029 11.485-10.116.664-1.343 1.879-5.148-.446-6.628z"/><path fill="#4F3D28" d="M614.896 269.582c.285 3.025-1.724 5.343-3.393 7.01-3.4 3.416-7.178 6.001-11.884 8.213-2.103.992-5.007 2.538-7.209.488-.077-2.554 1.606-4.944 3.184-6.522 1.839-1.846 5.2-3.741 8.06-5.318 3.569-1.968 7.34-4.18 11.242-3.871z"/><g fill="#4F3C29"><path d="M431.73 505.405c-.952.261-1.456.315-1.713.315-1.267 0-2.204-.58-2.979-1.869-1.438-2.155-2.17-6.575-2.17-13.095l.588-13.548c0-7.225-.933-13.243-2.775-17.892-2.282-5.748-6.926-8.663-13.799-8.663-4.772 0-9.197 2.4-13.151 7.138-3.84 4.599-6.789 10.296-8.777 16.937-1.977 6.602-2.979 13.007-2.979 19.035 0 6.111.938 10.854 2.783 14.093 1.956 3.438 4.78 5.18 8.393 5.18 3.344 0 6.337-.585 8.887-1.733 4.562-2.021 9.088-7.076 13.795-15.421.131.954.277 2.073.438 3.355.398 3.253 1.056 6.013 1.943 8.185 1.248 3.211 3.908 4.911 7.691 4.911 5.494 0 8.612-1.674 9.272-4.973l.126-.619-.479-.409c-1.368-1.171-3.134-1.482-5.094-.927m-24.43-46.142c2.229 0 3.976.794 5.328 2.421 2.18 2.688 3.283 6.173 3.283 10.359 0 6.688-1.938 14.034-5.76 21.835-3.701 7.547-7.483 11.374-11.246 11.374-1.56 0-2.808-.86-3.822-2.631-1.113-1.936-1.679-4.303-1.679-7.037 0-2.877.273-6.222.812-9.945.539-3.746 1.361-7.776 2.443-11.979 1.057-4.119 2.604-7.635 4.593-10.446 1.876-2.659 3.855-3.951 6.048-3.951M482.854 493.629c-2.72 0-5.529 1.857-8.56 5.649-.988 1.129-2.659 2.22-4.969 3.248-2.314 1.029-5.387 1.552-9.133 1.552-3.675 0-6.76-1.177-9.437-3.598-2.646-2.392-3.932-5.701-3.932-10.121 0-.279.024-.838.125-1.941 2.069.286 3.916.432 5.493.432 7.011 0 13.72-2.299 19.945-6.84 6.332-4.614 9.541-10.576 9.541-17.717 0-4.04-1.601-7.163-4.762-9.287-3.025-2.029-7.018-3.06-11.869-3.06-4.908 0-9.772 2.128-14.454 6.321-4.601 4.121-8.169 9.148-10.605 14.942-2.433 5.779-3.666 11.826-3.666 17.969 0 6.324 2.117 11.395 6.293 15.073 4.136 3.646 9.135 5.492 14.859 5.492 7.915 0 14.604-1.652 19.88-4.917 5.365-3.316 8.513-7.089 9.353-11.206l.18-.88-.832-.333c-1.294-.516-2.457-.778-3.45-.778m-18.319-35.189c1.917 0 3.556.688 5.003 2.103 1.442 1.407 2.143 2.981 2.143 4.809 0 1.941-.579 4.157-1.719 6.585-1.14 2.427-3.113 4.785-5.867 7.02-2.688 2.182-5.777 3.286-9.186 3.286-1.806 0-4.161-.277-7.017-.817 1.402-5.28 3.654-10.454 6.699-15.393 3.101-5.038 6.447-7.593 9.944-7.593M521.032 451.712c-3.162 0-6.146 1.043-8.867 3.094-2.669 2.014-4.853 4.731-6.48 8.072a66.001 66.001 0 0 0-4.25 11.076c-.059-1.93-.114-4.183-.167-6.748-.159-7.858-.396-12.814-.716-15.151l-.092-.681-.658-.201c-1.119-.342-2.393-.518-3.778-.518-1.566 0-3.058.648-4.432 1.935l-.382.355.045.521c.158 1.823.689 9.561 1.582 22.991.897 13.51 2.228 24.972 3.95 34.062l.121.636.618.19c1.11.344 2.227.519 3.31.519 1.194 0 2.386-.398 3.54-1.184 1.287-.874 1.939-2.378 1.939-4.526l-.354-6.637c0-11.704 1.911-22.354 5.677-31.659 2.314-5.857 5.021-8.829 8.041-8.829 1.023 0 1.801.306 2.375.938.662.729 1.079 1.51 1.273 2.386a8.719 8.719 0 0 0 1.471 3.275c.823 1.137 2.038 1.735 3.514 1.735 1.286 0 2.484-.25 3.558-.743 1.685-.771 2.037-1.946 2.037-2.796 0-2.421-1.308-4.984-3.992-7.84-2.664-2.836-5.654-4.272-8.883-4.272M558.743 452.062c-7.869 0-13.959 3.247-18.104 9.652-4.049 6.252-6.102 14.624-6.102 24.887 0 7.967 1.82 14.26 5.404 18.696 3.642 4.514 9.491 6.799 17.393 6.799 7.871 0 14.459-2.843 19.578-8.452 5.095-5.577 7.678-12.479 7.678-20.509 0-7.983-2.342-15.21-6.961-21.476-4.691-6.366-11.046-9.597-18.886-9.597m15.832 32.309c0 5.819-1.715 10.843-5.097 14.93-3.379 4.084-7.429 6.068-12.379 6.068-2.363 0-4.42-.555-6.108-1.648-1.693-1.091-2.983-2.598-3.832-4.472a26.148 26.148 0 0 1-1.918-6.089c-.377-2.074-.57-4.421-.57-6.969 0-2.555.253-5.358.751-8.336.493-2.973 1.27-6.015 2.304-9.048.994-2.904 2.497-5.305 4.47-7.131 1.926-1.782 4.106-2.648 6.665-2.648 4.318 0 7.91 2.644 10.981 8.084 3.141 5.565 4.733 11.371 4.733 17.259M632.675 490.927c-2.413 0-4.92 1.751-7.68 5.378a76.625 76.625 0 0 1-3.235 4.155c-2.627 3.067-6.046 4.555-10.454 4.555-3.755 0-6.644-1.378-8.836-4.217-2.228-2.884-3.354-6.377-3.354-10.379 0-4.163.582-8.678 1.729-13.426 1.144-4.722 2.955-9.101 5.388-13.016 2.291-3.688 4.809-5.71 7.479-6.009 1.909.011 3.443.559 4.688 1.667 1.307 1.162 2.213 2.438 2.698 3.787a19.117 19.117 0 0 0 2.302 4.479c1.094 1.568 2.635 2.396 4.463 2.396 1.776 0 3.53-.855 5.223-2.544l.51-.511-.276-.666c-1.844-4.399-4.104-8.079-6.717-10.937-2.746-2.999-6.392-4.518-10.832-4.518-4.367 0-8.378 1.357-11.917 4.033-3.485 2.632-6.278 6.019-8.305 10.076-3.967 8.169-5.977 16.465-5.977 24.652 0 6.512 1.89 11.908 5.617 16.044 3.756 4.169 8.941 6.282 15.415 6.282 6.429 0 12.458-2.48 17.918-7.376 5.574-4.996 8.281-9.002 8.281-12.249v-.805l-.771-.228c-1.449-.415-2.547-.623-3.357-.623M695.555 503.979c-.984 0-2.536.321-4.773.994-1.33.442-1.818.596-1.996.646-1.125-.097-3.179-1.868-4.233-18.379a495.898 495.898 0 0 0-1.179-15.297c-.479-5.196-1.683-9.694-3.577-13.365-2.031-3.932-4.98-5.926-8.765-5.926-8.005 0-14.077 6.567-18.118 19.562.349-7.892.524-13.259.524-16.021 0-13.137-.596-24.051-1.771-32.438l-.13-.925h-.937c-3.152 0-5.564.724-7.171 2.147l-.521.465.209.662c.434 1.379.654 4.071.654 7.991l-1.058 52.621c0 21.435 2.619 24.323 5.185 24.323 2.333 0 4.227-2.751 6.137-8.916 1.688-5.458 3.139-11.564 4.315-18.151 1.155-6.477 2.775-12.475 4.818-17.83 1.862-4.883 3.89-7.469 5.864-7.469 1.462 0 2.572 1.521 3.299 4.522.841 3.475 1.363 7.75 1.557 12.704.192 5.025.511 10.156.942 15.253.488 5.799 1.772 11.066 3.521 14.452 2.027 3.929 3.851 5.922 7.719 5.922 2.202 0 4.625-.691 7.197-2.062 2.908-1.552 4.211-2.841 4.211-4.178v-.391l-.252-.3c-.516-.616-1.386-.616-1.671-.616M707.611 453.239c-.809 0-1.967.311-2.893 1.77-1.085 1.626-2.527 6.208-2.527 27.13 0 7.844.195 16.941.588 27.046l.023.638.569.287c1.084.541 2.175.814 3.239.814 1.177 0 2.41-.59 3.666-1.753 1.299-1.201 1.93-3.131 1.93-5.906l-.236-25.938c0-7.78.198-15.069.587-21.658l.042-.722-.651-.313c-1.994-.951-3.372-1.395-4.337-1.395M823.893 451.479c-9.882 0-16.766 4.04-20.465 12.009-1.757 3.749-3.01 7.834-3.725 12.136-.712 4.264-1.072 9.358-1.072 15.148 0 5.764.534 14.153 1.59 24.936 1.048 10.722 1.619 17.688 1.696 20.706l.023.889.877.146a9.01 9.01 0 0 0 1.468.13c2.316 0 4.352-.854 6.041-2.544l.369-.367-.061-.518c-1.202-10.452-1.963-18.857-2.267-25.026 3.043 1.276 6.676 1.921 10.826 1.921 8.042 0 14.436-2.693 19.014-8.005 4.536-5.268 6.836-11.466 6.836-18.433 0-8.683-1.947-16.412-5.784-22.968-3.947-6.745-9.116-10.16-15.366-10.16m-2.703 51.542c-2.325 0-6.75-.685-13.163-2.035-.058-1.763-.086-4.266-.086-7.458 0-10.171.932-18.239 2.768-23.978 2.051-6.449 6.058-9.584 12.243-9.584 3.648 0 6.462 2.216 8.597 6.777 2.229 4.768 3.362 11.015 3.362 18.564 0 4.984-1.275 9.257-3.785 12.69-2.473 3.383-5.72 5.024-9.936 5.024M892.88 485.289c-2.502-2.337-5.593-4.041-9.188-5.065a385.585 385.585 0 0 0-10.304-2.765c-3.262-.824-6.064-2.054-8.331-3.652-2.104-1.48-3.127-3.441-3.127-5.991 0-2.538 1.094-4.514 3.345-6.035 2.351-1.591 4.893-2.399 7.556-2.399 2.707 0 4.99.475 6.785 1.406 1.733.9 2.874 2.101 3.452 3.564.092.316.209.988.257 2.384.046 1.493.368 2.546.983 3.216.649.709 1.771 1.056 3.435 1.056 5.123 0 5.888-3.324 5.888-5.304 0-4.596-1.923-8.159-5.719-10.591-3.644-2.332-7.77-3.518-12.261-3.518-6.535 0-12.111 1.565-16.579 4.651-4.594 3.175-6.92 7.383-6.92 12.51 0 3.958 1.311 7.275 3.894 9.858 2.505 2.506 5.6 4.315 9.203 5.378a268.31 268.31 0 0 0 10.313 2.829c3.279.831 6.103 1.973 8.384 3.393 2.067 1.291 3.076 2.912 3.076 4.959 0 3.573-1.646 6.102-5.012 7.712-1.886.871-4.184 1.311-6.831 1.311-4.988 0-9.947-1.786-14.729-5.299-1.857-1.41-3.374-2.098-4.643-2.098-5.158 0-6.242 2.243-6.242 4.128 0 3.286 3.102 5.923 9.479 8.063 5.911 1.981 10.787 2.99 14.491 2.99 6.282 0 11.75-1.439 16.246-4.274 4.659-2.937 7.019-7.271 7.019-12.886.003-3.893-1.316-7.099-3.92-9.531M794.964 504.6c-.462-.621-1.238-.621-1.492-.621-.88 0-2.265.321-4.261.994-1.188.442-1.622.596-1.782.646-.829-.08-3.109 1.012-2.953-11.092.158-12.104.005-3.774.005-4.267l.351-17.864c0-5.582-.862-11.049-2.31-14.628-1.661-4.107-4.562-6.191-8.629-6.191-5.171 0-11.584 2.904-15.026 15.536-.547-3.55-1.464-6.618-2.737-9.17-2.263-4.523-5.727-6.817-10.297-6.817-3.62 0-6.828 1.759-9.523 5.212-1.086 1.337-2.092 3.235-2.988 5.645-.868 2.321-1.729 5.143-2.559 8.387-.065.259-.132.532-.196.824-.166-12.555-1.14-12.553-2.347-12.553-2.892 0-4.898.884-5.964 2.627l-.157.26v.303c0 19.287.555 35.672 1.647 48.698l.071.86 2.619.35.143.009c1.978 0 3.911-.796 5.748-2.37l.308-.266.059-.4c.233-1.646.581-4.302 1.061-8.133 1.783-15.912 3.825-27.778 6.069-35.278 1.231-4.255 2.742-6.504 4.367-6.504.992 0 4.021 0 5.278 7.555.926 5.548 1.414 13.133 1.455 22.548.039 9.962.439 17.642 1.129 21.626l.103.573.533.229c.68.291 1.413.438 2.222.438h.006c2.313-.089 4.262-.95 5.788-2.566l.271-.285.021-.396c.576-10.552 2.174-22.149 4.497-32.659 3.568-16.146 6.158-16.964 6.641-16.964 1.17 0 1.938 1.269 2.28 3.768.388 2.82.638 7.057.639 10.833 0 0 .064 13.148.403 21.033.339 7.886.713 9.874 1.963 12.586 1.81 3.931 4.141 4.416 7.592 4.416 1.966 0 4.127-.691 6.424-2.062 2.597-1.552 3.757-2.841 3.757-4.178v-.391l-.229-.301z"/></g></svg>