<svg xmlns="http://www.w3.org/2000/svg" width="700.316" height="156.697" viewBox="290.178 321.893 700.316 156.697"><path d="M355.391 434.658c-1.301.356-1.987.432-2.338.432-1.729 0-3.01-.791-4.066-2.552-1.964-2.944-2.963-8.979-2.963-17.882l.803-18.5c0-9.866-1.272-18.085-3.79-24.433-3.116-7.85-9.457-11.832-18.844-11.832-6.519 0-12.56 3.28-17.959 9.748-5.245 6.28-9.272 14.06-11.986 23.127-2.699 9.016-4.069 17.763-4.069 25.996 0 8.347 1.28 14.82 3.799 19.244 2.674 4.694 6.529 7.074 11.459 7.074 4.568 0 8.656-.799 12.138-2.368 6.229-2.759 12.41-9.663 18.837-21.058.181 1.302.379 2.83.599 4.582.543 4.441 1.441 8.21 2.653 11.176 1.703 4.387 5.338 6.707 10.505 6.707 7.5 0 11.762-2.286 12.664-6.79l.171-.847-.655-.56c-1.87-1.596-4.283-2.023-6.958-1.264m-33.362-63.012c3.043 0 5.428 1.084 7.276 3.306 2.975 3.668 4.481 8.428 4.481 14.147 0 9.133-2.646 19.164-7.866 29.817-5.052 10.306-10.219 15.532-15.354 15.532-2.132 0-3.835-1.175-5.224-3.593-1.519-2.643-2.292-5.877-2.292-9.61 0-3.928.375-8.496 1.107-13.581.738-5.114 1.86-10.62 3.339-16.358 1.44-5.625 3.553-10.425 6.271-14.266 2.564-3.63 5.267-5.394 8.262-5.394M425.204 418.577c-3.713 0-7.552 2.536-11.688 7.714-1.349 1.543-3.631 3.031-6.785 4.437-3.158 1.407-7.355 2.118-12.473 2.118-5.014 0-9.229-1.605-12.883-4.912-3.614-3.265-5.369-7.785-5.369-13.821 0-.381.035-1.143.168-2.65 2.829.392 5.35.59 7.502.59 9.574 0 18.736-3.139 27.239-9.34 8.646-6.303 13.029-14.443 13.029-24.195 0-5.517-2.188-9.782-6.501-12.683-4.134-2.771-9.586-4.178-16.21-4.178-6.705 0-13.347 2.906-19.739 8.633-6.283 5.628-11.156 12.493-14.483 20.406-3.321 7.892-5.007 16.149-5.007 24.539 0 8.636 2.891 15.56 8.593 20.584 5.648 4.979 12.475 7.5 20.293 7.5 10.811 0 19.944-2.257 27.148-6.716 7.325-4.527 11.624-9.68 12.771-15.303l.245-1.201-1.137-.455c-1.767-.71-3.356-1.067-4.713-1.067m-25.015-48.054c2.616 0 4.854.94 6.833 2.871 1.969 1.922 2.925 4.072 2.925 6.567 0 2.651-.791 5.677-2.348 8.992-1.557 3.313-4.251 6.536-8.012 9.586-3.67 2.979-7.892 4.486-12.545 4.486-2.463 0-5.683-.378-9.581-1.115 1.917-7.212 4.991-14.276 9.149-21.021 4.235-6.877 8.803-10.366 13.579-10.366M477.343 361.335c-4.316 0-8.394 1.424-12.109 4.225-3.646 2.749-6.624 6.461-8.85 11.024a89.96 89.96 0 0 0-5.807 15.125c-.078-2.636-.155-5.71-.228-9.215-.219-10.731-.539-17.5-.977-20.691l-.127-.93-.898-.275c-1.527-.467-3.266-.707-5.16-.707-2.138 0-4.175.888-6.052 2.643l-.521.486.062.712c.216 2.49.941 13.054 2.162 31.396 1.224 18.449 3.04 34.103 5.395 46.514l.162.867.846.263c1.52.469 3.041.706 4.521.706 1.629 0 3.257-.545 4.833-1.615 1.758-1.192 2.649-3.247 2.647-6.183l-.48-9.062c0-15.986 2.609-30.526 7.753-43.235 3.161-8 6.855-12.058 10.981-12.058 1.396 0 2.457.418 3.242 1.283.902.994 1.473 2.061 1.737 3.257a11.951 11.951 0 0 0 2.011 4.474c1.123 1.551 2.782 2.37 4.796 2.37 1.759 0 3.394-.341 4.858-1.015 2.301-1.053 2.78-2.659 2.78-3.818 0-3.306-1.783-6.807-5.449-10.707-3.636-3.872-7.72-5.834-12.128-5.834M528.84 361.815c-10.745 0-19.062 4.434-24.724 13.181-5.527 8.538-8.332 19.97-8.332 33.985 0 10.879 2.485 19.472 7.38 25.531 4.975 6.163 12.964 9.285 23.752 9.285 10.751 0 19.746-3.883 26.736-11.543 6.956-7.618 10.482-17.042 10.482-28.006 0-10.904-3.195-20.772-9.504-29.329-6.406-8.694-15.085-13.104-25.79-13.104m21.619 44.12c0 7.947-2.34 14.808-6.957 20.389-4.616 5.576-10.146 8.287-16.906 8.287-3.228 0-6.033-.758-8.343-2.25-2.312-1.49-4.073-3.55-5.233-6.107a35.715 35.715 0 0 1-2.617-8.315c-.515-2.832-.778-6.037-.778-9.517 0-3.486.345-7.315 1.024-11.383.673-4.058 1.732-8.212 3.146-12.354 1.357-3.967 3.408-7.244 6.104-9.739 2.627-2.434 5.606-3.618 9.1-3.618 5.897 0 10.803 3.611 14.999 11.04 4.288 7.597 6.461 15.527 6.461 23.567M629.802 414.887c-3.296 0-6.721 2.393-10.487 7.346a106.692 106.692 0 0 1-4.418 5.674c-3.588 4.188-8.257 6.221-14.276 6.221-5.129 0-9.073-1.882-12.064-5.759-3.043-3.938-4.582-8.709-4.582-14.174 0-5.687.794-11.852 2.36-18.333 1.561-6.449 4.035-12.427 7.357-17.773 3.129-5.037 6.565-7.798 10.213-8.205 2.606.014 4.699.761 6.4 2.275 1.784 1.587 3.021 3.33 3.687 5.172a25.982 25.982 0 0 0 3.142 6.114c1.492 2.143 3.6 3.274 6.096 3.274 2.426 0 4.822-1.17 7.132-3.475l.695-.697-.38-.91c-2.516-6.008-5.604-11.033-9.171-14.934-3.75-4.095-8.728-6.168-14.793-6.168-5.963 0-11.439 1.854-16.272 5.506-4.76 3.595-8.573 8.219-11.341 13.761-5.418 11.156-8.161 22.484-8.161 33.667 0 8.894 2.58 16.264 7.67 21.909 5.13 5.693 12.212 8.58 21.053 8.58 8.777 0 17.013-3.389 24.468-10.073 7.613-6.823 11.311-12.293 11.311-16.728v-1.099l-1.053-.311c-1.981-.577-3.48-.86-4.586-.86M715.67 432.711c-1.346 0-3.463.438-6.52 1.357-1.815.604-2.482.811-2.728.881-1.535-.133-4.34-2.551-5.78-25.099-.432-6.975-.971-14-1.608-20.89-.655-7.096-2.299-13.238-4.886-18.252-2.773-5.369-6.803-8.092-11.97-8.092-10.932 0-19.224 8.97-24.742 26.713.478-10.776.718-18.106.718-21.878 0-17.939-.813-32.843-2.416-44.295l-.179-1.264h-1.279c-4.306 0-7.6.989-9.792 2.934l-.711.634.285.905c.593 1.882.896 5.561.896 10.914l-1.445 71.859c0 29.27 3.578 33.217 7.079 33.217 3.187 0 5.772-3.759 8.381-12.177 2.306-7.453 4.286-15.793 5.896-24.788 1.577-8.844 3.79-17.036 6.579-24.349 2.544-6.668 5.312-10.199 8.009-10.199 1.997 0 3.513 2.077 4.505 6.175 1.146 4.746 1.861 10.583 2.126 17.349.263 6.865.696 13.873 1.287 20.831.667 7.918 2.42 15.112 4.807 19.734 2.771 5.365 5.258 8.087 10.54 8.087 3.008 0 6.315-.943 9.831-2.814 3.971-2.119 5.748-3.879 5.748-5.705v-.533l-.345-.408c-.709-.847-1.895-.847-2.286-.847M732.135 363.42c-1.103 0-2.685.425-3.949 2.417-1.48 2.222-3.451 8.479-3.451 37.05 0 10.71.269 23.136.803 36.935l.033.869.777.392c1.479.739 2.971 1.114 4.425 1.114 1.605 0 3.292-.808 5.005-2.396 1.773-1.64 2.636-4.274 2.636-8.064l-.322-35.419c0-10.625.271-20.581.801-29.577l.059-.985-.892-.428c-2.726-1.302-4.608-1.908-5.925-1.908M890.929 361.016c-13.494 0-22.896 5.517-27.945 16.398-2.398 5.12-4.11 10.698-5.087 16.572-.973 5.824-1.465 12.78-1.465 20.688 0 7.871.729 19.328 2.172 34.052 1.431 14.643 2.211 24.153 2.316 28.276l.031 1.213 1.197.197a12.25 12.25 0 0 0 2.004.178c3.165 0 5.942-1.166 8.251-3.473l.503-.502-.08-.707c-1.643-14.273-2.682-25.752-3.096-34.177 4.154 1.742 9.115 2.624 14.783 2.624 10.982 0 19.714-3.68 25.966-10.933 6.193-7.19 9.335-15.658 9.335-25.171 0-11.857-2.659-22.413-7.899-31.365-5.39-9.206-12.451-13.87-20.986-13.87m-3.69 70.386c-3.177 0-9.22-.934-17.977-2.777-.078-2.406-.118-5.824-.118-10.186 0-13.89 1.272-24.907 3.779-32.743 2.802-8.808 8.273-13.088 16.721-13.088 4.982 0 8.823 3.025 11.739 9.255 3.045 6.511 4.591 15.042 4.591 25.354 0 6.809-1.74 12.641-5.169 17.329-3.374 4.616-7.808 6.856-13.566 6.856M985.138 407.188c-3.417-3.189-7.637-5.519-12.547-6.916a516.277 516.277 0 0 0-14.067-3.776c-4.455-1.125-8.283-2.805-11.377-4.988-2.873-2.023-4.271-4.701-4.271-8.183 0-3.466 1.492-6.163 4.566-8.242 3.21-2.172 6.682-3.276 10.317-3.276 3.696 0 6.814.646 9.267 1.92 2.367 1.231 3.924 2.869 4.714 4.869.126.432.286 1.35.351 3.254.062 2.041.503 3.477 1.344 4.391.889.968 2.42 1.442 4.69 1.442 6.995 0 8.039-4.539 8.039-7.243 0-6.276-2.625-11.142-7.811-14.462-4.976-3.186-10.608-4.803-16.741-4.803-8.926 0-16.539 2.138-22.643 6.353-6.271 4.335-9.449 10.082-9.449 17.082 0 5.406 1.789 9.936 5.316 13.463 3.421 3.423 7.646 5.895 12.568 7.346a369.706 369.706 0 0 0 14.084 3.863c4.479 1.135 8.334 2.692 11.447 4.632 2.825 1.764 4.201 3.977 4.201 6.771 0 4.88-2.246 8.33-6.842 10.531-2.575 1.189-5.714 1.787-9.328 1.787-6.813 0-13.587-2.438-20.115-7.234-2.535-1.926-4.607-2.863-6.341-2.863-7.043 0-8.522 3.062-8.522 5.638 0 4.488 4.235 8.088 12.944 11.012 8.073 2.707 14.732 4.084 19.79 4.084 8.579 0 16.046-1.966 22.188-5.838 6.36-4.01 9.584-9.93 9.584-17.598.001-5.317-1.799-9.696-5.356-13.016M851.425 433.559c-.633-.848-1.691-.848-2.039-.848-1.201 0-3.092.438-5.817 1.357-1.622.604-2.216.811-2.435.881-1.132-.109-4.248 1.383-4.032-15.146.217-16.527.006-5.153.006-5.825l.479-24.396c0-7.624-1.179-15.088-3.155-19.976-2.269-5.611-6.229-8.456-11.781-8.456-7.062 0-15.818 3.966-20.521 21.215-.747-4.847-1.999-9.038-3.738-12.523-3.09-6.177-7.819-9.309-14.062-9.309-4.944 0-9.324 2.4-13.005 7.117-1.483 1.826-2.857 4.418-4.082 7.708-1.188 3.17-2.359 7.023-3.493 11.452-.09.354-.181.728-.27 1.126-.228-17.143-1.556-17.142-3.203-17.142-3.948 0-6.69 1.207-8.146 3.588l-.214.354v.413c0 26.339.756 48.714 2.249 66.503l.098 1.176 3.577.477.193.013c2.7 0 5.342-1.086 7.851-3.236l.419-.362.079-.547c.32-2.247.794-5.876 1.448-11.105 2.436-21.729 5.225-37.935 8.288-48.176 1.684-5.812 3.747-8.882 5.965-8.882 1.356 0 5.491 0 7.209 10.317 1.265 7.575 1.931 17.934 1.987 30.791.054 13.604.6 24.092 1.542 29.531l.138.784.729.314a7.618 7.618 0 0 0 3.031.598h.01c3.159-.121 5.819-1.299 7.903-3.506l.372-.39.028-.538c.787-14.41 2.968-30.249 6.14-44.602 4.875-22.049 8.411-23.165 9.069-23.165 1.598 0 2.646 1.732 3.114 5.145.528 3.851.87 9.636.872 14.793 0 0 .087 17.956.551 28.724.463 10.769.973 13.484 2.681 17.188 2.472 5.367 5.654 6.03 10.367 6.03 2.685 0 5.636-.944 8.772-2.815 3.545-2.119 5.129-3.879 5.129-5.705v-.533l-.303-.412z"/></svg>