<svg xmlns="http://www.w3.org/2000/svg" width="700.316" height="156.697"><g fill="#A19C91"><path d="M65.212 112.767c-1.301.354-1.986.432-2.338.432-1.729 0-3.01-.791-4.065-2.553-1.964-2.943-2.963-8.979-2.963-17.881l.803-18.5c0-9.866-1.272-18.085-3.79-24.433C49.743 41.981 43.402 38 34.015 38c-6.52 0-12.561 3.279-17.959 9.748C10.81 54.026 6.784 61.807 4.07 70.874 1.371 79.89 0 88.638 0 96.869c0 8.348 1.28 14.819 3.799 19.244 2.674 4.694 6.529 7.073 11.459 7.073 4.568 0 8.656-.799 12.138-2.367 6.229-2.76 12.41-9.663 18.837-21.059.181 1.303.379 2.83.599 4.582.543 4.44 1.441 8.21 2.653 11.176 1.703 4.388 5.338 6.707 10.505 6.707 7.5 0 11.762-2.285 12.664-6.789l.171-.848-.655-.561c-1.87-1.592-4.282-2.02-6.958-1.26M31.851 49.753c3.043 0 5.428 1.084 7.275 3.307 2.976 3.668 4.481 8.428 4.481 14.146 0 9.134-2.646 19.164-7.866 29.816-5.052 10.307-10.219 15.533-15.354 15.533-2.133 0-3.835-1.176-5.225-3.594-1.519-2.645-2.292-5.878-2.292-9.609 0-3.929.375-8.496 1.107-13.582.738-5.113 1.859-10.62 3.339-16.357 1.439-5.625 3.553-10.425 6.271-14.266 2.566-3.629 5.269-5.394 8.264-5.394M135.026 96.685c-3.713 0-7.552 2.537-11.688 7.715-1.349 1.543-3.631 3.031-6.784 4.437-3.158 1.407-7.355 2.118-12.474 2.118-5.014 0-9.229-1.604-12.883-4.912-3.614-3.266-5.369-7.784-5.369-13.82 0-.381.035-1.144.168-2.649 2.829.393 5.351.59 7.502.59 9.574 0 18.736-3.14 27.239-9.34 8.646-6.303 13.029-14.442 13.029-24.194 0-5.518-2.188-9.783-6.501-12.684-4.135-2.771-9.586-4.178-16.21-4.178-6.705 0-13.348 2.906-19.739 8.633-6.283 5.628-11.156 12.493-14.483 20.406-3.32 7.892-5.007 16.148-5.007 24.539 0 8.636 2.892 15.56 8.593 20.584 5.648 4.979 12.476 7.5 20.293 7.5 10.812 0 19.944-2.258 27.148-6.717 7.325-4.526 11.624-9.68 12.771-15.303l.245-1.201-1.137-.455c-1.767-.713-3.357-1.069-4.713-1.069M110.011 48.63c2.615 0 4.854.94 6.833 2.871 1.969 1.922 2.925 4.072 2.925 6.567 0 2.651-.791 5.677-2.349 8.992-1.557 3.313-4.251 6.536-8.012 9.586-3.67 2.979-7.892 4.486-12.545 4.486-2.463 0-5.683-.378-9.581-1.115 1.917-7.211 4.991-14.275 9.149-21.021 4.236-6.876 8.804-10.366 13.58-10.366M187.165 39.442c-4.315 0-8.394 1.424-12.108 4.225-3.646 2.75-6.624 6.461-8.851 11.024a89.927 89.927 0 0 0-5.807 15.125c-.078-2.636-.155-5.71-.229-9.215-.219-10.731-.539-17.5-.977-20.691l-.127-.93-.898-.274c-1.526-.468-3.266-.707-5.16-.707-2.138 0-4.175.887-6.052 2.643l-.521.486.062.711c.216 2.49.941 13.055 2.162 31.396 1.224 18.45 3.04 34.104 5.396 46.514l.161.867.847.264c1.52.469 3.041.705 4.521.705 1.629 0 3.257-.545 4.833-1.613 1.758-1.193 2.649-3.248 2.647-6.185l-.48-9.062c0-15.986 2.609-30.526 7.753-43.235 3.161-8 6.855-12.058 10.981-12.058 1.396 0 2.457.418 3.242 1.283.901.994 1.473 2.061 1.736 3.256a11.935 11.935 0 0 0 2.012 4.475c1.123 1.551 2.781 2.37 4.796 2.37 1.759 0 3.394-.341 4.857-1.015 2.301-1.053 2.78-2.659 2.78-3.818 0-3.307-1.783-6.807-5.449-10.707-3.635-3.872-7.719-5.834-12.127-5.834M238.662 39.923c-10.745 0-19.062 4.434-24.724 13.181-5.527 8.538-8.332 19.97-8.332 33.985 0 10.879 2.484 19.473 7.38 25.53 4.975 6.163 12.964 9.284 23.752 9.284 10.751 0 19.746-3.883 26.736-11.543 6.956-7.617 10.481-17.041 10.481-28.006 0-10.902-3.194-20.771-9.504-29.329-6.406-8.692-15.084-13.102-25.789-13.102m21.619 44.119c0 7.947-2.34 14.809-6.957 20.391-4.616 5.575-10.146 8.286-16.906 8.286-3.228 0-6.033-.759-8.343-2.25-2.312-1.489-4.073-3.551-5.233-6.106a35.671 35.671 0 0 1-2.616-8.314c-.516-2.832-.778-6.037-.778-9.518 0-3.486.345-7.314 1.024-11.383.673-4.058 1.731-8.212 3.146-12.354 1.357-3.967 3.408-7.244 6.104-9.738 2.627-2.434 5.605-3.618 9.1-3.618 5.896 0 10.803 3.61 14.999 11.04 4.287 7.594 6.46 15.524 6.46 23.564M339.624 92.994c-3.296 0-6.721 2.394-10.486 7.347a107.007 107.007 0 0 1-4.419 5.674c-3.588 4.188-8.257 6.221-14.274 6.221-5.129 0-9.073-1.881-12.064-5.758-3.043-3.938-4.582-8.709-4.582-14.175 0-5.688.794-11.853 2.36-18.333 1.561-6.449 4.035-12.428 7.357-17.772 3.128-5.037 6.564-7.798 10.212-8.205 2.605.014 4.698.762 6.399 2.275 1.784 1.587 3.021 3.33 3.688 5.172a25.918 25.918 0 0 0 3.142 6.113c1.492 2.144 3.601 3.274 6.097 3.274 2.426 0 4.821-1.17 7.132-3.475l.694-.697-.38-.909c-2.516-6.009-5.604-11.033-9.171-14.935-3.75-4.095-8.729-6.168-14.793-6.168-5.963 0-11.438 1.854-16.271 5.506-4.761 3.595-8.573 8.219-11.342 13.761-5.418 11.156-8.16 22.484-8.16 33.667 0 8.896 2.58 16.265 7.67 21.909 5.13 5.692 12.212 8.58 21.053 8.58 8.776 0 17.013-3.39 24.468-10.073 7.613-6.823 11.312-12.293 11.312-16.728v-1.101l-1.054-.312c-1.983-.576-3.482-.858-4.588-.858M425.492 110.817c-1.346 0-3.463.438-6.521 1.357-1.815.604-2.481.811-2.729.881-1.535-.133-4.34-2.551-5.781-25.1a700.68 700.68 0 0 0-1.606-20.89c-.654-7.096-2.3-13.238-4.886-18.252-2.772-5.369-6.805-8.092-11.971-8.092-10.932 0-19.225 8.97-24.742 26.713.479-10.775.719-18.105.719-21.878 0-17.938-.813-32.843-2.416-44.295l-.18-1.265H364.1c-4.307 0-7.6.989-9.791 2.935l-.71.635.283.905c.594 1.882.896 5.561.896 10.913l-1.445 71.859c0 29.271 3.578 33.218 7.08 33.218 3.188 0 5.771-3.76 8.381-12.178 2.307-7.453 4.285-15.793 5.896-24.788 1.575-8.844 3.789-17.035 6.577-24.349 2.546-6.668 5.312-10.199 8.011-10.199 1.996 0 3.512 2.077 4.504 6.175 1.146 4.746 1.86 10.584 2.127 17.35.262 6.865.695 13.874 1.287 20.831.666 7.918 2.42 15.111 4.807 19.733 2.771 5.364 5.258 8.087 10.539 8.087 3.008 0 6.316-.941 9.832-2.812 3.971-2.119 5.748-3.879 5.748-5.705v-.533l-.346-.408c-.708-.848-1.893-.848-2.284-.848M441.957 41.527c-1.104 0-2.686.425-3.949 2.417-1.479 2.223-3.451 8.479-3.451 37.05 0 10.71.271 23.137.804 36.937l.032.868.777.392c1.479.74 2.971 1.115 4.426 1.115 1.604 0 3.291-.81 5.004-2.396 1.773-1.641 2.638-4.273 2.638-8.062l-.322-35.42c0-10.626.271-20.581.801-29.577l.06-.985-.894-.428c-2.727-1.304-4.61-1.911-5.926-1.911M600.75 39.124c-13.494 0-22.895 5.517-27.943 16.397-2.397 5.12-4.11 10.698-5.088 16.571-.973 5.824-1.465 12.78-1.465 20.688 0 7.871.729 19.328 2.172 34.052 1.433 14.644 2.211 24.153 2.316 28.276l.031 1.213 1.196.197c.738.121 1.396.178 2.004.178 3.164 0 5.941-1.166 8.25-3.473l.505-.502-.08-.707c-1.646-14.273-2.685-25.753-3.097-34.178 4.152 1.741 9.113 2.624 14.781 2.624 10.982 0 19.715-3.681 25.967-10.935 6.193-7.188 9.336-15.657 9.336-25.17 0-11.857-2.66-22.414-7.899-31.365-5.388-9.202-12.451-13.866-20.986-13.866m-3.689 70.386c-3.176 0-9.219-.935-17.977-2.776-.078-2.406-.117-5.824-.117-10.187 0-13.891 1.271-24.907 3.777-32.743 2.803-8.809 8.272-13.088 16.723-13.088 4.98 0 8.822 3.024 11.738 9.254 3.045 6.512 4.59 15.043 4.59 25.354 0 6.81-1.738 12.642-5.168 17.329-3.375 4.618-7.809 6.857-13.566 6.857M694.959 85.295c-3.416-3.188-7.637-5.519-12.547-6.915a513.568 513.568 0 0 0-14.066-3.776c-4.455-1.125-8.283-2.806-11.377-4.988-2.873-2.022-4.271-4.7-4.271-8.183 0-3.467 1.492-6.163 4.565-8.242 3.211-2.172 6.683-3.275 10.316-3.275 3.697 0 6.813.646 9.268 1.92 2.367 1.23 3.924 2.869 4.715 4.869.125.432.285 1.35.351 3.254.062 2.041.504 3.477 1.344 4.391.892.968 2.422 1.441 4.691 1.441 6.994 0 8.039-4.539 8.039-7.242 0-6.276-2.625-11.143-7.812-14.463-4.977-3.186-10.608-4.803-16.742-4.803-8.926 0-16.539 2.139-22.643 6.354-6.271 4.334-9.449 10.082-9.449 17.082 0 5.406 1.789 9.937 5.316 13.463 3.42 3.422 7.646 5.895 12.567 7.346a369.706 369.706 0 0 0 14.084 3.863c4.479 1.135 8.334 2.69 11.445 4.631 2.826 1.765 4.201 3.978 4.201 6.771 0 4.88-2.246 8.33-6.842 10.531-2.574 1.189-5.713 1.787-9.328 1.787-6.812 0-13.586-2.438-20.115-7.234-2.533-1.926-4.604-2.861-6.34-2.861-7.043 0-8.521 3.062-8.521 5.637 0 4.488 4.234 8.089 12.943 11.013 8.072 2.707 14.732 4.084 19.789 4.084 8.58 0 16.047-1.966 22.188-5.838 6.359-4.011 9.584-9.931 9.584-17.599.004-5.319-1.794-9.698-5.353-13.018M561.246 111.666c-.633-.849-1.689-.849-2.039-.849-1.201 0-3.092.438-5.816 1.357-1.621.604-2.217.811-2.436.881-1.131-.108-4.248 1.383-4.031-15.146.217-16.526.006-5.152.006-5.825l.479-24.396c0-7.624-1.178-15.088-3.154-19.976-2.27-5.611-6.229-8.457-11.781-8.457-7.062 0-15.817 3.967-20.521 21.216-.746-4.847-1.998-9.038-3.738-12.523-3.09-6.177-7.817-9.309-14.061-9.309-4.945 0-9.324 2.399-13.006 7.116-1.482 1.826-2.857 4.418-4.082 7.709-1.188 3.17-2.359 7.022-3.492 11.451-.09.354-.183.729-.271 1.127-.229-17.144-1.557-17.143-3.203-17.143-3.948 0-6.69 1.207-8.146 3.588l-.215.354v.414c0 26.339.756 48.714 2.25 66.503l.098 1.176 3.576.478.193.014c2.7 0 5.342-1.086 7.852-3.235l.418-.362.08-.547c.32-2.247.793-5.876 1.447-11.104 2.436-21.729 5.225-37.936 8.289-48.177 1.684-5.812 3.745-8.882 5.965-8.882 1.354 0 5.489 0 7.209 10.317 1.266 7.574 1.932 17.934 1.985 30.791.056 13.604.601 24.092 1.543 29.531l.138.783.729.314a7.619 7.619 0 0 0 3.029.598h.012c3.158-.121 5.818-1.299 7.902-3.506l.371-.391.028-.537c.787-14.41 2.968-30.25 6.14-44.603 4.875-22.05 8.412-23.166 9.069-23.166 1.599 0 2.646 1.732 3.113 5.146.527 3.851.871 9.636.873 14.793 0 0 .086 17.957.551 28.724.463 10.77.974 13.484 2.681 17.188 2.473 5.367 5.653 6.029 10.366 6.029 2.687 0 5.638-.943 8.773-2.814 3.545-2.118 5.129-3.879 5.129-5.705v-.532l-.302-.413z"/></g></svg>