<svg xmlns="http://www.w3.org/2000/svg" width="508.3" height="95.254" viewBox="386.188 352.462 508.3 95.254"><g fill="#4F3C29"><path d="M538.236 417.147c-.729.199-1.115.241-1.312.241-.97 0-1.688-.443-2.282-1.432-1.102-1.651-1.662-5.037-1.662-10.03l.45-10.378c0-5.534-.714-10.145-2.125-13.705-1.749-4.403-5.306-6.637-10.569-6.637-3.656 0-7.045 1.84-10.075 5.468-2.94 3.522-5.201 7.887-6.723 12.973-1.515 5.058-2.283 9.964-2.283 14.583 0 4.682.718 8.312 2.132 10.795 1.499 2.633 3.662 3.968 6.428 3.968 2.562 0 4.854-.448 6.809-1.328 3.494-1.548 6.961-5.421 10.566-11.812.102.73.212 1.589.335 2.57.306 2.492.81 4.605 1.489 6.271.956 2.46 2.994 3.762 5.892 3.762 4.208 0 6.599-1.282 7.104-3.809l.096-.476-.367-.312c-1.049-.898-2.401-1.137-3.903-.712m-18.715-35.345c1.709 0 3.046.608 4.082 1.854 1.67 2.058 2.515 4.728 2.515 7.936 0 5.123-1.484 10.75-4.412 16.727-2.835 5.78-5.732 8.713-8.614 8.713-1.194 0-2.15-.659-2.929-2.017-.853-1.48-1.286-3.296-1.286-5.391 0-2.203.21-4.766.622-7.618.414-2.869 1.043-5.957 1.872-9.176.809-3.155 1.994-5.848 3.518-8.002 1.437-2.037 2.954-3.026 4.632-3.026M577.396 408.127c-2.082 0-4.235 1.423-6.557 4.327-.757.865-2.037 1.7-3.807 2.488-1.771.789-4.126 1.188-6.996 1.188-2.812 0-5.177-.901-7.228-2.756-2.026-1.831-3.012-4.367-3.012-7.753 0-.214.021-.641.095-1.487 1.587.22 3 .331 4.208.331 5.37 0 10.511-1.761 15.279-5.239 4.85-3.535 7.31-8.102 7.31-13.571 0-3.095-1.228-5.487-3.646-7.114-2.318-1.555-5.377-2.344-9.093-2.344-3.761 0-7.486 1.63-11.072 4.843-3.524 3.157-6.258 7.008-8.124 11.446-1.863 4.427-2.809 9.059-2.809 13.765 0 4.844 1.62 8.728 4.819 11.546 3.168 2.793 6.997 4.207 11.383 4.207 6.063 0 11.188-1.266 15.229-3.767 4.109-2.54 6.521-5.431 7.164-8.584l.138-.675-.638-.255c-.989-.396-1.881-.596-2.643-.596m-14.031-26.955c1.468 0 2.724.527 3.833 1.61 1.104 1.078 1.641 2.284 1.641 3.684 0 1.487-.442 3.185-1.315 5.044-.873 1.858-2.386 3.666-4.494 5.377-2.06 1.671-4.428 2.518-7.037 2.518-1.382 0-3.188-.212-5.374-.626 1.075-4.045 2.8-8.008 5.132-11.792 2.373-3.858 4.937-5.815 7.614-5.815M606.644 376.018c-2.422 0-4.708.799-6.793 2.37-2.045 1.542-3.716 3.624-4.964 6.184a50.457 50.457 0 0 0-3.257 8.484 555.569 555.569 0 0 1-.127-5.169c-.123-6.02-.303-9.816-.548-11.606l-.071-.521-.504-.154c-.856-.262-1.832-.396-2.895-.396-1.199 0-2.343.498-3.396 1.482l-.293.272.035.399c.121 1.396.527 7.322 1.213 17.611.687 10.349 1.705 19.128 3.025 26.092l.092.485.474.146a8.618 8.618 0 0 0 2.536.396c.914 0 1.827-.306 2.711-.906.986-.669 1.486-1.82 1.485-3.468l-.271-5.083c0-8.967 1.464-17.123 4.35-24.252 1.772-4.487 3.846-6.764 6.159-6.764.783 0 1.378.234 1.818.72.507.558.826 1.156.976 1.827a6.708 6.708 0 0 0 1.127 2.51c.631.87 1.562 1.329 2.69 1.329.986 0 1.903-.191 2.726-.569 1.29-.591 1.561-1.491 1.561-2.142 0-1.854-1-3.818-3.057-6.006-2.039-2.171-4.33-3.271-6.802-3.271M635.53 376.287c-6.027 0-10.692 2.487-13.868 7.394-3.102 4.789-4.674 11.202-4.674 19.063 0 6.103 1.395 10.923 4.14 14.322 2.79 3.457 7.271 5.208 13.323 5.208 6.03 0 11.076-2.179 14.997-6.476 3.901-4.272 5.881-9.56 5.881-15.71 0-6.116-1.793-11.651-5.331-16.451-3.595-4.876-8.463-7.35-14.468-7.35m12.127 24.748c0 4.458-1.312 8.306-3.902 11.437-2.59 3.128-5.69 4.648-9.482 4.648-1.812 0-3.386-.425-4.681-1.263-1.298-.836-2.285-1.99-2.936-3.427a20.016 20.016 0 0 1-1.469-4.664c-.288-1.589-.438-3.387-.438-5.338 0-1.956.193-4.104.574-6.386a43.742 43.742 0 0 1 1.766-6.93c.762-2.226 1.912-4.063 3.424-5.463 1.475-1.365 3.146-2.029 5.104-2.029 3.309 0 6.06 2.025 8.413 6.192 2.408 4.265 3.627 8.713 3.627 13.223M692.163 406.057c-1.849 0-3.771 1.343-5.883 4.12a58.743 58.743 0 0 1-2.479 3.184c-2.012 2.35-4.631 3.488-8.008 3.488-2.877 0-5.09-1.056-6.768-3.229-1.707-2.209-2.57-4.885-2.57-7.95 0-3.188.445-6.646 1.324-10.284.875-3.617 2.264-6.971 4.127-9.97 1.755-2.825 3.684-4.374 5.729-4.603 1.463.008 2.638.427 3.591 1.276 1.001.891 1.695 1.868 2.067 2.901a14.539 14.539 0 0 0 1.763 3.43c.837 1.202 2.02 1.837 3.419 1.837 1.36 0 2.705-.656 4-1.949l.392-.391-.213-.511c-1.411-3.37-3.145-6.188-5.146-8.377-2.104-2.297-4.896-3.46-8.298-3.46-3.345 0-6.417 1.04-9.128 3.089-2.67 2.017-4.81 4.61-6.361 7.719-3.039 6.258-4.578 12.612-4.578 18.885 0 4.988 1.447 9.122 4.304 12.29 2.877 3.193 6.85 4.812 11.809 4.812 4.924 0 9.543-1.9 13.726-5.65 4.271-3.827 6.345-6.896 6.345-9.383v-.616l-.591-.174c-1.111-.325-1.952-.484-2.573-.484M740.33 416.055c-.755 0-1.942.246-3.657.763a49.47 49.47 0 0 1-1.528.493c-.861-.073-2.436-1.431-3.242-14.077a385.811 385.811 0 0 0-.903-11.718c-.367-3.98-1.289-7.426-2.74-10.238-1.556-3.012-3.814-4.539-6.714-4.539-6.132 0-10.783 5.031-13.879 14.984.268-6.045.402-10.156.402-12.272 0-10.062-.456-18.423-1.355-24.847l-.1-.709h-.719c-2.414 0-4.263.555-5.492 1.646l-.398.355.16.508c.332 1.056.502 3.119.502 6.122l-.811 40.309c0 16.418 2.007 18.632 3.971 18.632 1.787 0 3.238-2.106 4.701-6.83 1.293-4.181 2.403-8.857 3.307-13.903.885-4.961 2.126-9.557 3.69-13.658 1.427-3.74 2.979-5.721 4.491-5.721 1.12 0 1.972 1.165 2.527 3.464.645 2.662 1.044 5.937 1.192 9.731.146 3.852.391 7.781.722 11.686.374 4.44 1.357 8.478 2.696 11.069 1.554 3.01 2.948 4.536 5.912 4.536 1.688 0 3.543-.529 5.515-1.579 2.228-1.188 3.225-2.176 3.225-3.2v-.299l-.192-.229c-.398-.479-1.064-.479-1.283-.479M749.565 377.188c-.618 0-1.507.238-2.216 1.355-.831 1.246-1.937 4.756-1.937 20.782 0 6.008.149 12.978.45 20.718l.019.487.438.22c.83.415 1.666.625 2.48.625.901 0 1.847-.452 2.809-1.343.994-.92 1.479-2.398 1.479-4.524l-.181-19.868c0-5.96.15-11.544.448-16.591l.032-.553-.5-.24c-1.526-.729-2.581-1.068-3.321-1.068M838.639 375.839c-7.568 0-12.843 3.095-15.676 9.198-1.346 2.872-2.306 6.001-2.854 9.296-.545 3.267-.821 7.169-.821 11.604 0 4.415.409 10.843 1.218 19.102.803 8.213 1.24 13.549 1.3 15.861l.019.681.672.11c.415.067.782.1 1.124.1 1.774 0 3.334-.654 4.628-1.948l.282-.281-.045-.396c-.921-8.007-1.505-14.445-1.736-19.171 2.331.978 5.113 1.472 8.293 1.472 6.16 0 11.058-2.062 14.564-6.132 3.475-4.034 5.235-8.783 5.235-14.119 0-6.651-1.491-12.572-4.431-17.594-3.023-5.167-6.984-7.783-11.772-7.783m-2.07 39.482c-1.781 0-5.171-.523-10.083-1.56-.044-1.35-.066-3.267-.066-5.713 0-7.791.714-13.972 2.12-18.366 1.571-4.94 4.641-7.342 9.379-7.342 2.795 0 4.949 1.697 6.585 5.191 1.708 3.652 2.575 8.438 2.575 14.222 0 3.818-.978 7.09-2.899 9.721-1.894 2.59-4.381 3.847-7.611 3.847M891.484 401.738c-1.917-1.79-4.284-3.097-7.038-3.88a286.553 286.553 0 0 0-7.893-2.118c-2.499-.631-4.646-1.573-6.382-2.798-1.611-1.135-2.396-2.637-2.396-4.59 0-1.944.837-3.457 2.562-4.623 1.801-1.219 3.748-1.838 5.788-1.838 2.073 0 3.822.362 5.197 1.077 1.328.69 2.201 1.609 2.645 2.731.07.242.16.757.196 1.825.035 1.145.282 1.95.754 2.463.498.543 1.357.809 2.631.809 3.924 0 4.51-2.546 4.51-4.062 0-3.521-1.473-6.25-4.381-8.112-2.791-1.787-5.951-2.694-9.392-2.694-5.006 0-9.277 1.199-12.7 3.563-3.519 2.432-5.301 5.655-5.301 9.582 0 3.032 1.004 5.573 2.981 7.552 1.919 1.92 4.289 3.307 7.051 4.12 2.627.776 5.286 1.506 7.899 2.167 2.514.637 4.675 1.511 6.422 2.599 1.585.989 2.356 2.23 2.356 3.799 0 2.737-1.26 4.674-3.838 5.907-1.444.667-3.205 1.003-5.232 1.003-3.822 0-7.621-1.368-11.283-4.059-1.423-1.08-2.585-1.606-3.557-1.606-3.951 0-4.781 1.72-4.781 3.162 0 2.519 2.376 4.537 7.263 6.177 4.527 1.52 8.264 2.291 11.101 2.291 4.812 0 9.001-1.103 12.445-3.273 3.567-2.249 5.376-5.57 5.376-9.871.002-2.984-1.008-5.44-3.003-7.303M816.479 416.53c-.354-.477-.948-.477-1.144-.477-.674 0-1.734.246-3.264.763-.91.339-1.242.454-1.365.493-.635-.062-2.383.775-2.262-8.495.121-9.271.003-2.893.003-3.269l.269-13.685c0-4.276-.661-8.464-1.77-11.205-1.272-3.147-3.494-4.743-6.609-4.743-3.961 0-8.873 2.225-11.511 11.9-.419-2.719-1.121-5.069-2.098-7.024-1.732-3.465-4.387-5.222-7.888-5.222-2.772 0-5.229 1.347-7.295 3.992-.832 1.024-1.603 2.479-2.29 4.323-.665 1.778-1.323 3.939-1.959 6.424a15.75 15.75 0 0 0-.15.632c-.127-9.616-.872-9.615-1.798-9.615-2.215 0-3.753.677-4.567 2.013l-.12.198v.231c0 14.774.424 27.325 1.262 37.304l.056.659 2.007.268.107.007c1.516 0 2.996-.609 4.403-1.815l.235-.202.044-.308c.18-1.261.444-3.296.812-6.229 1.366-12.188 2.932-21.278 4.649-27.023.943-3.26 2.102-4.982 3.346-4.982.761 0 3.08 0 4.044 5.787.709 4.249 1.083 10.06 1.114 17.271.03 7.631.337 13.514.865 16.565l.076.439.409.176a4.243 4.243 0 0 0 1.701.336h.005c1.772-.067 3.266-.729 4.435-1.967l.209-.219.016-.302c.441-8.083 1.665-16.969 3.444-25.02 2.733-12.368 4.718-12.994 5.087-12.994.896 0 1.483.972 1.747 2.886.297 2.16.487 5.405.488 8.298 0 0 .05 10.072.31 16.112s.546 7.563 1.504 9.642c1.386 3.011 3.172 3.383 5.815 3.383 1.506 0 3.16-.529 4.921-1.579 1.987-1.188 2.877-2.176 2.877-3.2v-.299l-.17-.228z"/></g><path fill="#B89468" d="M473.148 442.011c-.322 1.171-1.732 2.574-2.383 2.574h-.007c-1.582-.041-2.54-3.648-2.533-6.223.021-3.978 1.719-7.338 3.354-10.59 1.307-2.595 2.546-5.052 2.889-7.7.281-2.19.185-5.079-.288-8.591-1.02-7.511-4.106-14.932-5.859-18.688-2.409-5.161-5.633-8.249-9.043-11.521a.079.079 0 0 1-.027-.021c2.103.89 4.491 1.794 7.436 1.794.238 0 .485-.008.725-.021 4.71 8.111 7.256 19.728 9.502 29.981l.041.187c.945 4.306 2.238 10.191.856 14.053-.356.986-.993 1.917-1.663 2.917-.747 1.095-1.514 2.23-1.973 3.539-.466 1.321-.534 2.909-.596 4.449-.062 1.329-.116 2.704-.431 3.861z"/><path fill="#DFD5C6" d="M400.915 407.438c.837-5.39.604-10.148 3.171-12.591 2.656-2.511 5.909-4.595 8.933-5.715 1.813-.67 4.048-1.999 9.438-1.478.049.008.104-.023.153-.008 2.49 1.011 5.852 1.104 7.686 2.769 1.585 1.438 4.289-.148 5.341 2.028l.9.047c2.02-3.438.319-1.251 3.163-3.226.215-.148.43-.351.686-.498 4.844-2.792 10.323-.288 12.097.365 3.091 1.143 6.904 3.803 8.923 5.715 3.163 3.001 6.318 8.609 6.318 14.542-.008 3.872-.699 7.621-1.771 10.451-1.217 3.219-3.292 6.921-5.182 9.214-2.699 3.298-7.23 5.87-13.472 8.942-4.616 2.278-6.667 2.378-12.354 2.378-.713 0-1.446-.031-2.166-.102-3.812-.351-8.103-2.442-12.254-4.472-.512-.25-1.023-.498-1.529-.747-5.009-2.418-10.726-7.683-12.138-9.455-1.791-2.263-3.188-6.79-4.31-9.76-1.322-3.489-2.243-4.483-1.633-8.399z"/><path fill="#B89468" d="M402.456 394.605c1.748-2.655 4.141-4.989 6.479-7.267.79-.764 1.603-1.563 2.385-2.362 2.131-2.177 4.118-5.338 6.456-7.179 3.174-2.521 6.456-3.749 8.771-8.133.201-.378.431-.721.652-1.049.644-.949 1.311-1.927 1.233-3.776 2.47-.585 5.076-.878 7.751-.878 2.715 0 5.345.301 7.829.9.606 5.438 4.225 8.016 7.432 10.899l.688.621c.3.264.575.542.852.807.506.5 1.036.321 1.626.779.437.342.92 1.291 1.387 1.548.491.271.958 1.213 1.373 1.541.767.613 1.587 1.506 2.377 2.37.444.478.881.949 1.319 1.385l.604.606c2.669 2.677 5.621 5.625 7.952 8.779-7.499-4.989-19.943-8.001-33.638-8.001-13.977.002-26.191 3.107-33.528 8.41z"/><path fill="#B89468" d="M470.67 376.275l-.24.479c-.731 1.437-1.643 2.725-2.942 4.155-6.38-.391-12.246-3.225-17.436-8.434l-.431-.432c-.952-.951-1.938-1.938-2.554-2.807-1.267-1.78-2.751-4.278-2.807-5.483-.034-1.047 2.108-5.523 4.004-7.604.768-.849 1.149-.91 1.252-.91v-.556l2.681-.92c-5.949 11.273 17.704 18.184 20.193 17.627 1.931-.43-.912 3.318-1.72 4.885zM398.463 370.977c3.464 2.297 28.834-7.5 22.226-15.74.085-2.798 7.556 7.472 7.521 8.519-.059 1.205-1.645 3.703-2.997 5.483-.659.869-1.71 1.855-2.728 2.807l-.46.432c-5.541 5.209-11.806 8.043-18.619 8.434-1.39-1.431-2.361-2.719-3.145-4.155l-.256-.479c-.862-1.57-3.296-6.465-1.542-5.301zM414.682 381.255c-.425.364-.857.736-1.301 1.115-3.445 2.969-7.015 6.035-9.509 10.422-1.043 1.825-1.994 4.05-2.912 6.205l-.199.455c-2.335 5.475-5.547 12.983-4.389 21.308.427 3.088 2.07 5.776 3.655 8.366 1.877 3.067 3.812 6.231 3.953 10.239.076 2.309-.843 6.525-3.021 6.709-.95 0-2.584-1.459-2.977-2.646-.375-1.172-.468-2.583-.551-3.943-.092-1.529-.183-3.103-.699-4.4-.602-1.521-1.527-2.702-2.419-3.853-1.227-1.572-2.386-3.062-2.679-5.35-.482-3.74.686-8.225 1.619-11.824l.142-.533c2.993-11.561 4.761-22.591 10.216-30.586 3.938.063 8.434-.702 11.071-1.684z"/><path fill="#DFD5C6" d="M474.949 396.027c-.348-1.075-.7-2.184-1.165-3.177.759-.716 1.388-1.656 2.002-2.574 1.06-1.582 2.062-3.08 3.586-3.328 3.415 2.944 4.422 14.524 2.197 18.778-.302.58-1.112.799-1.359.852-.354-.014-.603.248-.99-.444-.457-.812-1.014-.444-2.072-.589-.366-2.349-2.191-9.494-2.199-9.518zM394.688 402.807c-1.22.145-1.86 1.146-2.387 1.958-.444.692-.73 1.115-1.139 1.129-.286-.053-1.219-.954-1.565-1.534-2.561-4.254-1.399-17.205 2.529-20.148 1.755.248 2.907 1.746 4.126 3.328.708.918 1.431 1.859 2.305 2.575-.534.994-.94 2.101-1.34 3.177-.008.02-2.109 7.166-2.529 9.515z"/><path fill="#4F3D28" d="M451.081 356.356l.134-.085.176.006c-.421 1.203.135 2.847.476 3.536 1.385 2.798 4.751 5.071 7.861 6.925 3.832 2.285 7.689 4.348 12.755 4.509.188.005.38.005.57.007l-.017 1.057a20.52 20.52 0 0 1-1.643.017c-5.066-.162-8.925-2.226-12.756-4.509-3.11-1.854-6.478-4.128-7.861-6.925-.455-.92-1.286-3.525.305-4.538z"/><path fill="#4F3D28" d="M453.909 357.326c-.196 2.071 1.18 3.657 2.322 4.799 2.327 2.338 4.913 4.108 8.135 5.622 1.438.679 3.427 1.737 4.935.334.053-1.748-1.101-3.384-2.179-4.464-1.259-1.264-3.56-2.561-5.517-3.641-2.444-1.348-5.025-2.862-7.696-2.65z"/><path fill="#4F3D28" d="M484.816 388.565c-1.044-2.973-2.397-6.028-4.535-6.152-1.42-.076-3.079 1.025-4.025 1.972-.578.579-1 1.289-1.406 1.976-.486.819-.951 1.602-1.646 2.117a98.816 98.816 0 0 0-1.464-2.788c-.438-.812-.889-1.646-1.316-2.493 2.246-2.943 4.959-6.584 5.127-10.792.165-4.092-2.147-6.533-4.188-8.688l-.465-.493c-3.761-4.016-7.306-7.094-12.395-9.064-2.12-.82-5.14-1.698-7.253-1.698-.586 0-1.094.067-1.507.199-1.833.587-3.206 3.148-4.419 5.409-.447.833-.875 1.629-1.273 2.227-2.045-.799-4.802-1.235-7.826-1.235-3 0-5.891.443-8.021 1.223a71.119 71.119 0 0 1-.612-1.175c-1.337-2.599-3.002-5.832-5.455-6.456a4.35 4.35 0 0 0-1.07-.114c-2.2 0-5.726 1.047-7.525 1.791a28.485 28.485 0 0 0-6.657 3.875c-2.891 2.259-8.905 6.956-9.932 11.738-1.005 4.691 1.384 8.122 3.492 11.146.526.756 1.027 1.476 1.475 2.201-.514.824-.968 1.716-1.408 2.581-.448.884-.912 1.794-1.432 2.609-.615-.524-1.047-1.252-1.501-2.017-.426-.716-.866-1.457-1.488-2.079-.811-.812-2.757-2.231-4.368-1.967-1.453.24-2.823 2.251-4.189 6.147-1.481 4.225-2.03 10.971-.126 15.154.713 1.57 2.55 4.082 4.291 3.954 1.009-.076 1.528-.811 1.932-1.458-.346 1.858-.827 3.659-1.331 5.541-1.188 4.449-2.418 9.05-1.745 14.621.279 2.314 1.357 3.983 2.4 5.596.726 1.127 1.413 2.188 1.838 3.452.375 1.118.446 2.595.515 4.024.068 1.405.138 2.859.496 4.062.529 1.782 2.695 4.409 4.767 4.192.778-.078 1.498-.533 2.139-1.356 1.527-1.961 2.435-5.907 2.114-9.18-.31-3.15-1.723-5.925-3.088-8.606-1.405-2.76-2.859-5.61-3.155-8.924-.229-2.519.056-5.17.468-7.539.282 1.5.62 3.08 1.124 4.481 2.321 6.446 8.033 13.89 13.287 17.312 4.916 3.204 12.449 7.168 20.424 7.857 1.61.14 2.954.138 4.447-.001 7.715-.71 15.807-4.157 22.784-9.704 6.036-4.8 10.388-11.791 12.23-19.523.42 2.895.804 5.842.294 8.204-.559 2.607-1.758 5.041-2.915 7.394-1.424 2.893-2.895 5.881-3.193 9.219-.195 2.145.129 4.625.861 6.632.83 2.274 2.034 3.602 3.39 3.735.078.008.155.012.233.012 2.004 0 4.024-2.489 4.534-4.204.361-1.214.422-2.685.48-4.104.062-1.477.125-2.999.526-4.142.438-1.242 1.109-2.263 1.821-3.344 1.062-1.612 2.158-3.281 2.42-5.718.597-5.541-.596-10.093-1.751-14.497-.459-1.755-.931-3.555-1.281-5.402.399.65.937 1.353 2.09 1.369 1.58 0 3.343-2.312 4.09-3.955 2.009-4.424 1.343-10.956-.128-15.154zm-10.301 54.128c-.319 1.17-1.73 2.576-2.383 2.576h-.001c-1.585-.041-2.545-3.651-2.532-6.224.02-3.979 1.714-7.338 3.352-10.587 1.311-2.6 2.548-5.057 2.89-7.702.282-2.188.185-5.078-.291-8.589-1.016-7.511-4.105-14.937-5.858-18.694-2.407-5.158-5.631-8.248-9.043-11.518a.19.19 0 0 1-.025-.023c2.104.893 4.489 1.794 7.436 1.794.241 0 .484-.007.729-.02 4.704 8.115 7.25 19.728 9.499 29.987l.042.185c.944 4.302 2.238 10.193.851 14.051-.353.982-.986 1.919-1.66 2.912-.743 1.1-1.513 2.234-1.972 3.543-.463 1.322-.532 2.912-.597 4.449-.062 1.332-.12 2.708-.437 3.86zM401.71 405.73c.827-4.742 3.563-8.934 6.109-11.081 2.624-2.213 5.843-4.047 8.832-5.031 1.793-.589 4.006-1.761 9.338-1.301.049.006.104-.025.153-.007 2.463.887 3.755 1.569 5.566 3.038 1.568 1.269 2.891 2.883 3.931 4.797l.415.766.479-.724c1.998-3.024 3.703-4.714 6.516-6.456.209-.129.421-.311.675-.44 4.79-2.456 10.213-.252 11.97.326 3.055 1.005 6.83 3.344 8.832 5.031 3.126 2.639 6.247 7.574 6.245 12.8-.003 3.41-.69 6.708-1.75 9.201-1.203 2.83-3.263 6.089-5.125 8.109-2.675 2.902-7.156 6.931-13.332 9.632-4.564 2.002-9.564 3.854-15.187 3.854-.71 0-1.431-.029-2.143-.087-3.776-.311-8.022-2.154-12.128-3.938-.506-.219-1.009-.438-1.51-.653-4.955-2.132-9.894-7.399-11.288-8.965-1.776-1.991-3.875-5.336-4.986-7.95-1.306-3.078-2.212-7.472-1.612-10.921zm4.349-13.805c1.558-2.547 3.695-4.785 5.779-6.967.705-.738 1.436-1.501 2.131-2.266a60.543 60.543 0 0 1 5.762-5.577c2.836-2.411 5.768-4.904 7.834-9.11.179-.362.385-.688.584-1.004.574-.911 1.169-1.853 1.103-3.622a27.995 27.995 0 0 1 6.921-.845c2.417 0 4.768.29 6.987.862.541 5.219 3.772 8.345 6.633 11.11l.617.599c.263.256.511.518.756.774.454.475.923.964 1.456 1.404.39.323.821.579 1.238.827.438.259.854.504 1.222.821.685.59 1.418 1.443 2.126 2.268.395.46.787.917 1.172 1.33l.542.583c2.387 2.565 5.019 5.394 7.104 8.423-6.7-4.788-17.808-7.676-30.03-7.676-12.482.001-23.39 2.977-29.937 8.066zm65.981-15.649l-.243.477c-.727 1.438-1.638 2.729-2.94 4.156-6.383-.389-12.246-3.227-17.434-8.435l-.432-.433c-.953-.951-1.939-1.935-2.559-2.806-1.263-1.775-2.752-4.275-2.801-5.479-.04-1.048 2.104-5.528 4-7.607.771-.846 1.153-.911 1.252-.911v-.554l.008.554c6.733.281 12.603 3.202 17.944 8.932l.464.494c1.635 1.736 3.874 4.114 4.183 6.311.278 1.961-.636 3.735-1.442 5.301zm-51.352-21.04c2.032 0 2.941 1.684 4.093 3.813l.111.21c.08.146.171.309.268.481.636 1.146 1.599 2.877 1.552 4.016-.05 1.271-1.614 3.831-2.938 5.638-1.446 1.972-4.197 4.739-6.132 6.171-4.382 3.242-9.142 5.039-14.149 5.344-1.185-1.311-2.101-2.49-2.943-4.156l-.159-.316c-.814-1.604-1.739-3.424-1.524-5.312.257-2.25 2.715-4.886 4.511-6.809l.135-.146c5.438-5.83 11.021-8.752 17.066-8.932l.109-.002zm-9.158 26.814c-.35.361-.704.724-1.065 1.093-2.829 2.893-5.754 5.884-7.807 10.162-.854 1.78-1.634 3.953-2.39 6.054l-.158.441c-1.92 5.345-4.553 12.667-3.604 20.785.353 3.015 1.699 5.631 3.002 8.161 1.538 2.987 3.128 6.076 3.239 9.982.063 2.254-.692 6.367-2.475 6.546-.778 0-2.126-1.425-2.444-2.582-.312-1.139-.382-2.516-.451-3.848-.076-1.488-.154-3.026-.575-4.289-.495-1.482-1.252-2.639-1.983-3.756-1.008-1.538-1.958-2.99-2.201-5.22-.397-3.647.56-8.021 1.329-11.536l.113-.517c2.456-11.272 5.035-22.037 9.508-29.833 3.234.062 5.8-.679 7.962-1.643zm66.747 11.727c.645.06 1.579.482 2.05.97.411.429.35.916 1.02 1.154l.665.236.035-.737c.046-1.003-.241-1.877-.832-2.528-.677-.748-1.75-1.178-2.945-1.178-1.358 0-1.882.575-2.761 1.812-.008-.018-.013-.036-.02-.054-.364-.979-.736-1.987-1.217-2.889.79-.652 1.448-1.509 2.091-2.34 1.107-1.439 2.158-2.802 3.753-3.026 3.571 2.675 4.625 14.447 2.302 18.316-.317.527-1.168 1.35-1.427 1.396-.367-.011-.632-.396-1.036-1.024-.475-.74-1.059-1.648-2.167-1.778-.385-2.141-.951-4.062-1.596-6.129.949-1.298.809-2.313 2.085-2.201zm-80.583-2.395c-.307.661-.618 1.336-.862 2.099-.9-1.083-1.31-1.788-2.838-1.788-2.1 0-3.567 1.319-3.836 3.443l-.072.575.548.052c.061.006.119.009.175.009h.001c.846-1.604 1.524-1.92 2.077-1.996 3.74-.511 3.14 1.961 3.263 2.092a90.128 90.128 0 0 1-.476 1.688c-.413 1.436-.84 2.914-1.123 4.551-1.118.131-1.701 1.057-2.177 1.812-.31.491-.602.955-.924.994-.3 0-1.155-.784-1.525-1.397-2.607-4.348-.893-15.374 2.076-18.331 1.692.082 2.708 1.411 3.78 2.816.689.904 1.399 1.834 2.322 2.476-.128.299-.266.597-.409.905z"/><g fill="#4F3D28"><path d="M451.905 397.36l-.054-.018-.056.008c-1.925.27-2.737 3.546-2.543 6.643.136 2.156.813 4.462 2.306 4.462a.802.802 0 0 0 .11-.006c1.057-.084 1.795-1.468 2.027-3.797.266-2.673-.218-6.807-1.79-7.292zM421.227 397.36l-.054-.018-.055.008c-1.926.27-2.737 3.546-2.543 6.643.135 2.156.812 4.462 2.305 4.462a.835.835 0 0 0 .111-.006c1.056-.084 1.794-1.468 2.024-3.797.268-2.673-.217-6.807-1.788-7.292z"/></g><path fill="#4F3D28" d="M421.573 356.356l-.133-.085-.177.006c.421 1.203-.134 2.847-.476 3.536-1.384 2.798-4.751 5.071-7.862 6.925-3.831 2.285-7.688 4.348-12.755 4.509-.188.005-.379.005-.57.007l.018 1.057a20.52 20.52 0 0 0 1.643.017c5.066-.162 8.924-2.226 12.755-4.509 3.111-1.854 6.479-4.128 7.862-6.925.454-.92 1.287-3.525-.305-4.538z"/><path fill="#4F3D28" d="M418.737 357.326c.195 2.071-1.18 3.657-2.322 4.799-2.327 2.338-4.914 4.108-8.135 5.622-1.439.679-3.429 1.737-4.936.334-.053-1.748 1.101-3.384 2.18-4.464 1.259-1.264 3.56-2.561 5.517-3.641 2.444-1.348 5.025-2.862 7.696-2.65z"/></svg>