<?xml version="1.0" encoding="utf-8"?>
<!-- Generator: Adobe Illustrator 16.0.4, SVG Export Plug-In . SVG Version: 6.00 Build 0)  -->
<!DOCTYPE svg PUBLIC "-//W3C//DTD SVG 1.1//EN" "http://www.w3.org/Graphics/SVG/1.1/DTD/svg11.dtd">
<svg version="1.1" id="Layer_1" xmlns="http://www.w3.org/2000/svg" xmlns:xlink="http://www.w3.org/1999/xlink" x="0px" y="0px"
	 width="700.316px" height="156.697px" viewBox="0 0 700.316 156.697" enable-background="new 0 0 700.316 156.697"
	 xml:space="preserve">
<g>
	<path fill="#A19C91" d="M65.212,112.767c-1.301,0.354-1.986,0.432-2.338,0.432c-1.729,0-3.01-0.791-4.065-2.553
		c-1.964-2.943-2.963-8.979-2.963-17.881l0.803-18.5c0-9.866-1.272-18.085-3.79-24.433c-3.116-7.851-9.457-11.832-18.844-11.832
		c-6.52,0-12.561,3.279-17.959,9.748C10.81,54.026,6.784,61.807,4.07,70.874C1.371,79.89,0,88.638,0,96.869
		c0,8.348,1.28,14.819,3.799,19.244c2.674,4.694,6.529,7.073,11.459,7.073c4.568,0,8.656-0.799,12.138-2.367
		c6.229-2.76,12.41-9.663,18.837-21.059c0.181,1.303,0.379,2.83,0.599,4.582c0.543,4.44,1.441,8.21,2.653,11.176
		c1.703,4.388,5.338,6.707,10.505,6.707c7.5,0,11.762-2.285,12.664-6.789l0.171-0.848l-0.655-0.561
		C70.3,112.435,67.888,112.007,65.212,112.767 M31.851,49.753c3.043,0,5.428,1.084,7.275,3.307
		c2.976,3.668,4.481,8.428,4.481,14.146c0,9.134-2.646,19.164-7.866,29.816c-5.052,10.307-10.219,15.533-15.354,15.533
		c-2.133,0-3.835-1.176-5.225-3.594c-1.519-2.645-2.292-5.878-2.292-9.609c0-3.929,0.375-8.496,1.107-13.582
		c0.738-5.113,1.859-10.62,3.339-16.357c1.439-5.625,3.553-10.425,6.271-14.266C26.153,51.518,28.856,49.753,31.851,49.753"/>
	<path fill="#A19C91" d="M135.026,96.685c-3.713,0-7.552,2.537-11.688,7.715c-1.349,1.543-3.631,3.031-6.784,4.437
		c-3.158,1.407-7.355,2.118-12.474,2.118c-5.014,0-9.229-1.604-12.883-4.912c-3.614-3.266-5.369-7.784-5.369-13.82
		c0-0.381,0.035-1.144,0.168-2.649c2.829,0.393,5.351,0.59,7.502,0.59c9.574,0,18.736-3.14,27.239-9.34
		c8.646-6.303,13.029-14.442,13.029-24.194c0-5.518-2.188-9.783-6.501-12.684c-4.135-2.771-9.586-4.178-16.21-4.178
		c-6.705,0-13.348,2.906-19.739,8.633c-6.283,5.628-11.156,12.493-14.483,20.406c-3.32,7.892-5.007,16.148-5.007,24.539
		c0,8.636,2.892,15.56,8.593,20.584c5.648,4.979,12.476,7.5,20.293,7.5c10.812,0,19.944-2.258,27.148-6.717
		c7.325-4.526,11.624-9.68,12.771-15.303l0.245-1.201l-1.137-0.455C137.972,97.041,136.382,96.685,135.026,96.685 M110.011,48.63
		c2.615,0,4.854,0.94,6.833,2.871c1.969,1.922,2.925,4.072,2.925,6.567c0,2.651-0.791,5.677-2.349,8.992
		c-1.557,3.313-4.251,6.536-8.012,9.586c-3.67,2.979-7.892,4.486-12.545,4.486c-2.463,0-5.683-0.378-9.581-1.115
		c1.917-7.211,4.991-14.275,9.149-21.021C100.667,52.12,105.235,48.63,110.011,48.63"/>
	<path fill="#A19C91" d="M187.165,39.442c-4.315,0-8.394,1.424-12.108,4.225c-3.646,2.75-6.624,6.461-8.851,11.024
		c-2.366,4.8-4.306,9.858-5.807,15.125c-0.078-2.636-0.155-5.71-0.229-9.215c-0.219-10.731-0.539-17.5-0.977-20.691l-0.127-0.93
		l-0.898-0.274c-1.526-0.468-3.266-0.707-5.16-0.707c-2.138,0-4.175,0.887-6.052,2.643l-0.521,0.486l0.062,0.711
		c0.216,2.49,0.941,13.055,2.162,31.396c1.224,18.45,3.04,34.104,5.396,46.514l0.161,0.867l0.847,0.264
		c1.52,0.469,3.041,0.705,4.521,0.705c1.629,0,3.257-0.545,4.833-1.613c1.758-1.193,2.649-3.248,2.647-6.185l-0.48-9.062
		c0-15.986,2.609-30.526,7.753-43.235c3.161-8,6.855-12.058,10.981-12.058c1.396,0,2.457,0.418,3.242,1.283
		c0.901,0.994,1.473,2.061,1.736,3.256c0.364,1.637,1.04,3.143,2.012,4.475c1.123,1.551,2.781,2.37,4.796,2.37
		c1.759,0,3.394-0.341,4.857-1.015c2.301-1.053,2.78-2.659,2.78-3.818c0-3.307-1.783-6.807-5.449-10.707
		C195.657,41.404,191.573,39.442,187.165,39.442"/>
	<path fill="#A19C91" d="M238.662,39.923c-10.745,0-19.062,4.434-24.724,13.181c-5.527,8.538-8.332,19.97-8.332,33.985
		c0,10.879,2.484,19.473,7.38,25.53c4.975,6.163,12.964,9.284,23.752,9.284c10.751,0,19.746-3.883,26.736-11.543
		c6.956-7.617,10.481-17.041,10.481-28.006c0-10.902-3.194-20.771-9.504-29.329C258.045,44.333,249.367,39.923,238.662,39.923
		 M260.281,84.042c0,7.947-2.34,14.809-6.957,20.391c-4.616,5.575-10.146,8.286-16.906,8.286c-3.228,0-6.033-0.759-8.343-2.25
		c-2.312-1.489-4.073-3.551-5.233-6.106c-1.229-2.711-2.104-5.508-2.616-8.314c-0.516-2.832-0.778-6.037-0.778-9.518
		c0-3.486,0.345-7.314,1.024-11.383c0.673-4.058,1.731-8.212,3.146-12.354c1.357-3.967,3.408-7.244,6.104-9.738
		c2.627-2.434,5.605-3.618,9.1-3.618c5.896,0,10.803,3.61,14.999,11.04C258.108,68.072,260.281,76.002,260.281,84.042"/>
	<path fill="#A19C91" d="M339.624,92.994c-3.296,0-6.721,2.394-10.486,7.347c-1.378,1.897-2.864,3.812-4.419,5.674
		c-3.588,4.188-8.257,6.221-14.274,6.221c-5.129,0-9.073-1.881-12.064-5.758c-3.043-3.938-4.582-8.709-4.582-14.175
		c0-5.688,0.794-11.853,2.36-18.333c1.561-6.449,4.035-12.428,7.357-17.772c3.128-5.037,6.564-7.798,10.212-8.205
		c2.605,0.014,4.698,0.762,6.399,2.275c1.784,1.587,3.021,3.33,3.688,5.172c0.784,2.193,1.842,4.251,3.142,6.113
		c1.492,2.144,3.601,3.274,6.097,3.274c2.426,0,4.821-1.17,7.132-3.475l0.694-0.697l-0.38-0.909
		c-2.516-6.009-5.604-11.033-9.171-14.935c-3.75-4.095-8.729-6.168-14.793-6.168c-5.963,0-11.438,1.854-16.271,5.506
		c-4.761,3.595-8.573,8.219-11.342,13.761c-5.418,11.156-8.16,22.484-8.16,33.667c0,8.896,2.58,16.265,7.67,21.909
		c5.13,5.692,12.212,8.58,21.053,8.58c8.776,0,17.013-3.39,24.468-10.073c7.613-6.823,11.312-12.293,11.312-16.728v-1.101
		l-1.054-0.312C342.229,93.276,340.73,92.994,339.624,92.994"/>
	<path fill="#A19C91" d="M425.492,110.817c-1.346,0-3.463,0.438-6.521,1.357c-1.815,0.604-2.481,0.811-2.729,0.881
		c-1.535-0.133-4.34-2.551-5.781-25.1c-0.432-6.975-0.971-13.999-1.606-20.89c-0.654-7.096-2.3-13.238-4.886-18.252
		c-2.772-5.369-6.805-8.092-11.971-8.092c-10.932,0-19.225,8.97-24.742,26.713c0.479-10.775,0.719-18.105,0.719-21.878
		c0-17.938-0.813-32.843-2.416-44.295l-0.18-1.265h-1.279c-4.307,0-7.6,0.989-9.791,2.935l-0.71,0.635l0.283,0.905
		c0.594,1.882,0.896,5.561,0.896,10.913l-1.445,71.859c0,29.271,3.578,33.218,7.08,33.218c3.188,0,5.771-3.76,8.381-12.178
		c2.307-7.453,4.285-15.793,5.896-24.788c1.575-8.844,3.789-17.035,6.577-24.349c2.546-6.668,5.312-10.199,8.011-10.199
		c1.996,0,3.512,2.077,4.504,6.175c1.146,4.746,1.86,10.584,2.127,17.35c0.262,6.865,0.695,13.874,1.287,20.831
		c0.666,7.918,2.42,15.111,4.807,19.733c2.771,5.364,5.258,8.087,10.539,8.087c3.008,0,6.316-0.941,9.832-2.812
		c3.971-2.119,5.748-3.879,5.748-5.705v-0.533l-0.346-0.408C427.068,110.817,425.883,110.817,425.492,110.817"/>
	<path fill="#A19C91" d="M441.957,41.527c-1.104,0-2.686,0.425-3.949,2.417c-1.479,2.223-3.451,8.479-3.451,37.05
		c0,10.71,0.271,23.137,0.804,36.937l0.032,0.868l0.777,0.392c1.479,0.74,2.971,1.115,4.426,1.115c1.604,0,3.291-0.81,5.004-2.396
		c1.773-1.641,2.638-4.273,2.638-8.062l-0.322-35.42c0-10.626,0.271-20.581,0.801-29.577l0.06-0.985l-0.894-0.428
		C445.156,42.134,443.273,41.527,441.957,41.527"/>
	<path fill="#A19C91" d="M600.75,39.124c-13.494,0-22.895,5.517-27.943,16.397c-2.397,5.12-4.11,10.698-5.088,16.571
		c-0.973,5.824-1.465,12.78-1.465,20.688c0,7.871,0.729,19.328,2.172,34.052c1.433,14.644,2.211,24.153,2.316,28.276l0.031,1.213
		l1.196,0.197c0.738,0.121,1.396,0.178,2.004,0.178c3.164,0,5.941-1.166,8.25-3.473l0.505-0.502l-0.08-0.707
		c-1.646-14.273-2.685-25.753-3.097-34.178c4.152,1.741,9.113,2.624,14.781,2.624c10.982,0,19.715-3.681,25.967-10.935
		c6.193-7.188,9.336-15.657,9.336-25.17c0-11.857-2.66-22.414-7.899-31.365C616.348,43.788,609.285,39.124,600.75,39.124
		 M597.061,109.51c-3.176,0-9.219-0.935-17.977-2.776c-0.078-2.406-0.117-5.824-0.117-10.187c0-13.891,1.271-24.907,3.777-32.743
		c2.803-8.809,8.272-13.088,16.723-13.088c4.98,0,8.822,3.024,11.738,9.254c3.045,6.512,4.59,15.043,4.59,25.354
		c0,6.81-1.738,12.642-5.168,17.329C607.252,107.271,602.818,109.51,597.061,109.51"/>
	<path fill="#A19C91" d="M694.959,85.295c-3.416-3.188-7.637-5.519-12.547-6.915c-4.719-1.339-9.453-2.608-14.066-3.776
		c-4.455-1.125-8.283-2.806-11.377-4.988c-2.873-2.022-4.271-4.7-4.271-8.183c0-3.467,1.492-6.163,4.565-8.242
		c3.211-2.172,6.683-3.275,10.316-3.275c3.697,0,6.813,0.646,9.268,1.92c2.367,1.23,3.924,2.869,4.715,4.869
		c0.125,0.432,0.285,1.35,0.351,3.254c0.062,2.041,0.504,3.477,1.344,4.391c0.892,0.968,2.422,1.441,4.691,1.441
		c6.994,0,8.039-4.539,8.039-7.242c0-6.276-2.625-11.143-7.812-14.463c-4.977-3.186-10.608-4.803-16.742-4.803
		c-8.926,0-16.539,2.139-22.643,6.354c-6.271,4.334-9.449,10.082-9.449,17.082c0,5.406,1.789,9.937,5.316,13.463
		c3.42,3.422,7.646,5.895,12.567,7.346c4.683,1.385,9.425,2.684,14.084,3.863c4.479,1.135,8.334,2.69,11.445,4.631
		c2.826,1.765,4.201,3.978,4.201,6.771c0,4.88-2.246,8.33-6.842,10.531c-2.574,1.189-5.713,1.787-9.328,1.787
		c-6.812,0-13.586-2.438-20.115-7.234c-2.533-1.926-4.604-2.861-6.34-2.861c-7.043,0-8.521,3.062-8.521,5.637
		c0,4.488,4.234,8.089,12.943,11.013c8.072,2.707,14.732,4.084,19.789,4.084c8.58,0,16.047-1.966,22.188-5.838
		c6.359-4.011,9.584-9.931,9.584-17.599C700.316,92.994,698.518,88.615,694.959,85.295"/>
	<path fill="#A19C91" d="M561.246,111.666c-0.633-0.849-1.689-0.849-2.039-0.849c-1.201,0-3.092,0.438-5.816,1.357
		c-1.621,0.604-2.217,0.811-2.436,0.881c-1.131-0.108-4.248,1.383-4.031-15.146c0.217-16.526,0.006-5.152,0.006-5.825l0.479-24.396
		c0-7.624-1.178-15.088-3.154-19.976c-2.27-5.611-6.229-8.457-11.781-8.457c-7.062,0-15.817,3.967-20.521,21.216
		c-0.746-4.847-1.998-9.038-3.738-12.523c-3.09-6.177-7.817-9.309-14.061-9.309c-4.945,0-9.324,2.399-13.006,7.116
		c-1.482,1.826-2.857,4.418-4.082,7.709c-1.188,3.17-2.359,7.022-3.492,11.451c-0.09,0.354-0.183,0.729-0.271,1.127
		c-0.229-17.144-1.557-17.143-3.203-17.143c-3.948,0-6.69,1.207-8.146,3.588l-0.215,0.354v0.414c0,26.339,0.756,48.714,2.25,66.503
		l0.098,1.176l3.576,0.478l0.193,0.014c2.7,0,5.342-1.086,7.852-3.235l0.418-0.362l0.08-0.547c0.32-2.247,0.793-5.876,1.447-11.104
		c2.436-21.729,5.225-37.936,8.289-48.177c1.684-5.812,3.745-8.882,5.965-8.882c1.354,0,5.489,0,7.209,10.317
		c1.266,7.574,1.932,17.934,1.985,30.791c0.056,13.604,0.601,24.092,1.543,29.531l0.138,0.783l0.729,0.314
		c0.929,0.396,1.931,0.598,3.029,0.598h0.012c3.158-0.121,5.818-1.299,7.902-3.506l0.371-0.391l0.028-0.537
		c0.787-14.41,2.968-30.25,6.14-44.603c4.875-22.05,8.412-23.166,9.069-23.166c1.599,0,2.646,1.732,3.113,5.146
		c0.527,3.851,0.871,9.636,0.873,14.793c0,0,0.086,17.957,0.551,28.724c0.463,10.77,0.974,13.484,2.681,17.188
		c2.473,5.367,5.653,6.029,10.366,6.029c2.687,0,5.638-0.943,8.773-2.814c3.545-2.118,5.129-3.879,5.129-5.705v-0.532
		L561.246,111.666z"/>
</g>
</svg>
