<svg xmlns="http://www.w3.org/2000/svg" width="146.109" height="139.153" viewBox="567.333 262.472 146.109 139.153"><path fill="#B89468" d="M694.374 393.29c-.471 1.71-2.53 3.76-3.479 3.76h-.011c-2.311-.06-3.71-5.33-3.7-9.09.03-5.81 2.511-10.72 4.9-15.47 1.909-3.79 3.72-7.38 4.22-11.25.41-3.2.271-7.42-.42-12.55-1.489-10.971-6-21.811-8.561-27.301-3.521-7.54-8.229-12.05-13.21-16.83-.021-.01-.029-.02-.04-.029 3.069 1.3 6.561 2.62 10.859 2.62.351 0 .71-.011 1.061-.03 6.881 11.85 10.601 28.82 13.881 43.8l.06.271c1.381 6.29 3.271 14.89 1.25 20.529-.521 1.44-1.449 2.8-2.43 4.261-1.091 1.6-2.21 3.26-2.88 5.17-.681 1.93-.78 4.25-.87 6.5-.091 1.939-.17 3.949-.63 5.639z"/><path fill="#DFD5C6" d="M587.469 334.781c1.225-7.872 2.267-6.825 6.017-10.393 3.881-3.668 8.633-6.713 13.05-8.349 2.647-.979 5.912-2.92 13.786-2.159.07.013.151-.033.224-.011 3.639 1.477 8.549 1.612 11.229 4.044 2.314 2.102 6.265-.217 7.802 2.963l1.314.068c2.95-5.021.468-1.827 4.621-4.712.314-.216.628-.512 1.001-.728 7.075-4.078 15.081-.42 17.67.534 4.518 1.669 10.087 5.555 13.036 8.349 4.62 4.386 9.23 12.576 9.23 21.243-.013 5.657-1.022 11.133-2.589 15.268-1.778 4.703-4.811 10.11-7.57 13.461-3.942 4.817-10.562 7.497-19.679 11.984-6.743 3.328-13.122 2.396-21.432 2.396-1.042 0-.111-.046-1.164-.147-5.567-.512-11.836-3.568-17.9-6.532-.747-.364-1.494-.728-2.233-1.091-7.316-3.532-15.669-11.224-17.73-13.812-2.616-3.306-4.657-9.919-6.295-14.258-1.933-5.099-3.278-12.393-2.388-18.118z"/><path fill="#B89468" d="M591.104 324.038c2.554-3.879 6.049-7.289 9.466-10.615a182.26 182.26 0 0 0 3.482-3.452c3.112-3.18 6.016-7.797 9.432-10.487 4.637-3.682 9.432-5.477 12.812-11.88.293-.552.629-1.053.953-1.532.94-1.387 1.915-2.815 1.803-5.517 3.607-.855 7.416-1.282 11.324-1.282 3.965 0 7.807.438 11.437 1.314.886 7.945 6.172 11.71 10.854 15.923l1.008.907c.438.386.84.792 1.243 1.179.739.729 1.513.47 2.375 1.138.638.5 1.345 1.886 2.026 2.262.718.396 1.399 1.771 2.006 2.251 1.12.896 2.317 2.2 3.473 3.462.648.698 1.287 1.387 1.927 2.023l.885.886c3.897 3.91 8.211 8.217 11.615 12.826-10.955-7.289-29.135-11.689-49.14-11.689-20.42-.001-38.263 4.535-48.981 12.283z"/><path fill="#B89468" d="M690.754 297.26l-.351.7c-1.069 2.1-2.399 3.98-4.3 6.07-9.32-.57-17.891-4.71-25.471-12.32l-.63-.63c-1.391-1.39-2.83-2.83-3.729-4.1-1.851-2.601-4.021-6.25-4.101-8.011-.05-1.529 3.08-8.069 5.851-11.109 1.119-1.24 1.68-1.33 1.83-1.33v-.812l3.914-1.345c-8.689 16.47 25.862 26.563 29.502 25.75 2.819-.628-1.335 4.847-2.515 7.137zM585.271 289.52c5.061 3.355 42.122-10.957 32.467-22.994.125-4.087 11.039 10.915 10.985 12.444-.086 1.761-2.401 5.41-4.378 8.011-.962 1.27-2.499 2.71-3.983 4.1l-.672.63c-8.096 7.61-17.246 11.75-27.2 12.32-2.029-2.09-3.449-3.971-4.592-6.07l-.374-.7c-1.26-2.291-4.816-9.441-2.253-7.741zM608.964 304.534l-1.899 1.63c-5.032 4.336-10.248 8.816-13.892 15.225-1.522 2.666-2.913 5.916-4.254 9.064l-.291.665c-3.412 7.997-8.104 18.968-6.411 31.127.623 4.511 3.023 8.438 5.339 12.222 2.742 4.48 5.568 9.104 5.774 14.958.111 3.373-1.23 9.534-4.411 9.801-1.388 0-3.775-2.132-4.35-3.864-.548-1.713-.684-3.773-.805-5.763-.135-2.234-.268-4.531-1.021-6.428-.878-2.225-2.231-3.947-3.534-5.629-1.791-2.297-3.484-4.471-3.912-7.812-.706-5.465 1-12.016 2.365-17.274l.206-.78c4.374-16.886 6.955-33.002 14.925-44.681 5.751.092 12.319-1.026 16.171-2.461z"/><path fill="#DFD5C6" d="M697.005 326.115c-.506-1.571-1.021-3.188-1.701-4.641 1.109-1.046 2.027-2.42 2.925-3.762 1.549-2.311 3.013-4.499 5.239-4.861 4.988 4.301 6.46 21.219 3.21 27.434-.438.847-1.624 1.166-1.985 1.243-.518-.021-.882.362-1.445-.649-.668-1.188-1.481-.651-3.028-.86-.537-3.431-3.204-13.871-3.215-13.904zM579.754 336.019c-1.781.209-2.717 1.673-3.484 2.86-.649 1.012-1.068 1.629-1.663 1.649-.417-.077-1.78-1.396-2.286-2.243-3.74-6.215-2.046-25.133 3.693-29.434 2.563.362 4.247 2.551 6.028 4.861 1.033 1.342 2.09 2.716 3.366 3.762-.781 1.452-1.375 3.069-1.958 4.641-.012.033-3.081 10.473-3.696 13.904z"/><path fill="#4F3D28" d="M662.137 268.161l.195-.124.257.009c-.615 1.758.195 4.158.694 5.166 2.021 4.087 6.939 7.408 11.483 10.116 5.599 3.338 11.233 6.351 18.634 6.586.274.008.555.008.834.01l-.024 1.544c-.805.041-1.612.049-2.399.024-7.4-.237-13.037-3.251-18.634-6.587-4.545-2.709-9.463-6.029-11.484-10.116-.666-1.343-1.881-5.148.444-6.628z"/><path fill="#4F3D28" d="M666.275 269.582c-.286 3.025 1.723 5.343 3.392 7.01 3.4 3.416 7.179 6.001 11.885 8.213 2.103.992 5.007 2.538 7.209.488.077-2.554-1.606-4.944-3.184-6.522-1.839-1.846-5.2-3.741-8.061-5.318-3.568-1.968-7.338-4.18-11.241-3.871z"/><path fill="#4F3D28" d="M711.419 315.214c-1.525-4.342-3.502-8.807-6.625-8.987-2.075-.111-4.498 1.497-5.88 2.88-.845.847-1.46 1.884-2.055 2.886-.712 1.197-1.391 2.341-2.403 3.094a130.818 130.818 0 0 0-2.14-4.073c-.64-1.186-1.298-2.405-1.923-3.642 3.28-4.301 7.244-9.618 7.49-15.767.241-5.978-3.139-9.543-6.119-12.69l-.68-.721c-5.492-5.866-10.672-10.363-18.104-13.242-3.099-1.198-7.51-2.48-10.597-2.48-.855 0-1.599.099-2.202.291-2.677.857-4.684 4.6-6.456 7.902-.652 1.217-1.276 2.38-1.858 3.252-2.987-1.167-7.016-1.805-11.434-1.805-4.383 0-8.604.647-11.719 1.787-.29-.543-.588-1.12-.895-1.717-1.953-3.796-4.386-8.52-7.97-9.432-.43-.11-.957-.166-1.563-.166-3.213 0-8.362 1.529-10.992 2.615a41.57 41.57 0 0 0-9.726 5.662c-4.225 3.299-13.012 10.161-14.51 17.147-1.469 6.854 2.021 11.864 5.103 16.283.77 1.104 1.502 2.155 2.154 3.216-.752 1.204-1.414 2.506-2.058 3.77-.656 1.291-1.332 2.621-2.092 3.812-.898-.766-1.529-1.829-2.193-2.945-.623-1.047-1.266-2.13-2.174-3.038-1.184-1.187-4.026-3.26-6.381-2.873-2.123.351-4.125 3.288-6.121 8.98-2.164 6.171-2.965 16.027-.184 22.138 1.042 2.295 3.725 5.964 6.268 5.777 1.476-.111 2.233-1.185 2.822-2.13-.505 2.714-1.208 5.345-1.943 8.095-1.735 6.499-3.533 13.22-2.549 21.359.408 3.38 1.982 5.818 3.506 8.174 1.062 1.646 2.064 3.197 2.687 5.043.549 1.633.651 3.791.753 5.879.099 2.054.2 4.179.724 5.934.773 2.603 3.938 6.44 6.962 6.124 1.138-.112 2.188-.778 3.124-1.98 2.23-2.864 3.559-8.629 3.088-13.41-.451-4.602-2.516-8.654-4.512-12.572-2.053-4.032-4.176-8.198-4.609-13.036-.332-3.68.082-7.553.686-11.014.411 2.191.904 4.499 1.642 6.546 3.392 9.417 11.735 20.292 19.41 25.292 7.181 4.68 18.186 10.471 29.836 11.479 2.353.203 4.315.2 6.497-.002 11.271-1.037 23.092-6.073 33.283-14.177 8.817-7.011 15.176-17.225 17.868-28.521.613 4.227 1.173 8.533.431 11.984-.817 3.811-2.568 7.364-4.258 10.801-2.08 4.225-4.229 8.591-4.666 13.467-.284 3.133.188 6.756 1.26 9.688 1.213 3.321 2.971 5.26 4.95 5.457.114.012.228.018.342.018 2.928-.001 5.879-3.637 6.623-6.142.527-1.773.617-3.922.702-5.997.09-2.155.183-4.381.77-6.048.641-1.814 1.62-3.306 2.66-4.885 1.55-2.355 3.152-4.793 3.535-8.353.873-8.095-.87-14.744-2.558-21.178-.671-2.564-1.36-5.193-1.871-7.893.583.949 1.367 1.974 3.052 2 2.309 0 4.884-3.378 5.976-5.778 2.938-6.464 1.965-16.006-.184-22.138zm-15.049 79.073c-.468 1.709-2.529 3.764-3.481 3.764h-.002c-2.315-.059-3.718-5.334-3.699-9.091.027-5.813 2.503-10.72 4.896-15.466 1.915-3.798 3.723-7.387 4.222-11.252.412-3.198.269-7.419-.425-12.548-1.482-10.972-5.999-21.819-8.559-27.309-3.518-7.536-8.227-12.049-13.211-16.825a.612.612 0 0 1-.037-.035c3.076 1.305 6.558 2.621 10.862 2.621.353 0 .707-.01 1.062-.028 6.871 11.855 10.592 28.819 13.877 43.807l.062.27c1.379 6.284 3.27 14.891 1.242 20.526-.516 1.435-1.441 2.803-2.425 4.255-1.087 1.604-2.21 3.264-2.881 5.175-.677 1.932-.777 4.254-.872 6.499-.083 1.944-.167 3.954-.631 5.637zm-106.355-53.998c1.207-6.927 5.205-13.049 8.925-16.186 3.833-3.232 8.534-5.912 12.901-7.35 2.619-.861 5.853-2.573 13.643-1.9.071.008.152-.038.226-.011 3.598 1.296 5.484 2.293 8.131 4.438 2.291 1.853 4.224 4.211 5.742 7.008l.605 1.118.699-1.058c2.919-4.418 5.409-6.886 9.52-9.43.306-.188.616-.453.985-.643 6.997-3.588 14.919-.368 17.484.477 4.463 1.468 9.979 4.884 12.902 7.35 4.566 3.854 9.126 11.064 9.122 18.698-.003 4.981-1.009 9.8-2.557 13.441-1.757 4.134-4.765 8.895-7.485 11.849-3.906 4.239-10.454 10.123-19.477 14.07-6.668 2.924-13.973 5.628-22.185 5.628-1.037 0-2.09-.043-3.131-.127-5.517-.452-11.72-3.146-17.718-5.754-.737-.319-1.473-.642-2.205-.955-7.237-3.113-14.452-10.81-16.489-13.096-2.598-2.909-5.66-7.794-7.285-11.615-1.908-4.494-3.23-10.914-2.353-15.952zm6.352-20.168c2.273-3.721 5.397-6.99 8.441-10.177 1.029-1.079 2.097-2.192 3.113-3.311 2.779-3.049 5.373-5.562 8.416-8.147 4.144-3.521 8.426-7.164 11.445-13.308.262-.53.562-1.007.854-1.467.84-1.332 1.708-2.706 1.61-5.292 3.218-.819 6.614-1.234 10.11-1.234 3.529 0 6.964.424 10.208 1.26.79 7.624 5.512 12.191 9.688 16.231l.9.874c.384.374.747.756 1.104 1.131.663.693 1.35 1.409 2.126 2.053.569.472 1.199.846 1.81 1.207.642.379 1.248.737 1.784 1.2 1.002.862 2.071 2.108 3.105 3.313.577.672 1.15 1.339 1.712 1.942l.792.852c3.487 3.748 7.331 7.88 10.376 12.305-9.787-6.995-26.014-11.214-43.87-11.214-18.226.001-34.159 4.349-43.724 11.782zm96.388-22.86l-.354.696c-1.062 2.103-2.395 3.987-4.298 6.072-9.322-.568-17.889-4.713-25.466-12.321l-.632-.632c-1.392-1.39-2.832-2.826-3.736-4.1-1.845-2.593-4.021-6.245-4.092-8.004-.059-1.531 3.071-8.076 5.844-11.113 1.125-1.236 1.684-1.332 1.828-1.332v-.809l.014.809c9.836.412 18.408 4.679 26.213 13.049l.679.722c2.389 2.536 5.658 6.011 6.109 9.219.404 2.864-.931 5.457-2.109 7.744zm-75.018-30.736c2.969 0 4.297 2.459 5.979 5.57l.164.307c.117.215.249.451.39.704.93 1.673 2.336 4.202 2.269 5.866-.073 1.856-2.358 5.596-4.294 8.235-2.113 2.881-6.131 6.924-8.957 9.015-6.402 4.736-13.355 7.361-20.671 7.807-1.729-1.915-3.068-3.638-4.3-6.072l-.232-.461c-1.191-2.345-2.542-5.002-2.229-7.761.376-3.288 3.967-7.138 6.59-9.947l.197-.212c7.941-8.518 16.098-12.785 24.931-13.049l.163-.002zm-13.378 39.171c-.51.527-1.028 1.057-1.557 1.596-4.133 4.226-8.406 8.595-11.403 14.845-1.248 2.602-2.388 5.775-3.49 8.845l-.232.646c-2.806 7.808-6.648 18.504-5.265 30.364.514 4.403 2.48 8.226 4.386 11.922 2.246 4.364 4.57 8.876 4.732 14.584.094 3.292-1.013 9.302-3.615 9.562-1.137 0-3.105-2.081-3.57-3.771-.455-1.663-.559-3.674-.658-5.619-.109-2.176-.225-4.423-.84-6.266-.723-2.168-1.829-3.855-2.897-5.488-1.473-2.246-2.861-4.367-3.215-7.625-.581-5.328.817-11.718 1.94-16.852l.166-.755c3.588-16.468 7.355-32.193 13.889-43.58 4.722.083 8.47-1 11.629-2.408zm97.508 17.132c.94.087 2.307.704 2.994 1.417.601.626.512 1.337 1.489 1.686l.972.345.051-1.076c.067-1.465-.354-2.742-1.215-3.693-.988-1.094-2.558-1.721-4.302-1.721-1.985 0-2.75.84-4.034 2.646-.012-.026-.02-.053-.028-.079-.531-1.431-1.075-2.902-1.777-4.22 1.155-.953 2.117-2.204 3.056-3.418 1.619-2.104 3.151-4.093 5.482-4.422 5.217 3.908 6.756 21.105 3.363 26.758-.464.771-1.706 1.971-2.084 2.037-.536-.015-.924-.579-1.514-1.496-.694-1.082-1.546-2.41-3.165-2.599-.562-3.127-1.391-5.933-2.332-8.954 1.384-1.893 1.18-3.375 3.044-3.211zm-117.721-3.5c-.445.966-.901 1.951-1.26 3.066-1.314-1.582-1.913-2.612-4.146-2.612-3.066 0-5.211 1.928-5.604 5.029l-.104.841.801.076c.088.009.174.012.256.012h.002c1.233-2.343 2.228-2.805 3.034-2.915 5.464-.747 4.586 2.864 4.765 3.056-.224.831-.459 1.648-.692 2.465-.604 2.096-1.228 4.258-1.642 6.646-1.633.191-2.484 1.544-3.181 2.647-.452.719-.879 1.396-1.35 1.453-.438 0-1.688-1.146-2.229-2.042-3.811-6.351-1.304-22.459 3.033-26.778 2.472.119 3.955 2.062 5.521 4.114 1.009 1.32 2.046 2.68 3.395 3.616-.187.441-.389.877-.599 1.326z"/><g fill="#4F3D28"><path d="M663.341 328.062l-.077-.025-.082.013c-2.812.392-3.998 5.178-3.715 9.702.198 3.15 1.188 6.518 3.368 6.518.054 0 .108-.002.161-.008 1.544-.123 2.622-2.146 2.961-5.548.388-3.904-.319-9.944-2.616-10.652zM618.524 328.062l-.078-.025-.08.013c-2.814.392-3.999 5.178-3.715 9.702.196 3.15 1.186 6.518 3.366 6.518.056 0 .107-.002.162-.008 1.543-.123 2.621-2.146 2.959-5.548.39-3.904-.318-9.944-2.614-10.652z"/></g><path fill="#4F3D28" d="M619.03 268.161l-.194-.124-.257.009c.615 1.758-.195 4.158-.694 5.166-2.021 4.087-6.939 7.408-11.484 10.116-5.597 3.338-11.232 6.351-18.633 6.586-.274.008-.555.008-.834.01l.024 1.544c.805.041 1.612.049 2.4.024 7.399-.237 13.037-3.251 18.633-6.587 4.545-2.709 9.463-6.029 11.485-10.116.664-1.343 1.879-5.148-.446-6.628z"/><path fill="#4F3D28" d="M614.896 269.582c.285 3.025-1.724 5.343-3.393 7.01-3.4 3.416-7.178 6.001-11.884 8.213-2.103.992-5.007 2.538-7.209.488-.077-2.554 1.606-4.944 3.184-6.522 1.839-1.846 5.2-3.741 8.06-5.318 3.569-1.968 7.34-4.18 11.242-3.871z"/></svg>