<?xml version="1.0" encoding="utf-8"?>
<!-- Generator: Adobe Illustrator 16.0.0, SVG Export Plug-In . SVG Version: 6.00 Build 0)  -->
<!DOCTYPE svg PUBLIC "-//W3C//DTD SVG 1.1//EN" "http://www.w3.org/Graphics/SVG/1.1/DTD/svg11.dtd">
<svg version="1.1" id="Layer_1" xmlns="http://www.w3.org/2000/svg" xmlns:xlink="http://www.w3.org/1999/xlink" x="0px" y="0px"
	 width="1280px" height="800px" viewBox="0 0 1280 800" enable-background="new 0 0 1280 800" xml:space="preserve">
<g>
	<path d="M355.391,434.658c-1.301,0.357-1.988,0.432-2.338,0.432c-1.729,0-3.01-0.791-4.067-2.552
		c-1.964-2.944-2.963-8.979-2.963-17.882l0.803-18.5c0-9.866-1.272-18.085-3.79-24.433c-3.116-7.85-9.457-11.832-18.844-11.832
		c-6.518,0-12.559,3.28-17.959,9.748c-5.244,6.28-9.272,14.06-11.986,23.127c-2.699,9.016-4.069,17.763-4.069,25.996
		c0,8.346,1.28,14.82,3.799,19.244c2.674,4.694,6.529,7.074,11.459,7.074c4.568,0,8.656-0.799,12.138-2.368
		c6.229-2.759,12.41-9.663,18.837-21.058c0.181,1.302,0.379,2.83,0.599,4.582c0.543,4.442,1.441,8.21,2.653,11.176
		c1.703,4.387,5.338,6.707,10.505,6.707c7.5,0,11.762-2.286,12.664-6.79l0.171-0.847l-0.655-0.559
		C360.479,434.326,358.066,433.899,355.391,434.658 M322.029,371.646c3.043,0,5.428,1.084,7.277,3.306
		c2.974,3.668,4.481,8.428,4.481,14.147c0,9.133-2.646,19.164-7.866,29.817c-5.052,10.306-10.219,15.532-15.355,15.532
		c-2.131,0-3.835-1.175-5.223-3.593c-1.519-2.642-2.292-5.876-2.292-9.61c0-3.928,0.375-8.496,1.107-13.581
		c0.738-5.114,1.861-10.62,3.339-16.358c1.441-5.625,3.553-10.425,6.271-14.266C316.331,373.41,319.034,371.646,322.029,371.646"/>
	<path d="M425.204,418.577c-3.713,0-7.552,2.536-11.688,7.714c-1.349,1.543-3.631,3.031-6.786,4.437
		c-3.158,1.407-7.355,2.118-12.472,2.118c-5.014,0-9.229-1.606-12.883-4.912c-3.614-3.265-5.369-7.786-5.369-13.822
		c0-0.381,0.035-1.142,0.168-2.65c2.829,0.391,5.349,0.59,7.502,0.59c9.574,0,18.736-3.139,27.239-9.34
		c8.646-6.303,13.029-14.443,13.029-24.195c0-5.517-2.187-9.782-6.501-12.683c-4.133-2.771-9.586-4.178-16.21-4.178
		c-6.705,0-13.346,2.906-19.739,8.633c-6.283,5.628-11.156,12.493-14.483,20.406c-3.322,7.892-5.007,16.149-5.007,24.538
		c0,8.636,2.89,15.56,8.593,20.584c5.648,4.979,12.474,7.5,20.293,7.5c10.81,0,19.944-2.256,27.148-6.715
		c7.325-4.528,11.624-9.68,12.771-15.303l0.245-1.201l-1.137-0.455C428.15,418.934,426.561,418.577,425.204,418.577
		 M400.189,370.523c2.617,0,4.855,0.94,6.833,2.871c1.969,1.922,2.925,4.072,2.925,6.567c0,2.651-0.791,5.677-2.347,8.992
		c-1.557,3.313-4.251,6.536-8.012,9.586c-3.67,2.979-7.892,4.486-12.545,4.486c-2.463,0-5.683-0.378-9.581-1.115
		c1.917-7.212,4.991-14.276,9.149-21.021C390.845,374.012,395.413,370.523,400.189,370.523"/>
	<path d="M477.343,361.335c-4.317,0-8.394,1.424-12.11,4.225c-3.646,2.749-6.624,6.461-8.849,11.024
		c-2.366,4.8-4.306,9.859-5.807,15.125c-0.078-2.636-0.155-5.71-0.227-9.215c-0.219-10.731-0.539-17.5-0.977-20.691l-0.127-0.93
		l-0.898-0.275c-1.528-0.467-3.266-0.707-5.16-0.707c-2.138,0-4.175,0.888-6.052,2.643l-0.522,0.486l0.063,0.712
		c0.216,2.49,0.941,13.054,2.162,31.396c1.224,18.449,3.04,34.102,5.394,46.514l0.163,0.867l0.845,0.262
		c1.52,0.469,3.041,0.707,4.521,0.707c1.629,0,3.257-0.545,4.833-1.616c1.758-1.192,2.649-3.247,2.647-6.182l-0.48-9.062
		c0-15.986,2.609-30.526,7.753-43.235c3.161-8,6.855-12.058,10.981-12.058c1.396,0,2.457,0.418,3.242,1.283
		c0.903,0.994,1.473,2.061,1.738,3.257c0.364,1.636,1.04,3.142,2.01,4.474c1.123,1.551,2.783,2.37,4.796,2.37
		c1.759,0,3.394-0.341,4.859-1.015c2.3-1.053,2.78-2.659,2.78-3.818c0-3.306-1.783-6.807-5.449-10.707
		C485.835,363.297,481.751,361.335,477.343,361.335"/>
	<path d="M528.84,361.815c-10.745,0-19.062,4.434-24.724,13.181c-5.527,8.538-8.332,19.97-8.332,33.985
		c0,10.879,2.486,19.472,7.38,25.532c4.975,6.163,12.964,9.285,23.752,9.285c10.751,0,19.746-3.883,26.736-11.543
		c6.956-7.618,10.483-17.042,10.483-28.006c0-10.904-3.196-20.772-9.504-29.329C548.224,366.225,539.545,361.815,528.84,361.815
		 M550.459,405.935c0,7.947-2.34,14.807-6.957,20.388c-4.616,5.576-10.146,8.287-16.906,8.287c-3.228,0-6.034-0.757-8.343-2.25
		c-2.313-1.49-4.073-3.549-5.233-6.107c-1.229-2.711-2.104-5.508-2.618-8.315c-0.514-2.833-0.778-6.038-0.778-9.517
		c0-3.486,0.345-7.316,1.024-11.383c0.673-4.058,1.733-8.212,3.147-12.354c1.357-3.967,3.408-7.244,6.104-9.739
		c2.627-2.434,5.607-3.618,9.1-3.618c5.898,0,10.803,3.611,14.999,11.04C548.286,389.965,550.459,397.895,550.459,405.935"/>
	<path d="M629.802,414.887c-3.296,0-6.721,2.392-10.488,7.345c-1.377,1.899-2.865,3.814-4.418,5.674
		c-3.587,4.188-8.256,6.221-14.276,6.221c-5.129,0-9.073-1.882-12.064-5.759c-3.043-3.938-4.582-8.709-4.582-14.174
		c0-5.686,0.794-11.851,2.36-18.333c1.561-6.449,4.035-12.427,7.357-17.773c3.129-5.037,6.566-7.798,10.213-8.205
		c2.607,0.014,4.7,0.761,6.401,2.275c1.784,1.587,3.021,3.33,3.686,5.172c0.785,2.193,1.842,4.251,3.142,6.114
		c1.492,2.143,3.599,3.274,6.096,3.274c2.425,0,4.822-1.17,7.131-3.475l0.696-0.697l-0.38-0.91
		c-2.516-6.008-5.604-11.033-9.171-14.934c-3.75-4.095-8.728-6.168-14.793-6.168c-5.963,0-11.439,1.854-16.272,5.506
		c-4.76,3.595-8.574,8.219-11.341,13.761c-5.418,11.156-8.161,22.484-8.161,33.667c0,8.893,2.58,16.263,7.67,21.909
		c5.129,5.693,12.211,8.58,21.052,8.58c8.778,0,17.013-3.389,24.468-10.073c7.613-6.823,11.311-12.293,11.311-16.728v-1.098
		l-1.053-0.311C632.407,415.17,630.908,414.887,629.802,414.887"/>
	<path d="M715.67,432.711c-1.346,0-3.463,0.438-6.52,1.357c-1.815,0.604-2.482,0.811-2.727,0.881
		c-1.535-0.133-4.34-2.551-5.78-25.098c-0.432-6.975-0.971-14-1.609-20.89c-0.655-7.096-2.299-13.238-4.886-18.252
		c-2.773-5.369-6.802-8.092-11.969-8.092c-10.932,0-19.224,8.97-24.742,26.713c0.477-10.776,0.717-18.106,0.717-21.878
		c0-17.939-0.813-32.843-2.416-44.295l-0.178-1.264h-1.28c-4.305,0-7.599,0.989-9.792,2.934l-0.711,0.634l0.286,0.905
		c0.592,1.882,0.895,5.561,0.895,10.914l-1.445,71.859c0,29.269,3.578,33.216,7.079,33.216c3.186,0,5.772-3.758,8.381-12.176
		c2.305-7.453,4.286-15.793,5.895-24.788c1.577-8.844,3.79-17.036,6.579-24.349c2.544-6.668,5.312-10.199,8.009-10.199
		c1.997,0,3.513,2.077,4.505,6.175c1.147,4.746,1.861,10.583,2.126,17.349c0.263,6.865,0.696,13.873,1.287,20.831
		c0.667,7.918,2.42,15.113,4.807,19.735c2.77,5.365,5.258,8.087,10.54,8.087c3.008,0,6.315-0.944,9.831-2.815
		c3.971-2.119,5.748-3.879,5.748-5.705v-0.533l-0.345-0.408C717.247,432.711,716.061,432.711,715.67,432.711"/>
	<path d="M732.135,363.42c-1.103,0-2.685,0.425-3.949,2.417c-1.481,2.222-3.452,8.479-3.452,37.05
		c0,10.71,0.269,23.135,0.803,36.934l0.033,0.869l0.778,0.392c1.479,0.739,2.97,1.114,4.424,1.114c1.606,0,3.292-0.807,5.005-2.395
		c1.774-1.64,2.636-4.275,2.636-8.065l-0.322-35.419c0-10.625,0.271-20.58,0.801-29.577l0.058-0.985l-0.891-0.428
		C735.334,364.026,733.452,363.42,732.135,363.42"/>
	<path d="M890.929,361.016c-13.494,0-22.896,5.517-27.946,16.398c-2.398,5.12-4.11,10.698-5.087,16.572
		c-0.972,5.824-1.464,12.78-1.464,20.688c0,7.871,0.729,19.328,2.171,34.052c1.431,14.642,2.211,24.153,2.317,28.276l0.031,1.213
		l1.197,0.197c0.74,0.122,1.395,0.178,2.004,0.178c3.165,0,5.943-1.166,8.251-3.473l0.503-0.502l-0.08-0.707
		c-1.642-14.273-2.682-25.752-3.096-34.177c4.155,1.743,9.116,2.624,14.784,2.624c10.982,0,19.713-3.679,25.965-10.932
		c6.194-7.191,9.335-15.658,9.335-25.171c0-11.857-2.659-22.413-7.899-31.365C906.525,365.68,899.464,361.016,890.929,361.016
		 M887.239,431.402c-3.176,0-9.219-0.933-17.976-2.777c-0.078-2.406-0.118-5.824-0.118-10.186c0-13.889,1.272-24.907,3.779-32.742
		c2.802-8.808,8.273-13.088,16.721-13.088c4.982,0,8.823,3.025,11.739,9.255c3.045,6.511,4.591,15.042,4.591,25.354
		c0,6.808-1.741,12.64-5.169,17.329C897.431,429.162,892.997,431.402,887.239,431.402"/>
	<path d="M985.138,407.188c-3.417-3.19-7.637-5.519-12.547-6.917c-4.719-1.337-9.453-2.608-14.068-3.776
		c-4.455-1.125-8.283-2.805-11.377-4.988c-2.873-2.023-4.271-4.701-4.271-8.183c0-3.466,1.492-6.163,4.566-8.242
		c3.21-2.172,6.682-3.276,10.318-3.276c3.696,0,6.814,0.646,9.266,1.92c2.368,1.231,3.924,2.869,4.714,4.869
		c0.126,0.432,0.286,1.35,0.351,3.254c0.062,2.041,0.503,3.477,1.344,4.391c0.888,0.968,2.42,1.442,4.69,1.442
		c6.995,0,8.039-4.539,8.039-7.243c0-6.276-2.625-11.142-7.81-14.462c-4.976-3.186-10.609-4.803-16.742-4.803
		c-8.925,0-16.539,2.138-22.642,6.353c-6.272,4.335-9.449,10.082-9.449,17.082c0,5.406,1.789,9.936,5.316,13.463
		c3.421,3.423,7.646,5.895,12.568,7.346c4.683,1.385,9.425,2.684,14.084,3.863c4.479,1.135,8.334,2.693,11.448,4.632
		c2.825,1.764,4.201,3.977,4.201,6.772c0,4.88-2.246,8.33-6.842,10.531c-2.575,1.189-5.714,1.787-9.328,1.787
		c-6.814,0-13.587-2.438-20.115-7.234c-2.536-1.926-4.608-2.864-6.341-2.864c-7.043,0-8.523,3.063-8.523,5.638
		c0,4.488,4.236,8.088,12.945,11.012c8.073,2.707,14.732,4.084,19.79,4.084c8.579,0,16.046-1.966,22.187-5.838
		c6.361-4.01,9.584-9.93,9.584-17.598C990.495,414.887,988.695,410.508,985.138,407.188"/>
	<path d="M851.425,433.559c-0.633-0.848-1.692-0.848-2.039-0.848c-1.201,0-3.092,0.438-5.818,1.357
		c-1.622,0.604-2.215,0.811-2.434,0.881c-1.132-0.109-4.248,1.383-4.032-15.146c0.216-16.528,0.005-5.154,0.005-5.825l0.479-24.396
		c0-7.624-1.179-15.088-3.155-19.976c-2.269-5.611-6.229-8.456-11.782-8.456c-7.062,0-15.818,3.966-20.521,21.215
		c-0.747-4.847-1.999-9.038-3.738-12.523c-3.09-6.177-7.82-9.309-14.062-9.309c-4.944,0-9.324,2.4-13.005,7.117
		c-1.483,1.826-2.857,4.418-4.082,7.708c-1.187,3.17-2.359,7.023-3.493,11.452c-0.09,0.354-0.181,0.728-0.27,1.126
		c-0.227-17.143-1.555-17.142-3.203-17.142c-3.948,0-6.69,1.207-8.145,3.588l-0.214,0.354v0.413c0,26.339,0.756,48.714,2.249,66.503
		l0.098,1.176l3.577,0.477l0.193,0.012c2.7,0,5.342-1.086,7.851-3.236l0.419-0.362l0.079-0.547c0.32-2.247,0.794-5.876,1.448-11.106
		c2.436-21.729,5.225-37.934,8.288-48.176c1.684-5.812,3.747-8.882,5.965-8.882c1.356,0,5.491,0,7.209,10.317
		c1.265,7.575,1.931,17.934,1.987,30.791c0.054,13.604,0.6,24.092,1.542,29.531l0.138,0.785l0.729,0.314
		c0.928,0.396,1.931,0.598,3.032,0.598h0.009c3.16-0.121,5.82-1.299,7.904-3.506l0.372-0.39l0.028-0.538
		c0.787-14.41,2.968-30.249,6.14-44.602c4.875-22.049,8.411-23.165,9.069-23.165c1.598,0,2.646,1.732,3.114,5.145
		c0.529,3.851,0.871,9.636,0.872,14.793c0,0,0.087,17.956,0.551,28.724c0.463,10.768,0.973,13.484,2.681,17.188
		c2.471,5.367,5.654,6.03,10.367,6.03c2.685,0,5.636-0.944,8.772-2.815c3.545-2.119,5.129-3.879,5.129-5.705v-0.533L851.425,433.559
		z"/>
</g>
</svg>
