<?xml version="1.0" encoding="utf-8"?>
<!-- Generator: Adobe Illustrator 16.0.0, SVG Export Plug-In . SVG Version: 6.00 Build 0)  -->
<!DOCTYPE svg PUBLIC "-//W3C//DTD SVG 1.1//EN" "http://www.w3.org/Graphics/SVG/1.1/DTD/svg11.dtd">
<svg version="1.1" id="Layer_1" xmlns="http://www.w3.org/2000/svg" xmlns:xlink="http://www.w3.org/1999/xlink" x="0px" y="0px"
	 width="1280px" height="800px" viewBox="0 0 1280 800" enable-background="new 0 0 1280 800" xml:space="preserve">
<g>
	<path fill="#B89468" d="M694.374,393.29c-0.471,1.71-2.53,3.76-3.48,3.76c0,0,0,0-0.01,0c-2.311-0.06-3.71-5.33-3.7-9.09
		c0.03-5.81,2.51-10.72,4.9-15.47c1.909-3.79,3.72-7.38,4.22-11.25c0.41-3.2,0.27-7.42-0.42-12.55
		c-1.49-10.971-6-21.811-8.561-27.301c-3.52-7.54-8.229-12.05-13.21-16.83c-0.02-0.01-0.029-0.02-0.04-0.029
		c3.07,1.3,6.561,2.62,10.86,2.62c0.35,0,0.71-0.011,1.06-0.03c6.881,11.85,10.601,28.82,13.881,43.8l0.06,0.271
		c1.38,6.29,3.27,14.89,1.25,20.529c-0.521,1.44-1.45,2.8-2.43,4.261c-1.091,1.6-2.21,3.26-2.88,5.17
		c-0.681,1.93-0.78,4.25-0.87,6.5C694.913,389.59,694.834,391.6,694.374,393.29z"/>
	<path fill="#DFD5C6" d="M587.469,334.781c1.224-7.872,2.266-6.825,6.016-10.393c3.881-3.668,8.633-6.713,13.05-8.349
		c2.648-0.979,5.912-2.92,13.786-2.159c0.071,0.013,0.152-0.033,0.224-0.011c3.639,1.477,8.549,1.612,11.228,4.044
		c2.315,2.102,6.265-0.217,7.802,2.963l1.315,0.068c2.95-5.021,0.467-1.827,4.621-4.712c0.314-0.216,0.628-0.512,1.001-0.728
		c7.075-4.078,15.081-0.42,17.67,0.534c4.517,1.669,10.087,5.555,13.036,8.349c4.62,4.386,9.23,12.576,9.23,21.243
		c-0.012,5.657-1.022,11.133-2.589,15.268c-1.778,4.703-4.81,10.11-7.57,13.461c-3.942,4.817-10.562,7.497-19.679,11.984
		c-6.743,3.328-13.122,2.396-21.431,2.396c-1.042,0-0.112-0.046-1.164-0.147c-5.568-0.512-11.836-3.568-17.901-6.532
		c-0.747-0.364-1.494-0.728-2.233-1.091c-7.317-3.532-15.669-11.224-17.731-13.812c-2.616-3.306-4.657-9.919-6.295-14.258
		C587.924,347.8,586.579,340.506,587.469,334.781z"/>
	<path fill="#B89468" d="M591.103,324.038c2.554-3.879,6.049-7.289,9.466-10.615c1.153-1.116,2.34-2.284,3.483-3.452
		c3.112-3.18,6.015-7.797,9.431-10.487c4.637-3.682,9.432-5.477,12.813-11.88c0.293-0.552,0.629-1.053,0.953-1.532
		c0.94-1.387,1.915-2.815,1.803-5.517c3.607-0.855,7.416-1.282,11.324-1.282c3.965,0,7.807,0.438,11.437,1.314
		c0.885,7.945,6.171,11.71,10.854,15.923l1.008,0.907c0.438,0.386,0.84,0.792,1.243,1.179c0.739,0.729,1.513,0.47,2.375,1.138
		c0.638,0.5,1.345,1.886,2.026,2.262c0.718,0.396,1.4,1.771,2.006,2.251c1.12,0.896,2.318,2.2,3.473,3.462
		c0.648,0.698,1.287,1.387,1.927,2.023l0.884,0.886c3.898,3.91,8.211,8.217,11.616,12.826c-10.955-7.289-29.135-11.689-49.14-11.689
		C619.665,311.754,601.822,316.29,591.103,324.038z"/>
	<path fill="#B89468" d="M690.754,297.26l-0.351,0.7c-1.069,2.1-2.399,3.98-4.3,6.07c-9.32-0.57-17.89-4.71-25.47-12.32l-0.63-0.63
		c-1.391-1.39-2.83-2.83-3.73-4.1c-1.85-2.601-4.02-6.25-4.1-8.011c-0.05-1.529,3.08-8.069,5.85-11.109
		c1.12-1.24,1.68-1.33,1.83-1.33v-0.811l0,0l3.915-1.345c-8.69,16.47,25.862,26.563,29.501,25.75
		C696.088,289.495,691.934,294.97,690.754,297.26z"/>
	<path fill="#B89468" d="M585.271,289.52c5.061,3.355,42.123-10.957,32.467-22.994c0.125-4.087,11.039,10.915,10.986,12.444
		c-0.086,1.761-2.402,5.41-4.378,8.011c-0.962,1.27-2.499,2.71-3.984,4.1l-0.672,0.63c-8.095,7.61-17.246,11.75-27.2,12.32
		c-2.029-2.09-3.449-3.971-4.592-6.07l-0.374-0.7C586.264,294.97,582.708,287.82,585.271,289.52z"/>
	<path fill="#B89468" d="M608.964,304.534c-0.621,0.532-1.254,1.076-1.9,1.63c-5.032,4.336-10.248,8.816-13.891,15.225
		c-1.523,2.666-2.913,5.916-4.254,9.064l-0.291,0.665c-3.412,7.997-8.104,18.968-6.411,31.127c0.623,4.511,3.023,8.438,5.339,12.222
		c2.742,4.48,5.568,9.104,5.774,14.958c0.111,3.373-1.23,9.534-4.411,9.801c-1.388,0-3.775-2.132-4.35-3.864
		c-0.547-1.713-0.683-3.773-0.804-5.763c-0.135-2.234-0.268-4.531-1.022-6.428c-0.878-2.225-2.231-3.947-3.534-5.629
		c-1.791-2.297-3.484-4.471-3.912-7.812c-0.706-5.465,1-12.016,2.365-17.274l0.206-0.78c4.374-16.886,6.955-33.002,14.925-44.681
		C598.544,307.087,605.112,305.969,608.964,304.534z"/>
	<path fill="#DFD5C6" d="M697.005,326.115c-0.506-1.571-1.022-3.188-1.701-4.641c1.109-1.046,2.027-2.42,2.925-3.762
		c1.548-2.311,3.012-4.499,5.239-4.861c4.988,4.301,6.46,21.219,3.21,27.434c-0.439,0.847-1.624,1.166-1.986,1.243
		c-0.517-0.021-0.881,0.362-1.445-0.649c-0.668-1.188-1.481-0.651-3.028-0.86C699.683,336.588,697.016,326.148,697.005,326.115z"/>
	<path fill="#DFD5C6" d="M579.754,336.019c-1.781,0.209-2.717,1.673-3.485,2.86c-0.649,1.012-1.068,1.629-1.663,1.649
		c-0.417-0.077-1.78-1.396-2.286-2.243c-3.74-6.215-2.046-25.133,3.694-29.434c2.563,0.362,4.247,2.551,6.028,4.861
		c1.033,1.342,2.09,2.716,3.366,3.762c-0.781,1.452-1.375,3.069-1.958,4.641C583.438,322.148,580.369,332.588,579.754,336.019z"/>
	<g>
		<path fill="#4F3D28" d="M662.137,268.161l0.195-0.124l0.257,0.009c-0.615,1.758,0.195,4.158,0.694,5.166
			c2.022,4.087,6.94,7.408,11.484,10.116c5.598,3.338,11.233,6.351,18.633,6.586c0.275,0.008,0.555,0.008,0.834,0.01l-0.024,1.544
			c-0.805,0.041-1.612,0.049-2.399,0.024c-7.401-0.237-13.038-3.251-18.634-6.587c-4.545-2.709-9.463-6.029-11.485-10.116
			C661.027,273.446,659.812,269.641,662.137,268.161z"/>
		<g id="XMLID_18_">
			<g>
				<path fill="#4F3D28" d="M666.275,269.582c-0.286,3.025,1.723,5.343,3.392,7.01c3.4,3.416,7.179,6.001,11.885,8.213
					c2.102,0.992,5.007,2.538,7.209,0.488c0.077-2.554-1.607-4.944-3.184-6.522c-1.839-1.846-5.2-3.741-8.06-5.318
					C673.948,271.485,670.178,269.273,666.275,269.582z"/>
			</g>
			<g>
			</g>
		</g>
		<path fill="#4F3D28" d="M711.419,315.214c-1.525-4.342-3.502-8.807-6.625-8.987c-2.075-0.111-4.498,1.497-5.88,2.88
			c-0.845,0.847-1.46,1.884-2.055,2.886c-0.712,1.197-1.39,2.341-2.403,3.094c-0.693-1.395-1.426-2.754-2.14-4.073
			c-0.639-1.186-1.297-2.405-1.922-3.642c3.28-4.301,7.244-9.618,7.49-15.767c0.241-5.978-3.139-9.543-6.119-12.69l-0.68-0.721
			c-5.492-5.866-10.672-10.363-18.105-13.242c-3.098-1.198-7.509-2.48-10.596-2.48c-0.856,0-1.599,0.099-2.202,0.291
			c-2.677,0.857-4.684,4.6-6.456,7.902c-0.653,1.217-1.277,2.38-1.859,3.252c-2.987-1.167-7.015-1.805-11.433-1.805
			c-4.383,0-8.605,0.647-11.719,1.787c-0.29-0.543-0.588-1.12-0.895-1.717c-1.953-3.796-4.385-8.52-7.969-9.432
			c-0.43-0.11-0.957-0.166-1.564-0.166c-3.213,0-8.362,1.529-10.992,2.615c-3.486,1.439-6.758,3.345-9.726,5.662
			c-4.224,3.299-13.011,10.161-14.509,17.147c-1.469,6.854,2.021,11.864,5.102,16.283c0.77,1.104,1.502,2.155,2.154,3.216
			c-0.751,1.204-1.414,2.506-2.057,3.77c-0.656,1.291-1.332,2.621-2.092,3.812c-0.898-0.766-1.529-1.829-2.193-2.945
			c-0.623-1.047-1.266-2.13-2.174-3.038c-1.184-1.187-4.027-3.26-6.381-2.873c-2.123,0.351-4.125,3.288-6.121,8.98
			c-2.164,6.171-2.965,16.027-0.184,22.138c1.042,2.295,3.725,5.964,6.268,5.777c1.475-0.111,2.233-1.185,2.822-2.13
			c-0.505,2.714-1.208,5.345-1.943,8.095c-1.736,6.499-3.533,13.22-2.549,21.359c0.408,3.38,1.982,5.818,3.506,8.174
			c1.061,1.646,2.064,3.197,2.686,5.043c0.549,1.633,0.652,3.791,0.753,5.879c0.099,2.054,0.2,4.179,0.724,5.934
			c0.773,2.603,3.937,6.44,6.962,6.124c1.138-0.113,2.188-0.779,3.124-1.981c2.23-2.864,3.558-8.629,3.088-13.41
			c-0.451-4.602-2.516-8.654-4.512-12.572c-2.053-4.032-4.176-8.198-4.609-13.036c-0.332-3.68,0.082-7.553,0.685-11.014
			c0.411,2.191,0.905,4.499,1.642,6.546c3.391,9.417,11.735,20.292,19.41,25.292c7.181,4.68,18.186,10.471,29.836,11.479
			c2.352,0.203,4.315,0.2,6.497-0.002c11.271-1.037,23.092-6.073,33.283-14.177c8.818-7.011,15.176-17.225,17.868-28.521
			c0.614,4.227,1.173,8.533,0.431,11.984c-0.817,3.811-2.568,7.364-4.258,10.801c-2.08,4.225-4.229,8.591-4.666,13.467
			c-0.284,3.133,0.188,6.756,1.26,9.688c1.213,3.322,2.971,5.26,4.95,5.457c0.114,0.012,0.228,0.018,0.342,0.018
			c2.928-0.001,5.879-3.637,6.623-6.142c0.527-1.773,0.617-3.922,0.702-5.997c0.09-2.155,0.183-4.381,0.77-6.048
			c0.64-1.814,1.62-3.306,2.66-4.885c1.55-2.355,3.152-4.793,3.535-8.353c0.873-8.095-0.87-14.744-2.558-21.178
			c-0.671-2.564-1.36-5.193-1.871-7.893c0.583,0.949,1.367,1.974,3.052,2c2.309,0,4.884-3.378,5.976-5.778
			C714.541,330.888,713.568,321.346,711.419,315.214z M696.37,394.287c-0.468,1.709-2.529,3.764-3.481,3.764c0,0,0,0-0.002,0
			c-2.316-0.059-3.718-5.334-3.699-9.091c0.027-5.813,2.502-10.72,4.895-15.466c1.915-3.798,3.723-7.387,4.222-11.252
			c0.412-3.198,0.268-7.419-0.425-12.548c-1.483-10.972-5.999-21.819-8.559-27.309c-3.517-7.536-8.226-12.049-13.211-16.825
			c-0.013-0.012-0.024-0.022-0.037-0.035c3.076,1.305,6.558,2.621,10.863,2.621c0.352,0,0.707-0.01,1.062-0.028
			c6.871,11.855,10.592,28.819,13.877,43.807l0.062,0.27c1.379,6.284,3.27,14.891,1.243,20.526
			c-0.516,1.435-1.442,2.803-2.425,4.255c-1.087,1.604-2.21,3.264-2.881,5.175c-0.677,1.932-0.777,4.254-0.872,6.499
			C696.918,390.594,696.834,392.604,696.37,394.287z M590.015,340.289c1.207-6.927,5.205-13.049,8.924-16.186
			c3.833-3.232,8.535-5.912,12.902-7.35c2.619-0.861,5.852-2.573,13.642-1.9c0.072,0.008,0.153-0.038,0.226-0.011
			c3.598,1.296,5.484,2.293,8.131,4.438c2.291,1.853,4.223,4.211,5.742,7.008l0.605,1.118l0.7-1.058
			c2.919-4.418,5.409-6.886,9.519-9.43c0.306-0.188,0.616-0.453,0.986-0.643c6.997-3.588,14.918-0.368,17.484,0.477
			c4.463,1.468,9.978,4.884,12.902,7.35c4.567,3.854,9.126,11.064,9.122,18.698c-0.003,4.981-1.008,9.8-2.556,13.441
			c-1.757,4.134-4.765,8.895-7.486,11.849c-3.906,4.239-10.454,10.123-19.476,14.07c-6.668,2.924-13.973,5.628-22.185,5.628
			c-1.037,0-2.09-0.043-3.131-0.127c-5.516-0.452-11.719-3.146-17.717-5.754c-0.738-0.319-1.473-0.642-2.205-0.955
			c-7.238-3.113-14.453-10.81-16.49-13.096c-2.597-2.909-5.66-7.794-7.285-11.615C590.46,351.747,589.138,345.327,590.015,340.289z
			 M596.367,320.121c2.274-3.721,5.398-6.99,8.442-10.177c1.029-1.079,2.096-2.192,3.113-3.311c2.779-3.049,5.373-5.562,8.416-8.147
			c4.143-3.521,8.426-7.164,11.445-13.308c0.262-0.53,0.562-1.007,0.854-1.467c0.84-1.332,1.708-2.706,1.61-5.292
			c3.218-0.819,6.614-1.234,10.11-1.234c3.53,0,6.964,0.424,10.208,1.26c0.79,7.624,5.512,12.191,9.689,16.231l0.9,0.874
			c0.384,0.374,0.747,0.756,1.105,1.131c0.663,0.693,1.349,1.409,2.126,2.053c0.569,0.472,1.199,0.846,1.809,1.207
			c0.642,0.379,1.248,0.737,1.785,1.2c1.001,0.862,2.071,2.108,3.105,3.313c0.577,0.672,1.15,1.339,1.712,1.942l0.792,0.852
			c3.487,3.748,7.331,7.88,10.376,12.305c-9.787-6.995-26.014-11.214-43.87-11.214C621.865,308.34,605.932,312.688,596.367,320.121z
			 M692.755,297.261l-0.354,0.696c-1.062,2.103-2.394,3.987-4.297,6.072c-9.323-0.568-17.889-4.713-25.466-12.321l-0.632-0.632
			c-1.392-1.39-2.832-2.826-3.736-4.1c-1.845-2.593-4.021-6.245-4.092-8.004c-0.059-1.531,3.071-8.076,5.843-11.113
			c1.125-1.236,1.684-1.332,1.829-1.332v-0.809l0,0l0.013,0.809c9.836,0.412,18.409,4.679,26.213,13.049l0.679,0.722
			c2.389,2.536,5.658,6.011,6.109,9.219C695.268,292.381,693.933,294.974,692.755,297.261z M617.737,266.525
			c2.969,0,4.297,2.459,5.979,5.57l0.164,0.307c0.117,0.215,0.249,0.451,0.39,0.704c0.929,1.673,2.335,4.202,2.268,5.866
			c-0.073,1.856-2.358,5.596-4.294,8.235c-2.113,2.881-6.131,6.924-8.957,9.015c-6.402,4.736-13.355,7.361-20.671,7.807
			c-1.729-1.915-3.068-3.638-4.3-6.072l-0.232-0.461c-1.191-2.345-2.542-5.002-2.229-7.761c0.376-3.288,3.967-7.138,6.59-9.947
			l0.197-0.212c7.942-8.518,16.098-12.785,24.931-13.049L617.737,266.525z M604.359,305.696c-0.509,0.527-1.028,1.057-1.556,1.596
			c-4.133,4.226-8.406,8.595-11.404,14.845c-1.248,2.602-2.387,5.775-3.49,8.845l-0.232,0.646
			c-2.806,7.808-6.649,18.504-5.265,30.364c0.514,4.403,2.481,8.226,4.386,11.922c2.246,4.364,4.57,8.876,4.732,14.584
			c0.094,3.292-1.012,9.302-3.615,9.562c-1.137,0-3.105-2.08-3.57-3.771c-0.455-1.663-0.559-3.674-0.658-5.619
			c-0.11-2.176-0.225-4.423-0.84-6.266c-0.723-2.168-1.829-3.855-2.898-5.488c-1.472-2.246-2.861-4.367-3.215-7.625
			c-0.581-5.328,0.818-11.718,1.941-16.852l0.166-0.755c3.588-16.468,7.355-32.193,13.889-43.58
			C597.452,308.187,601.2,307.104,604.359,305.696z M701.867,322.828c0.941,0.087,2.307,0.704,2.994,1.417
			c0.601,0.626,0.512,1.337,1.49,1.686l0.971,0.345l0.051-1.076c0.067-1.465-0.353-2.742-1.215-3.693
			c-0.988-1.094-2.557-1.721-4.302-1.721c-1.985,0-2.75,0.84-4.034,2.646c-0.011-0.026-0.019-0.053-0.028-0.079
			c-0.531-1.431-1.075-2.902-1.777-4.22c1.155-0.953,2.117-2.204,3.055-3.418c1.619-2.104,3.152-4.093,5.483-4.422
			c5.217,3.908,6.756,21.105,3.363,26.758c-0.464,0.771-1.706,1.971-2.084,2.037c-0.536-0.015-0.924-0.579-1.514-1.496
			c-0.694-1.082-1.546-2.41-3.165-2.599c-0.562-3.127-1.39-5.933-2.332-8.954C700.207,324.146,700.003,322.664,701.867,322.828z
			 M584.147,319.328c-0.446,0.966-0.902,1.951-1.26,3.066c-1.315-1.582-1.913-2.612-4.146-2.612c-3.066,0-5.211,1.928-5.604,5.029
			l-0.105,0.841l0.801,0.076c0.088,0.009,0.174,0.012,0.256,0.012h0.002c1.233-2.343,2.227-2.805,3.034-2.915
			c5.464-0.747,4.586,2.864,4.765,3.056c-0.224,0.831-0.459,1.648-0.693,2.465c-0.604,2.096-1.227,4.258-1.641,6.646
			c-1.633,0.191-2.485,1.544-3.181,2.647c-0.452,0.719-0.879,1.396-1.35,1.453c-0.438,0-1.687-1.146-2.228-2.042
			c-3.811-6.351-1.304-22.459,3.033-26.778c2.472,0.119,3.955,2.062,5.521,4.114c1.008,1.32,2.045,2.68,3.394,3.616
			C584.558,318.443,584.356,318.879,584.147,319.328z"/>
		<g>
			<path fill="#4F3D28" d="M663.341,328.062l-0.077-0.025l-0.082,0.013c-2.812,0.392-3.998,5.178-3.715,9.702
				c0.198,3.15,1.188,6.518,3.368,6.518c0.054,0,0.108-0.002,0.161-0.008c1.544-0.123,2.622-2.146,2.961-5.548
				C666.345,334.81,665.638,328.77,663.341,328.062z"/>
			<path fill="#4F3D28" d="M618.524,328.062l-0.078-0.025l-0.08,0.013c-2.814,0.392-3.999,5.178-3.715,9.702
				c0.197,3.15,1.186,6.518,3.367,6.518c0.055,0,0.107-0.002,0.162-0.008c1.543-0.123,2.621-2.146,2.959-5.548
				C621.528,334.81,620.82,328.77,618.524,328.062z"/>
		</g>
		<path fill="#4F3D28" d="M619.03,268.161l-0.194-0.124l-0.257,0.009c0.615,1.758-0.195,4.158-0.694,5.166
			c-2.022,4.087-6.94,7.408-11.485,10.116c-5.596,3.338-11.232,6.351-18.633,6.586c-0.274,0.008-0.554,0.008-0.833,0.01l0.024,1.544
			c0.805,0.041,1.612,0.049,2.4,0.024c7.4-0.237,13.037-3.251,18.633-6.587c4.545-2.709,9.463-6.029,11.485-10.116
			C620.14,273.446,621.355,269.641,619.03,268.161z"/>
		<g id="XMLID_17_">
			<g>
				<path fill="#4F3D28" d="M614.896,269.582c0.286,3.025-1.723,5.343-3.392,7.01c-3.4,3.416-7.178,6.001-11.884,8.213
					c-2.102,0.992-5.007,2.538-7.209,0.488c-0.077-2.554,1.607-4.944,3.184-6.522c1.839-1.846,5.2-3.741,8.059-5.318
					C607.223,271.485,610.994,269.273,614.896,269.582z"/>
			</g>
			<g>
			</g>
		</g>
	</g>
</g>
<g>
	<path fill="#4F3C29" d="M431.73,505.405c-0.952,0.261-1.456,0.316-1.712,0.316c-1.267,0-2.205-0.58-2.979-1.869
		c-1.438-2.156-2.17-6.576-2.17-13.095l0.588-13.548c0-7.225-0.933-13.243-2.775-17.892c-2.283-5.748-6.926-8.663-13.799-8.663
		c-4.773,0-9.197,2.401-13.152,7.138c-3.839,4.599-6.789,10.296-8.777,16.936c-1.976,6.602-2.979,13.007-2.979,19.036
		c0,6.111,0.938,10.853,2.783,14.092c1.956,3.438,4.78,5.18,8.392,5.18c3.344,0,6.337-0.585,8.887-1.733
		c4.562-2.021,9.088-7.077,13.795-15.421c0.131,0.954,0.277,2.073,0.438,3.355c0.398,3.253,1.055,6.013,1.943,8.185
		c1.248,3.211,3.908,4.911,7.691,4.911c5.494,0,8.613-1.674,9.273-4.973l0.126-0.619l-0.479-0.409
		C435.456,505.161,433.69,504.85,431.73,505.405 M407.3,459.263c2.229,0,3.975,0.794,5.328,2.421
		c2.18,2.687,3.283,6.172,3.283,10.359c0,6.688-1.938,14.034-5.76,21.835c-3.701,7.547-7.483,11.374-11.246,11.374
		c-1.559,0-2.807-0.86-3.822-2.631c-1.113-1.935-1.679-4.303-1.679-7.037c0-2.877,0.274-6.222,0.812-9.945
		c0.539-3.746,1.361-7.777,2.443-11.979c1.057-4.119,2.604-7.635,4.593-10.446C403.128,460.555,405.107,459.263,407.3,459.263"/>
	<path fill="#4F3C29" d="M482.854,493.629c-2.72,0-5.53,1.857-8.56,5.649c-0.988,1.129-2.659,2.22-4.969,3.248
		c-2.314,1.03-5.387,1.552-9.133,1.552c-3.674,0-6.759-1.177-9.436-3.598c-2.646-2.391-3.932-5.701-3.932-10.121
		c0-0.279,0.025-0.837,0.125-1.941c2.07,0.286,3.916,0.432,5.493,0.432c7.011,0,13.72-2.299,19.946-6.84
		c6.332-4.614,9.541-10.576,9.541-17.717c0-4.04-1.601-7.163-4.762-9.287c-3.025-2.029-7.018-3.06-11.869-3.06
		c-4.908,0-9.773,2.128-14.454,6.322c-4.601,4.121-8.169,9.148-10.606,14.942c-2.432,5.779-3.666,11.826-3.666,17.969
		c0,6.324,2.117,11.394,6.293,15.073c4.136,3.646,9.135,5.492,14.86,5.492c7.915,0,14.604-1.652,19.879-4.917
		c5.366-3.316,8.513-7.089,9.353-11.206l0.18-0.88l-0.832-0.333C485.01,493.891,483.847,493.629,482.854,493.629 M464.535,458.44
		c1.917,0,3.556,0.688,5.003,2.103c1.442,1.407,2.143,2.981,2.143,4.809c0,1.941-0.579,4.157-1.719,6.585
		c-1.14,2.426-3.113,4.785-5.867,7.019c-2.688,2.182-5.778,3.286-9.186,3.286c-1.805,0-4.161-0.277-7.016-0.817
		c1.402-5.28,3.654-10.454,6.699-15.393C457.692,460.995,461.038,458.44,464.535,458.44"/>
	<path fill="#4F3C29" d="M521.032,451.712c-3.162,0-6.146,1.043-8.867,3.094c-2.669,2.013-4.852,4.731-6.48,8.072
		c-1.732,3.515-3.152,7.22-4.25,11.076c-0.059-1.93-0.115-4.182-0.167-6.748c-0.16-7.858-0.396-12.814-0.716-15.151l-0.092-0.681
		l-0.658-0.201c-1.119-0.342-2.393-0.518-3.779-0.518c-1.566,0-3.057,0.649-4.431,1.935l-0.382,0.355l0.045,0.521
		c0.158,1.823,0.689,9.56,1.582,22.991c0.897,13.51,2.227,24.972,3.95,34.062l0.121,0.635l0.618,0.191
		c1.111,0.343,2.227,0.518,3.31,0.518c1.194,0,2.386-0.398,3.54-1.183c1.287-0.874,1.939-2.378,1.939-4.527l-0.353-6.636
		c0-11.705,1.911-22.354,5.677-31.66c2.314-5.857,5.021-8.829,8.041-8.829c1.023,0,1.8,0.306,2.375,0.939
		c0.662,0.728,1.079,1.51,1.273,2.386c0.266,1.198,0.76,2.301,1.471,3.275c0.823,1.137,2.038,1.735,3.513,1.735
		c1.287,0,2.485-0.25,3.558-0.743c1.685-0.771,2.037-1.946,2.037-2.796c0-2.421-1.307-4.984-3.992-7.84
		C527.251,453.148,524.261,451.712,521.032,451.712"/>
	<path fill="#4F3C29" d="M558.743,452.063c-7.869,0-13.959,3.247-18.104,9.652c-4.049,6.252-6.102,14.624-6.102,24.887
		c0,7.966,1.82,14.259,5.404,18.696c3.642,4.514,9.492,6.799,17.393,6.799c7.871,0,14.459-2.843,19.578-8.452
		c5.095-5.578,7.678-12.479,7.678-20.509c0-7.984-2.342-15.21-6.961-21.476C572.938,455.293,566.583,452.063,558.743,452.063
		 M574.575,484.371c0,5.819-1.715,10.843-5.096,14.93c-3.379,4.084-7.429,6.068-12.379,6.068c-2.364,0-4.42-0.555-6.109-1.648
		c-1.693-1.091-2.983-2.598-3.832-4.472c-0.9-1.985-1.542-4.032-1.918-6.089c-0.377-2.074-0.57-4.421-0.57-6.969
		c0-2.554,0.253-5.358,0.751-8.336c0.493-2.972,1.269-6.014,2.304-9.047c0.994-2.905,2.497-5.305,4.469-7.131
		c1.926-1.782,4.107-2.649,6.665-2.649c4.319,0,7.911,2.644,10.982,8.084C572.983,472.677,574.575,478.483,574.575,484.371"/>
	<path fill="#4F3C29" d="M632.675,490.927c-2.413,0-4.92,1.751-7.68,5.378c-1.008,1.392-2.098,2.794-3.235,4.155
		c-2.627,3.067-6.046,4.555-10.454,4.555c-3.755,0-6.644-1.378-8.836-4.217c-2.228-2.884-3.355-6.377-3.355-10.379
		c0-4.163,0.582-8.678,1.73-13.426c1.143-4.722,2.955-9.1,5.387-13.015c2.291-3.688,4.809-5.71,7.479-6.009
		c1.909,0.011,3.443,0.558,4.688,1.667c1.307,1.162,2.213,2.438,2.699,3.787c0.575,1.606,1.35,3.113,2.301,4.478
		c1.094,1.569,2.635,2.397,4.463,2.397c1.777,0,3.531-0.856,5.223-2.544l0.51-0.511l-0.277-0.666
		c-1.843-4.399-4.104-8.079-6.717-10.936c-2.746-2.999-6.391-4.518-10.832-4.518c-4.367,0-8.378,1.358-11.917,4.033
		c-3.485,2.632-6.278,6.019-8.304,10.076c-3.967,8.169-5.977,16.465-5.977,24.653c0,6.512,1.89,11.908,5.617,16.044
		c3.756,4.169,8.942,6.282,15.415,6.282c6.429,0,12.458-2.48,17.918-7.376c5.575-4.996,8.282-9.002,8.282-12.249v-0.805
		l-0.771-0.227C634.583,491.135,633.485,490.927,632.675,490.927"/>
	<path fill="#4F3C29" d="M695.555,503.979c-0.985,0-2.536,0.321-4.774,0.994c-1.33,0.442-1.818,0.595-1.996,0.646
		c-1.125-0.097-3.179-1.868-4.233-18.379c-0.315-5.106-0.711-10.252-1.179-15.297c-0.479-5.196-1.683-9.694-3.577-13.365
		c-2.031-3.932-4.981-5.926-8.765-5.926c-8.005,0-14.077,6.568-18.118,19.562c0.349-7.892,0.524-13.259,0.524-16.021
		c0-13.136-0.595-24.05-1.77-32.437l-0.13-0.925h-0.937c-3.153,0-5.565,0.724-7.171,2.147l-0.521,0.465l0.209,0.662
		c0.434,1.379,0.655,4.072,0.655,7.992l-1.058,52.621c0,21.434,2.619,24.323,5.184,24.323c2.333,0,4.227-2.751,6.137-8.916
		c1.688-5.458,3.139-11.564,4.316-18.151c1.155-6.477,2.775-12.475,4.818-17.83c1.862-4.883,3.89-7.469,5.864-7.469
		c1.462,0,2.572,1.521,3.299,4.522c0.841,3.475,1.363,7.75,1.557,12.704c0.192,5.026,0.51,10.157,0.942,15.253
		c0.488,5.799,1.772,11.067,3.52,14.452c2.028,3.929,3.851,5.922,7.719,5.922c2.202,0,4.625-0.691,7.198-2.062
		c2.908-1.552,4.21-2.841,4.21-4.178v-0.391l-0.252-0.299C696.71,503.979,695.84,503.979,695.555,503.979"/>
	<path fill="#4F3C29" d="M707.611,453.239c-0.808,0-1.966,0.311-2.892,1.77c-1.085,1.626-2.528,6.208-2.528,27.13
		c0,7.843,0.196,16.941,0.588,27.046l0.024,0.637l0.569,0.287c1.084,0.541,2.175,0.815,3.239,0.815c1.177,0,2.411-0.59,3.666-1.753
		c1.299-1.201,1.93-3.131,1.93-5.906l-0.236-25.938c0-7.78,0.198-15.069,0.587-21.658l0.042-0.722l-0.652-0.313
		C709.954,453.683,708.576,453.239,707.611,453.239"/>
	<path fill="#4F3C29" d="M823.893,451.479c-9.882,0-16.766,4.04-20.465,12.008c-1.757,3.749-3.01,7.834-3.725,12.136
		c-0.712,4.264-1.072,9.358-1.072,15.148c0,5.764,0.534,14.154,1.59,24.936c1.048,10.722,1.619,17.688,1.696,20.706l0.023,0.889
		l0.877,0.145c0.542,0.089,1.021,0.13,1.468,0.13c2.317,0,4.352-0.854,6.041-2.544l0.369-0.367l-0.06-0.518
		c-1.202-10.452-1.963-18.857-2.267-25.026c3.043,1.276,6.676,1.921,10.826,1.921c8.042,0,14.436-2.693,19.014-8.005
		c4.536-5.267,6.836-11.466,6.836-18.432c0-8.683-1.947-16.413-5.784-22.968C835.313,454.894,830.143,451.479,823.893,451.479
		 M821.19,503.021c-2.325,0-6.75-0.684-13.163-2.035c-0.057-1.762-0.086-4.265-0.086-7.458c0-10.171,0.932-18.239,2.768-23.977
		c2.051-6.449,6.058-9.584,12.243-9.584c3.649,0,6.462,2.216,8.597,6.777c2.229,4.768,3.362,11.015,3.362,18.565
		c0,4.984-1.275,9.256-3.785,12.69C828.653,501.38,825.406,503.021,821.19,503.021"/>
	<path fill="#4F3C29" d="M892.88,485.289c-2.502-2.337-5.593-4.041-9.188-5.065c-3.456-0.979-6.923-1.909-10.303-2.765
		c-3.262-0.824-6.065-2.054-8.331-3.652c-2.104-1.481-3.127-3.442-3.127-5.992c0-2.538,1.093-4.513,3.344-6.035
		c2.351-1.591,4.893-2.399,7.556-2.399c2.707,0,4.99,0.474,6.785,1.406c1.734,0.901,2.874,2.101,3.452,3.565
		c0.092,0.316,0.209,0.988,0.257,2.383c0.046,1.494,0.368,2.546,0.984,3.216c0.649,0.709,1.771,1.056,3.434,1.056
		c5.123,0,5.888-3.324,5.888-5.304c0-4.596-1.923-8.159-5.719-10.591c-3.644-2.332-7.77-3.517-12.261-3.517
		c-6.535,0-12.111,1.565-16.579,4.651c-4.594,3.175-6.92,7.383-6.92,12.51c0,3.958,1.311,7.275,3.894,9.858
		c2.505,2.506,5.599,4.316,9.203,5.378c3.429,1.015,6.901,1.966,10.313,2.829c3.28,0.831,6.103,1.973,8.384,3.393
		c2.068,1.291,3.076,2.912,3.076,4.959c0,3.573-1.645,6.101-5.011,7.712c-1.886,0.871-4.184,1.31-6.831,1.31
		c-4.989,0-9.948-1.786-14.729-5.299c-1.857-1.41-3.374-2.097-4.643-2.097c-5.158,0-6.242,2.243-6.242,4.128
		c0,3.286,3.102,5.923,9.48,8.063c5.911,1.982,10.787,2.99,14.491,2.99c6.282,0,11.75-1.439,16.246-4.274
		c4.659-2.936,7.019-7.271,7.019-12.886C896.803,490.927,895.484,487.721,892.88,485.289"/>
	<path fill="#4F3C29" d="M794.964,504.6c-0.462-0.621-1.238-0.621-1.492-0.621c-0.88,0-2.265,0.321-4.261,0.994
		c-1.188,0.442-1.622,0.595-1.782,0.646c-0.829-0.08-3.11,1.012-2.953-11.092c0.158-12.104,0.004-3.774,0.004-4.266l0.351-17.864
		c0-5.583-0.862-11.049-2.31-14.628c-1.661-4.108-4.562-6.192-8.628-6.192c-5.171,0-11.584,2.904-15.027,15.536
		c-0.547-3.55-1.464-6.618-2.737-9.17c-2.263-4.523-5.727-6.817-10.297-6.817c-3.62,0-6.828,1.759-9.523,5.212
		c-1.086,1.337-2.092,3.235-2.989,5.644c-0.868,2.322-1.728,5.143-2.558,8.387c-0.066,0.259-0.132,0.532-0.197,0.824
		c-0.166-12.554-1.139-12.552-2.346-12.552c-2.892,0-4.899,0.883-5.964,2.627l-0.157,0.259v0.303
		c0,19.287,0.554,35.672,1.647,48.698l0.071,0.861l2.62,0.349l0.142,0.009c1.978,0,3.911-0.796,5.748-2.37l0.308-0.266l0.058-0.4
		c0.234-1.646,0.581-4.302,1.061-8.133c1.783-15.912,3.825-27.778,6.069-35.278c1.232-4.255,2.743-6.504,4.367-6.504
		c0.993,0,4.021,0,5.279,7.555c0.926,5.547,1.414,13.132,1.455,22.547c0.039,9.962,0.439,17.642,1.129,21.626l0.102,0.574
		l0.534,0.229c0.679,0.291,1.413,0.438,2.221,0.438h0.006c2.314-0.089,4.262-0.951,5.788-2.567l0.272-0.285l0.021-0.395
		c0.576-10.552,2.174-22.15,4.497-32.66c3.569-16.146,6.158-16.964,6.641-16.964c1.17,0,1.938,1.269,2.28,3.768
		c0.388,2.82,0.638,7.057,0.639,10.833c0,0,0.064,13.148,0.403,21.033c0.339,7.886,0.713,9.874,1.963,12.586
		c1.81,3.931,4.141,4.416,7.592,4.416c1.966,0,4.127-0.691,6.424-2.062c2.596-1.552,3.756-2.841,3.756-4.178v-0.391L794.964,504.6z"
		/>
</g>
</svg>
