<?xml version="1.0" encoding="utf-8"?>
<!-- Generator: Adobe Illustrator 16.0.0, SVG Export Plug-In . SVG Version: 6.00 Build 0)  -->
<!DOCTYPE svg PUBLIC "-//W3C//DTD SVG 1.1//EN" "http://www.w3.org/Graphics/SVG/1.1/DTD/svg11.dtd">
<svg version="1.1" id="Layer_1" xmlns="http://www.w3.org/2000/svg" xmlns:xlink="http://www.w3.org/1999/xlink" x="0px" y="0px"
	 width="1280px" height="800px" viewBox="0 0 1280 800" enable-background="new 0 0 1280 800" xml:space="preserve">
<g>
	<path fill="#B89468" d="M694.374,393.29c-0.471,1.71-2.53,3.76-3.48,3.76c0,0,0,0-0.01,0c-2.311-0.06-3.71-5.33-3.7-9.09
		c0.03-5.81,2.51-10.72,4.9-15.47c1.909-3.79,3.72-7.38,4.22-11.25c0.41-3.2,0.27-7.42-0.42-12.55
		c-1.49-10.971-6-21.811-8.561-27.301c-3.52-7.54-8.229-12.05-13.21-16.83c-0.02-0.01-0.029-0.02-0.04-0.029
		c3.07,1.3,6.561,2.62,10.86,2.62c0.35,0,0.71-0.011,1.06-0.03c6.881,11.85,10.601,28.82,13.881,43.8l0.06,0.271
		c1.38,6.29,3.27,14.89,1.25,20.529c-0.521,1.44-1.45,2.8-2.43,4.261c-1.091,1.6-2.21,3.26-2.88,5.17
		c-0.681,1.93-0.78,4.25-0.87,6.5C694.913,389.59,694.834,391.6,694.374,393.29z"/>
	<path fill="#DFD5C6" d="M587.469,334.781c1.224-7.872,2.266-6.825,6.016-10.393c3.881-3.668,8.633-6.713,13.05-8.349
		c2.648-0.979,5.912-2.92,13.786-2.159c0.071,0.013,0.152-0.033,0.224-0.011c3.639,1.477,8.549,1.612,11.228,4.044
		c2.315,2.102,6.265-0.217,7.802,2.963l1.315,0.068c2.95-5.021,0.467-1.827,4.621-4.712c0.314-0.216,0.628-0.512,1.001-0.728
		c7.075-4.078,15.081-0.42,17.67,0.534c4.517,1.669,10.087,5.555,13.036,8.349c4.62,4.386,9.23,12.576,9.23,21.243
		c-0.012,5.657-1.022,11.133-2.589,15.268c-1.778,4.703-4.81,10.11-7.57,13.461c-3.942,4.817-10.562,7.497-19.679,11.984
		c-6.743,3.328-13.122,2.396-21.431,2.396c-1.042,0-0.112-0.046-1.164-0.147c-5.568-0.512-11.836-3.568-17.901-6.532
		c-0.747-0.364-1.494-0.728-2.233-1.091c-7.317-3.532-15.669-11.224-17.731-13.812c-2.616-3.306-4.657-9.919-6.295-14.258
		C587.924,347.8,586.579,340.506,587.469,334.781z"/>
	<path fill="#B89468" d="M591.103,324.038c2.554-3.879,6.049-7.289,9.466-10.615c1.153-1.116,2.34-2.284,3.483-3.452
		c3.112-3.18,6.015-7.797,9.431-10.487c4.637-3.682,9.432-5.477,12.813-11.88c0.293-0.552,0.629-1.053,0.953-1.532
		c0.94-1.387,1.915-2.815,1.803-5.517c3.607-0.855,7.416-1.282,11.324-1.282c3.965,0,7.807,0.438,11.437,1.314
		c0.885,7.945,6.171,11.71,10.854,15.923l1.008,0.907c0.438,0.386,0.84,0.792,1.243,1.179c0.739,0.729,1.513,0.47,2.375,1.138
		c0.638,0.5,1.345,1.886,2.026,2.262c0.718,0.396,1.4,1.771,2.006,2.251c1.12,0.896,2.318,2.2,3.473,3.462
		c0.648,0.698,1.287,1.387,1.927,2.023l0.884,0.886c3.898,3.91,8.211,8.217,11.616,12.826c-10.955-7.289-29.135-11.689-49.14-11.689
		C619.665,311.754,601.822,316.29,591.103,324.038z"/>
	<path fill="#B89468" d="M690.754,297.26l-0.351,0.7c-1.069,2.1-2.399,3.98-4.3,6.07c-9.32-0.57-17.89-4.71-25.47-12.32l-0.63-0.63
		c-1.391-1.39-2.83-2.83-3.73-4.1c-1.85-2.601-4.02-6.25-4.1-8.011c-0.05-1.529,3.08-8.069,5.85-11.109
		c1.12-1.24,1.68-1.33,1.83-1.33v-0.811l0,0l3.915-1.345c-8.69,16.47,25.862,26.563,29.501,25.75
		C696.088,289.495,691.934,294.97,690.754,297.26z"/>
	<path fill="#B89468" d="M585.271,289.52c5.061,3.355,42.123-10.957,32.467-22.994c0.125-4.087,11.039,10.915,10.986,12.444
		c-0.086,1.761-2.402,5.41-4.378,8.011c-0.962,1.27-2.499,2.71-3.984,4.1l-0.672,0.63c-8.095,7.61-17.246,11.75-27.2,12.32
		c-2.029-2.09-3.449-3.971-4.592-6.07l-0.374-0.7C586.264,294.97,582.708,287.82,585.271,289.52z"/>
	<path fill="#B89468" d="M608.964,304.534c-0.621,0.532-1.254,1.076-1.9,1.63c-5.032,4.336-10.248,8.816-13.891,15.225
		c-1.523,2.666-2.913,5.916-4.254,9.064l-0.291,0.665c-3.412,7.997-8.104,18.968-6.411,31.127c0.623,4.511,3.023,8.438,5.339,12.222
		c2.742,4.48,5.568,9.104,5.774,14.958c0.111,3.373-1.23,9.534-4.411,9.801c-1.388,0-3.775-2.132-4.35-3.864
		c-0.547-1.713-0.683-3.773-0.804-5.763c-0.135-2.234-0.268-4.531-1.022-6.428c-0.878-2.225-2.231-3.947-3.534-5.629
		c-1.791-2.297-3.484-4.471-3.912-7.812c-0.706-5.465,1-12.016,2.365-17.274l0.206-0.78c4.374-16.886,6.955-33.002,14.925-44.681
		C598.544,307.087,605.112,305.969,608.964,304.534z"/>
	<path fill="#DFD5C6" d="M697.005,326.115c-0.506-1.571-1.022-3.188-1.701-4.641c1.109-1.046,2.027-2.42,2.925-3.762
		c1.548-2.311,3.012-4.499,5.239-4.861c4.988,4.301,6.46,21.219,3.21,27.434c-0.439,0.847-1.624,1.166-1.986,1.243
		c-0.517-0.021-0.881,0.362-1.445-0.649c-0.668-1.188-1.481-0.651-3.028-0.86C699.683,336.588,697.016,326.148,697.005,326.115z"/>
	<path fill="#DFD5C6" d="M579.754,336.019c-1.781,0.209-2.717,1.673-3.485,2.86c-0.649,1.012-1.068,1.629-1.663,1.649
		c-0.417-0.077-1.78-1.396-2.286-2.243c-3.74-6.215-2.046-25.133,3.694-29.434c2.563,0.362,4.247,2.551,6.028,4.861
		c1.033,1.342,2.09,2.716,3.366,3.762c-0.781,1.452-1.375,3.069-1.958,4.641C583.438,322.148,580.369,332.588,579.754,336.019z"/>
	<g>
		<path fill="#4F3D28" d="M662.137,268.161l0.195-0.124l0.257,0.009c-0.615,1.758,0.195,4.158,0.694,5.166
			c2.022,4.087,6.94,7.408,11.484,10.116c5.598,3.338,11.233,6.351,18.633,6.586c0.275,0.008,0.555,0.008,0.834,0.01l-0.024,1.544
			c-0.805,0.041-1.612,0.049-2.399,0.024c-7.401-0.237-13.038-3.251-18.634-6.587c-4.545-2.709-9.463-6.029-11.485-10.116
			C661.027,273.446,659.812,269.641,662.137,268.161z"/>
		<g id="XMLID_18_">
			<g>
				<path fill="#4F3D28" d="M666.275,269.582c-0.286,3.025,1.723,5.343,3.392,7.01c3.4,3.416,7.179,6.001,11.885,8.213
					c2.102,0.992,5.007,2.538,7.209,0.488c0.077-2.554-1.607-4.944-3.184-6.522c-1.839-1.846-5.2-3.741-8.06-5.318
					C673.948,271.485,670.178,269.273,666.275,269.582z"/>
			</g>
			<g>
			</g>
		</g>
		<path fill="#4F3D28" d="M711.419,315.214c-1.525-4.342-3.502-8.807-6.625-8.987c-2.075-0.111-4.498,1.497-5.88,2.88
			c-0.845,0.847-1.46,1.884-2.055,2.886c-0.712,1.197-1.39,2.341-2.403,3.094c-0.693-1.395-1.426-2.754-2.14-4.073
			c-0.639-1.186-1.297-2.405-1.922-3.642c3.28-4.301,7.244-9.618,7.49-15.767c0.241-5.978-3.139-9.543-6.119-12.69l-0.68-0.721
			c-5.492-5.866-10.672-10.363-18.105-13.242c-3.098-1.198-7.509-2.48-10.596-2.48c-0.856,0-1.599,0.099-2.202,0.291
			c-2.677,0.857-4.684,4.6-6.456,7.902c-0.653,1.217-1.277,2.38-1.859,3.252c-2.987-1.167-7.015-1.805-11.433-1.805
			c-4.383,0-8.605,0.647-11.719,1.787c-0.29-0.543-0.588-1.12-0.895-1.717c-1.953-3.796-4.385-8.52-7.969-9.432
			c-0.43-0.11-0.957-0.166-1.564-0.166c-3.213,0-8.362,1.529-10.992,2.615c-3.486,1.439-6.758,3.345-9.726,5.662
			c-4.224,3.299-13.011,10.161-14.509,17.147c-1.469,6.854,2.021,11.864,5.102,16.283c0.77,1.104,1.502,2.155,2.154,3.216
			c-0.751,1.204-1.414,2.506-2.057,3.77c-0.656,1.291-1.332,2.621-2.092,3.812c-0.898-0.766-1.529-1.829-2.193-2.945
			c-0.623-1.047-1.266-2.13-2.174-3.038c-1.184-1.187-4.027-3.26-6.381-2.873c-2.123,0.351-4.125,3.288-6.121,8.98
			c-2.164,6.171-2.965,16.027-0.184,22.138c1.042,2.295,3.725,5.964,6.268,5.777c1.475-0.111,2.233-1.185,2.822-2.13
			c-0.505,2.714-1.208,5.345-1.943,8.095c-1.736,6.499-3.533,13.22-2.549,21.359c0.408,3.38,1.982,5.818,3.506,8.174
			c1.061,1.646,2.064,3.197,2.686,5.043c0.549,1.633,0.652,3.791,0.753,5.879c0.099,2.054,0.2,4.179,0.724,5.934
			c0.773,2.603,3.937,6.44,6.962,6.124c1.138-0.113,2.188-0.779,3.124-1.981c2.23-2.864,3.558-8.629,3.088-13.41
			c-0.451-4.602-2.516-8.654-4.512-12.572c-2.053-4.032-4.176-8.198-4.609-13.036c-0.332-3.68,0.082-7.553,0.685-11.014
			c0.411,2.191,0.905,4.499,1.642,6.546c3.391,9.417,11.735,20.292,19.41,25.292c7.181,4.68,18.186,10.471,29.836,11.479
			c2.352,0.203,4.315,0.2,6.497-0.002c11.271-1.037,23.092-6.073,33.283-14.177c8.818-7.011,15.176-17.225,17.868-28.521
			c0.614,4.227,1.173,8.533,0.431,11.984c-0.817,3.811-2.568,7.364-4.258,10.801c-2.08,4.225-4.229,8.591-4.666,13.467
			c-0.284,3.133,0.188,6.756,1.26,9.688c1.213,3.322,2.971,5.26,4.95,5.457c0.114,0.012,0.228,0.018,0.342,0.018
			c2.928-0.001,5.879-3.637,6.623-6.142c0.527-1.773,0.617-3.922,0.702-5.997c0.09-2.155,0.183-4.381,0.77-6.048
			c0.64-1.814,1.62-3.306,2.66-4.885c1.55-2.355,3.152-4.793,3.535-8.353c0.873-8.095-0.87-14.744-2.558-21.178
			c-0.671-2.564-1.36-5.193-1.871-7.893c0.583,0.949,1.367,1.974,3.052,2c2.309,0,4.884-3.378,5.976-5.778
			C714.541,330.888,713.568,321.346,711.419,315.214z M696.37,394.287c-0.468,1.709-2.529,3.764-3.481,3.764c0,0,0,0-0.002,0
			c-2.316-0.059-3.718-5.334-3.699-9.091c0.027-5.813,2.502-10.72,4.895-15.466c1.915-3.798,3.723-7.387,4.222-11.252
			c0.412-3.198,0.268-7.419-0.425-12.548c-1.483-10.972-5.999-21.819-8.559-27.309c-3.517-7.536-8.226-12.049-13.211-16.825
			c-0.013-0.012-0.024-0.022-0.037-0.035c3.076,1.305,6.558,2.621,10.863,2.621c0.352,0,0.707-0.01,1.062-0.028
			c6.871,11.855,10.592,28.819,13.877,43.807l0.062,0.27c1.379,6.284,3.27,14.891,1.243,20.526
			c-0.516,1.435-1.442,2.803-2.425,4.255c-1.087,1.604-2.21,3.264-2.881,5.175c-0.677,1.932-0.777,4.254-0.872,6.499
			C696.918,390.594,696.834,392.604,696.37,394.287z M590.015,340.289c1.207-6.927,5.205-13.049,8.924-16.186
			c3.833-3.232,8.535-5.912,12.902-7.35c2.619-0.861,5.852-2.573,13.642-1.9c0.072,0.008,0.153-0.038,0.226-0.011
			c3.598,1.296,5.484,2.293,8.131,4.438c2.291,1.853,4.223,4.211,5.742,7.008l0.605,1.118l0.7-1.058
			c2.919-4.418,5.409-6.886,9.519-9.43c0.306-0.188,0.616-0.453,0.986-0.643c6.997-3.588,14.918-0.368,17.484,0.477
			c4.463,1.468,9.978,4.884,12.902,7.35c4.567,3.854,9.126,11.064,9.122,18.698c-0.003,4.981-1.008,9.8-2.556,13.441
			c-1.757,4.134-4.765,8.895-7.486,11.849c-3.906,4.239-10.454,10.123-19.476,14.07c-6.668,2.924-13.973,5.628-22.185,5.628
			c-1.037,0-2.09-0.043-3.131-0.127c-5.516-0.452-11.719-3.146-17.717-5.754c-0.738-0.319-1.473-0.642-2.205-0.955
			c-7.238-3.113-14.453-10.81-16.49-13.096c-2.597-2.909-5.66-7.794-7.285-11.615C590.46,351.747,589.138,345.327,590.015,340.289z
			 M596.367,320.121c2.274-3.721,5.398-6.99,8.442-10.177c1.029-1.079,2.096-2.192,3.113-3.311c2.779-3.049,5.373-5.562,8.416-8.147
			c4.143-3.521,8.426-7.164,11.445-13.308c0.262-0.53,0.562-1.007,0.854-1.467c0.84-1.332,1.708-2.706,1.61-5.292
			c3.218-0.819,6.614-1.234,10.11-1.234c3.53,0,6.964,0.424,10.208,1.26c0.79,7.624,5.512,12.191,9.689,16.231l0.9,0.874
			c0.384,0.374,0.747,0.756,1.105,1.131c0.663,0.693,1.349,1.409,2.126,2.053c0.569,0.472,1.199,0.846,1.809,1.207
			c0.642,0.379,1.248,0.737,1.785,1.2c1.001,0.862,2.071,2.108,3.105,3.313c0.577,0.672,1.15,1.339,1.712,1.942l0.792,0.852
			c3.487,3.748,7.331,7.88,10.376,12.305c-9.787-6.995-26.014-11.214-43.87-11.214C621.865,308.34,605.932,312.688,596.367,320.121z
			 M692.755,297.261l-0.354,0.696c-1.062,2.103-2.394,3.987-4.297,6.072c-9.323-0.568-17.889-4.713-25.466-12.321l-0.632-0.632
			c-1.392-1.39-2.832-2.826-3.736-4.1c-1.845-2.593-4.021-6.245-4.092-8.004c-0.059-1.531,3.071-8.076,5.843-11.113
			c1.125-1.236,1.684-1.332,1.829-1.332v-0.809l0,0l0.013,0.809c9.836,0.412,18.409,4.679,26.213,13.049l0.679,0.722
			c2.389,2.536,5.658,6.011,6.109,9.219C695.268,292.381,693.933,294.974,692.755,297.261z M617.737,266.525
			c2.969,0,4.297,2.459,5.979,5.57l0.164,0.307c0.117,0.215,0.249,0.451,0.39,0.704c0.929,1.673,2.335,4.202,2.268,5.866
			c-0.073,1.856-2.358,5.596-4.294,8.235c-2.113,2.881-6.131,6.924-8.957,9.015c-6.402,4.736-13.355,7.361-20.671,7.807
			c-1.729-1.915-3.068-3.638-4.3-6.072l-0.232-0.461c-1.191-2.345-2.542-5.002-2.229-7.761c0.376-3.288,3.967-7.138,6.59-9.947
			l0.197-0.212c7.942-8.518,16.098-12.785,24.931-13.049L617.737,266.525z M604.359,305.696c-0.509,0.527-1.028,1.057-1.556,1.596
			c-4.133,4.226-8.406,8.595-11.404,14.845c-1.248,2.602-2.387,5.775-3.49,8.845l-0.232,0.646
			c-2.806,7.808-6.649,18.504-5.265,30.364c0.514,4.403,2.481,8.226,4.386,11.922c2.246,4.364,4.57,8.876,4.732,14.584
			c0.094,3.292-1.012,9.302-3.615,9.562c-1.137,0-3.105-2.08-3.57-3.771c-0.455-1.663-0.559-3.674-0.658-5.619
			c-0.11-2.176-0.225-4.423-0.84-6.266c-0.723-2.168-1.829-3.855-2.898-5.488c-1.472-2.246-2.861-4.367-3.215-7.625
			c-0.581-5.328,0.818-11.718,1.941-16.852l0.166-0.755c3.588-16.468,7.355-32.193,13.889-43.58
			C597.452,308.187,601.2,307.104,604.359,305.696z M701.867,322.828c0.941,0.087,2.307,0.704,2.994,1.417
			c0.601,0.626,0.512,1.337,1.49,1.686l0.971,0.345l0.051-1.076c0.067-1.465-0.353-2.742-1.215-3.693
			c-0.988-1.094-2.557-1.721-4.302-1.721c-1.985,0-2.75,0.84-4.034,2.646c-0.011-0.026-0.019-0.053-0.028-0.079
			c-0.531-1.431-1.075-2.902-1.777-4.22c1.155-0.953,2.117-2.204,3.055-3.418c1.619-2.104,3.152-4.093,5.483-4.422
			c5.217,3.908,6.756,21.105,3.363,26.758c-0.464,0.771-1.706,1.971-2.084,2.037c-0.536-0.015-0.924-0.579-1.514-1.496
			c-0.694-1.082-1.546-2.41-3.165-2.599c-0.562-3.127-1.39-5.933-2.332-8.954C700.207,324.146,700.003,322.664,701.867,322.828z
			 M584.147,319.328c-0.446,0.966-0.902,1.951-1.26,3.066c-1.315-1.582-1.913-2.612-4.146-2.612c-3.066,0-5.211,1.928-5.604,5.029
			l-0.105,0.841l0.801,0.076c0.088,0.009,0.174,0.012,0.256,0.012h0.002c1.233-2.343,2.227-2.805,3.034-2.915
			c5.464-0.747,4.586,2.864,4.765,3.056c-0.224,0.831-0.459,1.648-0.693,2.465c-0.604,2.096-1.227,4.258-1.641,6.646
			c-1.633,0.191-2.485,1.544-3.181,2.647c-0.452,0.719-0.879,1.396-1.35,1.453c-0.438,0-1.687-1.146-2.228-2.042
			c-3.811-6.351-1.304-22.459,3.033-26.778c2.472,0.119,3.955,2.062,5.521,4.114c1.008,1.32,2.045,2.68,3.394,3.616
			C584.558,318.443,584.356,318.879,584.147,319.328z"/>
		<g>
			<path fill="#4F3D28" d="M663.341,328.062l-0.077-0.025l-0.082,0.013c-2.812,0.392-3.998,5.178-3.715,9.702
				c0.198,3.15,1.188,6.518,3.368,6.518c0.054,0,0.108-0.002,0.161-0.008c1.544-0.123,2.622-2.146,2.961-5.548
				C666.345,334.81,665.638,328.77,663.341,328.062z"/>
			<path fill="#4F3D28" d="M618.524,328.062l-0.078-0.025l-0.08,0.013c-2.814,0.392-3.999,5.178-3.715,9.702
				c0.197,3.15,1.186,6.518,3.367,6.518c0.055,0,0.107-0.002,0.162-0.008c1.543-0.123,2.621-2.146,2.959-5.548
				C621.528,334.81,620.82,328.77,618.524,328.062z"/>
		</g>
		<path fill="#4F3D28" d="M619.03,268.161l-0.194-0.124l-0.257,0.009c0.615,1.758-0.195,4.158-0.694,5.166
			c-2.022,4.087-6.94,7.408-11.485,10.116c-5.596,3.338-11.232,6.351-18.633,6.586c-0.274,0.008-0.554,0.008-0.833,0.01l0.024,1.544
			c0.805,0.041,1.612,0.049,2.4,0.024c7.4-0.237,13.037-3.251,18.633-6.587c4.545-2.709,9.463-6.029,11.485-10.116
			C620.14,273.446,621.355,269.641,619.03,268.161z"/>
		<g id="XMLID_17_">
			<g>
				<path fill="#4F3D28" d="M614.896,269.582c0.286,3.025-1.723,5.343-3.392,7.01c-3.4,3.416-7.178,6.001-11.884,8.213
					c-2.102,0.992-5.007,2.538-7.209,0.488c-0.077-2.554,1.607-4.944,3.184-6.522c1.839-1.846,5.2-3.741,8.059-5.318
					C607.223,271.485,610.994,269.273,614.896,269.582z"/>
			</g>
			<g>
			</g>
		</g>
	</g>
</g>
</svg>
