<?xml version="1.0" encoding="utf-8"?>
<!-- Generator: Adobe Illustrator 16.0.0, SVG Export Plug-In . SVG Version: 6.00 Build 0)  -->
<!DOCTYPE svg PUBLIC "-//W3C//DTD SVG 1.1//EN" "http://www.w3.org/Graphics/SVG/1.1/DTD/svg11.dtd">
<svg version="1.1" id="Layer_1" xmlns="http://www.w3.org/2000/svg" xmlns:xlink="http://www.w3.org/1999/xlink" x="0px" y="0px"
	 width="1280px" height="800px" viewBox="0 0 1280 800" enable-background="new 0 0 1280 800" xml:space="preserve">
<g>
	<path fill="#4F3C29" d="M538.236,417.147c-0.729,0.2-1.115,0.242-1.311,0.242c-0.97,0-1.689-0.444-2.282-1.432
		c-1.102-1.651-1.663-5.037-1.663-10.03l0.451-10.378c0-5.534-0.714-10.145-2.125-13.705c-1.749-4.403-5.306-6.637-10.57-6.637
		c-3.656,0-7.045,1.84-10.075,5.468c-2.94,3.522-5.201,7.887-6.723,12.973c-1.514,5.058-2.283,9.964-2.283,14.582
		c0,4.682,0.718,8.313,2.132,10.795c1.499,2.633,3.662,3.968,6.428,3.968c2.562,0,4.854-0.448,6.808-1.328
		c3.495-1.548,6.961-5.421,10.567-11.812c0.101,0.73,0.212,1.588,0.335,2.57c0.305,2.492,0.809,4.605,1.489,6.27
		c0.956,2.46,2.994,3.762,5.892,3.762c4.208,0,6.598-1.282,7.104-3.809l0.096-0.475l-0.367-0.313
		C541.09,416.961,539.738,416.722,538.236,417.147 M519.522,381.802c1.708,0,3.045,0.608,4.082,1.854
		c1.669,2.058,2.514,4.728,2.514,7.936c0,5.123-1.484,10.75-4.412,16.726c-2.835,5.781-5.732,8.713-8.614,8.713
		c-1.194,0-2.151-0.659-2.929-2.016c-0.852-1.481-1.286-3.296-1.286-5.391c0-2.203,0.21-4.766,0.622-7.618
		c0.414-2.869,1.043-5.957,1.872-9.176c0.809-3.155,1.994-5.848,3.518-8.002C516.326,382.791,517.843,381.802,519.522,381.802"/>
	<path fill="#4F3C29" d="M577.397,408.127c-2.083,0-4.236,1.423-6.557,4.327c-0.757,0.865-2.037,1.7-3.807,2.488
		c-1.771,0.789-4.126,1.188-6.996,1.188c-2.812,0-5.177-0.901-7.227-2.756c-2.027-1.831-3.012-4.367-3.012-7.753
		c0-0.214,0.02-0.641,0.095-1.487c1.587,0.22,3,0.331,4.208,0.331c5.37,0,10.51-1.761,15.279-5.239
		c4.85-3.535,7.309-8.102,7.309-13.571c0-3.095-1.227-5.487-3.646-7.114c-2.318-1.555-5.377-2.344-9.093-2.344
		c-3.761,0-7.486,1.63-11.072,4.843c-3.524,3.157-6.258,7.008-8.124,11.446c-1.863,4.427-2.809,9.059-2.809,13.765
		c0,4.844,1.621,8.728,4.82,11.546c3.168,2.793,6.997,4.207,11.383,4.207c6.063,0,11.188-1.266,15.229-3.767
		c4.109-2.54,6.521-5.43,7.164-8.584l0.138-0.674l-0.638-0.255C579.05,408.327,578.158,408.127,577.397,408.127 M563.365,381.172
		c1.468,0,2.724,0.527,3.833,1.61c1.104,1.078,1.641,2.284,1.641,3.684c0,1.487-0.443,3.185-1.316,5.044
		c-0.873,1.858-2.385,3.666-4.494,5.377c-2.059,1.671-4.427,2.517-7.037,2.517c-1.382,0-3.188-0.212-5.374-0.626
		c1.075-4.045,2.8-8.008,5.132-11.791C558.124,383.129,560.687,381.172,563.365,381.172"/>
	<path fill="#4F3C29" d="M606.644,376.018c-2.422,0-4.708,0.799-6.793,2.37c-2.045,1.542-3.716,3.624-4.964,6.184
		c-1.327,2.692-2.415,5.53-3.257,8.484c-0.044-1.479-0.087-3.203-0.127-5.169c-0.123-6.02-0.303-9.816-0.548-11.606l-0.071-0.521
		l-0.504-0.154c-0.857-0.262-1.832-0.396-2.895-0.396c-1.199,0-2.342,0.498-3.395,1.482l-0.293,0.272l0.035,0.399
		c0.121,1.396,0.528,7.322,1.213,17.611c0.687,10.349,1.705,19.129,3.025,26.092l0.092,0.486l0.474,0.146
		c0.853,0.263,1.706,0.396,2.536,0.396c0.914,0,1.827-0.306,2.711-0.906c0.986-0.669,1.486-1.821,1.485-3.468l-0.27-5.083
		c0-8.967,1.464-17.123,4.349-24.252c1.773-4.487,3.846-6.764,6.16-6.764c0.783,0,1.378,0.234,1.818,0.72
		c0.507,0.558,0.826,1.156,0.976,1.827c0.204,0.918,0.583,1.763,1.127,2.51c0.63,0.87,1.562,1.329,2.69,1.329
		c0.986,0,1.903-0.191,2.726-0.569c1.29-0.591,1.56-1.491,1.56-2.142c0-1.854-1-3.818-3.057-6.006
		C611.407,377.118,609.116,376.018,606.644,376.018"/>
	<path fill="#4F3C29" d="M635.53,376.287c-6.027,0-10.692,2.487-13.868,7.394c-3.101,4.789-4.674,11.202-4.674,19.063
		c0,6.103,1.395,10.923,4.14,14.322c2.79,3.457,7.271,5.208,13.323,5.208c6.03,0,11.076-2.178,14.997-6.475
		c3.902-4.273,5.881-9.56,5.881-15.71c0-6.116-1.793-11.651-5.331-16.451C646.403,378.761,641.535,376.287,635.53,376.287
		 M647.657,401.035c0,4.458-1.312,8.306-3.902,11.437c-2.59,3.128-5.691,4.648-9.483,4.648c-1.811,0-3.385-0.425-4.68-1.263
		c-1.298-0.836-2.285-1.99-2.936-3.426c-0.689-1.521-1.181-3.089-1.469-4.664c-0.288-1.589-0.437-3.387-0.437-5.338
		c0-1.956,0.193-4.104,0.574-6.386c0.378-2.276,0.973-4.606,1.766-6.93c0.762-2.226,1.912-4.063,3.424-5.463
		c1.474-1.365,3.146-2.029,5.104-2.029c3.309,0,6.06,2.025,8.413,6.192C646.438,392.077,647.657,396.525,647.657,401.035"/>
	<path fill="#4F3C29" d="M692.163,406.057c-1.849,0-3.77,1.342-5.883,4.12c-0.772,1.065-1.607,2.14-2.479,3.183
		c-2.012,2.35-4.631,3.489-8.008,3.489c-2.877,0-5.09-1.056-6.768-3.23c-1.707-2.209-2.57-4.885-2.57-7.95
		c0-3.189,0.445-6.647,1.324-10.284c0.875-3.617,2.264-6.971,4.127-9.97c1.755-2.825,3.684-4.374,5.729-4.603
		c1.463,0.008,2.637,0.427,3.591,1.276c1.001,0.891,1.695,1.868,2.067,2.901c0.44,1.23,1.033,2.385,1.763,3.43
		c0.837,1.202,2.019,1.837,3.419,1.837c1.36,0,2.705-0.656,4-1.949l0.391-0.391l-0.213-0.511c-1.411-3.37-3.144-6.188-5.145-8.377
		c-2.104-2.297-4.896-3.46-8.298-3.46c-3.345,0-6.417,1.04-9.128,3.089c-2.67,2.017-4.81,4.61-6.361,7.719
		c-3.039,6.258-4.578,12.612-4.578,18.885c0,4.988,1.447,9.122,4.303,12.29c2.877,3.193,6.85,4.812,11.809,4.812
		c4.924,0,9.543-1.9,13.725-5.65c4.271-3.827,6.345-6.896,6.345-9.383v-0.616l-0.591-0.174
		C693.625,406.216,692.784,406.057,692.163,406.057"/>
	<path fill="#4F3C29" d="M740.33,416.055c-0.755,0-1.942,0.246-3.657,0.762c-1.019,0.339-1.393,0.455-1.529,0.494
		c-0.861-0.074-2.435-1.431-3.242-14.078c-0.242-3.912-0.545-7.854-0.903-11.718c-0.367-3.98-1.289-7.426-2.74-10.238
		c-1.556-3.012-3.815-4.539-6.714-4.539c-6.132,0-10.783,5.031-13.879,14.984c0.268-6.045,0.402-10.156,0.402-12.272
		c0-10.062-0.456-18.423-1.355-24.847l-0.1-0.709h-0.718c-2.415,0-4.263,0.555-5.493,1.646l-0.398,0.355l0.16,0.508
		c0.332,1.056,0.502,3.119,0.502,6.122l-0.811,40.309c0,16.418,2.007,18.632,3.971,18.632c1.787,0,3.238-2.107,4.701-6.83
		c1.293-4.181,2.404-8.858,3.307-13.904c0.885-4.961,2.126-9.556,3.69-13.658c1.427-3.74,2.979-5.721,4.492-5.721
		c1.12,0,1.971,1.165,2.527,3.464c0.644,2.662,1.044,5.937,1.192,9.731c0.147,3.851,0.391,7.781,0.722,11.685
		c0.374,4.441,1.357,8.478,2.696,11.07c1.554,3.01,2.949,4.536,5.912,4.536c1.688,0,3.543-0.529,5.515-1.579
		c2.228-1.188,3.225-2.176,3.225-3.2v-0.299l-0.193-0.229C741.215,416.055,740.549,416.055,740.33,416.055"/>
	<path fill="#4F3C29" d="M749.565,377.188c-0.618,0-1.506,0.238-2.215,1.355c-0.831,1.246-1.937,4.756-1.937,20.782
		c0,6.008,0.15,12.978,0.45,20.718l0.019,0.487l0.437,0.22c0.83,0.415,1.666,0.625,2.481,0.625c0.901,0,1.847-0.452,2.808-1.343
		c0.995-0.92,1.479-2.398,1.479-4.524l-0.181-19.868c0-5.96,0.151-11.544,0.449-16.591l0.032-0.553l-0.5-0.24
		C751.36,377.527,750.305,377.188,749.565,377.188"/>
	<path fill="#4F3C29" d="M838.639,375.839c-7.569,0-12.843,3.095-15.676,9.198c-1.346,2.872-2.306,6.001-2.854,9.296
		c-0.545,3.267-0.821,7.169-0.821,11.604c0,4.415,0.409,10.842,1.218,19.101c0.803,8.213,1.24,13.549,1.3,15.861l0.018,0.681
		l0.672,0.11c0.415,0.068,0.782,0.1,1.124,0.1c1.775,0,3.334-0.654,4.628-1.948l0.282-0.281l-0.045-0.396
		c-0.921-8.007-1.504-14.445-1.736-19.171c2.331,0.978,5.113,1.472,8.293,1.472c6.16,0,11.058-2.063,14.564-6.132
		c3.475-4.034,5.236-8.783,5.236-14.119c0-6.651-1.491-12.572-4.431-17.594C847.388,378.455,843.427,375.839,838.639,375.839
		 M836.569,415.321c-1.781,0-5.171-0.523-10.083-1.559c-0.044-1.35-0.066-3.267-0.066-5.713c0-7.791,0.714-13.972,2.12-18.366
		c1.571-4.94,4.641-7.342,9.379-7.342c2.795,0,4.949,1.697,6.585,5.191c1.708,3.652,2.575,8.438,2.575,14.222
		c0,3.818-0.977,7.09-2.899,9.721C842.286,414.064,839.799,415.321,836.569,415.321"/>
	<path fill="#4F3C29" d="M891.484,401.738c-1.917-1.79-4.284-3.096-7.038-3.88c-2.647-0.75-5.303-1.463-7.892-2.118
		c-2.499-0.631-4.646-1.573-6.382-2.798c-1.611-1.135-2.396-2.637-2.396-4.59c0-1.944,0.837-3.457,2.562-4.623
		c1.801-1.219,3.748-1.838,5.788-1.838c2.073,0,3.822,0.362,5.197,1.077c1.328,0.69,2.201,1.609,2.645,2.731
		c0.07,0.242,0.16,0.757,0.196,1.825c0.035,1.145,0.282,1.95,0.754,2.463c0.498,0.543,1.357,0.809,2.631,0.809
		c3.924,0,4.51-2.546,4.51-4.062c0-3.521-1.473-6.25-4.381-8.112c-2.791-1.787-5.951-2.694-9.392-2.694
		c-5.006,0-9.277,1.199-12.7,3.563c-3.519,2.432-5.301,5.655-5.301,9.582c0,3.032,1.004,5.573,2.982,7.552
		c1.919,1.92,4.289,3.307,7.05,4.12c2.627,0.777,5.287,1.506,7.9,2.167c2.513,0.637,4.675,1.511,6.422,2.599
		c1.585,0.989,2.356,2.23,2.356,3.799c0,2.737-1.26,4.673-3.838,5.907c-1.444,0.667-3.205,1.003-5.232,1.003
		c-3.822,0-7.621-1.368-11.283-4.059c-1.423-1.08-2.585-1.606-3.557-1.606c-3.951,0-4.781,1.719-4.781,3.162
		c0,2.518,2.376,4.537,7.262,6.177c4.528,1.519,8.264,2.291,11.101,2.291c4.812,0,9.001-1.103,12.445-3.274
		c3.568-2.249,5.376-5.57,5.376-9.871C894.489,406.057,893.479,403.601,891.484,401.738"/>
	<path fill="#4F3C29" d="M816.479,416.53c-0.354-0.476-0.949-0.476-1.144-0.476c-0.674,0-1.734,0.246-3.264,0.762
		c-0.91,0.339-1.242,0.455-1.365,0.494c-0.635-0.062-2.383,0.775-2.262-8.496s0.003-2.892,0.003-3.268l0.269-13.685
		c0-4.276-0.661-8.464-1.77-11.205c-1.272-3.147-3.494-4.743-6.609-4.743c-3.961,0-8.873,2.225-11.511,11.9
		c-0.419-2.719-1.121-5.069-2.097-7.024c-1.733-3.465-4.387-5.222-7.888-5.222c-2.773,0-5.23,1.347-7.295,3.992
		c-0.832,1.024-1.603,2.479-2.29,4.323c-0.665,1.778-1.323,3.939-1.959,6.424c-0.051,0.198-0.102,0.408-0.151,0.632
		c-0.127-9.616-0.872-9.615-1.797-9.615c-2.215,0-3.753,0.677-4.568,2.013l-0.12,0.198v0.231c0,14.774,0.424,27.325,1.262,37.304
		l0.055,0.66l2.007,0.267l0.108,0.007c1.515,0,2.996-0.609,4.403-1.815l0.235-0.203l0.044-0.307c0.18-1.261,0.445-3.296,0.812-6.23
		c1.366-12.188,2.931-21.278,4.649-27.023c0.944-3.26,2.102-4.982,3.346-4.982c0.761,0,3.08,0,4.044,5.787
		c0.709,4.249,1.083,10.06,1.114,17.271c0.03,7.631,0.337,13.514,0.865,16.565l0.077,0.44l0.409,0.176
		c0.521,0.223,1.083,0.336,1.701,0.336h0.005c1.772-0.068,3.265-0.729,4.434-1.967l0.209-0.219l0.016-0.302
		c0.441-8.083,1.665-16.968,3.444-25.019c2.734-12.368,4.718-12.994,5.087-12.994c0.896,0,1.484,0.972,1.747,2.886
		c0.297,2.16,0.488,5.405,0.489,8.298c0,0,0.049,10.072,0.309,16.112s0.546,7.563,1.504,9.641c1.386,3.011,3.172,3.383,5.815,3.383
		c1.506,0,3.161-0.529,4.921-1.579c1.988-1.188,2.877-2.176,2.877-3.2v-0.299L816.479,416.53z"/>
</g>
<g>
	<path fill="#B89468" d="M473.148,442.011c-0.322,1.171-1.732,2.574-2.382,2.574c0,0,0,0-0.007,0
		c-1.582-0.041-2.54-3.648-2.533-6.223c0.021-3.977,1.718-7.338,3.354-10.59c1.307-2.594,2.546-5.051,2.889-7.7
		c0.281-2.19,0.184-5.079-0.288-8.591c-1.02-7.51-4.107-14.931-5.86-18.688c-2.409-5.161-5.633-8.249-9.043-11.521
		c-0.013-0.007-0.02-0.014-0.027-0.021c2.102,0.89,4.491,1.794,7.435,1.794c0.239,0,0.486-0.008,0.725-0.021
		c4.71,8.111,7.256,19.728,9.502,29.981l0.041,0.186c0.945,4.306,2.238,10.192,0.856,14.053c-0.356,0.986-0.993,1.917-1.663,2.917
		c-0.747,1.095-1.513,2.231-1.972,3.539c-0.466,1.321-0.534,2.909-0.596,4.449C473.517,439.479,473.463,440.854,473.148,442.011z"/>
	<path fill="#DFD5C6" d="M400.915,407.437c0.837-5.389,0.604-10.148,3.171-12.591c2.656-2.511,5.909-4.595,8.933-5.715
		c1.813-0.67,4.047-1.999,9.437-1.478c0.049,0.008,0.104-0.023,0.153-0.008c2.491,1.011,5.852,1.104,7.686,2.769
		c1.585,1.438,4.289-0.148,5.341,2.028l0.9,0.047c2.02-3.438,0.319-1.251,3.163-3.226c0.215-0.148,0.43-0.351,0.686-0.498
		c4.843-2.792,10.323-0.288,12.096,0.365c3.091,1.143,6.905,3.803,8.923,5.715c3.163,3.002,6.319,8.609,6.319,14.542
		c-0.008,3.872-0.7,7.621-1.772,10.451c-1.217,3.219-3.292,6.921-5.182,9.214c-2.699,3.298-7.23,5.87-13.471,8.942
		c-4.616,2.278-6.667,2.378-12.354,2.378c-0.713,0-1.446-0.031-2.166-0.101c-3.812-0.351-8.102-2.443-12.254-4.472
		c-0.511-0.25-1.023-0.498-1.529-0.747c-5.009-2.418-10.726-7.683-12.138-9.455c-1.791-2.263-3.188-6.79-4.309-9.76
		C401.226,412.348,400.305,411.354,400.915,407.437z"/>
	<path fill="#B89468" d="M402.456,394.605c1.748-2.655,4.141-4.989,6.479-7.267c0.79-0.764,1.602-1.563,2.384-2.362
		c2.131-2.177,4.118-5.338,6.456-7.179c3.174-2.521,6.456-3.749,8.771-8.133c0.201-0.378,0.431-0.721,0.652-1.049
		c0.644-0.949,1.311-1.927,1.234-3.776c2.469-0.585,5.076-0.878,7.751-0.878c2.714,0,5.344,0.301,7.829,0.9
		c0.606,5.438,4.224,8.016,7.431,10.899l0.689,0.621c0.3,0.264,0.575,0.542,0.851,0.807c0.506,0.5,1.036,0.321,1.626,0.779
		c0.437,0.342,0.92,1.291,1.387,1.548c0.491,0.271,0.958,1.213,1.373,1.541c0.767,0.613,1.587,1.506,2.377,2.37
		c0.444,0.478,0.881,0.949,1.319,1.385l0.605,0.606c2.669,2.677,5.621,5.625,7.952,8.779c-7.499-4.989-19.943-8.001-33.638-8.001
		C422.007,386.197,409.793,389.302,402.456,394.605z"/>
	<path fill="#B89468" d="M470.67,376.275l-0.24,0.479c-0.732,1.437-1.643,2.725-2.943,4.155c-6.38-0.391-12.246-3.225-17.435-8.434
		l-0.431-0.432c-0.952-0.951-1.937-1.938-2.554-2.807c-1.266-1.78-2.751-4.278-2.806-5.483c-0.034-1.047,2.108-5.523,4.004-7.604
		c0.767-0.849,1.149-0.91,1.252-0.91v-0.556l0,0l2.68-0.92c-5.949,11.273,17.704,18.184,20.194,17.627
		C474.321,370.96,471.478,374.708,470.67,376.275z"/>
	<path fill="#B89468" d="M398.463,370.977c3.464,2.297,28.834-7.5,22.225-15.74c0.085-2.798,7.556,7.472,7.521,8.519
		c-0.059,1.205-1.645,3.703-2.997,5.483c-0.659,0.869-1.71,1.855-2.728,2.807l-0.46,0.432c-5.541,5.209-11.805,8.043-18.619,8.434
		c-1.389-1.431-2.361-2.719-3.144-4.155l-0.256-0.479C399.143,374.708,396.709,369.813,398.463,370.977z"/>
	<path fill="#B89468" d="M414.682,381.255c-0.425,0.364-0.858,0.736-1.301,1.115c-3.445,2.969-7.015,6.035-9.509,10.422
		c-1.043,1.825-1.994,4.05-2.912,6.205l-0.199,0.455c-2.335,5.475-5.547,12.984-4.389,21.308c0.427,3.088,2.07,5.776,3.655,8.366
		c1.877,3.067,3.812,6.231,3.953,10.239c0.077,2.309-0.842,6.526-3.02,6.709c-0.95,0-2.584-1.459-2.977-2.646
		c-0.375-1.172-0.467-2.583-0.55-3.944c-0.092-1.529-0.183-3.102-0.7-4.4c-0.601-1.522-1.527-2.702-2.419-3.853
		c-1.226-1.572-2.385-3.061-2.678-5.349c-0.483-3.74,0.685-8.225,1.619-11.824l0.141-0.534c2.994-11.56,4.761-22.591,10.216-30.586
		C407.549,383.002,412.045,382.237,414.682,381.255z"/>
	<path fill="#DFD5C6" d="M474.949,396.027c-0.347-1.075-0.7-2.183-1.165-3.177c0.759-0.716,1.388-1.656,2.002-2.574
		c1.06-1.582,2.062-3.08,3.586-3.328c3.415,2.944,4.422,14.525,2.197,18.779c-0.301,0.58-1.112,0.798-1.359,0.851
		c-0.354-0.014-0.603,0.248-0.99-0.444c-0.457-0.812-1.014-0.445-2.073-0.589C476.782,403.196,474.957,396.051,474.949,396.027z"/>
	<path fill="#DFD5C6" d="M394.687,402.807c-1.219,0.144-1.86,1.146-2.386,1.958c-0.445,0.692-0.731,1.115-1.139,1.129
		c-0.286-0.053-1.219-0.955-1.565-1.535c-2.561-4.254-1.4-17.204,2.529-20.148c1.755,0.248,2.907,1.746,4.126,3.328
		c0.708,0.918,1.431,1.859,2.305,2.575c-0.535,0.994-0.941,2.101-1.34,3.177C397.209,393.312,395.108,400.458,394.687,402.807z"/>
	<g>
		<path fill="#4F3D28" d="M451.081,356.356l0.134-0.085l0.176,0.006c-0.421,1.203,0.134,2.847,0.475,3.536
			c1.385,2.798,4.751,5.071,7.862,6.925c3.832,2.285,7.689,4.348,12.754,4.509c0.188,0.005,0.38,0.005,0.571,0.007l-0.017,1.057
			c-0.551,0.028-1.104,0.033-1.642,0.017c-5.067-0.162-8.925-2.226-12.756-4.509c-3.111-1.854-6.478-4.128-7.862-6.925
			C450.321,359.974,449.49,357.369,451.081,356.356z"/>
		<g id="XMLID_22_">
			<g>
				<path fill="#4F3D28" d="M453.909,357.326c-0.196,2.071,1.18,3.657,2.322,4.799c2.328,2.338,4.914,4.108,8.135,5.622
					c1.438,0.679,3.427,1.737,4.935,0.334c0.053-1.748-1.101-3.384-2.179-4.464c-1.259-1.264-3.56-2.561-5.517-3.641
					C459.161,358.628,456.58,357.114,453.909,357.326z"/>
			</g>
			<g>
			</g>
		</g>
		<path fill="#4F3D28" d="M484.816,388.565c-1.044-2.973-2.397-6.028-4.535-6.152c-1.42-0.076-3.079,1.025-4.025,1.972
			c-0.578,0.579-1,1.289-1.406,1.976c-0.487,0.819-0.952,1.602-1.646,2.117c-0.475-0.954-0.976-1.885-1.464-2.788
			c-0.438-0.812-0.888-1.646-1.316-2.493c2.246-2.943,4.959-6.584,5.127-10.792c0.165-4.092-2.148-6.533-4.188-8.688l-0.465-0.493
			c-3.76-4.016-7.305-7.094-12.394-9.064c-2.12-0.82-5.14-1.698-7.253-1.698c-0.586,0-1.094,0.067-1.507,0.199
			c-1.833,0.587-3.206,3.148-4.419,5.409c-0.447,0.833-0.875,1.629-1.273,2.227c-2.045-0.799-4.802-1.235-7.826-1.235
			c-3,0-5.891,0.443-8.021,1.223c-0.199-0.371-0.403-0.767-0.612-1.175c-1.337-2.599-3.002-5.832-5.455-6.456
			c-0.294-0.076-0.655-0.114-1.071-0.114c-2.2,0-5.725,1.047-7.525,1.791c-2.386,0.985-4.625,2.289-6.657,3.875
			c-2.891,2.259-8.906,6.956-9.932,11.738c-1.005,4.691,1.384,8.122,3.492,11.146c0.527,0.756,1.028,1.476,1.475,2.201
			c-0.514,0.824-0.968,1.716-1.408,2.581c-0.449,0.884-0.912,1.794-1.432,2.609c-0.615-0.524-1.047-1.252-1.501-2.017
			c-0.426-0.716-0.866-1.457-1.488-2.079c-0.811-0.812-2.757-2.231-4.368-1.967c-1.453,0.24-2.824,2.251-4.19,6.147
			c-1.481,4.225-2.03,10.971-0.126,15.154c0.713,1.57,2.55,4.082,4.291,3.954c1.009-0.076,1.529-0.811,1.932-1.458
			c-0.346,1.858-0.827,3.659-1.331,5.541c-1.188,4.449-2.418,9.05-1.745,14.621c0.279,2.314,1.357,3.983,2.4,5.596
			c0.726,1.127,1.413,2.188,1.838,3.452c0.375,1.118,0.446,2.595,0.515,4.024c0.068,1.406,0.137,2.86,0.496,4.062
			c0.529,1.782,2.695,4.409,4.766,4.192c0.779-0.078,1.498-0.533,2.139-1.356c1.527-1.961,2.435-5.907,2.114-9.18
			c-0.309-3.15-1.722-5.925-3.088-8.606c-1.405-2.76-2.859-5.611-3.155-8.924c-0.228-2.519,0.056-5.17,0.468-7.539
			c0.282,1.5,0.62,3.08,1.124,4.481c2.321,6.446,8.033,13.89,13.287,17.312c4.916,3.204,12.449,7.168,20.424,7.857
			c1.61,0.14,2.954,0.138,4.447-0.001c7.715-0.71,15.807-4.157,22.784-9.704c6.036-4.8,10.388-11.791,12.231-19.523
			c0.42,2.894,0.803,5.841,0.294,8.204c-0.559,2.607-1.758,5.041-2.915,7.393c-1.424,2.893-2.895,5.881-3.194,9.219
			c-0.195,2.145,0.129,4.625,0.862,6.632c0.83,2.274,2.034,3.601,3.389,3.735c0.078,0.008,0.156,0.012,0.234,0.012
			c2.004,0,4.024-2.489,4.534-4.204c0.361-1.214,0.422-2.685,0.48-4.104c0.062-1.476,0.125-2.999,0.527-4.141
			c0.438-1.242,1.109-2.263,1.821-3.344c1.061-1.612,2.158-3.281,2.42-5.718c0.597-5.541-0.596-10.093-1.751-14.497
			c-0.459-1.755-0.931-3.555-1.281-5.402c0.399,0.65,0.936,1.352,2.089,1.369c1.581,0,3.343-2.312,4.09-3.955
			C486.953,399.295,486.287,392.763,484.816,388.565z M474.515,442.693c-0.32,1.17-1.731,2.577-2.383,2.577c0,0,0,0-0.001,0
			c-1.585-0.041-2.545-3.652-2.532-6.224c0.019-3.979,1.713-7.338,3.351-10.587c1.311-2.6,2.548-5.057,2.89-7.702
			c0.282-2.189,0.184-5.078-0.291-8.589c-1.016-7.511-4.106-14.937-5.859-18.694c-2.407-5.158-5.63-8.248-9.043-11.518
			c-0.009-0.008-0.017-0.015-0.025-0.023c2.105,0.893,4.489,1.794,7.436,1.794c0.241,0,0.484-0.007,0.728-0.02
			c4.704,8.115,7.25,19.728,9.499,29.987l0.042,0.185c0.944,4.302,2.238,10.193,0.851,14.051c-0.353,0.982-0.987,1.919-1.66,2.912
			c-0.744,1.099-1.513,2.234-1.972,3.543c-0.463,1.322-0.532,2.912-0.597,4.449C474.89,440.165,474.832,441.541,474.515,442.693z
			 M401.71,405.73c0.827-4.742,3.563-8.933,6.109-11.08c2.624-2.213,5.843-4.047,8.832-5.031c1.793-0.589,4.006-1.761,9.338-1.301
			c0.049,0.006,0.105-0.025,0.154-0.007c2.462,0.887,3.754,1.569,5.566,3.038c1.568,1.269,2.891,2.883,3.931,4.797l0.415,0.766
			l0.479-0.724c1.998-3.024,3.703-4.714,6.516-6.455c0.209-0.129,0.421-0.311,0.675-0.44c4.79-2.456,10.212-0.252,11.969,0.326
			c3.055,1.005,6.83,3.344,8.832,5.031c3.126,2.639,6.247,7.574,6.245,12.8c-0.002,3.41-0.69,6.708-1.75,9.201
			c-1.203,2.83-3.262,6.089-5.125,8.11c-2.674,2.902-7.156,6.93-13.332,9.632c-4.564,2.002-9.564,3.853-15.186,3.853
			c-0.71,0-1.431-0.029-2.143-0.087c-3.776-0.31-8.022-2.154-12.128-3.938c-0.505-0.219-1.008-0.439-1.509-0.654
			c-4.955-2.131-9.894-7.399-11.288-8.964c-1.777-1.992-3.875-5.336-4.987-7.951C402.016,413.573,401.11,409.179,401.71,405.73z
			 M406.059,391.925c1.557-2.547,3.695-4.785,5.779-6.967c0.705-0.738,1.435-1.501,2.131-2.266c1.903-2.088,3.678-3.808,5.761-5.577
			c2.836-2.411,5.768-4.904,7.834-9.11c0.179-0.362,0.385-0.688,0.584-1.004c0.575-0.911,1.169-1.853,1.103-3.622
			c2.203-0.562,4.527-0.845,6.921-0.845c2.417,0,4.767,0.29,6.987,0.862c0.541,5.219,3.773,8.345,6.633,11.11l0.617,0.599
			c0.263,0.256,0.511,0.518,0.756,0.774c0.454,0.475,0.923,0.964,1.456,1.404c0.39,0.323,0.821,0.579,1.238,0.827
			c0.439,0.259,0.854,0.504,1.222,0.821c0.685,0.59,1.418,1.443,2.126,2.268c0.395,0.46,0.787,0.917,1.172,1.33l0.542,0.583
			c2.387,2.565,5.018,5.394,7.103,8.423c-6.7-4.788-17.807-7.676-30.03-7.676C423.514,383.86,412.606,386.836,406.059,391.925z
			 M472.04,376.276l-0.243,0.477c-0.727,1.438-1.638,2.729-2.941,4.156c-6.382-0.389-12.246-3.227-17.433-8.435l-0.432-0.433
			c-0.953-0.951-1.939-1.935-2.558-2.806c-1.263-1.775-2.752-4.275-2.801-5.479c-0.04-1.048,2.103-5.528,4-7.607
			c0.771-0.846,1.153-0.911,1.252-0.911v-0.554l0,0l0.008,0.554c6.733,0.281,12.602,3.202,17.944,8.932l0.464,0.494
			c1.635,1.736,3.874,4.114,4.182,6.311C473.76,372.936,472.846,374.71,472.04,376.276z M420.688,355.236
			c2.032,0,2.941,1.684,4.092,3.813l0.112,0.21c0.08,0.146,0.17,0.309,0.267,0.481c0.636,1.146,1.599,2.877,1.552,4.016
			c-0.05,1.271-1.614,3.831-2.939,5.638c-1.446,1.972-4.197,4.739-6.131,6.171c-4.382,3.242-9.142,5.039-14.15,5.344
			c-1.184-1.311-2.1-2.49-2.943-4.156l-0.159-0.316c-0.815-1.604-1.74-3.424-1.525-5.312c0.257-2.25,2.715-4.886,4.511-6.809
			l0.135-0.146c5.437-5.83,11.02-8.752,17.066-8.932L420.688,355.236z M411.53,382.05c-0.349,0.361-0.704,0.724-1.065,1.093
			c-2.829,2.893-5.754,5.884-7.807,10.162c-0.854,1.78-1.634,3.953-2.389,6.054l-0.159,0.442c-1.92,5.345-4.552,12.667-3.604,20.785
			c0.352,3.015,1.699,5.631,3.002,8.161c1.538,2.987,3.128,6.076,3.239,9.983c0.064,2.253-0.692,6.367-2.475,6.545
			c-0.778,0-2.126-1.424-2.444-2.582c-0.312-1.138-0.382-2.515-0.451-3.847c-0.076-1.489-0.154-3.027-0.575-4.289
			c-0.495-1.483-1.252-2.639-1.984-3.756c-1.007-1.538-1.958-2.99-2.201-5.22c-0.397-3.647,0.56-8.021,1.329-11.536l0.114-0.517
			c2.456-11.272,5.035-22.037,9.507-29.832C406.802,383.755,409.368,383.014,411.53,382.05z M478.277,393.777
			c0.645,0.06,1.579,0.482,2.05,0.97c0.411,0.429,0.35,0.916,1.02,1.154l0.665,0.236l0.035-0.737
			c0.046-1.003-0.241-1.877-0.832-2.528c-0.677-0.748-1.75-1.178-2.945-1.178c-1.359,0-1.882,0.575-2.761,1.812
			c-0.008-0.018-0.013-0.036-0.02-0.054c-0.364-0.979-0.736-1.987-1.217-2.889c0.791-0.652,1.449-1.509,2.091-2.34
			c1.108-1.439,2.158-2.802,3.753-3.026c3.571,2.675,4.625,14.447,2.302,18.316c-0.317,0.527-1.168,1.349-1.427,1.395
			c-0.367-0.011-0.632-0.396-1.036-1.024c-0.475-0.74-1.058-1.649-2.167-1.779c-0.385-2.14-0.951-4.061-1.596-6.129
			C477.141,394.68,477.001,393.665,478.277,393.777z M397.694,391.382c-0.306,0.661-0.618,1.336-0.862,2.099
			c-0.9-1.083-1.31-1.788-2.838-1.788c-2.099,0-3.567,1.319-3.836,3.443l-0.072,0.575l0.548,0.052
			c0.06,0.006,0.119,0.009,0.175,0.009h0.001c0.845-1.604,1.524-1.92,2.077-1.996c3.74-0.511,3.139,1.961,3.262,2.092
			c-0.153,0.569-0.314,1.129-0.475,1.688c-0.413,1.435-0.84,2.914-1.123,4.55c-1.118,0.131-1.701,1.057-2.177,1.812
			c-0.31,0.491-0.602,0.955-0.924,0.994c-0.3,0-1.155-0.784-1.525-1.397c-2.608-4.348-0.893-15.374,2.076-18.331
			c1.692,0.082,2.708,1.411,3.78,2.816c0.69,0.904,1.4,1.834,2.323,2.476C397.975,390.776,397.837,391.074,397.694,391.382z"/>
		<g>
			<path fill="#4F3D28" d="M451.905,397.36l-0.053-0.017l-0.056,0.008c-1.925,0.269-2.737,3.545-2.543,6.642
				c0.136,2.156,0.813,4.462,2.306,4.462c0.037,0,0.074-0.001,0.11-0.006c1.057-0.084,1.795-1.468,2.027-3.797
				C453.961,401.979,453.477,397.845,451.905,397.36z"/>
			<path fill="#4F3D28" d="M421.227,397.36l-0.054-0.017l-0.055,0.008c-1.926,0.269-2.737,3.545-2.543,6.642
				c0.135,2.156,0.812,4.462,2.305,4.462c0.037,0,0.073-0.001,0.111-0.006c1.056-0.084,1.794-1.468,2.025-3.797
				C423.283,401.979,422.798,397.845,421.227,397.36z"/>
		</g>
		<path fill="#4F3D28" d="M421.573,356.356l-0.133-0.085l-0.176,0.006c0.421,1.203-0.134,2.847-0.476,3.536
			c-1.384,2.798-4.751,5.071-7.862,6.925c-3.831,2.285-7.689,4.348-12.755,4.509c-0.188,0.005-0.379,0.005-0.57,0.007l0.017,1.057
			c0.551,0.028,1.104,0.033,1.643,0.017c5.066-0.162,8.924-2.226,12.755-4.509c3.111-1.854,6.478-4.128,7.862-6.925
			C422.332,359.974,423.165,357.369,421.573,356.356z"/>
		<g id="XMLID_21_">
			<g>
				<path fill="#4F3D28" d="M418.737,357.326c0.196,2.071-1.179,3.657-2.322,4.799c-2.327,2.338-4.914,4.108-8.135,5.622
					c-1.439,0.679-3.428,1.737-4.935,0.334c-0.053-1.748,1.1-3.384,2.179-4.464c1.259-1.264,3.56-2.561,5.517-3.641
					C413.485,358.628,416.066,357.114,418.737,357.326z"/>
			</g>
			<g>
			</g>
		</g>
	</g>
</g>
</svg>
