<svg xmlns="http://www.w3.org/2000/svg" width="299.997" height="171" viewBox="0 -0.217 299.997 171"><path fill="#958A7E" d="M61.688 78.289c2.195 0 4.291.456 6.282 1.363a17.427 17.427 0 0 1 5.252 3.674c1.511 1.538 2.713 3.334 3.605 5.385.896 2.055 1.34 4.246 1.34 6.578v14.76c0 .607-.207 1.119-.617 1.538-.413.421-.917.63-1.512.63-.591 0-1.098-.21-1.507-.63-.415-.419-.62-.931-.62-1.538v-4.271c-1.508 1.728-3.332 3.207-5.46 4.44a13.517 13.517 0 0 1-6.903 1.854c-2.288 0-4.429-.422-6.419-1.262a16.485 16.485 0 0 1-5.253-3.498c-1.51-1.491-2.703-3.266-3.571-5.315-.869-2.053-1.304-4.291-1.304-6.718 0-2.332.423-4.515 1.272-6.541a16.655 16.655 0 0 1 3.501-5.317c1.486-1.514 3.249-2.73 5.286-3.639 2.038-.898 4.247-1.399 6.628-1.493zM49.258 95.29c0 1.728.32 3.346.961 4.862a12.658 12.658 0 0 0 2.646 3.987 12.374 12.374 0 0 0 3.913 2.692c1.484.652 3.078.979 4.771.979 1.65 0 3.206-.314 4.674-.942a12.39 12.39 0 0 0 3.877-2.626 12.762 12.762 0 0 0 2.679-3.954c.663-1.515 1.042-3.188 1.133-5.001 0-1.728-.322-3.357-.959-4.898a12.683 12.683 0 0 0-2.644-4.021 12.29 12.29 0 0 0-3.951-2.694 12.001 12.001 0 0 0-4.807-.981c-1.696 0-3.287.33-4.773.981a12.403 12.403 0 0 0-3.912 2.694 12.568 12.568 0 0 0-2.645 4.021 12.606 12.606 0 0 0-.963 4.901zM94.227 112.219h-9.784a2.048 2.048 0 0 1-1.507-.628 2.12 2.12 0 0 1-.615-1.533c0-.602.207-1.117.615-1.537.411-.419.92-.629 1.507-.629h9.784c.717 0 1.397-.137 2.023-.41a5.113 5.113 0 0 0 1.618-1.095 5.388 5.388 0 0 0 1.078-1.627 4.982 4.982 0 0 0 .401-1.979 4.97 4.97 0 0 0-.401-1.975 5.295 5.295 0 0 0-1.078-1.628 5.1 5.1 0 0 0-1.618-1.097 5.053 5.053 0 0 0-2.023-.412h-3.643a8.7 8.7 0 0 1-3.684-.79 9.637 9.637 0 0 1-4.963-5.216 10.117 10.117 0 0 1-.719-3.786c0-1.327.243-2.586.721-3.737a9.494 9.494 0 0 1 1.996-3.033 9.691 9.691 0 0 1 2.971-2.058 9.056 9.056 0 0 1 3.676-.76h10.286c.588 0 1.095.212 1.505.628.408.412.621.941.621 1.535 0 .598-.22 1.122-.63 1.519a2.074 2.074 0 0 1-1.494.592H90.583c-.715 0-1.385.139-1.988.409a5.063 5.063 0 0 0-1.616 1.145 5.667 5.667 0 0 0-1.108 1.684 5.149 5.149 0 0 0-.402 2.027c0 .731.14 1.434.406 2.088a5.834 5.834 0 0 0 1.111 1.756 5.226 5.226 0 0 0 1.619 1.191c.602.286 1.27.429 1.981.429h3.646c1.302 0 2.539.247 3.669.732a9.393 9.393 0 0 1 2.979 2.031 9.493 9.493 0 0 1 1.996 3.033 9.616 9.616 0 0 1 .72 3.688 9.573 9.573 0 0 1-.72 3.687 9.163 9.163 0 0 1-2 3.016 9.46 9.46 0 0 1-2.975 2.002c-1.135.493-2.371.738-3.674.738zM119.331 112.219a2.047 2.047 0 0 1-1.504-.626 2.118 2.118 0 0 1-.62-1.529V82.605h-8.137a2.034 2.034 0 0 1-1.498-.628 2.135 2.135 0 0 1-.616-1.529c0-.588.211-1.117.616-1.528a2.02 2.02 0 0 1 1.498-.626h20.512c.588 0 1.091.211 1.504.626.408.415.615.93.615 1.528 0 .601-.207 1.113-.615 1.531a2.043 2.043 0 0 1-1.504.626h-8.137v27.458c0 .6-.207 1.111-.618 1.527a2.016 2.016 0 0 1-1.496.629zM137.763 112.219c-.583 0-1.086-.21-1.492-.622s-.611-.923-.611-1.516V80.434a2.1 2.1 0 0 1 .611-1.521 2.011 2.011 0 0 1 1.492-.623h8.399c1.682 0 3.279.331 4.749.98a12.39 12.39 0 0 1 3.832 2.638 12.637 12.637 0 0 1 2.592 3.904 12.16 12.16 0 0 1 .961 4.788c0 1.683-.325 3.292-.961 4.787-.639 1.488-1.508 2.802-2.592 3.904a12.053 12.053 0 0 1-3.838 2.619 11.82 11.82 0 0 1-4.424.943l7.473 5.341c.473.309.781.768.897 1.346a2.16 2.16 0 0 1-.302 1.607c-.275.469-.743.772-1.393.889-.639.111-1.209-.02-1.697-.38l-11.597-8.266v6.688c0 .593-.207 1.104-.614 1.516a1.998 1.998 0 0 1-1.485.625zm2.1-13.644h6.299c1.103 0 2.14-.215 3.082-.632a8.319 8.319 0 0 0 2.521-1.72 7.953 7.953 0 0 0 1.705-2.535c.413-.961.62-1.998.62-3.09a7.801 7.801 0 0 0-.62-3.092 8.263 8.263 0 0 0-1.706-2.563 8.125 8.125 0 0 0-2.517-1.739c-.943-.422-1.982-.631-3.082-.631h-6.301l-.001 16.002zM164.772 97.396a12 12 0 0 0 1.448 4.181 12.788 12.788 0 0 0 2.725 3.34 12.505 12.505 0 0 0 3.688 2.212c1.379.54 2.828.807 4.346.807 1.701 0 3.284-.312 4.757-.942a12.939 12.939 0 0 0 3.931-2.635 2.037 2.037 0 0 1 1.519-.635c.593 0 1.103.211 1.515.635.414.42.621.938.621 1.544 0 .611-.207 1.124-.621 1.547-1.515 1.732-3.229 2.963-5.138 3.688-1.905.729-4.104 1.089-6.585 1.089-2.301 0-4.448-.423-6.445-1.265-2-.841-3.759-2.012-5.277-3.512-1.52-1.5-2.711-3.277-3.586-5.338s-1.312-4.31-1.312-6.744c0-2.343.426-4.531 1.277-6.568s2.021-3.816 3.517-5.338c1.494-1.521 3.265-2.742 5.31-3.655 2.045-.914 4.265-1.416 6.654-1.507 2.207 0 4.284.446 6.241 1.334a17.955 17.955 0 0 1 5.206 3.584c1.52 1.5 2.725 3.255 3.621 5.268.895 2.018 1.389 4.168 1.48 6.462.09.8-.102 1.409-.586 1.828-.482.42-.996.63-1.55.63h-26.755v-.01h-.001zm12.207-14.68c-1.518 0-2.953.265-4.311.806a13.1 13.1 0 0 0-3.657 2.182c-1.079.91-1.978 2-2.688 3.267a13.179 13.179 0 0 0-1.482 4.074h24.344a12.736 12.736 0 0 0-1.516-4.074 12.538 12.538 0 0 0-2.724-3.267 13.133 13.133 0 0 0-3.655-2.182 11.569 11.569 0 0 0-4.311-.806zM212.933 78.289a15 15 0 0 1 6.284 1.363 17.443 17.443 0 0 1 5.25 3.674 17.592 17.592 0 0 1 3.605 5.385c.896 2.055 1.344 4.246 1.344 6.578v14.76c0 .607-.209 1.119-.623 1.538-.412.421-.912.63-1.506.63-.597 0-1.104-.21-1.513-.63a2.109 2.109 0 0 1-.618-1.538v-4.271c-1.512 1.728-3.33 3.207-5.461 4.44a13.51 13.51 0 0 1-6.9 1.854c-2.289 0-4.43-.422-6.42-1.262a16.436 16.436 0 0 1-5.252-3.498c-1.512-1.491-2.705-3.266-3.572-5.315-.868-2.053-1.305-4.291-1.305-6.718 0-2.332.422-4.515 1.271-6.541.847-2.028 2.014-3.801 3.502-5.317 1.487-1.514 3.249-2.73 5.288-3.639 2.037-.898 4.246-1.399 6.626-1.493zM200.506 95.29c0 1.728.316 3.346.957 4.862a12.657 12.657 0 0 0 2.646 3.988 12.408 12.408 0 0 0 3.913 2.692c1.487.652 3.077.979 4.774.979 1.647 0 3.201-.314 4.67-.942a12.357 12.357 0 0 0 3.88-2.626 12.757 12.757 0 0 0 2.677-3.954c.664-1.515 1.041-3.188 1.135-5.001 0-1.727-.32-3.358-.961-4.899a12.669 12.669 0 0 0-2.643-4.021 12.305 12.305 0 0 0-3.954-2.693 11.976 11.976 0 0 0-4.804-.981c-1.697 0-3.287.33-4.774.981-1.485.654-2.79 1.549-3.913 2.693s-2.006 2.481-2.646 4.021a12.656 12.656 0 0 0-.957 4.901zM235.825 90.935s-.961-7.361-6.484-12.885c-5.523-5.527-12.693-6.292-12.693-6.292s7.635-1.229 12.823-6.421c5.19-5.194 6.354-12.755 6.354-12.755s.991 7.394 6.211 12.615c5.219 5.219 12.963 6.562 12.963 6.562s-6.927.528-12.689 6.292c-5.767 5.761-6.485 12.884-6.485 12.884z"/></svg>