<?xml version="1.0" encoding="utf-8"?>
<!-- Generator: Adobe Illustrator 16.0.4, SVG Export Plug-In . SVG Version: 6.00 Build 0)  -->
<!DOCTYPE svg PUBLIC "-//W3C//DTD SVG 1.1//EN" "http://www.w3.org/Graphics/SVG/1.1/DTD/svg11.dtd">
<svg version="1.1" id="Layer_1" xmlns="http://www.w3.org/2000/svg" xmlns:xlink="http://www.w3.org/1999/xlink" x="0px" y="0px"
	 width="299.997px" height="171px" viewBox="0 -0.217 299.997 171" enable-background="new 0 -0.217 299.997 171"
	 xml:space="preserve">
<g>
	<g>
		<path fill="#958A7E" d="M61.688,78.289c2.195,0,4.291,0.456,6.282,1.363c1.99,0.908,3.744,2.136,5.252,3.674
			c1.511,1.538,2.713,3.334,3.605,5.385c0.896,2.055,1.34,4.246,1.34,6.578v14.76c0,0.607-0.207,1.119-0.617,1.538
			c-0.413,0.421-0.917,0.63-1.512,0.63c-0.591,0-1.098-0.21-1.507-0.63c-0.415-0.419-0.62-0.931-0.62-1.538v-4.271
			c-1.508,1.728-3.332,3.207-5.46,4.44c-2.129,1.236-4.431,1.854-6.903,1.854c-2.288,0-4.429-0.422-6.419-1.262
			c-1.99-0.838-3.743-2.003-5.253-3.498c-1.51-1.491-2.703-3.266-3.571-5.315c-0.869-2.053-1.304-4.291-1.304-6.718
			c0-2.332,0.423-4.515,1.272-6.541c0.845-2.028,2.013-3.801,3.501-5.317c1.486-1.514,3.249-2.73,5.286-3.639
			C57.098,78.884,59.307,78.383,61.688,78.289z M49.258,95.29c0,1.728,0.32,3.346,0.961,4.862c0.642,1.515,1.522,2.846,2.646,3.987
			c1.121,1.146,2.425,2.038,3.913,2.692c1.484,0.652,3.078,0.979,4.771,0.979c1.65,0,3.206-0.314,4.674-0.942
			c1.462-0.633,2.756-1.505,3.877-2.626c1.121-1.119,2.015-2.438,2.679-3.954c0.663-1.515,1.042-3.188,1.133-5.001
			c0-1.728-0.322-3.357-0.959-4.898c-0.644-1.539-1.526-2.879-2.644-4.021c-1.123-1.146-2.438-2.04-3.951-2.694
			c-1.51-0.652-3.113-0.981-4.807-0.981c-1.696,0-3.287,0.33-4.773,0.981c-1.488,0.654-2.79,1.549-3.912,2.694
			c-1.123,1.143-2.003,2.481-2.645,4.021C49.578,91.932,49.258,93.564,49.258,95.29z"/>
		<g>
			<path fill="#958A7E" d="M94.227,112.219h-9.784c-0.586,0-1.097-0.211-1.507-0.628c-0.408-0.418-0.615-0.933-0.615-1.533
				c0-0.602,0.207-1.117,0.615-1.537c0.411-0.419,0.92-0.629,1.507-0.629h9.784c0.717,0,1.397-0.137,2.023-0.41
				c0.628-0.273,1.172-0.642,1.618-1.095c0.447-0.459,0.81-1.008,1.078-1.627c0.265-0.618,0.401-1.281,0.401-1.979
				c0-0.695-0.136-1.358-0.401-1.975c-0.271-0.628-0.634-1.177-1.078-1.628c-0.446-0.453-0.987-0.823-1.618-1.097
				c-0.625-0.271-1.305-0.412-2.023-0.412h-3.643c-1.307,0-2.549-0.264-3.684-0.79c-1.125-0.516-2.124-1.224-2.969-2.107
				c-0.849-0.882-1.519-1.928-1.994-3.109c-0.476-1.186-0.719-2.46-0.719-3.786c0-1.327,0.243-2.586,0.721-3.737
				c0.478-1.148,1.149-2.174,1.996-3.033c0.845-0.862,1.844-1.552,2.971-2.058c1.137-0.501,2.373-0.76,3.676-0.76h10.286
				c0.588,0,1.095,0.212,1.505,0.628c0.408,0.412,0.621,0.941,0.621,1.535c0,0.598-0.22,1.122-0.63,1.519
				c-0.407,0.394-0.909,0.592-1.494,0.592H90.583c-0.715,0-1.385,0.139-1.988,0.409c-0.61,0.273-1.155,0.658-1.616,1.145
				c-0.464,0.487-0.839,1.055-1.108,1.684c-0.263,0.617-0.402,1.301-0.402,2.027c0,0.731,0.14,1.434,0.406,2.088
				c0.272,0.662,0.646,1.254,1.111,1.756c0.462,0.502,1.009,0.903,1.619,1.191c0.602,0.286,1.27,0.429,1.981,0.429h3.646
				c1.302,0,2.539,0.247,3.669,0.732c1.129,0.488,2.131,1.171,2.979,2.031c0.851,0.865,1.52,1.888,1.996,3.033
				c0.476,1.155,0.72,2.392,0.72,3.688c0,1.297-0.243,2.536-0.72,3.687c-0.478,1.155-1.151,2.172-2,3.016
				c-0.847,0.847-1.85,1.519-2.975,2.002C96.766,111.974,95.53,112.219,94.227,112.219z"/>
		</g>
		<g>
			<path fill="#958A7E" d="M119.331,112.219c-0.588,0-1.092-0.211-1.504-0.626c-0.408-0.417-0.62-0.931-0.62-1.529V82.605h-8.137
				c-0.583,0-1.092-0.213-1.498-0.628c-0.404-0.412-0.616-0.939-0.616-1.529c0-0.588,0.211-1.117,0.616-1.528
				c0.406-0.418,0.915-0.626,1.498-0.626h20.512c0.588,0,1.091,0.211,1.504,0.626c0.408,0.415,0.615,0.93,0.615,1.528
				c0,0.601-0.207,1.113-0.615,1.531c-0.413,0.416-0.915,0.626-1.504,0.626h-8.137v27.458c0,0.6-0.207,1.111-0.618,1.527
				C120.422,112.008,119.915,112.219,119.331,112.219z"/>
		</g>
		<g>
			<path fill="#958A7E" d="M137.763,112.219c-0.583,0-1.086-0.21-1.492-0.622s-0.611-0.923-0.611-1.516V80.434
				c0-0.596,0.205-1.106,0.611-1.521c0.406-0.415,0.906-0.623,1.492-0.623h8.399c1.682,0,3.279,0.331,4.749,0.98
				c1.461,0.648,2.746,1.535,3.832,2.638c1.084,1.103,1.953,2.415,2.592,3.904c0.636,1.495,0.961,3.106,0.961,4.788
				c0,1.683-0.325,3.292-0.961,4.787c-0.639,1.488-1.508,2.802-2.592,3.904c-1.086,1.104-2.373,1.986-3.838,2.619
				c-1.371,0.59-2.859,0.907-4.424,0.943l7.473,5.341c0.473,0.309,0.781,0.768,0.897,1.346c0.11,0.568,0.011,1.108-0.302,1.607
				c-0.275,0.469-0.743,0.772-1.393,0.889c-0.639,0.111-1.209-0.02-1.697-0.38l-11.597-8.266v6.688c0,0.593-0.207,1.104-0.614,1.516
				C138.847,112.009,138.344,112.219,137.763,112.219z M139.863,98.575h6.299c1.103,0,2.14-0.215,3.082-0.632
				c0.954-0.423,1.801-1.001,2.521-1.72c0.719-0.717,1.293-1.567,1.705-2.535c0.413-0.961,0.62-1.998,0.62-3.09
				c0-1.088-0.207-2.128-0.62-3.092c-0.412-0.967-0.985-1.828-1.706-2.563c-0.719-0.732-1.568-1.319-2.517-1.739
				c-0.943-0.422-1.982-0.631-3.082-0.631h-6.301L139.863,98.575L139.863,98.575z"/>
		</g>
		<path fill="#958A7E" d="M164.772,97.396c0.229,1.501,0.713,2.895,1.448,4.181c0.735,1.292,1.646,2.398,2.725,3.34
			c1.078,0.936,2.308,1.674,3.688,2.212c1.379,0.54,2.828,0.807,4.346,0.807c1.701,0,3.284-0.312,4.757-0.942
			c1.47-0.636,2.781-1.513,3.931-2.635c0.414-0.424,0.918-0.635,1.519-0.635c0.593,0,1.103,0.211,1.515,0.635
			c0.414,0.42,0.621,0.938,0.621,1.544c0,0.611-0.207,1.124-0.621,1.547c-1.515,1.732-3.229,2.963-5.138,3.688
			c-1.905,0.729-4.104,1.089-6.585,1.089c-2.301,0-4.448-0.423-6.445-1.265c-2-0.841-3.759-2.012-5.277-3.512
			c-1.52-1.5-2.711-3.277-3.586-5.338s-1.312-4.31-1.312-6.744c0-2.343,0.426-4.531,1.277-6.568
			c0.851-2.037,2.021-3.816,3.517-5.338c1.494-1.521,3.265-2.742,5.31-3.655c2.045-0.914,4.265-1.416,6.654-1.507
			c2.207,0,4.284,0.446,6.241,1.334c1.953,0.892,3.688,2.084,5.206,3.584c1.52,1.5,2.725,3.255,3.621,5.268
			c0.895,2.018,1.389,4.168,1.48,6.462c0.09,0.8-0.102,1.409-0.586,1.828c-0.482,0.42-0.996,0.63-1.55,0.63h-26.755V97.396
			L164.772,97.396z M176.979,82.716c-1.518,0-2.953,0.265-4.311,0.806c-1.357,0.542-2.578,1.265-3.657,2.182
			c-1.079,0.91-1.978,2-2.688,3.267c-0.715,1.265-1.209,2.624-1.482,4.074h24.344c-0.273-1.45-0.781-2.811-1.516-4.074
			c-0.739-1.264-1.646-2.353-2.724-3.267c-1.079-0.916-2.301-1.641-3.655-2.182C179.934,82.983,178.495,82.716,176.979,82.716z"/>
		<path fill="#958A7E" d="M212.933,78.289c2.196,0,4.292,0.456,6.284,1.363c1.986,0.908,3.744,2.136,5.25,3.674
			c1.513,1.539,2.715,3.334,3.605,5.385c0.896,2.055,1.344,4.246,1.344,6.578v14.76c0,0.607-0.209,1.119-0.623,1.538
			c-0.412,0.421-0.912,0.63-1.506,0.63c-0.597,0-1.104-0.21-1.513-0.63c-0.412-0.419-0.618-0.931-0.618-1.538v-4.271
			c-1.512,1.728-3.33,3.207-5.461,4.44c-2.128,1.236-4.43,1.854-6.9,1.854c-2.289,0-4.43-0.422-6.42-1.262
			c-1.99-0.838-3.746-2.003-5.252-3.498c-1.512-1.491-2.705-3.266-3.572-5.315c-0.868-2.053-1.305-4.291-1.305-6.718
			c0-2.332,0.422-4.515,1.271-6.541c0.847-2.028,2.014-3.801,3.502-5.317c1.487-1.514,3.249-2.73,5.288-3.639
			C208.344,78.884,210.553,78.383,212.933,78.289z M200.506,95.29c0,1.728,0.316,3.346,0.957,4.862
			c0.641,1.515,1.522,2.846,2.646,3.988c1.121,1.146,2.428,2.038,3.913,2.692c1.487,0.652,3.077,0.979,4.774,0.979
			c1.647,0,3.201-0.314,4.67-0.942c1.466-0.633,2.759-1.505,3.88-2.626c1.12-1.119,2.014-2.438,2.677-3.954
			c0.664-1.515,1.041-3.188,1.135-5.001c0-1.727-0.32-3.358-0.961-4.899c-0.644-1.539-1.523-2.877-2.643-4.021
			c-1.123-1.145-2.44-2.039-3.954-2.693c-1.507-0.652-3.11-0.981-4.804-0.981c-1.697,0-3.287,0.33-4.774,0.981
			c-1.485,0.654-2.79,1.549-3.913,2.693s-2.006,2.481-2.646,4.021C200.823,91.932,200.506,93.564,200.506,95.29z"/>
	</g>
	<path fill="#958A7E" d="M235.825,90.935c0,0-0.961-7.361-6.484-12.885c-5.523-5.527-12.693-6.292-12.693-6.292
		s7.635-1.229,12.823-6.421c5.19-5.194,6.354-12.755,6.354-12.755s0.991,7.394,6.211,12.615c5.219,5.219,12.963,6.562,12.963,6.562
		s-6.927,0.528-12.689,6.292C236.543,83.812,235.825,90.935,235.825,90.935z"/>
</g>
</svg>
