<?xml version="1.0" encoding="utf-8"?>
<!-- Generator: Adobe Illustrator 16.0.0, SVG Export Plug-In . SVG Version: 6.00 Build 0)  -->
<!DOCTYPE svg PUBLIC "-//W3C//DTD SVG 1.0//EN" "http://www.w3.org/TR/2001/REC-SVG-20010904/DTD/svg10.dtd">
<svg version="1.0" id="Layer_1" xmlns="http://www.w3.org/2000/svg" xmlns:xlink="http://www.w3.org/1999/xlink" x="0px" y="0px"
	 width="1280px" height="800px" viewBox="0 0 1280 800" enable-background="new 0 0 1280 800" xml:space="preserve">
<g>
	<g>
		<path fill="#958A7E" d="M548.324,426.688c2.28,0,4.455,0.472,6.523,1.416c2.066,0.942,3.885,2.215,5.453,3.813
			c1.567,1.598,2.816,3.461,3.741,5.59c0.93,2.133,1.391,4.407,1.391,6.828v15.324c0,0.629-0.214,1.161-0.641,1.595
			c-0.428,0.438-0.951,0.655-1.569,0.655c-0.616,0-1.14-0.218-1.567-0.655c-0.428-0.434-0.641-0.966-0.641-1.595v-4.431
			c-1.568,1.792-3.458,3.329-5.668,4.609c-2.21,1.284-4.599,1.926-7.165,1.926c-2.376,0-4.598-0.437-6.665-1.309
			c-2.067-0.87-3.885-2.08-5.453-3.631c-1.569-1.549-2.805-3.389-3.708-5.518c-0.903-2.13-1.354-4.454-1.354-6.972
			c0-2.421,0.439-4.685,1.32-6.791c0.878-2.106,2.09-3.945,3.636-5.519c1.543-1.572,3.372-2.833,5.487-3.778
			C543.558,427.306,545.851,426.785,548.324,426.688z M535.42,444.336c0,1.793,0.332,3.473,0.998,5.048
			c0.666,1.572,1.58,2.953,2.746,4.139c1.164,1.188,2.517,2.118,4.063,2.795c1.542,0.678,3.195,1.017,4.954,1.017
			c1.712,0,3.327-0.327,4.849-0.979c1.519-0.655,2.863-1.562,4.028-2.724c1.163-1.162,2.091-2.53,2.781-4.104
			c0.687-1.572,1.081-3.306,1.176-5.192c0-1.792-0.334-3.486-0.997-5.086c-0.667-1.597-1.583-2.987-2.745-4.174
			c-1.166-1.186-2.532-2.118-4.101-2.796c-1.567-0.677-3.232-1.017-4.99-1.017c-1.759,0-3.412,0.34-4.954,1.017
			c-1.546,0.678-2.899,1.61-4.063,2.796c-1.166,1.187-2.08,2.577-2.746,4.174C535.751,440.85,535.42,442.544,535.42,444.336z"/>
		<g>
			<path fill="#958A7E" d="M582.102,461.91h-10.158c-0.61,0-1.138-0.219-1.564-0.652c-0.425-0.434-0.64-0.969-0.64-1.592
				c0-0.625,0.215-1.16,0.64-1.595c0.426-0.433,0.954-0.654,1.564-0.654h10.158c0.744,0,1.45-0.141,2.098-0.425
				c0.653-0.285,1.216-0.666,1.679-1.136c0.464-0.475,0.841-1.045,1.119-1.69c0.275-0.641,0.416-1.33,0.416-2.053
				c0-0.72-0.141-1.41-0.416-2.049c-0.281-0.652-0.658-1.22-1.119-1.691c-0.462-0.469-1.026-0.854-1.679-1.137
				c-0.648-0.282-1.354-0.426-2.098-0.426h-3.784c-1.356,0-2.644-0.276-3.824-0.822c-1.167-0.536-2.204-1.271-3.082-2.187
				c-0.881-0.916-1.575-2.001-2.07-3.23c-0.493-1.23-0.745-2.552-0.745-3.928c0-1.378,0.252-2.686,0.747-3.88
				c0.496-1.195,1.193-2.257,2.072-3.15c0.877-0.894,1.915-1.612,3.085-2.135c1.18-0.523,2.463-0.79,3.816-0.79h10.678
				c0.61,0,1.137,0.22,1.562,0.653c0.422,0.428,0.644,0.979,0.644,1.594c0,0.62-0.227,1.164-0.654,1.576
				c-0.423,0.408-0.945,0.615-1.551,0.615h-10.678c-0.743,0-1.438,0.143-2.064,0.424c-0.633,0.284-1.199,0.682-1.678,1.188
				c-0.483,0.507-0.871,1.094-1.151,1.747c-0.275,0.64-0.417,1.35-0.417,2.104c0,0.761,0.142,1.49,0.422,2.168
				c0.283,0.686,0.669,1.302,1.153,1.823c0.48,0.522,1.047,0.938,1.681,1.238c0.625,0.297,1.317,0.446,2.055,0.446h3.784
				c1.353,0,2.635,0.256,3.81,0.76c1.171,0.506,2.212,1.215,3.092,2.11c0.882,0.898,1.577,1.959,2.072,3.149
				c0.494,1.199,0.747,2.484,0.747,3.828c0,1.345-0.252,2.633-0.747,3.827c-0.497,1.2-1.195,2.253-2.076,3.129
				c-0.88,0.878-1.921,1.577-3.088,2.08C584.737,461.656,583.455,461.91,582.102,461.91z"/>
		</g>
		<g>
			<path fill="#958A7E" d="M608.161,461.91c-0.611,0-1.133-0.219-1.559-0.65c-0.424-0.433-0.642-0.967-0.642-1.588v-28.504h-8.447
				c-0.607,0-1.133-0.221-1.556-0.652c-0.419-0.428-0.639-0.977-0.639-1.588s0.22-1.16,0.639-1.587
				c0.423-0.433,0.949-0.652,1.556-0.652h21.293c0.61,0,1.132,0.22,1.558,0.652c0.425,0.431,0.639,0.966,0.639,1.587
				c0,0.623-0.214,1.156-0.639,1.59c-0.425,0.43-0.948,0.65-1.558,0.65h-8.448v28.504c0,0.621-0.215,1.154-0.64,1.586
				C609.294,461.691,608.77,461.91,608.161,461.91z"/>
		</g>
		<g>
			<path fill="#958A7E" d="M627.296,461.91c-0.607,0-1.126-0.218-1.548-0.646c-0.423-0.429-0.636-0.958-0.636-1.575v-30.777
				c0-0.618,0.213-1.149,0.636-1.578c0.422-0.43,0.94-0.646,1.548-0.646h8.719c1.747,0,3.404,0.343,4.928,1.017
				c1.517,0.673,2.853,1.594,3.979,2.738c1.125,1.145,2.027,2.507,2.689,4.053c0.661,1.553,0.998,3.225,0.998,4.971
				c0,1.745-0.337,3.417-0.998,4.969c-0.661,1.544-1.564,2.909-2.689,4.052c-1.126,1.147-2.465,2.062-3.984,2.718
				c-1.424,0.613-2.968,0.944-4.594,0.982l7.758,5.543c0.492,0.321,0.812,0.796,0.93,1.397c0.117,0.591,0.012,1.152-0.311,1.669
				c-0.287,0.487-0.775,0.803-1.449,0.922c-0.662,0.117-1.252-0.019-1.759-0.394l-12.037-8.579v6.943
				c0,0.617-0.213,1.146-0.636,1.575C628.421,461.692,627.9,461.91,627.296,461.91z M629.476,447.746h6.54
				c1.143,0,2.219-0.221,3.199-0.655c0.99-0.438,1.871-1.039,2.617-1.785c0.746-0.743,1.341-1.628,1.77-2.631
				c0.426-0.998,0.643-2.075,0.643-3.208c0-1.13-0.217-2.209-0.643-3.21c-0.429-1.003-1.025-1.899-1.773-2.661
				c-0.746-0.761-1.629-1.37-2.613-1.807c-0.98-0.435-2.057-0.655-3.199-0.655h-6.54V447.746z"/>
		</g>
		<path fill="#958A7E" d="M655.336,446.522c0.238,1.557,0.739,3.004,1.504,4.339c0.762,1.341,1.707,2.493,2.827,3.467
			c1.12,0.971,2.397,1.738,3.831,2.296c1.43,0.561,2.933,0.837,4.51,0.837c1.764,0,3.41-0.325,4.939-0.98
			c1.526-0.659,2.887-1.57,4.08-2.735c0.428-0.439,0.953-0.658,1.576-0.658c0.617,0,1.143,0.219,1.573,0.658
			c0.429,0.437,0.644,0.973,0.644,1.604c0,0.632-0.215,1.166-0.644,1.603c-1.573,1.8-3.354,3.077-5.333,3.83
			c-1.981,0.754-4.261,1.129-6.836,1.129c-2.388,0-4.618-0.437-6.693-1.312c-2.076-0.873-3.902-2.089-5.477-3.646
			c-1.576-1.556-2.816-3.402-3.724-5.54c-0.907-2.139-1.36-4.473-1.36-7.002c0-2.43,0.441-4.704,1.325-6.819
			c0.883-2.114,2.101-3.961,3.651-5.541c1.55-1.578,3.388-2.846,5.512-3.794c2.123-0.948,4.426-1.47,6.908-1.566
			c2.29,0,4.449,0.463,6.479,1.384c2.027,0.926,3.829,2.164,5.404,3.721c1.576,1.557,2.828,3.38,3.76,5.469
			c0.928,2.092,1.441,4.327,1.537,6.708c0.094,0.829-0.107,1.462-0.609,1.897c-0.5,0.437-1.035,0.655-1.609,0.655H655.336z
			 M668.008,431.283c-1.577,0-3.068,0.277-4.476,0.837c-1.407,0.562-2.673,1.312-3.794,2.263c-1.121,0.946-2.052,2.077-2.792,3.39
			c-0.741,1.312-1.253,2.724-1.538,4.229h25.27c-0.285-1.506-0.812-2.917-1.574-4.229c-0.766-1.312-1.709-2.443-2.829-3.39
			c-1.12-0.95-2.386-1.701-3.794-2.263C671.073,431.561,669.582,431.283,668.008,431.283z"/>
		<path fill="#958A7E" d="M705.33,426.688c2.281,0,4.455,0.472,6.523,1.416c2.066,0.942,3.887,2.215,5.453,3.813
			c1.57,1.598,2.818,3.461,3.744,5.59c0.928,2.133,1.391,4.407,1.391,6.828v15.324c0,0.629-0.215,1.161-0.643,1.595
			c-0.429,0.438-0.95,0.655-1.566,0.655c-0.619,0-1.144-0.218-1.57-0.655c-0.428-0.434-0.642-0.966-0.642-1.595v-4.431
			c-1.569,1.792-3.458,3.329-5.668,4.609c-2.208,1.284-4.597,1.926-7.164,1.926c-2.377,0-4.598-0.437-6.665-1.309
			c-2.066-0.87-3.887-2.08-5.453-3.631c-1.568-1.549-2.805-3.389-3.707-5.518c-0.902-2.13-1.355-4.454-1.355-6.972
			c0-2.421,0.439-4.685,1.32-6.791c0.879-2.106,2.089-3.945,3.635-5.519c1.545-1.572,3.373-2.833,5.489-3.778
			C700.566,427.306,702.859,426.785,705.33,426.688z M692.429,444.336c0,1.793,0.331,3.473,0.997,5.048
			c0.664,1.572,1.58,2.953,2.746,4.139c1.164,1.188,2.518,2.118,4.061,2.795c1.545,0.678,3.197,1.017,4.956,1.017
			c1.711,0,3.327-0.327,4.848-0.979c1.521-0.655,2.863-1.562,4.028-2.724c1.164-1.162,2.09-2.53,2.78-4.104
			c0.688-1.572,1.081-3.306,1.176-5.192c0-1.792-0.333-3.486-0.998-5.086c-0.667-1.597-1.581-2.987-2.744-4.174
			c-1.165-1.186-2.532-2.118-4.101-2.796c-1.566-0.677-3.232-1.017-4.989-1.017c-1.759,0-3.411,0.34-4.956,1.017
			c-1.543,0.678-2.896,1.61-4.061,2.796c-1.166,1.187-2.082,2.577-2.746,4.174C692.76,440.85,692.429,442.544,692.429,444.336z"/>
	</g>
	<path fill="#958A7E" d="M729.094,439.815c0,0-0.996-7.641-6.732-13.376c-5.735-5.737-13.176-6.531-13.176-6.531
		s7.923-1.277,13.312-6.666c5.389-5.391,6.596-13.242,6.596-13.242s1.031,7.676,6.449,13.096c5.418,5.418,13.457,6.812,13.457,6.812
		s-7.191,0.547-13.175,6.531C729.841,432.422,729.094,439.815,729.094,439.815z"/>
</g>
</svg>
