<?xml version="1.0" encoding="utf-8"?>
<!-- Generator: Adobe Illustrator 16.0.4, SVG Export Plug-In . SVG Version: 6.00 Build 0)  -->
<!DOCTYPE svg PUBLIC "-//W3C//DTD SVG 1.1//EN" "http://www.w3.org/Graphics/SVG/1.1/DTD/svg11.dtd">
<svg version="1.1" id="Layer_1" xmlns="http://www.w3.org/2000/svg" xmlns:xlink="http://www.w3.org/1999/xlink" x="0px" y="0px"
	 width="300px" height="171px" viewBox="-50.788 -35.894 300 171" enable-background="new -50.788 -35.894 300 171"
	 xml:space="preserve">
<path fill="#958A7E" d="M85.194,24.839l-9.664-3.087c0.014,2.487,0.031,12.821,0.033,13.676c0.733,0.289,7.332,2.345,9.619,3.249
	L85.194,24.839z"/>
<path fill="#958A7E" d="M87.425,24.843l9.662-3.087c-0.012,2.488-0.028,12.821-0.033,13.676c-0.733,0.288-7.33,2.345-9.617,3.248
	L87.425,24.843z"/>
<polygon fill="#958A7E" points="95.21,20.213 86.316,17.853 77.412,20.208 86.327,23.097 "/>
<path fill="#958A7E" d="M78.314,68.688l2.166,8.476l2.188-8.488v-0.002c0.051-0.192,0.282-0.344,0.472-0.344h0.67
	c0.246,0,0.433,0.185,0.385,0.346l-2.868,11.597c-0.046,0.209-0.189,0.357-0.382,0.357h-0.941c-0.19,0-0.328-0.176-0.372-0.357
	l-2.163-8.39l-1.988,8.386c-0.043,0.201-0.193,0.361-0.386,0.361H74.14c-0.191,0-0.328-0.176-0.376-0.357l-2.975-11.595
	c-0.05-0.161,0.146-0.348,0.392-0.348h0.961c0.193,0,0.435,0.153,0.486,0.346l2.09,8.444l2.025-8.428
	c0.043-0.188,0.197-0.362,0.39-0.362h0.79C78.11,68.33,78.27,68.505,78.314,68.688"/>
<path fill="#958A7E" d="M80.946,80.979h-0.941c-0.328,0-0.62-0.254-0.712-0.619l-1.809-7.018l-1.66,7.006
	c-0.082,0.369-0.381,0.631-0.728,0.631H74.14c-0.33,0-0.618-0.246-0.715-0.614l-2.977-11.601c-0.048-0.15-0.012-0.332,0.098-0.481
	c0.14-0.188,0.382-0.304,0.634-0.304h0.961c0.318,0,0.725,0.23,0.825,0.604l1.746,7.059l1.689-7.029
	c0.083-0.365,0.389-0.633,0.729-0.633h0.791c0.381,0,0.659,0.315,0.734,0.627l1.828,7.146l1.846-7.166
	c0.088-0.335,0.452-0.607,0.812-0.607h0.669c0.252,0,0.487,0.11,0.626,0.299c0.11,0.149,0.146,0.33,0.096,0.498L81.67,80.358
	C81.587,80.729,81.295,80.979,80.946,80.979 M77.81,71.796l2.162,8.391c0.016,0.054,0.042,0.09,0.056,0.101l0.919-0.006
	c0.003-0.005,0.029-0.025,0.041-0.083l2.846-11.516c-0.007,0-0.014-0.002-0.022-0.002l-0.669,0.002c-0.04,0-0.121,0.051-0.134,0.084
	l-2.188,8.484l-0.679-0.001l-2.167-8.474c-0.011-0.053-0.048-0.09-0.062-0.096l-0.781,0.002c-0.004,0.004-0.035,0.041-0.045,0.09
	l-2.026,8.43l-0.683,0.003l-2.088-8.446c-0.015-0.023-0.101-0.076-0.147-0.076h-0.961c-0.011,0-0.022,0-0.029,0.002l2.951,11.502
	c0.013,0.051,0.045,0.09,0.056,0.098l0.937-0.003c0.005-0.005,0.033-0.032,0.044-0.087l1.988-8.392L77.81,71.796z"/>
<path fill="#958A7E" d="M86.801,72.944h5.623c0.022-2.004-0.924-3.698-2.733-3.762C87.968,69.248,86.862,71.037,86.801,72.944
	 M89.687,67.729c3.296,0,4.707,2.983,4.726,6.269c0.001,0.187-0.194,0.353-0.38,0.353l-7.315,0.004c0,0.97,0.041,1.869,0.437,2.791
	c0.486,1.129,1.545,1.828,2.619,1.865c1.216-0.039,2.126-0.811,2.614-2.037c0.073-0.181,0.303-0.296,0.481-0.265l0.98,0.206
	c0.206,0.051,0.342,0.246,0.286,0.425c-0.695,2.052-2.33,3.274-4.495,3.274c-3.333,0-4.951-2.961-4.951-6.407
	C84.689,70.808,86.422,67.729,89.687,67.729"/>
<path fill="#958A7E" d="M89.64,80.964c-3.221,0-5.301-2.652-5.301-6.758c0-3.29,1.674-6.83,5.347-6.83
	c3.715,0,5.06,3.419,5.077,6.618c0,0.176-0.071,0.347-0.206,0.479c-0.141,0.145-0.333,0.227-0.524,0.227l-6.965,0.003
	c0.012,0.772,0.08,1.537,0.408,2.301c0.417,0.972,1.323,1.621,2.307,1.655c1.008-0.034,1.824-0.68,2.277-1.816
	c0.131-0.32,0.527-0.539,0.867-0.48l0.993,0.209c0.214,0.052,0.392,0.183,0.49,0.359c0.092,0.16,0.111,0.344,0.059,0.514
	C93.723,79.649,91.917,80.964,89.64,80.964 M89.687,68.079c-3.191,0-4.646,3.174-4.646,6.127c0,2.793,1.205,6.057,4.6,6.057
	c1.978,0,3.487-1.093,4.149-2.996c-0.005-0.004-0.012-0.009-0.021-0.011l-0.972-0.204c-0.023,0.002-0.073,0.034-0.083,0.053
	c-0.554,1.393-1.62,2.215-2.928,2.256c-1.278-0.043-2.428-0.857-2.952-2.078c-0.43-1.002-0.467-1.958-0.467-2.93v-0.352l7.669-0.003
	c0.007-0.001,0.028-0.017,0.033-0.026C94.046,71.136,92.888,68.079,89.687,68.079 M92.77,73.294h-6.331l0.012-0.361
	c0.062-1.932,1.213-4.023,3.227-4.1h0.012h0.012c1.865,0.064,3.101,1.716,3.074,4.115L92.77,73.294z M87.177,72.593h4.889
	c-0.074-1.443-0.724-2.994-2.375-3.059C88.228,69.599,87.342,71.094,87.177,72.593"/>
<path fill="#958A7E" d="M97.67,64.007c0.189-0.002,0.388,0.167,0.388,0.354l0.001,5.769c0.659-1.319,1.573-2.126,2.991-2.126h0.094
	h0.098c1.291,0,2.536,0.798,3.244,2.01c0.708,1.209,1.001,2.856,1.001,4.285c0,3.125-1.291,6.562-4.411,6.562l-0.087-0.002
	l-0.104,0.002c-1.31,0-2.455-0.856-3.123-2.108l-0.434,1.515c-0.05,0.176-0.202,0.354-0.393,0.352l-0.297,0.002
	c-0.192,0.002-0.389-0.173-0.39-0.358V64.362c0.001-0.187,0.203-0.354,0.395-0.354h1.028V64.007z M100.861,79.332
	c2.083-0.082,2.688-2.72,2.688-4.722c0-2.027-0.523-4.994-2.688-5.082c-1.618,0.07-2.758,1.992-2.8,3.75v2.18
	c0.042,0.825,0.186,1.746,0.604,2.469C99.146,78.748,99.998,79.295,100.861,79.332"/>
<path fill="#958A7E" d="M101.076,81.212h-0.181c-1.157,0-2.238-0.594-3.011-1.615l-0.219,0.766
	c-0.084,0.293-0.347,0.605-0.726,0.605l-0.298,0.002c-0.397,0-0.742-0.33-0.744-0.709V64.358c0.001-0.375,0.349-0.703,0.745-0.703
	h1.027c0.396,0,0.741,0.328,0.741,0.703l0.001,4.562c0.697-0.854,1.568-1.271,2.641-1.271h0.094h0.096
	c1.402,0,2.762,0.838,3.549,2.184c0.666,1.139,1.047,2.766,1.047,4.463C105.837,77.737,104.364,81.212,101.076,81.212
	 M97.664,77.819l0.407,0.767c0.644,1.205,1.695,1.922,2.815,1.922l0.096-0.002l0.1,0.002c2.801-0.002,4.056-3.122,4.056-6.212
	c0-1.577-0.347-3.074-0.951-4.107c-0.651-1.115-1.808-1.836-2.942-1.836h-0.097h-0.094c-1.169,0-2.021,0.613-2.679,1.934
	l-0.665-0.156l-0.001-5.77c-0.001,0.015-0.024,0-0.038-0.002h-1.024c-0.017,0.002-0.043,0.02-0.051,0.033L96.6,80.26
	c0.001-0.012,0.025,0.007,0.04,0.009l0.294-0.002c0.007-0.006,0.042-0.045,0.059-0.099L97.664,77.819z M100.876,79.683
	c-1.014-0.041-1.967-0.646-2.516-1.576c-0.384-0.666-0.596-1.526-0.651-2.631l-0.001-2.194c0.046-1.923,1.316-4.023,3.136-4.103
	l0.016-0.001l0.016,0.001c2.806,0.113,3.023,4.188,3.023,5.434C103.899,77.006,103.106,79.597,100.876,79.683 M100.861,69.88
	c-1.399,0.072-2.414,1.852-2.45,3.407v2.17c0.049,0.96,0.234,1.737,0.557,2.294c0.42,0.715,1.171,1.199,1.909,1.23
	c2.207-0.088,2.32-3.657,2.32-4.369C103.197,73.838,103.085,69.987,100.861,69.88"/>
<path fill="#958A7E" d="M115.824,71.308c0.072,0.172,0.262,0.303,0.445,0.256l0.962-0.233c0.188-0.045,0.349-0.257,0.294-0.435
	c-0.63-2.02-2.268-2.762-4.18-2.756c-2.115,0.004-4.053,1.064-4.053,3.606c0,2.179,1.479,3.051,3.1,3.414l1.727,0.362
	c0.916,0.193,2.06,0.557,2.06,1.864c0,1.53-1.354,2.007-2.462,2.033c-1.174-0.028-2.656-0.588-3.027-1.992
	c-0.044-0.183-0.259-0.306-0.443-0.263l-1.004,0.229c-0.189,0.045-0.343,0.25-0.297,0.434c0.562,2.218,2.561,3.148,4.645,3.167
	c2.201,0.019,4.486-1.017,4.486-3.802c0-1.114-0.438-2.131-1.271-2.784c-0.646-0.509-1.437-0.681-2.204-0.849l-1.54-0.313
	c-0.937-0.17-1.894-0.459-1.894-1.793c0-1.312,1.211-1.763,2.155-1.79C114.4,69.692,115.351,70.19,115.824,71.308"/>
<path fill="#958A7E" d="M113.645,81.347h-0.06c-2.58-0.021-4.441-1.305-4.979-3.433c-0.044-0.172-0.015-0.354,0.086-0.517
	c0.106-0.176,0.276-0.301,0.468-0.346l1.01-0.229c0.047-0.011,0.101-0.017,0.151-0.017c0.337,0,0.636,0.229,0.708,0.539
	c0.325,1.23,1.658,1.699,2.697,1.723c0.62-0.015,2.102-0.207,2.102-1.68c0-1.008-0.855-1.326-1.779-1.521l-1.728-0.361
	c-2.241-0.505-3.379-1.77-3.379-3.759c0-2.91,2.276-3.952,4.404-3.957c2.348,0,3.901,1.037,4.514,3.001
	c0.052,0.165,0.03,0.346-0.062,0.511c-0.105,0.185-0.285,0.322-0.483,0.371l-0.961,0.233c-0.051,0.012-0.104,0.019-0.155,0.019
	c-0.297,0-0.574-0.19-0.697-0.479c-0.483-1.146-1.455-1.407-2.186-1.428c-0.283,0.008-1.797,0.119-1.797,1.438
	c0,0.972,0.564,1.259,1.607,1.446l1.545,0.314c0.826,0.184,1.65,0.364,2.353,0.918c0.892,0.699,1.404,1.813,1.404,3.059
	C118.427,80.259,115.849,81.347,113.645,81.347 M110.35,77.519l-1.033,0.219c-0.007,0.003-0.024,0.022-0.03,0.033
	c0.455,1.771,2.065,2.856,4.307,2.875h0.053c1.973,0,4.08-0.905,4.08-3.451c0-1.026-0.414-1.94-1.137-2.508
	c-0.576-0.455-1.286-0.611-2.039-0.776l-1.559-0.317c-0.701-0.128-2.175-0.395-2.175-2.137c0-1.527,1.347-2.107,2.498-2.143
	c1.343,0.037,2.341,0.696,2.832,1.855c0.013,0.029,0.041,0.05,0.052,0.053l0.95-0.231c0.011-0.003,0.022-0.015,0.03-0.024
	c-0.525-1.643-1.809-2.476-3.812-2.476c-0.888,0.003-3.724,0.243-3.724,3.257c0,1.662,0.897,2.64,2.827,3.072l1.721,0.359
	c0.643,0.137,2.338,0.494,2.338,2.211c0,1.709-1.447,2.352-2.805,2.385C112.425,79.74,110.776,79.132,110.35,77.519"/>
<path fill="#958A7E" d="M121.291,73.342h5.623c0.021-2.003-0.926-3.7-2.736-3.761C122.458,69.644,121.35,71.435,121.291,73.342
	 M124.173,68.125c3.3,0,4.709,2.983,4.729,6.269c0.002,0.188-0.193,0.354-0.378,0.354l-7.315,0.001c0,0.973,0.039,1.868,0.437,2.791
	c0.485,1.133,1.545,1.83,2.619,1.867c1.216-0.041,2.126-0.813,2.614-2.037c0.07-0.182,0.302-0.295,0.479-0.266l0.982,0.207
	c0.203,0.049,0.344,0.244,0.285,0.424c-0.696,2.052-2.33,3.272-4.496,3.272c-3.33,0-4.948-2.96-4.948-6.405
	C119.179,71.205,120.91,68.125,124.173,68.125"/>
<path fill="#958A7E" d="M124.128,81.36c-3.221,0-5.301-2.652-5.301-6.758c0-3.291,1.672-6.83,5.346-6.83
	c3.719,0,5.062,3.418,5.078,6.619c0.002,0.174-0.071,0.346-0.207,0.479c-0.141,0.145-0.332,0.227-0.521,0.227l-6.964,0.004
	c0.012,0.774,0.078,1.535,0.406,2.301c0.416,0.973,1.322,1.621,2.31,1.656c1.007-0.035,1.822-0.681,2.277-1.816
	c0.125-0.32,0.522-0.542,0.862-0.482l0.994,0.211c0.215,0.053,0.391,0.182,0.491,0.359c0.091,0.161,0.11,0.343,0.058,0.512
	C128.21,80.048,126.405,81.36,124.128,81.36 M124.173,68.478c-3.189,0-4.646,3.176-4.646,6.127c0,2.793,1.204,6.054,4.601,6.054
	c1.978,0,3.486-1.091,4.148-2.995c-0.005-0.004-0.013-0.008-0.021-0.01l-0.971-0.203c-0.022,0.002-0.072,0.033-0.082,0.052
	c-0.556,1.39-1.623,2.214-2.93,2.258c-1.279-0.046-2.427-0.86-2.951-2.081c-0.432-1.001-0.468-1.955-0.468-2.929v-0.351l7.669-0.002
	c0.007-0.002,0.025-0.019,0.031-0.026C128.535,71.533,127.376,68.478,124.173,68.478 M127.262,73.692h-6.334l0.012-0.361
	c0.062-1.936,1.212-4.028,3.228-4.1l0.011-0.002l0.013,0.002c1.864,0.061,3.1,1.713,3.075,4.113L127.262,73.692z M121.666,72.991
	h4.892c-0.076-1.444-0.728-2.997-2.378-3.059C122.716,69.993,121.83,71.49,121.666,72.991"/>
<path fill="#958A7E" d="M131.826,80.888h-1.033c-0.191,0-0.375-0.166-0.375-0.354V68.942c0-0.188,0.185-0.355,0.375-0.355h0.888
	c0.192,0,0.386,0.165,0.386,0.352l-0.003,2.076c0.522-1.486,1.509-2.977,3.39-2.742c0.192,0.021,0.353,0.183,0.353,0.375v1.084
	c0,0.192-0.168,0.385-0.353,0.386c-1.232,0.011-2.104,0.709-2.703,1.935c-0.438,0.896-0.521,1.67-0.521,2.639l-0.002,5.845
	C132.225,80.722,132.017,80.888,131.826,80.888"/>
<path fill="#958A7E" d="M130.792,81.237L130.792,81.237c-0.389,0-0.728-0.329-0.728-0.704V68.942
	c0.004-0.379,0.345-0.707,0.728-0.707h0.888c0.39,0,0.735,0.328,0.737,0.701l-0.002,0.53c0.766-1.167,1.816-1.702,3.078-1.545
	c0.377,0.044,0.66,0.354,0.66,0.724v1.084c0,0.391-0.328,0.733-0.701,0.735c-1.041,0.011-1.822,0.577-2.39,1.738
	c-0.405,0.833-0.485,1.542-0.485,2.483v5.846c-0.004,0.377-0.354,0.705-0.752,0.705H130.792L130.792,81.237z M130.771,80.528
	c0.006,0,0.018,0.007,0.021,0.009l1.033-0.002c0.016,0,0.047-0.021,0.057-0.034l-0.004-5.812c0-1.019,0.091-1.84,0.555-2.791
	c0.684-1.403,1.699-2.121,3.014-2.133c-0.008-0.002,0.006-0.022,0.008-0.033v-1.084c-0.002-0.006-0.02-0.024-0.045-0.026
	c-0.117-0.015-0.231-0.022-0.342-0.022c-1.186,0-2.085,0.853-2.676,2.531l-0.68-0.117l0.004-2.072c-0.002,0.015-0.026,0-0.037,0
	h-0.887c-0.006,0-0.022,0.014-0.025,0.021v11.573C130.767,80.53,130.769,80.528,130.771,80.528"/>
<path fill="#958A7E" d="M146.358,68.767l-3.438,11.58c-0.062,0.204-0.193,0.369-0.387,0.369h-1.352
	c-0.191,0-0.325-0.191-0.377-0.369l-3.549-11.582c-0.049-0.16,0.154-0.347,0.399-0.347h1.117c0.19,0,0.429,0.164,0.479,0.354
	l2.754,9.318l2.693-9.322c0.051-0.192,0.284-0.352,0.477-0.352h0.783C146.207,68.418,146.41,68.608,146.358,68.767"/>
<path fill="#958A7E" d="M142.533,81.067h-1.353c-0.321,0-0.603-0.243-0.714-0.62l-3.545-11.58c-0.051-0.163-0.019-0.345,0.093-0.492
	c0.141-0.19,0.386-0.308,0.642-0.308h1.117c0.361,0,0.729,0.275,0.816,0.615l2.41,8.159l2.363-8.171
	c0.088-0.329,0.453-0.604,0.812-0.604l0.783-0.002c0.256,0,0.5,0.119,0.643,0.312c0.109,0.149,0.143,0.33,0.091,0.493l-3.438,11.576
	C143.14,80.829,142.863,81.067,142.533,81.067 M137.626,68.772l3.514,11.473c0.021,0.072,0.059,0.119,0.07,0.129l1.312-0.008
	c0.013-0.014,0.039-0.049,0.062-0.118l3.408-11.476c-0.01-0.002-0.021-0.004-0.031-0.004h-0.78c-0.041,0-0.126,0.056-0.14,0.092
	l-3.028,10.481l-3.095-10.472c-0.019-0.043-0.103-0.1-0.145-0.102h-1.115C137.646,68.771,137.636,68.771,137.626,68.772"/>
<path fill="#958A7E" d="M147.896,65.065c0-0.588,0.504-1.066,1.123-1.066s1.122,0.479,1.122,1.066c0,0.591-0.503,1.066-1.122,1.066
	S147.896,65.656,147.896,65.065 M149.55,80.61l-1.062-0.002c-0.188,0.004-0.385-0.168-0.385-0.351l0.005-11.596
	c0-0.188,0.192-0.354,0.384-0.354h1.057c0.193,0,0.389,0.166,0.389,0.354V80.26C149.936,80.444,149.744,80.608,149.55,80.61"/>
<path fill="#958A7E" d="M149.552,80.962l-1.064-0.001c-0.181,0-0.363-0.071-0.501-0.198c-0.149-0.135-0.233-0.318-0.233-0.503
	l0.004-11.597c0-0.377,0.345-0.708,0.734-0.708l1.057,0.002c0.395,0,0.738,0.329,0.738,0.706V80.26c0,0.37-0.342,0.698-0.73,0.702
	H149.552L149.552,80.962z M148.46,80.251c0.006,0,0.019,0.006,0.025,0.009l1.062,0.003c0.013-0.003,0.035-0.017,0.041-0.027
	l-0.004-11.571c-0.004,0.013-0.024-0.003-0.039-0.005h-1.055c-0.012,0.002-0.031,0.016-0.039,0.025V80.26
	C148.453,80.254,148.455,80.251,148.46,80.251 M149.019,66.483c-0.812,0-1.473-0.635-1.473-1.418c0-0.781,0.66-1.416,1.473-1.416
	s1.473,0.635,1.473,1.416C150.492,65.849,149.832,66.483,149.019,66.483 M149.019,64.351c-0.426,0-0.771,0.321-0.771,0.717
	c0,0.395,0.346,0.717,0.771,0.717c0.423,0,0.771-0.322,0.771-0.717C149.791,64.672,149.441,64.351,149.019,64.351"/>
<path fill="#958A7E" d="M156.009,79.356c1.424-0.043,2.166-1.186,2.479-2.664c0.062-0.185,0.203-0.326,0.41-0.326l0.942-0.004
	c0.22,0.011,0.425,0.182,0.406,0.39c-0.438,2.515-1.953,4.226-4.115,4.226l-0.088-0.002l-0.08,0.002
	c-3.146,0-4.502-3.162-4.502-6.373c0-3.188,1.375-6.447,4.522-6.447l0.083,0.003l0.086-0.003c2.184,0,3.743,1.686,4.081,4.203
	c0,0.188-0.175,0.352-0.381,0.377l-0.985-0.014c-0.205-0.027-0.34-0.209-0.371-0.404c-0.238-1.405-1.043-2.522-2.388-2.567
	c-2.14,0.069-2.749,2.705-2.749,4.731C153.361,76.437,153.871,79.288,156.009,79.356"/>
<path fill="#958A7E" d="M156.132,81.328h-0.16c-3.59,0-4.859-3.623-4.859-6.726c0-3.385,1.508-6.797,4.873-6.797l0.094,0.002
	l0.068-0.002c2.329,0,4.066,1.77,4.436,4.506l0.002,0.047c0,0.359-0.301,0.68-0.688,0.727l-0.023,0.002l-1.054-0.016
	c-0.342-0.049-0.608-0.33-0.668-0.698c-0.235-1.386-1.002-2.233-2.053-2.271c-2.271,0.074-2.388,3.662-2.388,4.381
	c0,1.043,0.166,4.453,2.31,4.524c1.075-0.036,1.799-0.838,2.124-2.388l0.012-0.036c0.113-0.351,0.397-0.567,0.741-0.567l0.94-0.004
	c0.24,0.012,0.449,0.111,0.591,0.272c0.124,0.141,0.185,0.317,0.169,0.493C160.11,79.599,158.401,81.328,156.132,81.328
	 M155.978,68.508c-2.874,0-4.164,3.062-4.164,6.097c0,2.777,1.089,6.022,4.15,6.022h0.074h0.099c1.889,0,3.325-1.489,3.757-3.888
	c-0.016-0.012-0.041-0.024-0.073-0.027l-0.922,0.005c-0.03,0-0.055,0.024-0.071,0.071c-0.398,1.867-1.369,2.876-2.807,2.92
	c-2.794-0.09-3.01-4.021-3.01-5.227c0-2.407,0.812-5.006,3.088-5.082c1.41,0.048,2.454,1.144,2.744,2.86
	c0.008,0.056,0.035,0.101,0.064,0.112l0.92,0.011c0.024-0.006,0.045-0.019,0.053-0.028c-0.336-2.373-1.76-3.848-3.727-3.848
	l-0.076,0.002L155.978,68.508z"/>
<path fill="#958A7E" d="M164.037,73.342h5.623c0.021-2.003-0.924-3.7-2.734-3.761C165.205,69.644,164.096,71.435,164.037,73.342
	 M166.921,68.125c3.295,0,4.709,2.983,4.728,6.269c0.001,0.188-0.192,0.354-0.379,0.354l-7.315,0.001
	c0,0.973,0.039,1.868,0.437,2.791c0.485,1.133,1.545,1.83,2.618,1.868c1.218-0.042,2.125-0.814,2.615-2.038
	c0.074-0.182,0.305-0.295,0.479-0.266l0.979,0.207c0.207,0.051,0.344,0.244,0.287,0.424c-0.695,2.052-2.328,3.272-4.494,3.272
	c-3.332,0-4.949-2.96-4.949-6.405C161.925,71.205,163.658,68.125,166.921,68.125"/>
<path fill="#958A7E" d="M166.875,81.36c-3.219,0-5.301-2.652-5.301-6.758c0-3.291,1.674-6.83,5.348-6.83
	c3.72,0,5.061,3.418,5.078,6.619c0.002,0.172-0.072,0.344-0.205,0.479c-0.145,0.145-0.332,0.229-0.524,0.229l-6.964,0.002
	c0.012,0.774,0.078,1.535,0.406,2.301c0.418,0.973,1.322,1.621,2.308,1.656c1.006-0.035,1.824-0.681,2.276-1.816
	c0.129-0.32,0.522-0.542,0.867-0.482l0.992,0.211c0.217,0.053,0.391,0.182,0.49,0.358c0.09,0.161,0.109,0.344,0.059,0.513
	C170.955,80.048,169.152,81.36,166.875,81.36 M166.921,68.478c-3.19,0-4.645,3.176-4.645,6.127c0,2.793,1.204,6.054,4.598,6.054
	c1.979,0,3.488-1.091,4.15-2.995c-0.006-0.002-0.016-0.008-0.025-0.01l-0.971-0.203c-0.021,0.002-0.07,0.033-0.08,0.052
	c-0.554,1.39-1.623,2.214-2.93,2.258c-1.279-0.046-2.43-0.862-2.952-2.081c-0.429-1.002-0.466-1.955-0.466-2.929v-0.351l7.668-0.002
	c0.006-0.002,0.027-0.019,0.031-0.026C171.283,71.533,170.125,68.478,166.921,68.478 M170.007,73.692h-6.336l0.015-0.361
	c0.062-1.936,1.213-4.028,3.226-4.1l0.014-0.002l0.012,0.002c1.863,0.061,3.102,1.716,3.075,4.113L170.007,73.692z M164.414,72.991
	h4.887c-0.072-1.444-0.723-2.997-2.375-3.059C165.462,69.993,164.576,71.49,164.414,72.991"/>
<path fill="#958A7E" d="M180.037,71.308c0.071,0.172,0.262,0.303,0.447,0.256l0.961-0.233c0.188-0.045,0.348-0.257,0.294-0.435
	c-0.631-2.02-2.269-2.762-4.182-2.756c-2.113,0.004-4.05,1.064-4.05,3.606c0,2.179,1.474,3.051,3.098,3.414l1.729,0.362
	c0.914,0.193,2.059,0.557,2.059,1.864c0,1.53-1.354,2.007-2.462,2.033c-1.177-0.028-2.656-0.588-3.027-1.992
	c-0.043-0.183-0.258-0.306-0.446-0.263l-1.004,0.229c-0.187,0.045-0.34,0.25-0.293,0.434c0.561,2.218,2.559,3.148,4.644,3.167
	c2.198,0.019,4.485-1.017,4.485-3.802c0-1.114-0.438-2.131-1.27-2.784c-0.646-0.509-1.436-0.681-2.208-0.849l-1.536-0.313
	c-0.938-0.17-1.896-0.459-1.896-1.793c0-1.312,1.213-1.763,2.156-1.79C178.613,69.692,179.563,70.19,180.037,71.308"/>
<path fill="#958A7E" d="M177.856,81.349l-0.058-0.002c-2.582-0.021-4.443-1.305-4.98-3.434c-0.043-0.168-0.014-0.352,0.085-0.514
	c0.104-0.176,0.276-0.303,0.47-0.348l1.006-0.229c0.365-0.085,0.779,0.167,0.865,0.525c0.324,1.228,1.654,1.695,2.692,1.719
	c0.622-0.015,2.104-0.207,2.104-1.68c0-1.009-0.855-1.326-1.781-1.521l-1.727-0.364c-2.242-0.503-3.378-1.768-3.378-3.758
	c0-2.909,2.272-3.953,4.401-3.957c2.349,0,3.904,1.037,4.517,3.001c0.05,0.165,0.028,0.349-0.063,0.511
	c-0.104,0.184-0.284,0.322-0.48,0.37l-0.962,0.233c-0.052,0.013-0.106,0.02-0.159,0.02c-0.295,0-0.572-0.191-0.693-0.479
	c-0.483-1.146-1.457-1.41-2.188-1.43c-0.284,0.01-1.794,0.119-1.794,1.438c0,0.973,0.562,1.259,1.605,1.447l1.545,0.314
	c0.826,0.182,1.65,0.364,2.354,0.917c0.891,0.7,1.402,1.813,1.402,3.06C182.638,80.259,180.061,81.349,177.856,81.349
	 M174.535,77.509l-1.006,0.229c-0.008,0.003-0.025,0.022-0.029,0.033c0.451,1.771,2.062,2.856,4.305,2.875h0.053
	c1.973,0,4.08-0.905,4.08-3.451c0-1.043-0.402-1.935-1.137-2.508c-0.576-0.455-1.288-0.611-2.041-0.776l-1.555-0.318
	c-0.701-0.127-2.176-0.393-2.176-2.137c0-1.527,1.346-2.106,2.496-2.142c1.344,0.037,2.344,0.696,2.833,1.857
	c0.013,0.028,0.041,0.048,0.052,0.051l0.953-0.231c0.008-0.005,0.021-0.015,0.03-0.024c-0.524-1.643-1.81-2.474-3.813-2.474
	c-0.89,0.001-3.722,0.243-3.722,3.255c0,1.664,0.897,2.64,2.823,3.072l1.723,0.361c0.641,0.133,2.338,0.492,2.338,2.207
	c0,1.711-1.447,2.353-2.806,2.385c-1.298-0.032-2.948-0.641-3.374-2.254C174.56,77.519,174.544,77.509,174.535,77.509"/>
<path fill="#958A7E" d="M134.585,45.638v-2.555c0.002-0.386,0.297-0.648,0.649-0.646l11.438-0.001c0.365,0,0.66,0.266,0.66,0.646
	v2.191c-0.004,0.366-0.313,0.845-0.862,1.607l-5.925,8.463c2.199-0.052,4.525,0.278,6.522,1.402
	c0.452,0.253,0.572,0.628,0.608,0.996v2.726c0,0.376-0.411,0.81-0.844,0.583c-3.52-1.845-8.193-2.047-12.088,0.021
	c-0.396,0.212-0.812-0.215-0.812-0.592v-2.588c0-0.414,0.008-1.125,0.426-1.758l6.865-9.852l-5.979-0.001
	C134.882,46.28,134.591,46.02,134.585,45.638"/>
<path fill="#958A7E" d="M92.859,61.587h-3.48c-0.331-0.021-0.596-0.271-0.622-0.589l0.002-17.871c0-0.357,0.3-0.644,0.671-0.644
	h3.241c0.34,0.019,0.612,0.273,0.634,0.6v2.334h0.064c0.845-2.257,2.436-3.309,4.581-3.309c2.176,0,3.54,1.051,4.514,3.309
	c0.847-2.257,2.764-3.309,4.81-3.309c1.463,0,3.054,0.601,4.026,1.954c1.104,1.504,0.878,3.685,0.878,5.603l-0.001,11.277
	c0,0.356-0.301,0.645-0.672,0.645h-3.478c-0.348-0.021-0.623-0.302-0.623-0.643V51.47c0-0.75,0.063-2.632-0.1-3.347
	c-0.261-1.204-1.038-1.54-2.046-1.54c-0.846,0-1.725,0.564-2.08,1.463c-0.355,0.905-0.324,2.408-0.324,3.423v9.474
	c0,0.356-0.301,0.645-0.672,0.645h-3.476c-0.35-0.021-0.625-0.302-0.625-0.643l-0.005-9.476c0-1.992,0.327-4.925-2.142-4.925
	c-2.502,0-2.406,2.858-2.406,4.925v9.474C93.532,61.3,93.231,61.587,92.859,61.587"/>
<path fill="#958A7E" d="M157.182,42.108c5.166,0,7.96,4.437,7.96,10.075c0,5.455-3.088,9.779-7.96,9.779
	c-5.067,0-7.828-4.438-7.828-9.966C149.354,46.433,152.146,42.108,157.182,42.108 M157.212,45.755c-2.566,0-2.729,3.498-2.729,5.68
	c0,2.181-0.031,6.844,2.697,6.844c2.697,0,2.826-3.762,2.826-6.055c0-1.504-0.063-3.31-0.52-4.739
	C159.099,46.245,158.318,45.755,157.212,45.755"/>
<path fill="#958A7E" d="M171.841,61.587h-3.469c-0.349-0.021-0.625-0.302-0.625-0.643l-0.004-17.878
	c0.027-0.326,0.317-0.583,0.666-0.583h3.229c0.305,0.016,0.554,0.223,0.618,0.5v2.735h0.064c0.975-2.445,2.34-3.609,4.741-3.609
	c1.56,0,3.089,0.563,4.062,2.104c0.908,1.429,0.908,3.834,0.908,5.565v11.247c-0.037,0.315-0.32,0.562-0.664,0.562h-3.49
	c-0.32-0.021-0.58-0.26-0.619-0.562v-9.705c0-1.955,0.228-4.812-2.176-4.812c-0.845,0-1.625,0.564-2.016,1.428
	c-0.486,1.089-0.552,2.181-0.552,3.384v9.623C172.511,61.3,172.21,61.587,171.841,61.587"/>
<path fill="#958A7E" d="M61.458,24.839l-9.664-3.088c0.015,2.49,0.031,13.173,0.033,14.027c0.734,0.289,7.332,2.346,9.619,3.249
	L61.458,24.839z"/>
<path fill="#958A7E" d="M63.689,24.844l9.663-3.088c-0.013,2.488-0.029,12.822-0.033,13.676c-0.734,0.288-7.331,2.345-9.617,3.25
	L63.689,24.844z"/>
<polygon fill="#958A7E" points="71.476,20.213 62.581,17.853 53.676,20.208 62.591,23.097 "/>
<path fill="#958A7E" d="M49.539,45.073l-9.664-3.088c0.014,2.487,0.028,12.823,0.033,13.676c0.733,0.287,7.331,2.346,9.617,3.249
	L49.539,45.073z"/>
<path fill="#958A7E" d="M51.77,45.078l9.662-3.089c-0.014,2.489-0.029,12.822-0.033,13.677c-0.733,0.287-7.33,2.347-9.617,3.249
	L51.77,45.078z"/>
<polygon fill="#958A7E" points="59.555,40.447 50.66,37.735 41.756,40.442 50.671,43.331 "/>
<path fill="#958A7E" d="M25.452,45.073l-9.664-3.087c0.015,2.486,0.03,12.822,0.033,13.675c0.733,0.287,7.331,2.346,9.619,3.249
	L25.452,45.073z"/>
<path fill="#958A7E" d="M27.684,45.078l9.661-3.089c-0.012,2.489-0.029,12.822-0.032,13.677c-0.735,0.287-7.33,2.347-9.618,3.249
	L27.684,45.078z"/>
<polygon fill="#958A7E" points="35.468,40.447 26.573,37.735 17.669,40.442 26.584,43.331 "/>
<path fill="#958A7E" d="M37.487,64.916l-9.662-3.088c0.014,2.487,0.029,12.821,0.032,13.678c0.734,0.288,7.331,2.345,9.619,3.249
	L37.487,64.916z"/>
<path fill="#958A7E" d="M39.72,64.922l9.661-3.089c-0.013,2.488-0.028,12.823-0.033,13.678c-0.733,0.287-7.329,2.346-9.617,3.25
	L39.72,64.922z"/>
<polygon fill="#958A7E" points="47.504,60.292 38.609,57.58 29.706,60.287 38.62,63.174 "/>
<g>
	<path fill="#958A7E" d="M128.977,61.542c-0.231,0.206-0.562,0.221-0.819,0.08c-1.158-0.96-1.365-1.406-1.996-2.319
		c-1.912,1.946-3.264,2.53-5.738,2.53c-2.93,0-5.209-1.809-5.209-5.427c0-2.826,1.529-4.75,3.711-5.69
		c1.89-0.83,4.525-0.981,6.543-1.208v-0.452c0-0.829,0.066-1.809-0.422-2.524c-0.424-0.641-1.237-0.905-1.953-0.905
		c-1.328,0-2.51,0.681-2.799,2.092c-0.06,0.313-0.287,0.624-0.604,0.64l-3.373-0.367c-0.285-0.063-0.604-0.291-0.52-0.726
		c0.775-4.096,4.471-5.333,7.783-5.333c1.69,0,3.904,0.453,5.239,1.734c1.693,1.583,1.53,3.693,1.53,5.992v5.425
		c0,1.631,0.678,2.349,1.316,3.228c0.221,0.315,0.27,0.692-0.015,0.926c-0.711,0.596-1.976,1.691-2.668,2.312L128.977,61.542z"/>
	<path fill="#FFFFFF" d="M125.468,53.051c0,1.356,0.033,2.489-0.649,3.694c-0.556,0.98-1.437,1.584-2.411,1.584
		c-1.334,0-2.113-1.018-2.113-2.527c0-2.964,2.656-3.504,5.175-3.504L125.468,53.051L125.468,53.051z"/>
</g>
<g>
	<path fill="#958A7E" d="M83.355,61.542c-0.23,0.206-0.562,0.221-0.823,0.08c-1.154-0.96-1.362-1.406-1.995-2.319
		c-1.91,1.946-3.262,2.53-5.738,2.53c-2.928,0-5.208-1.809-5.208-5.427c0-2.826,1.53-4.75,3.713-5.69
		c1.887-0.83,4.525-0.981,6.542-1.208v-0.452c0-0.829,0.065-1.809-0.423-2.524c-0.422-0.641-1.237-0.905-1.953-0.905
		c-1.327,0-2.507,0.681-2.797,2.092c-0.06,0.313-0.289,0.624-0.604,0.64l-3.375-0.367c-0.284-0.063-0.601-0.291-0.519-0.726
		c0.776-4.096,4.472-5.333,7.782-5.333c1.695,0,3.908,0.453,5.242,1.734c1.694,1.583,1.53,3.693,1.53,5.992v5.425
		c0,1.631,0.678,2.349,1.314,3.228c0.222,0.315,0.272,0.692-0.01,0.926c-0.711,0.596-1.975,1.691-2.668,2.312L83.355,61.542z"/>
	<path fill="#FFFFFF" d="M80.08,53.051c0,1.356,0.03,2.489-0.65,3.694c-0.553,0.98-1.434,1.584-2.409,1.584
		c-1.337,0-2.118-1.018-2.118-2.527c0-2.964,2.66-3.504,5.177-3.504V53.051z"/>
</g>
</svg>
