<svg xmlns="http://www.w3.org/2000/svg" width="300" height="171" viewBox="-50.788 -35.894 300 171"><path fill="#958A7E" d="M85.194 24.839l-9.664-3.087c.014 2.487.031 12.821.033 13.676.733.289 7.332 2.345 9.619 3.249l.012-13.838zM87.425 24.843l9.662-3.087c-.012 2.488-.028 12.821-.033 13.676-.733.288-7.33 2.345-9.617 3.248l-.012-13.837zM95.21 20.213l-8.894-2.36-8.904 2.355 8.915 2.889zM78.314 68.688l2.166 8.476 2.188-8.488v-.002c.051-.192.282-.344.472-.344h.67c.246 0 .433.185.385.346l-2.868 11.597c-.046.209-.189.357-.382.357h-.941c-.19 0-.328-.176-.372-.357l-2.163-8.39-1.988 8.386c-.043.201-.193.361-.386.361h-.955c-.191 0-.328-.176-.376-.357l-2.975-11.595c-.05-.161.146-.348.392-.348h.961c.193 0 .435.153.486.346l2.09 8.444 2.025-8.428c.043-.188.197-.362.39-.362h.79c.187 0 .347.175.391.358"/><path fill="#958A7E" d="M80.946 80.979h-.941c-.328 0-.62-.254-.712-.619l-1.809-7.018-1.66 7.006c-.082.369-.381.631-.728.631h-.956c-.33 0-.618-.246-.715-.614l-2.977-11.601a.546.546 0 0 1 .098-.481.797.797 0 0 1 .634-.304h.961c.318 0 .725.23.825.604l1.746 7.059 1.689-7.029c.083-.365.389-.633.729-.633h.791c.381 0 .659.315.734.627l1.828 7.146 1.846-7.166c.088-.335.452-.607.812-.607h.669c.252 0 .487.11.626.299.11.149.146.33.096.498L81.67 80.358c-.083.371-.375.621-.724.621m-3.136-9.183l2.162 8.391c.016.054.042.09.056.101l.919-.006c.003-.005.029-.025.041-.083l2.846-11.516-.022-.002-.669.002c-.04 0-.121.051-.134.084l-2.188 8.484-.679-.001-2.167-8.474c-.011-.053-.048-.09-.062-.096l-.781.002a.209.209 0 0 0-.045.09l-2.026 8.43-.683.003-2.088-8.446a.268.268 0 0 0-.147-.076h-.961c-.011 0-.022 0-.029.002l2.951 11.502c.013.051.045.09.056.098l.937-.003c.005-.005.033-.032.044-.087l1.988-8.392.681-.007zM86.801 72.944h5.623c.022-2.004-.924-3.698-2.733-3.762-1.723.066-2.829 1.855-2.89 3.762m2.886-5.215c3.296 0 4.707 2.983 4.726 6.269.001.187-.194.353-.38.353l-7.315.004c0 .97.041 1.869.437 2.791.486 1.129 1.545 1.828 2.619 1.865 1.216-.039 2.126-.811 2.614-2.037a.47.47 0 0 1 .481-.265l.98.206c.206.051.342.246.286.425-.695 2.052-2.33 3.274-4.495 3.274-3.333 0-4.951-2.961-4.951-6.407 0-3.399 1.733-6.478 4.998-6.478"/><path fill="#958A7E" d="M89.64 80.964c-3.221 0-5.301-2.652-5.301-6.758 0-3.29 1.674-6.83 5.347-6.83 3.715 0 5.06 3.419 5.077 6.618a.667.667 0 0 1-.206.479.74.74 0 0 1-.524.227l-6.965.003c.012.772.08 1.537.408 2.301.417.972 1.323 1.621 2.307 1.655 1.008-.034 1.824-.68 2.277-1.816a.838.838 0 0 1 .867-.48l.993.209a.76.76 0 0 1 .49.359c.092.16.111.344.059.514-.746 2.204-2.552 3.519-4.829 3.519m.047-12.885c-3.191 0-4.646 3.174-4.646 6.127 0 2.793 1.205 6.057 4.6 6.057 1.978 0 3.487-1.093 4.149-2.996a.052.052 0 0 0-.021-.011l-.972-.204a.156.156 0 0 0-.083.053c-.554 1.393-1.62 2.215-2.928 2.256-1.278-.043-2.428-.857-2.952-2.078-.43-1.002-.467-1.958-.467-2.93v-.352l7.669-.003a.08.08 0 0 0 .033-.026c-.023-2.836-1.181-5.893-4.382-5.893m3.083 5.215h-6.331l.012-.361c.062-1.932 1.213-4.023 3.227-4.1h.024c1.865.064 3.101 1.716 3.074 4.115l-.006.346zm-5.593-.701h4.889c-.074-1.443-.724-2.994-2.375-3.059-1.463.065-2.349 1.56-2.514 3.059M97.67 64.007c.189-.002.388.167.388.354l.001 5.769c.659-1.319 1.573-2.126 2.991-2.126h.192c1.291 0 2.536.798 3.244 2.01.708 1.209 1.001 2.856 1.001 4.285 0 3.125-1.291 6.562-4.411 6.562l-.087-.002-.104.002c-1.31 0-2.455-.856-3.123-2.108l-.434 1.515c-.05.176-.202.354-.393.352l-.297.002c-.192.002-.389-.173-.39-.358V64.362c.001-.187.203-.354.395-.354h1.028v-.001zm3.191 15.325c2.083-.082 2.688-2.72 2.688-4.722 0-2.027-.523-4.994-2.688-5.082-1.618.07-2.758 1.992-2.8 3.75v2.18c.042.825.186 1.746.604 2.469.481.821 1.333 1.368 2.196 1.405"/><path fill="#958A7E" d="M101.076 81.212h-.181c-1.157 0-2.238-.594-3.011-1.615l-.219.766c-.084.293-.347.605-.726.605l-.298.002c-.397 0-.742-.33-.744-.709V64.358c.001-.375.349-.703.745-.703h1.027c.396 0 .741.328.741.703l.001 4.562c.697-.854 1.568-1.271 2.641-1.271h.19c1.402 0 2.762.838 3.549 2.184.666 1.139 1.047 2.766 1.047 4.463-.001 3.441-1.474 6.916-4.762 6.916m-3.412-3.393l.407.767c.644 1.205 1.695 1.922 2.815 1.922l.096-.002.1.002c2.801-.002 4.056-3.122 4.056-6.212 0-1.577-.347-3.074-.951-4.107-.651-1.115-1.808-1.836-2.942-1.836h-.191c-1.169 0-2.021.613-2.679 1.934l-.665-.156-.001-5.77c-.001.015-.024 0-.038-.002h-1.024a.09.09 0 0 0-.051.033L96.6 80.26c.001-.012.025.007.04.009l.294-.002a.255.255 0 0 0 .059-.099l.671-2.349zm3.212 1.864c-1.014-.041-1.967-.646-2.516-1.576-.384-.666-.596-1.526-.651-2.631l-.001-2.194c.046-1.923 1.316-4.023 3.136-4.103l.016-.001.016.001c2.806.113 3.023 4.188 3.023 5.434 0 2.393-.793 4.984-3.023 5.07m-.015-9.803c-1.399.072-2.414 1.852-2.45 3.407v2.17c.049.96.234 1.737.557 2.294.42.715 1.171 1.199 1.909 1.23 2.207-.088 2.32-3.657 2.32-4.369 0-.774-.112-4.625-2.336-4.732M115.824 71.308c.072.172.262.303.445.256l.962-.233c.188-.045.349-.257.294-.435-.63-2.02-2.268-2.762-4.18-2.756-2.115.004-4.053 1.064-4.053 3.606 0 2.179 1.479 3.051 3.1 3.414l1.727.362c.916.193 2.06.557 2.06 1.864 0 1.53-1.354 2.007-2.462 2.033-1.174-.028-2.656-.588-3.027-1.992-.044-.183-.259-.306-.443-.263l-1.004.229c-.189.045-.343.25-.297.434.562 2.218 2.561 3.148 4.645 3.167 2.201.019 4.486-1.017 4.486-3.802 0-1.114-.438-2.131-1.271-2.784-.646-.509-1.437-.681-2.204-.849l-1.54-.313c-.937-.17-1.894-.459-1.894-1.793 0-1.312 1.211-1.763 2.155-1.79 1.077.029 2.028.527 2.501 1.645"/><path fill="#958A7E" d="M113.645 81.347h-.06c-2.58-.021-4.441-1.305-4.979-3.433a.66.66 0 0 1 .086-.517.75.75 0 0 1 .468-.346l1.01-.229a.724.724 0 0 1 .859.522c.325 1.23 1.658 1.699 2.697 1.723.62-.015 2.102-.207 2.102-1.68 0-1.008-.855-1.326-1.779-1.521l-1.728-.361c-2.241-.505-3.379-1.77-3.379-3.759 0-2.91 2.276-3.952 4.404-3.957 2.348 0 3.901 1.037 4.514 3.001a.644.644 0 0 1-.062.511.782.782 0 0 1-.483.371l-.961.233a.685.685 0 0 1-.155.019.771.771 0 0 1-.697-.479c-.483-1.146-1.455-1.407-2.186-1.428-.283.008-1.797.119-1.797 1.438 0 .972.564 1.259 1.607 1.446l1.545.314c.826.184 1.65.364 2.353.918.892.699 1.404 1.813 1.404 3.059-.001 3.067-2.579 4.155-4.783 4.155m-3.295-3.828l-1.033.219a.109.109 0 0 0-.03.033c.455 1.771 2.065 2.856 4.307 2.875h.053c1.973 0 4.08-.905 4.08-3.451 0-1.026-.414-1.94-1.137-2.508-.576-.455-1.286-.611-2.039-.776l-1.559-.317c-.701-.128-2.175-.395-2.175-2.137 0-1.527 1.347-2.107 2.498-2.143 1.343.037 2.341.696 2.832 1.855.013.029.041.05.052.053l.95-.231c.011-.003.022-.015.03-.024-.525-1.643-1.809-2.476-3.812-2.476-.888.003-3.724.243-3.724 3.257 0 1.662.897 2.64 2.827 3.072l1.721.359c.643.137 2.338.494 2.338 2.211 0 1.709-1.447 2.352-2.805 2.385-1.299-.035-2.948-.643-3.374-2.256M121.291 73.342h5.623c.021-2.003-.926-3.7-2.736-3.761-1.72.063-2.828 1.854-2.887 3.761m2.882-5.217c3.3 0 4.709 2.983 4.729 6.269.002.188-.193.354-.378.354l-7.315.001c0 .973.039 1.868.437 2.791.485 1.133 1.545 1.83 2.619 1.867 1.216-.041 2.126-.813 2.614-2.037.07-.182.302-.295.479-.266l.982.207c.203.049.344.244.285.424-.696 2.052-2.33 3.272-4.496 3.272-3.33 0-4.948-2.96-4.948-6.405-.002-3.397 1.729-6.477 4.992-6.477"/><path fill="#958A7E" d="M124.128 81.36c-3.221 0-5.301-2.652-5.301-6.758 0-3.291 1.672-6.83 5.346-6.83 3.719 0 5.062 3.418 5.078 6.619a.661.661 0 0 1-.207.479.736.736 0 0 1-.521.227l-6.964.004c.012.774.078 1.535.406 2.301.416.973 1.322 1.621 2.31 1.656 1.007-.035 1.822-.681 2.277-1.816.125-.32.522-.542.862-.482l.994.211a.765.765 0 0 1 .491.359c.091.161.11.343.058.512-.747 2.206-2.552 3.518-4.829 3.518m.045-12.882c-3.189 0-4.646 3.176-4.646 6.127 0 2.793 1.204 6.054 4.601 6.054 1.978 0 3.486-1.091 4.148-2.995a.059.059 0 0 0-.021-.01l-.971-.203a.155.155 0 0 0-.082.052c-.556 1.39-1.623 2.214-2.93 2.258-1.279-.046-2.427-.86-2.951-2.081-.432-1.001-.468-1.955-.468-2.929V74.4l7.669-.002a.123.123 0 0 0 .031-.026c-.018-2.839-1.177-5.894-4.38-5.894m3.089 5.214h-6.334l.012-.361c.062-1.936 1.212-4.028 3.228-4.1l.011-.002.013.002c1.864.061 3.1 1.713 3.075 4.113l-.005.348zm-5.596-.701h4.892c-.076-1.444-.728-2.997-2.378-3.059-1.464.061-2.35 1.558-2.514 3.059M131.826 80.888h-1.033c-.191 0-.375-.166-.375-.354V68.942c0-.188.185-.355.375-.355h.888c.192 0 .386.165.386.352l-.003 2.076c.522-1.486 1.509-2.977 3.39-2.742.192.021.353.183.353.375v1.084c0 .192-.168.385-.353.386-1.232.011-2.104.709-2.703 1.935-.438.896-.521 1.67-.521 2.639l-.002 5.845c-.003.185-.211.351-.402.351"/><path fill="#958A7E" d="M130.792 81.237c-.389 0-.728-.329-.728-.704V68.942c.004-.379.345-.707.728-.707h.888c.39 0 .735.328.737.701l-.002.53c.766-1.167 1.816-1.702 3.078-1.545.377.044.66.354.66.724v1.084c0 .391-.328.733-.701.735-1.041.011-1.822.577-2.39 1.738-.405.833-.485 1.542-.485 2.483v5.846c-.004.377-.354.705-.752.705h-1.033v.001zm-.021-.709c.006 0 .018.007.021.009l1.033-.002c.016 0 .047-.021.057-.034l-.004-5.812c0-1.019.091-1.84.555-2.791.684-1.403 1.699-2.121 3.014-2.133-.008-.002.006-.022.008-.033v-1.084c-.002-.006-.02-.024-.045-.026a2.687 2.687 0 0 0-.342-.022c-1.186 0-2.085.853-2.676 2.531l-.68-.117.004-2.072c-.002.015-.026 0-.037 0h-.887c-.006 0-.022.014-.025.021v11.573c0-.006.002-.008.004-.008M146.358 68.767l-3.438 11.58c-.062.204-.193.369-.387.369h-1.352c-.191 0-.325-.191-.377-.369l-3.549-11.582c-.049-.16.154-.347.399-.347h1.117c.19 0 .429.164.479.354l2.754 9.318 2.693-9.322c.051-.192.284-.352.477-.352h.783c.25.002.453.192.401.351"/><path fill="#958A7E" d="M142.533 81.067h-1.353c-.321 0-.603-.243-.714-.62l-3.545-11.58a.543.543 0 0 1 .093-.492.806.806 0 0 1 .642-.308h1.117c.361 0 .729.275.816.615l2.41 8.159 2.363-8.171c.088-.329.453-.604.812-.604l.783-.002c.256 0 .5.119.643.312a.55.55 0 0 1 .091.493l-3.438 11.576c-.113.384-.39.622-.72.622m-4.907-12.295l3.514 11.473a.319.319 0 0 0 .07.129l1.312-.008a.326.326 0 0 0 .062-.118l3.408-11.476a.165.165 0 0 0-.031-.004h-.78c-.041 0-.126.056-.14.092l-3.028 10.481-3.095-10.472a.233.233 0 0 0-.145-.102h-1.115c-.012.004-.022.004-.032.005M147.896 65.065c0-.588.504-1.066 1.123-1.066s1.122.479 1.122 1.066c0 .591-.503 1.066-1.122 1.066s-1.123-.475-1.123-1.066m1.654 15.545l-1.062-.002c-.188.004-.385-.168-.385-.351l.005-11.596c0-.188.192-.354.384-.354h1.057c.193 0 .389.166.389.354V80.26c-.002.184-.194.348-.388.35"/><path fill="#958A7E" d="M149.552 80.962l-1.064-.001a.747.747 0 0 1-.501-.198.685.685 0 0 1-.233-.503l.004-11.597c0-.377.345-.708.734-.708l1.057.002c.395 0 .738.329.738.706V80.26c0 .37-.342.698-.73.702h-.005zm-1.092-.711c.006 0 .019.006.025.009l1.062.003a.085.085 0 0 0 .041-.027l-.004-11.571c-.004.013-.024-.003-.039-.005h-1.055a.09.09 0 0 0-.039.025V80.26c.002-.006.004-.009.009-.009m.559-13.768c-.812 0-1.473-.635-1.473-1.418 0-.781.66-1.416 1.473-1.416s1.473.635 1.473 1.416c0 .784-.66 1.418-1.473 1.418m0-2.132c-.426 0-.771.321-.771.717 0 .395.346.717.771.717.423 0 .771-.322.771-.717.001-.396-.349-.717-.771-.717M156.009 79.356c1.424-.043 2.166-1.186 2.479-2.664.062-.185.203-.326.41-.326l.942-.004c.22.011.425.182.406.39-.438 2.515-1.953 4.226-4.115 4.226l-.088-.002-.08.002c-3.146 0-4.502-3.162-4.502-6.373 0-3.188 1.375-6.447 4.522-6.447l.083.003.086-.003c2.184 0 3.743 1.686 4.081 4.203 0 .188-.175.352-.381.377l-.985-.014c-.205-.027-.34-.209-.371-.404-.238-1.405-1.043-2.522-2.388-2.567-2.14.069-2.749 2.705-2.749 4.731.002 1.953.512 4.804 2.65 4.872"/><path fill="#958A7E" d="M156.132 81.328h-.16c-3.59 0-4.859-3.623-4.859-6.726 0-3.385 1.508-6.797 4.873-6.797l.094.002.068-.002c2.329 0 4.066 1.77 4.436 4.506l.002.047c0 .359-.301.68-.688.727l-.023.002-1.054-.016c-.342-.049-.608-.33-.668-.698-.235-1.386-1.002-2.233-2.053-2.271-2.271.074-2.388 3.662-2.388 4.381 0 1.043.166 4.453 2.31 4.524 1.075-.036 1.799-.838 2.124-2.388l.012-.036c.113-.351.397-.567.741-.567l.94-.004c.24.012.449.111.591.272a.656.656 0 0 1 .169.493c-.489 2.822-2.198 4.551-4.467 4.551m-.154-12.82c-2.874 0-4.164 3.062-4.164 6.097 0 2.777 1.089 6.022 4.15 6.022h.173c1.889 0 3.325-1.489 3.757-3.888a.145.145 0 0 0-.073-.027l-.922.005c-.03 0-.055.024-.071.071-.398 1.867-1.369 2.876-2.807 2.92-2.794-.09-3.01-4.021-3.01-5.227 0-2.407.812-5.006 3.088-5.082 1.41.048 2.454 1.144 2.744 2.86.008.056.035.101.064.112l.92.011a.117.117 0 0 0 .053-.028c-.336-2.373-1.76-3.848-3.727-3.848l-.076.002h-.099zM164.037 73.342h5.623c.021-2.003-.924-3.7-2.734-3.761-1.721.063-2.83 1.854-2.889 3.761m2.884-5.217c3.295 0 4.709 2.983 4.728 6.269.001.188-.192.354-.379.354l-7.315.001c0 .973.039 1.868.437 2.791.485 1.133 1.545 1.83 2.618 1.868 1.218-.042 2.125-.814 2.615-2.038a.473.473 0 0 1 .479-.266l.979.207c.207.051.344.244.287.424-.695 2.052-2.328 3.272-4.494 3.272-3.332 0-4.949-2.96-4.949-6.405-.002-3.397 1.731-6.477 4.994-6.477"/><path fill="#958A7E" d="M166.875 81.36c-3.219 0-5.301-2.652-5.301-6.758 0-3.291 1.674-6.83 5.348-6.83 3.72 0 5.061 3.418 5.078 6.619a.678.678 0 0 1-.205.479.747.747 0 0 1-.524.229l-6.964.002c.012.774.078 1.535.406 2.301.418.973 1.322 1.621 2.308 1.656 1.006-.035 1.824-.681 2.276-1.816a.832.832 0 0 1 .867-.482l.992.211a.758.758 0 0 1 .49.358c.09.161.109.344.059.513-.75 2.206-2.553 3.518-4.83 3.518m.046-12.882c-3.19 0-4.645 3.176-4.645 6.127 0 2.793 1.204 6.054 4.598 6.054 1.979 0 3.488-1.091 4.15-2.995-.006-.002-.016-.008-.025-.01l-.971-.203a.154.154 0 0 0-.08.052c-.554 1.39-1.623 2.214-2.93 2.258-1.279-.046-2.43-.862-2.952-2.081-.429-1.002-.466-1.955-.466-2.929V74.4l7.668-.002a.108.108 0 0 0 .031-.026c-.016-2.839-1.174-5.894-4.378-5.894m3.086 5.214h-6.336l.015-.361c.062-1.936 1.213-4.028 3.226-4.1l.014-.002.012.002c1.863.061 3.102 1.716 3.075 4.113l-.006.348zm-5.593-.701h4.887c-.072-1.444-.723-2.997-2.375-3.059-1.464.061-2.35 1.558-2.512 3.059M180.037 71.308c.071.172.262.303.447.256l.961-.233c.188-.045.348-.257.294-.435-.631-2.02-2.269-2.762-4.182-2.756-2.113.004-4.05 1.064-4.05 3.606 0 2.179 1.474 3.051 3.098 3.414l1.729.362c.914.193 2.059.557 2.059 1.864 0 1.53-1.354 2.007-2.462 2.033-1.177-.028-2.656-.588-3.027-1.992-.043-.183-.258-.306-.446-.263l-1.004.229c-.187.045-.34.25-.293.434.561 2.218 2.559 3.148 4.644 3.167 2.198.019 4.485-1.017 4.485-3.802 0-1.114-.438-2.131-1.27-2.784-.646-.509-1.436-.681-2.208-.849l-1.536-.313c-.938-.17-1.896-.459-1.896-1.793 0-1.312 1.213-1.763 2.156-1.79 1.077.029 2.027.527 2.501 1.645"/><path fill="#958A7E" d="M177.856 81.349l-.058-.002c-2.582-.021-4.443-1.305-4.98-3.434a.667.667 0 0 1 .085-.514.747.747 0 0 1 .47-.348l1.006-.229c.365-.085.779.167.865.525.324 1.228 1.654 1.695 2.692 1.719.622-.015 2.104-.207 2.104-1.68 0-1.009-.855-1.326-1.781-1.521l-1.727-.364c-2.242-.503-3.378-1.768-3.378-3.758 0-2.909 2.272-3.953 4.401-3.957 2.349 0 3.904 1.037 4.517 3.001a.656.656 0 0 1-.063.511.778.778 0 0 1-.48.37l-.962.233a.66.66 0 0 1-.159.02.767.767 0 0 1-.693-.479c-.483-1.146-1.457-1.41-2.188-1.43-.284.01-1.794.119-1.794 1.438 0 .973.562 1.259 1.605 1.447l1.545.314c.826.182 1.65.364 2.354.917.891.7 1.402 1.813 1.402 3.06-.001 3.071-2.578 4.161-4.783 4.161m-3.321-3.84l-1.006.229a.079.079 0 0 0-.029.033c.451 1.771 2.062 2.856 4.305 2.875h.053c1.973 0 4.08-.905 4.08-3.451 0-1.043-.402-1.935-1.137-2.508-.576-.455-1.288-.611-2.041-.776l-1.555-.318c-.701-.127-2.176-.393-2.176-2.137 0-1.527 1.346-2.106 2.496-2.142 1.344.037 2.344.696 2.833 1.857a.107.107 0 0 0 .052.051l.953-.231a.197.197 0 0 0 .03-.024c-.524-1.643-1.81-2.474-3.813-2.474-.89.001-3.722.243-3.722 3.255 0 1.664.897 2.64 2.823 3.072l1.723.361c.641.133 2.338.492 2.338 2.207 0 1.711-1.447 2.353-2.806 2.385-1.298-.032-2.948-.641-3.374-2.254-.002 0-.018-.01-.027-.01M134.585 45.638v-2.555a.633.633 0 0 1 .649-.646l11.438-.001c.365 0 .66.266.66.646v2.191c-.004.366-.313.845-.862 1.607l-5.925 8.463c2.199-.052 4.525.278 6.522 1.402.452.253.572.628.608.996v2.726c0 .376-.411.81-.844.583-3.52-1.845-8.193-2.047-12.088.021-.396.212-.812-.215-.812-.592v-2.588c0-.414.008-1.125.426-1.758l6.865-9.852-5.979-.001a.638.638 0 0 1-.658-.642M92.859 61.587h-3.48a.655.655 0 0 1-.622-.589l.002-17.871c0-.357.3-.644.671-.644h3.241c.34.019.612.273.634.6v2.334h.064c.845-2.257 2.436-3.309 4.581-3.309 2.176 0 3.54 1.051 4.514 3.309.847-2.257 2.764-3.309 4.81-3.309 1.463 0 3.054.601 4.026 1.954 1.104 1.504.878 3.685.878 5.603l-.001 11.277a.66.66 0 0 1-.672.645h-3.478a.654.654 0 0 1-.623-.643V51.47c0-.75.063-2.632-.1-3.347-.261-1.204-1.038-1.54-2.046-1.54-.846 0-1.725.564-2.08 1.463-.355.905-.324 2.408-.324 3.423v9.474a.66.66 0 0 1-.672.645h-3.476a.654.654 0 0 1-.625-.643l-.005-9.476c0-1.992.327-4.925-2.142-4.925-2.502 0-2.406 2.858-2.406 4.925v9.474c.004.357-.297.644-.669.644M157.182 42.108c5.166 0 7.96 4.437 7.96 10.075 0 5.455-3.088 9.779-7.96 9.779-5.067 0-7.828-4.438-7.828-9.966 0-5.563 2.792-9.888 7.828-9.888m.03 3.647c-2.566 0-2.729 3.498-2.729 5.68 0 2.181-.031 6.844 2.697 6.844 2.697 0 2.826-3.762 2.826-6.055 0-1.504-.063-3.31-.52-4.739-.387-1.24-1.168-1.73-2.274-1.73M171.841 61.587h-3.469a.655.655 0 0 1-.625-.643l-.004-17.878c.027-.326.317-.583.666-.583h3.229a.66.66 0 0 1 .618.5v2.735h.064c.975-2.445 2.34-3.609 4.741-3.609 1.56 0 3.089.563 4.062 2.104.908 1.429.908 3.834.908 5.565v11.247a.657.657 0 0 1-.664.562h-3.49a.661.661 0 0 1-.619-.562V51.32c0-1.955.228-4.812-2.176-4.812-.845 0-1.625.564-2.016 1.428-.486 1.089-.552 2.181-.552 3.384v9.623a.662.662 0 0 1-.673.644M61.458 24.839l-9.664-3.088c.015 2.49.031 13.173.033 14.027.734.289 7.332 2.346 9.619 3.249l.012-14.188zM63.689 24.844l9.663-3.088c-.013 2.488-.029 12.822-.033 13.676-.734.288-7.331 2.345-9.617 3.25l-.013-13.838zM71.476 20.213l-8.895-2.36-8.905 2.355 8.915 2.889zM49.539 45.073l-9.664-3.088c.014 2.487.028 12.823.033 13.676.733.287 7.331 2.346 9.617 3.249l.014-13.837zM51.77 45.078l9.662-3.089c-.014 2.489-.029 12.822-.033 13.677-.733.287-7.33 2.347-9.617 3.249l-.012-13.837zM59.555 40.447l-8.895-2.712-8.904 2.707 8.915 2.889zM25.452 45.073l-9.664-3.087c.015 2.486.03 12.822.033 13.675.733.287 7.331 2.346 9.619 3.249l.012-13.837zM27.684 45.078l9.661-3.089c-.012 2.489-.029 12.822-.032 13.677-.735.287-7.33 2.347-9.618 3.249l-.011-13.837zM35.468 40.447l-8.895-2.712-8.904 2.707 8.915 2.889zM37.487 64.916l-9.662-3.088c.014 2.487.029 12.821.032 13.678.734.288 7.331 2.345 9.619 3.249l.011-13.839zM39.72 64.922l9.661-3.089c-.013 2.488-.028 12.823-.033 13.678-.733.287-7.329 2.346-9.617 3.25l-.011-13.839zM47.504 60.292l-8.895-2.712-8.903 2.707 8.914 2.887zM128.977 61.542a.714.714 0 0 1-.819.08c-1.158-.96-1.365-1.406-1.996-2.319-1.912 1.946-3.264 2.53-5.738 2.53-2.93 0-5.209-1.809-5.209-5.427 0-2.826 1.529-4.75 3.711-5.69 1.89-.83 4.525-.981 6.543-1.208v-.452c0-.829.066-1.809-.422-2.524-.424-.641-1.237-.905-1.953-.905-1.328 0-2.51.681-2.799 2.092-.06.313-.287.624-.604.64l-3.373-.367c-.285-.063-.604-.291-.52-.726.775-4.096 4.471-5.333 7.783-5.333 1.69 0 3.904.453 5.239 1.734 1.693 1.583 1.53 3.693 1.53 5.992v5.425c0 1.631.678 2.349 1.316 3.228.221.315.27.692-.015.926-.711.596-1.976 1.691-2.668 2.312l-.006-.008z"/><path fill="#FFF" d="M125.468 53.051c0 1.356.033 2.489-.649 3.694-.556.98-1.437 1.584-2.411 1.584-1.334 0-2.113-1.018-2.113-2.527 0-2.964 2.656-3.504 5.175-3.504l-.002.753z"/><g><path fill="#958A7E" d="M83.355 61.542a.72.72 0 0 1-.823.08c-1.154-.96-1.362-1.406-1.995-2.319-1.91 1.946-3.262 2.53-5.738 2.53-2.928 0-5.208-1.809-5.208-5.427 0-2.826 1.53-4.75 3.713-5.69 1.887-.83 4.525-.981 6.542-1.208v-.452c0-.829.065-1.809-.423-2.524-.422-.641-1.237-.905-1.953-.905-1.327 0-2.507.681-2.797 2.092-.06.313-.289.624-.604.64l-3.375-.367c-.284-.063-.601-.291-.519-.726.776-4.096 4.472-5.333 7.782-5.333 1.695 0 3.908.453 5.242 1.734 1.694 1.583 1.53 3.693 1.53 5.992v5.425c0 1.631.678 2.349 1.314 3.228.222.315.272.692-.01.926-.711.596-1.975 1.691-2.668 2.312l-.01-.008z"/><path fill="#FFF" d="M80.08 53.051c0 1.356.03 2.489-.65 3.694-.553.98-1.434 1.584-2.409 1.584-1.337 0-2.118-1.018-2.118-2.527 0-2.964 2.66-3.504 5.177-3.504v.753z"/></g></svg>