<?xml version="1.0" encoding="utf-8"?>
<!-- Generator: Adobe Illustrator 16.0.4, SVG Export Plug-In . SVG Version: 6.00 Build 0)  -->
<!DOCTYPE svg PUBLIC "-//W3C//DTD SVG 1.1//EN" "http://www.w3.org/Graphics/SVG/1.1/DTD/svg11.dtd">
<svg version="1.1" id="Layer_1" xmlns="http://www.w3.org/2000/svg" xmlns:xlink="http://www.w3.org/1999/xlink" x="0px" y="0px"
	 width="300px" height="171px" viewBox="0 0 300 171" enable-background="new 0 0 300 171" xml:space="preserve">
<g>
	<g>
		<path fill="#958A7E" d="M67.988,50.37c1.945,0.705,3.027,1.058,3.25,1.058c0.579,0,1.042-0.223,1.392-0.668
			c0.348-0.445,0.567-0.913,0.656-1.402h1.269V60.02h-1.157c-1.097-2.315-2.218-4.14-3.359-5.476
			c-2.134-2.465-4.548-3.696-7.246-3.696c-3.056,0-5.223,1.317-6.505,3.95c-1.281,2.634-1.921,6.17-1.921,10.606
			c0,3.266,0.377,5.951,1.133,8.058c1.408,3.948,4.024,5.921,7.848,5.921c2.341,0,4.52-0.653,6.536-1.958
			c1.158-0.757,2.521-1.966,4.091-3.628l1.358,1.113c-1.781,1.989-3.347,3.429-4.697,4.318c-2.404,1.587-5.073,2.381-8.013,2.381
			c-4.496,0-8.264-1.335-11.306-4.007c-3.369-2.952-5.053-6.93-5.053-11.931c0-4.956,1.61-8.969,4.83-12.041
			c3.025-2.879,6.737-4.318,11.129-4.318C64.122,49.312,66.043,49.665,67.988,50.37z"/>
		<path fill="#958A7E" d="M106.651,53.652c3.132,3.042,4.697,6.96,4.697,11.754c0,4.792-1.566,8.709-4.697,11.752
			c-3.058,2.968-6.878,4.452-11.462,4.452c-4.868,0-8.836-1.625-11.908-4.875c-2.864-3.057-4.296-6.75-4.296-11.084
			c0-4.778,1.498-8.703,4.496-11.775c3.027-3.116,6.931-4.674,11.71-4.674C99.787,49.201,103.609,50.685,106.651,53.652z
			 M102.22,73.996c0.684-2.195,1.026-5.059,1.026-8.592c0-4.853-0.727-8.51-2.175-10.973c-1.449-2.464-3.412-3.696-5.895-3.696
			c-3.448,0-5.811,2.056-7.086,6.166c-0.669,2.182-1.005,5.016-1.005,8.503c0,3.547,0.342,6.411,1.026,8.592
			c1.263,4.051,3.618,6.078,7.066,6.078C98.595,80.074,100.942,78.048,102.22,73.996z"/>
		<path fill="#958A7E" d="M113.708,79.54c1.69-0.044,2.782-0.367,3.272-0.968s0.734-1.487,0.734-2.66V54.321
			c-1.393-1.558-2.256-2.475-2.581-2.75c-0.326-0.274-0.772-0.449-1.336-0.523v-1.158h9.662l15.67,19.045h0.223V55.544
			c0-1.543-0.281-2.645-0.842-3.305c-0.561-0.661-1.683-1.058-3.365-1.191v-1.158h9.794v1.158c-1.424,0.237-2.376,0.554-2.86,0.953
			c-0.483,0.398-0.724,1.289-0.724,2.676v26.867h-1.271L120.029,57.17h-0.312v17.874c0,1.402,0.192,2.394,0.579,2.975
			c0.608,0.94,1.855,1.448,3.741,1.521v1.158h-10.328L113.708,79.54L113.708,79.54z"/>
		<path fill="#958A7E" d="M146.628,79.54c1.499-0.104,2.502-0.418,3.016-0.946c0.512-0.527,0.768-1.599,0.768-3.217V55.21
			c0-1.712-0.26-2.793-0.778-3.243c-0.52-0.451-1.522-0.757-3.005-0.919V49.89h14.668c3.887,0,6.845,0.631,8.869,1.892
			c2.028,1.262,3.04,3.428,3.04,6.5c0,1.5-0.397,2.904-1.191,4.218s-2.104,2.371-3.93,3.172c-1.38,0.563-2.759,0.905-4.141,1.024
			c-1.38,0.118-3.428,0.177-6.142,0.177v8.503c0,1.676,0.281,2.775,0.846,3.293c0.563,0.52,1.615,0.809,3.161,0.869v1.158h-15.179
			V79.54H146.628z M163.232,64.359c1.438-0.92,2.158-2.901,2.158-5.944c0-2.076-0.349-3.754-1.045-5.03
			c-0.698-1.275-2.034-1.915-4.007-1.915c-0.904,0-1.555,0.107-1.948,0.322s-0.59,0.635-0.59,1.257v12.242
			C160.517,65.25,162.328,64.938,163.232,64.359z"/>
		<path fill="#958A7E" d="M174.474,80.697V79.54c1.306-0.044,2.231-0.223,2.782-0.534c0.846-0.476,1.27-1.366,1.27-2.672v-22.08
			c0-1.327-0.437-2.219-1.312-2.674c-0.506-0.281-1.419-0.456-2.737-0.531V49.89h26.266v9.193h-1.113
			c-0.58-2.938-1.562-4.949-2.95-6.032c-1.386-1.083-3.914-1.625-7.577-1.625c-1.396,0-2.281,0.145-2.66,0.435
			c-0.378,0.289-0.568,0.864-0.568,1.726v10.55c2.597,0.03,4.354-0.441,5.274-1.413c0.921-0.973,1.624-2.749,2.114-5.331h1.159
			v15.403h-1.159c-0.324-2.596-0.99-4.425-1.991-5.486c-1.004-1.061-2.803-1.592-5.399-1.592v11.04c0,0.964,0.248,1.621,0.745,1.97
			c0.496,0.349,1.517,0.523,3.061,0.523c2.906,0,5.281-0.563,7.121-1.691c1.841-1.127,3.475-3.242,4.896-6.343h1.271l-1.847,9.481
			L174.474,80.697L174.474,80.697z"/>
		<path fill="#958A7E" d="M204.768,79.54c1.143-0.073,1.966-0.237,2.472-0.49c0.892-0.459,1.335-1.298,1.335-2.514V54.052
			c0-1.172-0.424-1.988-1.27-2.448c-0.489-0.267-1.335-0.453-2.537-0.556V49.89h13.934c5.624,0,9.913,1.499,12.866,4.498
			c2.683,2.729,4.029,6.395,4.029,10.996c0,4.126-1.352,7.62-4.051,10.484c-3.044,3.221-7.168,4.83-12.376,4.83h-14.402V79.54
			L204.768,79.54z M216.465,78.538c0.305,0.416,0.953,0.624,1.948,0.624c2.699,0,4.92-0.953,6.654-2.861
			c1.736-1.906,2.605-5.567,2.605-10.984c0-3.219-0.469-5.987-1.403-8.301c-1.514-3.726-4.065-5.588-7.657-5.588
			c-1.188,0-1.957,0.252-2.314,0.757c-0.237,0.327-0.356,0.958-0.356,1.892v22.437C215.985,77.447,216.16,78.122,216.465,78.538z"/>
		<path fill="#958A7E" d="M237.8,79.54c1.291-0.028,2.219-0.185,2.783-0.467c0.919-0.475,1.38-1.387,1.38-2.738V54.253
			c0-1.341-0.437-2.24-1.312-2.697c-0.536-0.28-1.485-0.45-2.85-0.508V49.89h15.936v1.159c-1.423,0.059-2.403,0.221-2.938,0.485
			c-0.893,0.457-1.336,1.364-1.336,2.719v22.081c0,1.276,0.356,2.129,1.068,2.56c0.711,0.431,1.781,0.646,3.205,0.646v1.157H237.8
			V79.54L237.8,79.54z"/>
	</g>
	<g>
		<path fill="#958A7E" d="M64.053,100.593l1.209,0.305c-0.254,0.994-0.709,1.751-1.368,2.271c-0.661,0.521-1.464,0.782-2.416,0.782
			c-0.985,0-1.785-0.2-2.403-0.601c-0.616-0.4-1.086-0.982-1.409-1.743c-0.323-0.761-0.482-1.576-0.482-2.448
			c0-0.951,0.182-1.783,0.545-2.489c0.363-0.707,0.882-1.245,1.552-1.615c0.67-0.367,1.409-0.551,2.217-0.551
			c0.915,0,1.683,0.231,2.304,0.7c0.624,0.465,1.058,1.118,1.304,1.961l-1.192,0.282c-0.21-0.666-0.518-1.149-0.922-1.452
			c-0.405-0.303-0.91-0.454-1.521-0.454c-0.702,0-1.289,0.167-1.761,0.504c-0.473,0.336-0.804,0.788-0.995,1.354
			s-0.285,1.152-0.285,1.756c0,0.776,0.113,1.455,0.34,2.032c0.226,0.582,0.578,1.013,1.056,1.3c0.476,0.288,0.995,0.433,1.55,0.433
			c0.678,0,1.251-0.196,1.722-0.588C63.568,101.941,63.886,101.362,64.053,100.593z"/>
		<path fill="#958A7E" d="M66.382,100.486c0-1.225,0.341-2.133,1.022-2.723c0.569-0.489,1.263-0.735,2.082-0.735
			c0.91,0,1.652,0.297,2.231,0.892c0.578,0.597,0.864,1.423,0.864,2.472c0,0.854-0.127,1.521-0.384,2.011
			c-0.252,0.488-0.626,0.867-1.114,1.136c-0.489,0.271-1.021,0.406-1.599,0.406c-0.929,0-1.676-0.297-2.248-0.894
			C66.667,102.461,66.382,101.604,66.382,100.486z M67.535,100.486c0,0.848,0.184,1.483,0.553,1.905
			c0.37,0.42,0.835,0.632,1.396,0.632c0.555,0,1.02-0.212,1.388-0.635c0.37-0.424,0.555-1.07,0.555-1.939
			c0-0.817-0.186-1.439-0.557-1.859c-0.372-0.422-0.834-0.634-1.386-0.634c-0.561,0-1.027,0.21-1.396,0.63
			C67.717,99.007,67.535,99.639,67.535,100.486z"/>
		<path fill="#958A7E" d="M74.089,103.797v-6.619h1.01v0.94c0.484-0.729,1.188-1.09,2.106-1.09c0.4,0,0.766,0.071,1.1,0.214
			c0.335,0.143,0.585,0.331,0.751,0.562c0.166,0.233,0.282,0.511,0.349,0.83c0.042,0.208,0.062,0.571,0.062,1.09v4.072h-1.122
			v-4.026c0-0.458-0.043-0.8-0.131-1.025c-0.089-0.227-0.244-0.408-0.466-0.542c-0.221-0.135-0.481-0.204-0.781-0.204
			c-0.478,0-0.892,0.151-1.236,0.454c-0.348,0.305-0.52,0.881-0.52,1.729v3.615H74.089z"/>
		<path fill="#958A7E" d="M80.931,101.82l1.109-0.175c0.062,0.445,0.237,0.785,0.521,1.022c0.285,0.238,0.682,0.357,1.194,0.357
			c0.514,0,0.896-0.104,1.147-0.316c0.248-0.209,0.373-0.456,0.373-0.739c0-0.253-0.109-0.452-0.33-0.599
			c-0.154-0.098-0.536-0.226-1.146-0.379c-0.823-0.208-1.394-0.389-1.71-0.54c-0.321-0.151-0.559-0.361-0.723-0.628
			c-0.167-0.27-0.248-0.562-0.248-0.889c0-0.296,0.068-0.568,0.202-0.819c0.135-0.251,0.322-0.461,0.552-0.627
			c0.173-0.128,0.412-0.238,0.714-0.327c0.301-0.089,0.624-0.134,0.968-0.134c0.519,0,0.976,0.075,1.368,0.225
			c0.396,0.149,0.683,0.353,0.87,0.606c0.187,0.255,0.316,0.597,0.386,1.026l-1.097,0.149c-0.05-0.34-0.194-0.607-0.434-0.798
			c-0.238-0.19-0.576-0.287-1.012-0.287c-0.514,0-0.883,0.086-1.103,0.257c-0.22,0.169-0.329,0.369-0.329,0.599
			c0,0.143,0.045,0.275,0.135,0.392c0.094,0.121,0.235,0.221,0.43,0.299c0.112,0.041,0.442,0.136,0.993,0.285
			c0.792,0.212,1.347,0.389,1.659,0.52c0.316,0.136,0.56,0.332,0.741,0.59c0.178,0.257,0.268,0.577,0.268,0.96
			c0,0.374-0.109,0.727-0.327,1.056c-0.218,0.329-0.533,0.586-0.945,0.768c-0.41,0.18-0.877,0.271-1.394,0.271
			c-0.86,0-1.516-0.178-1.967-0.536C81.346,103.051,81.056,102.523,80.931,101.82z"/>
		<path fill="#958A7E" d="M92.484,101.665l1.159,0.143c-0.183,0.679-0.522,1.202-1.016,1.576c-0.494,0.376-1.126,0.561-1.895,0.561
			c-0.968,0-1.735-0.297-2.302-0.894c-0.566-0.595-0.852-1.432-0.852-2.509c0-1.113,0.287-1.979,0.86-2.593
			c0.573-0.614,1.315-0.923,2.23-0.923c0.886,0,1.609,0.301,2.17,0.904c0.559,0.601,0.841,1.45,0.841,2.543
			c0,0.064-0.001,0.166-0.006,0.298h-4.937c0.042,0.729,0.247,1.283,0.617,1.67c0.371,0.389,0.831,0.581,1.384,0.581
			c0.411,0,0.762-0.109,1.053-0.324C92.083,102.482,92.314,102.139,92.484,101.665z M88.801,99.851h3.698
			c-0.052-0.554-0.191-0.974-0.426-1.252c-0.357-0.433-0.819-0.648-1.388-0.648c-0.515,0-0.948,0.173-1.299,0.517
			C89.032,98.812,88.838,99.273,88.801,99.851z"/>
		<path fill="#958A7E" d="M95.218,103.797V94.66h1.122v9.137H95.218z"/>
		<path fill="#958A7E" d="M98.271,103.797V94.66h1.12v3.28c0.523-0.607,1.184-0.91,1.982-0.91c0.491,0,0.916,0.094,1.278,0.288
			c0.36,0.194,0.62,0.461,0.776,0.802c0.155,0.342,0.233,0.835,0.233,1.483v4.193h-1.12v-4.193c0-0.562-0.121-0.971-0.365-1.228
			c-0.242-0.254-0.587-0.383-1.031-0.383c-0.332,0-0.645,0.088-0.938,0.259c-0.29,0.172-0.501,0.405-0.625,0.703
			c-0.125,0.294-0.187,0.701-0.187,1.222v3.62H98.271z"/>
		<path fill="#958A7E" d="M105.143,100.486c0-1.225,0.339-2.133,1.021-2.723c0.569-0.489,1.265-0.735,2.082-0.735
			c0.91,0,1.653,0.297,2.231,0.892c0.578,0.597,0.866,1.423,0.866,2.472c0,0.854-0.129,1.521-0.384,2.011
			c-0.255,0.488-0.628,0.867-1.117,1.136c-0.489,0.271-1.021,0.406-1.599,0.406c-0.927,0-1.675-0.297-2.247-0.894
			C105.429,102.461,105.143,101.604,105.143,100.486z M106.296,100.486c0,0.848,0.185,1.483,0.553,1.905
			c0.37,0.42,0.835,0.632,1.396,0.632c0.557,0,1.021-0.212,1.39-0.635c0.368-0.424,0.553-1.07,0.553-1.939
			c0-0.817-0.186-1.439-0.556-1.859c-0.372-0.422-0.834-0.634-1.387-0.634c-0.561,0-1.026,0.21-1.396,0.63
			C106.481,99.007,106.296,99.639,106.296,100.486z"/>
		<path fill="#958A7E" d="M116.72,103.797V94.66h1.24l4.799,7.173V94.66h1.159v9.137h-1.24l-4.799-7.18v7.18H116.72z"/>
		<path fill="#958A7E" d="M130.317,102.979c-0.416,0.354-0.815,0.602-1.198,0.748c-0.383,0.144-0.796,0.217-1.237,0.217
			c-0.728,0-1.286-0.178-1.676-0.532c-0.391-0.356-0.588-0.811-0.588-1.362c0-0.322,0.074-0.62,0.221-0.889
			c0.148-0.267,0.341-0.482,0.583-0.645c0.238-0.164,0.507-0.285,0.807-0.367c0.22-0.057,0.551-0.115,0.997-0.169
			c0.906-0.108,1.574-0.238,2-0.388c0.004-0.153,0.006-0.25,0.006-0.291c0-0.457-0.106-0.779-0.318-0.968
			c-0.287-0.252-0.712-0.38-1.277-0.38c-0.528,0-0.917,0.095-1.168,0.278c-0.25,0.183-0.436,0.511-0.557,0.98l-1.096-0.149
			c0.098-0.47,0.264-0.85,0.492-1.138c0.229-0.287,0.558-0.511,0.991-0.666c0.432-0.155,0.931-0.233,1.5-0.233
			c0.565,0,1.024,0.066,1.377,0.199c0.355,0.136,0.614,0.302,0.779,0.503c0.166,0.202,0.282,0.455,0.349,0.764
			c0.037,0.19,0.057,0.536,0.057,1.036v1.496c0,1.041,0.022,1.702,0.07,1.979c0.049,0.275,0.142,0.541,0.285,0.794h-1.172
			C130.425,103.563,130.35,103.291,130.317,102.979z M130.224,100.474c-0.407,0.168-1.018,0.309-1.833,0.424
			c-0.462,0.066-0.786,0.141-0.978,0.225s-0.338,0.205-0.442,0.363c-0.104,0.16-0.156,0.338-0.156,0.532
			c0,0.3,0.113,0.551,0.34,0.748c0.227,0.199,0.558,0.299,0.994,0.299c0.433,0,0.817-0.094,1.154-0.284
			c0.336-0.189,0.585-0.445,0.741-0.775c0.12-0.254,0.181-0.628,0.181-1.121V100.474z"/>
		<path fill="#958A7E" d="M137.607,101.371l1.103,0.145c-0.12,0.761-0.429,1.355-0.925,1.786c-0.497,0.429-1.106,0.645-1.83,0.645
			c-0.905,0-1.634-0.296-2.185-0.889c-0.55-0.591-0.826-1.44-0.826-2.546c0-0.715,0.119-1.341,0.357-1.877
			c0.237-0.536,0.597-0.938,1.082-1.206c0.483-0.269,1.01-0.4,1.58-0.4c0.718,0,1.307,0.182,1.764,0.545
			c0.457,0.363,0.75,0.88,0.879,1.549l-1.089,0.168c-0.104-0.442-0.288-0.778-0.551-1.003c-0.265-0.225-0.583-0.337-0.957-0.337
			c-0.565,0-1.024,0.203-1.377,0.607c-0.355,0.406-0.53,1.047-0.53,1.924c0,0.888,0.17,1.534,0.511,1.937
			c0.341,0.403,0.785,0.605,1.333,0.605c0.441,0,0.81-0.135,1.103-0.405C137.342,102.349,137.528,101.933,137.607,101.371z"/>
		<path fill="#958A7E" d="M139.868,95.949V94.66h1.12v1.289H139.868z M139.868,103.797v-6.619h1.12v6.619H139.868z"/>
		<path fill="#958A7E" d="M142.472,100.486c0-1.225,0.341-2.133,1.022-2.723c0.569-0.489,1.264-0.735,2.082-0.735
			c0.91,0,1.652,0.297,2.231,0.892c0.578,0.597,0.864,1.423,0.864,2.472c0,0.854-0.127,1.521-0.383,2.011
			c-0.253,0.488-0.627,0.867-1.115,1.136c-0.489,0.271-1.021,0.406-1.599,0.406c-0.929,0-1.676-0.297-2.248-0.894
			C142.758,102.461,142.472,101.604,142.472,100.486z M143.624,100.486c0,0.848,0.186,1.483,0.555,1.905
			c0.37,0.42,0.835,0.632,1.396,0.632c0.555,0,1.02-0.212,1.388-0.635c0.37-0.424,0.555-1.07,0.555-1.939
			c0-0.817-0.186-1.439-0.557-1.859c-0.372-0.422-0.834-0.634-1.386-0.634c-0.561,0-1.027,0.21-1.396,0.63
			C143.809,99.007,143.624,99.639,143.624,100.486z"/>
		<path fill="#958A7E" d="M150.18,103.797v-6.619h1.01v0.94c0.484-0.729,1.188-1.09,2.106-1.09c0.399,0,0.766,0.071,1.099,0.214
			c0.335,0.143,0.586,0.331,0.752,0.562c0.165,0.233,0.283,0.511,0.349,0.83c0.043,0.208,0.062,0.571,0.062,1.09v4.072h-1.122
			v-4.026c0-0.458-0.043-0.8-0.13-1.025c-0.089-0.227-0.244-0.408-0.467-0.542c-0.221-0.135-0.48-0.204-0.779-0.204
			c-0.479,0-0.893,0.151-1.238,0.454c-0.347,0.305-0.518,0.881-0.518,1.729v3.615H150.18z"/>
		<path fill="#958A7E" d="M161.788,102.979c-0.415,0.354-0.817,0.602-1.2,0.748c-0.383,0.144-0.796,0.217-1.233,0.217
			c-0.73,0-1.286-0.178-1.68-0.532c-0.39-0.356-0.586-0.811-0.586-1.362c0-0.322,0.075-0.62,0.221-0.889
			c0.148-0.267,0.342-0.482,0.581-0.645c0.238-0.164,0.507-0.285,0.807-0.367c0.221-0.057,0.554-0.115,0.999-0.169
			c0.904-0.108,1.572-0.238,1.999-0.388c0.004-0.153,0.006-0.25,0.006-0.291c0-0.457-0.104-0.779-0.317-0.968
			c-0.286-0.252-0.712-0.38-1.278-0.38c-0.527,0-0.917,0.095-1.166,0.278c-0.251,0.183-0.438,0.511-0.558,0.98l-1.097-0.149
			c0.1-0.47,0.264-0.85,0.491-1.138c0.229-0.287,0.56-0.511,0.992-0.666c0.431-0.155,0.933-0.233,1.501-0.233
			c0.564,0,1.021,0.066,1.378,0.199c0.353,0.136,0.612,0.302,0.778,0.503c0.167,0.202,0.283,0.455,0.349,0.764
			c0.038,0.19,0.058,0.536,0.058,1.036v1.496c0,1.041,0.022,1.702,0.071,1.979c0.048,0.275,0.143,0.541,0.283,0.794h-1.17
			C161.896,103.563,161.82,103.291,161.788,102.979z M161.695,100.474c-0.407,0.168-1.019,0.309-1.832,0.424
			c-0.461,0.066-0.787,0.141-0.979,0.225c-0.19,0.084-0.338,0.205-0.439,0.363c-0.105,0.16-0.159,0.338-0.159,0.532
			c0,0.3,0.114,0.551,0.341,0.748c0.226,0.199,0.558,0.299,0.995,0.299c0.433,0,0.817-0.094,1.154-0.284
			c0.336-0.189,0.584-0.445,0.738-0.775c0.123-0.254,0.182-0.628,0.182-1.121V100.474z"/>
		<path fill="#958A7E" d="M164.735,103.797V94.66h1.122v9.137H164.735z"/>
		<path fill="#958A7E" d="M175.818,103.797v-0.835c-0.418,0.657-1.036,0.984-1.85,0.984c-0.529,0-1.012-0.146-1.457-0.438
			c-0.441-0.288-0.785-0.696-1.027-1.218c-0.246-0.52-0.365-1.12-0.365-1.798c0-0.661,0.11-1.26,0.331-1.799
			c0.219-0.538,0.551-0.949,0.99-1.236c0.441-0.284,0.933-0.431,1.478-0.431c0.399,0,0.754,0.084,1.065,0.251
			c0.312,0.169,0.566,0.389,0.761,0.659v-3.28h1.116v9.141H175.818z M172.273,100.493c0,0.848,0.176,1.481,0.535,1.9
			c0.356,0.42,0.778,0.63,1.265,0.63c0.491,0,0.906-0.202,1.25-0.602c0.342-0.4,0.513-1.013,0.513-1.838
			c0-0.902-0.173-1.57-0.521-1.994c-0.351-0.424-0.78-0.636-1.291-0.636c-0.498,0-0.915,0.207-1.25,0.611
			C172.44,98.975,172.273,99.617,172.273,100.493z"/>
		<path fill="#958A7E" d="M183.346,101.665l1.159,0.143c-0.182,0.679-0.521,1.202-1.016,1.576c-0.494,0.376-1.127,0.561-1.895,0.561
			c-0.969,0-1.736-0.297-2.304-0.894c-0.566-0.595-0.85-1.432-0.85-2.509c0-1.113,0.287-1.979,0.86-2.593s1.313-0.923,2.229-0.923
			c0.887,0,1.609,0.301,2.169,0.904c0.561,0.601,0.842,1.45,0.842,2.543c0,0.064-0.002,0.166-0.007,0.298h-4.937
			c0.043,0.729,0.248,1.283,0.618,1.67c0.37,0.389,0.832,0.581,1.384,0.581c0.411,0,0.762-0.109,1.054-0.324
			C182.945,102.482,183.177,102.139,183.346,101.665z M179.663,99.851h3.695c-0.051-0.554-0.191-0.974-0.424-1.252
			c-0.356-0.433-0.819-0.648-1.388-0.648c-0.517,0-0.949,0.173-1.3,0.517C179.895,98.812,179.7,99.273,179.663,99.851z"/>
		<path fill="#958A7E" d="M189.985,103.797V94.66h3.448c0.605,0,1.069,0.028,1.387,0.089c0.449,0.075,0.824,0.217,1.129,0.428
			c0.303,0.208,0.547,0.504,0.732,0.881c0.185,0.378,0.279,0.794,0.279,1.247c0,0.777-0.248,1.433-0.743,1.973
			c-0.493,0.538-1.385,0.807-2.68,0.807h-2.342v3.713H189.985z M191.195,99.003h2.362c0.78,0,1.336-0.145,1.663-0.437
			c0.328-0.29,0.493-0.701,0.493-1.229c0-0.383-0.098-0.709-0.29-0.98c-0.194-0.273-0.447-0.453-0.764-0.54
			c-0.203-0.054-0.579-0.08-1.127-0.08h-2.337L191.195,99.003L191.195,99.003z"/>
		<path fill="#958A7E" d="M203.079,101.665l1.157,0.143c-0.182,0.679-0.521,1.202-1.015,1.576c-0.495,0.376-1.125,0.561-1.895,0.561
			c-0.969,0-1.734-0.297-2.303-0.894c-0.566-0.595-0.851-1.432-0.851-2.509c0-1.113,0.286-1.979,0.859-2.593
			s1.316-0.923,2.231-0.923c0.885,0,1.608,0.301,2.169,0.904c0.561,0.601,0.841,1.45,0.841,2.543c0,0.064-0.002,0.166-0.006,0.298
			h-4.936c0.041,0.729,0.245,1.283,0.616,1.67c0.37,0.389,0.831,0.581,1.385,0.581c0.41,0,0.763-0.109,1.053-0.324
			C202.677,102.482,202.908,102.139,203.079,101.665z M199.395,99.851h3.697c-0.05-0.554-0.192-0.974-0.424-1.252
			c-0.359-0.433-0.821-0.648-1.391-0.648c-0.513,0-0.947,0.173-1.298,0.517C199.627,98.812,199.433,99.273,199.395,99.851z"/>
		<path fill="#958A7E" d="M205.389,101.82l1.111-0.175c0.061,0.445,0.236,0.785,0.52,1.022c0.285,0.238,0.683,0.357,1.195,0.357
			s0.896-0.104,1.146-0.316c0.248-0.209,0.374-0.456,0.374-0.739c0-0.253-0.11-0.452-0.331-0.599
			c-0.153-0.098-0.536-0.226-1.146-0.379c-0.823-0.208-1.393-0.389-1.71-0.54c-0.32-0.151-0.559-0.361-0.723-0.628
			c-0.168-0.27-0.248-0.562-0.248-0.889c0-0.296,0.068-0.568,0.203-0.819c0.134-0.251,0.321-0.461,0.551-0.627
			c0.174-0.128,0.413-0.238,0.714-0.327s0.625-0.134,0.969-0.134c0.518,0,0.976,0.075,1.367,0.225
			c0.396,0.149,0.683,0.353,0.869,0.606c0.188,0.255,0.319,0.597,0.389,1.026l-1.098,0.149c-0.051-0.34-0.193-0.607-0.434-0.798
			c-0.239-0.19-0.577-0.287-1.012-0.287c-0.515,0-0.885,0.086-1.104,0.257c-0.219,0.169-0.329,0.369-0.329,0.599
			c0,0.143,0.046,0.275,0.135,0.392c0.095,0.121,0.237,0.221,0.434,0.299c0.111,0.041,0.439,0.136,0.989,0.285
			c0.795,0.212,1.349,0.389,1.66,0.52c0.315,0.136,0.559,0.332,0.74,0.59c0.181,0.257,0.268,0.577,0.268,0.96
			c0,0.374-0.108,0.727-0.326,1.056c-0.217,0.329-0.534,0.586-0.943,0.768c-0.411,0.18-0.878,0.271-1.396,0.271
			c-0.86,0-1.515-0.178-1.966-0.536C205.804,103.051,205.514,102.523,205.389,101.82z"/>
		<path fill="#958A7E" d="M216.631,106.332v-3.242c-0.173,0.247-0.419,0.448-0.732,0.612c-0.313,0.162-0.646,0.244-1.001,0.244
			c-0.785,0-1.462-0.313-2.029-0.942c-0.568-0.626-0.852-1.486-0.852-2.58c0-0.664,0.116-1.261,0.346-1.787
			c0.231-0.527,0.566-0.928,1.004-1.199c0.438-0.273,0.921-0.407,1.442-0.407c0.819,0,1.464,0.345,1.933,1.034V97.18h1.009v9.154
			L216.631,106.332L216.631,106.332z M213.172,100.469c0,0.853,0.179,1.492,0.536,1.918c0.358,0.425,0.785,0.639,1.284,0.639
			c0.478,0,0.891-0.204,1.234-0.607c0.345-0.405,0.516-1.021,0.516-1.848c0-0.882-0.182-1.544-0.545-1.989
			c-0.364-0.445-0.79-0.666-1.281-0.666c-0.486,0-0.897,0.208-1.234,0.62C213.342,98.946,213.172,99.593,213.172,100.469z"/>
		<path fill="#958A7E" d="M224.04,103.797v-0.973c-0.515,0.748-1.217,1.122-2.102,1.122c-0.39,0-0.755-0.075-1.093-0.225
			c-0.339-0.149-0.588-0.338-0.756-0.564c-0.163-0.226-0.277-0.504-0.345-0.831c-0.045-0.221-0.066-0.57-0.066-1.046V97.18h1.12
			v3.668c0,0.588,0.023,0.981,0.068,1.187c0.07,0.294,0.221,0.525,0.448,0.696c0.229,0.167,0.511,0.251,0.848,0.251
			s0.653-0.088,0.947-0.259c0.296-0.173,0.504-0.407,0.627-0.703c0.125-0.297,0.184-0.729,0.184-1.295V97.18h1.121v6.617H224.04z"/>
		<path fill="#958A7E" d="M226.998,95.949V94.66h1.121v1.289H226.998z M226.998,103.797v-6.619h1.121v6.619H226.998z"/>
		<path fill="#958A7E" d="M229.57,101.82l1.109-0.175c0.062,0.445,0.235,0.785,0.521,1.022c0.285,0.238,0.682,0.357,1.193,0.357
			c0.516,0,0.897-0.104,1.146-0.316c0.249-0.209,0.374-0.456,0.374-0.739c0-0.253-0.11-0.452-0.328-0.599
			c-0.156-0.098-0.537-0.226-1.148-0.379c-0.82-0.208-1.393-0.389-1.711-0.54s-0.558-0.361-0.723-0.628
			c-0.164-0.27-0.246-0.562-0.246-0.889c0-0.296,0.067-0.568,0.201-0.819c0.136-0.251,0.322-0.461,0.552-0.627
			c0.173-0.128,0.411-0.238,0.713-0.327c0.301-0.089,0.626-0.134,0.969-0.134c0.518,0,0.976,0.075,1.367,0.225
			c0.394,0.149,0.684,0.353,0.871,0.606c0.187,0.255,0.314,0.597,0.386,1.026l-1.097,0.149c-0.05-0.34-0.194-0.607-0.435-0.798
			s-0.577-0.287-1.012-0.287c-0.515,0-0.883,0.086-1.104,0.257c-0.219,0.169-0.329,0.369-0.329,0.599
			c0,0.143,0.046,0.275,0.137,0.392c0.091,0.121,0.235,0.221,0.429,0.299c0.112,0.041,0.443,0.136,0.992,0.285
			c0.793,0.212,1.348,0.389,1.66,0.52c0.314,0.136,0.561,0.332,0.738,0.59c0.18,0.257,0.27,0.577,0.27,0.96
			c0,0.374-0.109,0.727-0.326,1.056c-0.219,0.329-0.532,0.586-0.943,0.768c-0.412,0.18-0.878,0.271-1.396,0.271
			c-0.858,0-1.516-0.178-1.966-0.536C229.982,103.053,229.695,102.523,229.57,101.82z"/>
		<path fill="#958A7E" d="M240.912,102.979c-0.415,0.354-0.815,0.602-1.198,0.748c-0.383,0.144-0.796,0.217-1.237,0.217
			c-0.727,0-1.284-0.178-1.676-0.532c-0.393-0.356-0.586-0.811-0.586-1.362c0-0.322,0.072-0.62,0.221-0.889
			c0.146-0.267,0.34-0.482,0.58-0.645c0.239-0.164,0.508-0.285,0.807-0.367c0.22-0.057,0.553-0.115,0.997-0.169
			c0.905-0.108,1.574-0.238,2-0.388c0.006-0.153,0.007-0.25,0.007-0.291c0-0.457-0.106-0.779-0.318-0.968
			c-0.287-0.252-0.712-0.38-1.276-0.38c-0.529,0-0.917,0.095-1.169,0.278c-0.251,0.183-0.436,0.511-0.557,0.98l-1.098-0.149
			c0.101-0.47,0.264-0.85,0.494-1.138c0.228-0.287,0.559-0.511,0.989-0.666c0.433-0.155,0.934-0.233,1.502-0.233
			c0.564,0,1.023,0.066,1.378,0.199c0.354,0.136,0.612,0.302,0.778,0.503c0.169,0.202,0.284,0.455,0.349,0.764
			c0.037,0.19,0.057,0.536,0.057,1.036v1.496c0,1.041,0.023,1.702,0.073,1.979c0.047,0.275,0.141,0.541,0.283,0.794h-1.172
			C241.019,103.563,240.944,103.291,240.912,102.979z M240.817,100.474c-0.405,0.168-1.017,0.309-1.832,0.424
			c-0.461,0.066-0.787,0.141-0.978,0.225c-0.192,0.084-0.339,0.205-0.443,0.363c-0.102,0.16-0.155,0.338-0.155,0.532
			c0,0.3,0.112,0.551,0.341,0.748c0.226,0.199,0.557,0.299,0.993,0.299c0.433,0,0.817-0.094,1.154-0.284
			c0.336-0.189,0.584-0.445,0.74-0.775c0.119-0.254,0.18-0.628,0.18-1.121V100.474z"/>
		<path fill="#958A7E" d="M73.219,116.981l1.159,0.144c-0.183,0.677-0.521,1.202-1.016,1.576s-1.126,0.561-1.895,0.561
			c-0.968,0-1.735-0.299-2.303-0.894c-0.566-0.595-0.85-1.432-0.85-2.507c0-1.117,0.287-1.979,0.86-2.595s1.315-0.923,2.229-0.923
			c0.887,0,1.61,0.301,2.169,0.903c0.561,0.602,0.843,1.449,0.843,2.543c0,0.063-0.002,0.165-0.008,0.299h-4.935
			c0.042,0.727,0.247,1.282,0.618,1.67c0.371,0.387,0.831,0.581,1.384,0.581c0.411,0,0.762-0.108,1.053-0.324
			S73.049,117.455,73.219,116.981z M69.535,115.168h3.696c-0.05-0.556-0.191-0.972-0.423-1.253
			c-0.357-0.432-0.819-0.648-1.388-0.648c-0.516,0-0.948,0.173-1.299,0.519C69.767,114.13,69.573,114.592,69.535,115.168z"/>
		<path fill="#958A7E" d="M79.859,119.112v-9.135h3.447c0.606,0,1.07,0.026,1.388,0.087c0.449,0.075,0.825,0.218,1.128,0.426
			c0.304,0.21,0.547,0.506,0.732,0.884c0.185,0.377,0.279,0.792,0.279,1.246c0,0.778-0.248,1.434-0.742,1.972
			c-0.494,0.539-1.386,0.808-2.68,0.808H81.07v3.715L79.859,119.112L79.859,119.112z M81.068,114.32h2.362
			c0.781,0,1.335-0.146,1.664-0.436c0.327-0.292,0.492-0.702,0.492-1.23c0-0.382-0.097-0.707-0.289-0.981
			c-0.194-0.272-0.448-0.452-0.764-0.54c-0.204-0.053-0.58-0.08-1.128-0.08H81.07L81.068,114.32L81.068,114.32z"/>
		<path fill="#958A7E" d="M88.003,115.804c0-1.225,0.341-2.133,1.022-2.725c0.569-0.489,1.264-0.735,2.082-0.735
			c0.91,0,1.653,0.3,2.231,0.896c0.578,0.593,0.866,1.419,0.866,2.47c0,0.853-0.129,1.522-0.385,2.01
			c-0.253,0.486-0.627,0.866-1.115,1.137c-0.489,0.272-1.021,0.404-1.599,0.404c-0.929,0-1.676-0.296-2.247-0.891
			C88.289,117.777,88.003,116.922,88.003,115.804z M89.156,115.804c0,0.848,0.185,1.481,0.553,1.904
			c0.37,0.422,0.835,0.632,1.396,0.632c0.557,0,1.021-0.212,1.39-0.636c0.368-0.424,0.553-1.068,0.553-1.938
			c0-0.817-0.186-1.438-0.558-1.86c-0.37-0.423-0.834-0.631-1.386-0.631c-0.561,0-1.026,0.208-1.396,0.627
			C89.338,114.322,89.156,114.956,89.156,115.804z M90.483,111.671l0.827-1.745h1.471l-1.372,1.745H90.483z"/>
		<path fill="#958A7E" d="M95.262,117.138l1.111-0.173c0.061,0.443,0.236,0.783,0.519,1.021c0.285,0.238,0.682,0.356,1.195,0.356
			c0.514,0,0.896-0.105,1.147-0.313c0.25-0.21,0.374-0.456,0.374-0.741c0-0.253-0.11-0.452-0.331-0.598
			c-0.154-0.099-0.536-0.227-1.146-0.382c-0.823-0.206-1.394-0.386-1.71-0.537c-0.319-0.153-0.559-0.362-0.723-0.629
			c-0.167-0.268-0.248-0.564-0.248-0.891c0-0.294,0.068-0.567,0.204-0.817c0.133-0.251,0.32-0.459,0.55-0.628
			c0.174-0.129,0.412-0.237,0.714-0.324c0.301-0.093,0.625-0.136,0.969-0.136c0.518,0,0.975,0.075,1.368,0.225
			c0.395,0.149,0.683,0.353,0.869,0.609c0.187,0.254,0.318,0.596,0.388,1.023l-1.097,0.149c-0.052-0.34-0.194-0.605-0.435-0.798
			c-0.239-0.19-0.576-0.286-1.011-0.286c-0.516,0-0.885,0.087-1.104,0.256c-0.219,0.171-0.33,0.371-0.33,0.599
			c0,0.146,0.045,0.276,0.135,0.392c0.094,0.121,0.237,0.221,0.432,0.299c0.112,0.043,0.44,0.138,0.991,0.287
			c0.793,0.21,1.347,0.387,1.66,0.52c0.315,0.134,0.559,0.332,0.74,0.59c0.181,0.258,0.268,0.577,0.268,0.96
			c0,0.374-0.109,0.725-0.326,1.056c-0.218,0.328-0.533,0.586-0.944,0.766c-0.411,0.182-0.877,0.272-1.396,0.272
			c-0.86,0-1.516-0.18-1.967-0.536C95.674,118.37,95.387,117.84,95.262,117.138z"/>
		<path fill="#958A7E" d="M101.848,116.37v-1.127h3.446v1.127H101.848z"/>
		<path fill="#958A7E" d="M106.521,119.661l1.089,0.162c0.047,0.336,0.173,0.582,0.38,0.735c0.28,0.21,0.661,0.313,1.141,0.313
			c0.519,0,0.922-0.104,1.203-0.313c0.282-0.207,0.476-0.499,0.573-0.873c0.058-0.228,0.085-0.705,0.081-1.438
			c-0.49,0.579-1.101,0.865-1.832,0.865c-0.91,0-1.614-0.325-2.113-0.984c-0.498-0.655-0.746-1.442-0.746-2.361
			c0-0.632,0.114-1.215,0.343-1.749c0.229-0.534,0.559-0.945,0.994-1.235c0.434-0.29,0.944-0.437,1.53-0.437
			c0.781,0,1.425,0.315,1.932,0.947v-0.798h1.035v5.722c0,1.029-0.104,1.76-0.315,2.188c-0.208,0.431-0.541,0.771-0.997,1.019
			c-0.454,0.249-1.014,0.374-1.679,0.374c-0.79,0-1.427-0.178-1.915-0.532C106.739,120.911,106.503,120.377,106.521,119.661z
			 M107.449,115.685c0,0.869,0.173,1.503,0.517,1.902c0.345,0.398,0.777,0.598,1.296,0.598c0.516,0,0.947-0.199,1.296-0.595
			c0.349-0.396,0.523-1.021,0.523-1.868c0-0.81-0.18-1.421-0.54-1.832c-0.36-0.411-0.792-0.618-1.299-0.618
			c-0.5,0-0.924,0.205-1.273,0.607C107.624,114.287,107.449,114.887,107.449,115.685z"/>
		<path fill="#958A7E" d="M114.004,119.112v-6.618h1.008v1.004c0.257-0.47,0.496-0.778,0.713-0.93
			c0.219-0.149,0.458-0.225,0.72-0.225c0.378,0,0.762,0.121,1.153,0.361l-0.386,1.042c-0.274-0.162-0.548-0.244-0.821-0.244
			c-0.247,0-0.467,0.073-0.663,0.222c-0.195,0.147-0.335,0.354-0.417,0.614c-0.125,0.398-0.187,0.835-0.187,1.311v3.465h-1.12
			V119.112z"/>
		<path fill="#958A7E" d="M122.777,118.297c-0.416,0.353-0.817,0.602-1.2,0.746c-0.384,0.146-0.796,0.218-1.235,0.218
			c-0.729,0-1.286-0.177-1.678-0.533c-0.391-0.354-0.586-0.808-0.586-1.362c0-0.322,0.074-0.619,0.221-0.887
			c0.148-0.269,0.341-0.484,0.581-0.646c0.239-0.161,0.508-0.284,0.807-0.366c0.22-0.058,0.553-0.114,0.999-0.169
			c0.904-0.107,1.572-0.237,1.999-0.387c0.004-0.155,0.006-0.251,0.006-0.292c0-0.458-0.104-0.78-0.318-0.969
			c-0.285-0.251-0.712-0.379-1.278-0.379c-0.526,0-0.917,0.094-1.167,0.279c-0.252,0.184-0.438,0.511-0.558,0.981l-1.097-0.15
			c0.1-0.472,0.263-0.851,0.492-1.138c0.229-0.288,0.559-0.513,0.991-0.666c0.434-0.156,0.933-0.234,1.502-0.234
			c0.564,0,1.023,0.067,1.377,0.199c0.354,0.134,0.613,0.301,0.778,0.502c0.168,0.203,0.284,0.456,0.351,0.766
			c0.038,0.19,0.056,0.536,0.056,1.034v1.496c0,1.045,0.024,1.702,0.072,1.979c0.047,0.277,0.142,0.541,0.283,0.794h-1.17
			C122.885,118.881,122.811,118.608,122.777,118.297z M122.684,115.792c-0.405,0.165-1.018,0.308-1.833,0.423
			c-0.461,0.066-0.787,0.142-0.979,0.225c-0.191,0.084-0.338,0.205-0.44,0.363c-0.104,0.16-0.158,0.337-0.158,0.532
			c0,0.3,0.114,0.551,0.34,0.748c0.227,0.2,0.558,0.3,0.996,0.3c0.432,0,0.816-0.097,1.153-0.283c0.337-0.19,0.584-0.449,0.74-0.778
			c0.122-0.253,0.181-0.627,0.181-1.12V115.792z"/>
		<path fill="#958A7E" d="M130.043,119.112v-0.835c-0.419,0.657-1.037,0.984-1.851,0.984c-0.528,0-1.011-0.144-1.456-0.436
			c-0.441-0.291-0.785-0.698-1.027-1.219c-0.246-0.521-0.365-1.121-0.365-1.8c0-0.661,0.11-1.259,0.33-1.797
			c0.22-0.539,0.55-0.951,0.991-1.237c0.44-0.285,0.933-0.431,1.478-0.431c0.398,0,0.754,0.085,1.065,0.252
			c0.312,0.17,0.565,0.389,0.76,0.657v-3.278h1.116v9.139H130.043z M126.497,115.81c0,0.85,0.177,1.481,0.536,1.901
			c0.357,0.421,0.778,0.629,1.266,0.629c0.49,0,0.906-0.199,1.25-0.601c0.342-0.402,0.512-1.013,0.512-1.836
			c0-0.906-0.173-1.572-0.521-1.996c-0.35-0.424-0.779-0.636-1.29-0.636c-0.499,0-0.916,0.205-1.25,0.613
			C126.664,114.292,126.497,114.934,126.497,115.81z"/>
		<path fill="#958A7E" d="M137.376,119.112v-0.971c-0.515,0.747-1.215,1.12-2.1,1.12c-0.393,0-0.755-0.074-1.093-0.224
			c-0.339-0.149-0.59-0.337-0.755-0.563c-0.164-0.228-0.278-0.504-0.345-0.833c-0.045-0.217-0.069-0.568-0.069-1.045v-4.102h1.122
			v3.672c0,0.586,0.021,0.979,0.067,1.185c0.07,0.296,0.22,0.527,0.449,0.694c0.229,0.171,0.513,0.253,0.849,0.253
			c0.335,0,0.653-0.089,0.947-0.258c0.293-0.173,0.504-0.408,0.627-0.706c0.122-0.295,0.184-0.728,0.184-1.292v-3.548h1.12v6.619
			L137.376,119.112L137.376,119.112z"/>
		<path fill="#958A7E" d="M144.648,118.297c-0.415,0.353-0.815,0.602-1.198,0.746c-0.384,0.146-0.796,0.218-1.237,0.218
			c-0.728,0-1.285-0.177-1.676-0.533c-0.391-0.354-0.586-0.808-0.586-1.362c0-0.322,0.074-0.619,0.221-0.887
			c0.146-0.269,0.341-0.484,0.581-0.646c0.239-0.161,0.507-0.284,0.807-0.366c0.22-0.058,0.553-0.114,0.997-0.169
			c0.906-0.107,1.574-0.237,2.001-0.387c0.004-0.155,0.006-0.251,0.006-0.292c0-0.458-0.106-0.78-0.318-0.969
			c-0.287-0.251-0.712-0.379-1.277-0.379c-0.528,0-0.917,0.094-1.168,0.279c-0.25,0.184-0.436,0.511-0.556,0.981l-1.097-0.15
			c0.098-0.472,0.264-0.851,0.493-1.138c0.229-0.288,0.559-0.513,0.991-0.666c0.432-0.156,0.931-0.234,1.5-0.234
			c0.565,0,1.024,0.067,1.379,0.199c0.354,0.134,0.613,0.301,0.778,0.502c0.167,0.203,0.284,0.456,0.349,0.766
			c0.037,0.19,0.057,0.536,0.057,1.034v1.496c0,1.045,0.022,1.702,0.072,1.979c0.047,0.277,0.14,0.541,0.283,0.794h-1.172
			C144.756,118.881,144.681,118.608,144.648,118.297z M144.555,115.792c-0.407,0.165-1.018,0.308-1.833,0.423
			c-0.461,0.066-0.787,0.142-0.979,0.225c-0.191,0.084-0.338,0.205-0.442,0.363c-0.103,0.16-0.156,0.337-0.156,0.532
			c0,0.3,0.113,0.551,0.34,0.748c0.227,0.2,0.558,0.3,0.994,0.3c0.434,0,0.817-0.097,1.155-0.283c0.337-0.19,0.584-0.449,0.74-0.778
			c0.12-0.253,0.181-0.627,0.181-1.12V115.792z"/>
		<path fill="#958A7E" d="M151.938,116.689l1.104,0.142c-0.121,0.761-0.429,1.357-0.926,1.786c-0.496,0.432-1.105,0.645-1.829,0.645
			c-0.905,0-1.634-0.295-2.185-0.887c-0.55-0.593-0.824-1.44-0.824-2.546c0-0.714,0.118-1.343,0.355-1.879
			c0.236-0.536,0.597-0.935,1.083-1.204c0.482-0.267,1.01-0.402,1.579-0.402c0.718,0,1.307,0.182,1.765,0.547
			c0.456,0.363,0.748,0.882,0.88,1.548l-1.092,0.171c-0.104-0.445-0.287-0.78-0.551-1.006c-0.265-0.225-0.584-0.337-0.957-0.337
			c-0.565,0-1.024,0.205-1.377,0.608c-0.354,0.404-0.53,1.046-0.53,1.922c0,0.891,0.172,1.537,0.511,1.939
			c0.342,0.402,0.785,0.604,1.335,0.604c0.439,0,0.807-0.134,1.103-0.404C151.672,117.665,151.859,117.25,151.938,116.689z
			 M149.339,119.947l0.322-1.102h0.835l-0.206,0.666c0.354,0.042,0.619,0.151,0.797,0.325c0.18,0.177,0.269,0.374,0.269,0.59
			c0,0.312-0.149,0.586-0.448,0.826c-0.299,0.238-0.749,0.358-1.351,0.358c-0.341,0-0.64-0.025-0.897-0.075l0.068-0.73
			c0.266,0.019,0.461,0.023,0.586,0.023c0.393,0,0.665-0.054,0.823-0.162c0.12-0.082,0.181-0.184,0.181-0.305
			c0-0.074-0.024-0.141-0.071-0.199c-0.048-0.059-0.136-0.108-0.265-0.149C149.852,119.975,149.639,119.953,149.339,119.947z"/>
		<path fill="#958A7E" d="M158.512,118.297c-0.415,0.353-0.815,0.602-1.198,0.746c-0.383,0.146-0.796,0.218-1.236,0.218
			c-0.728,0-1.285-0.177-1.677-0.533c-0.391-0.354-0.586-0.808-0.586-1.362c0-0.322,0.074-0.619,0.221-0.887
			c0.146-0.269,0.342-0.484,0.58-0.646c0.239-0.161,0.508-0.284,0.807-0.366c0.221-0.058,0.554-0.114,0.998-0.169
			c0.906-0.107,1.573-0.237,2.001-0.387c0.004-0.155,0.006-0.251,0.006-0.292c0-0.458-0.105-0.78-0.317-0.969
			c-0.287-0.251-0.712-0.379-1.278-0.379c-0.527,0-0.917,0.094-1.168,0.279c-0.25,0.184-0.437,0.511-0.556,0.981l-1.098-0.15
			c0.099-0.472,0.264-0.851,0.492-1.138c0.229-0.288,0.559-0.513,0.991-0.666c0.432-0.156,0.932-0.234,1.5-0.234
			c0.565,0,1.023,0.067,1.38,0.199c0.353,0.134,0.612,0.301,0.778,0.502c0.167,0.203,0.283,0.456,0.349,0.766
			c0.037,0.19,0.057,0.536,0.057,1.034v1.496c0,1.045,0.021,1.702,0.071,1.979c0.049,0.277,0.141,0.541,0.283,0.794h-1.172
			C158.62,118.881,158.546,118.608,158.512,118.297z M154.779,111.516c-0.005-0.433,0.114-0.776,0.354-1.034
			c0.238-0.258,0.543-0.387,0.91-0.387c0.258,0,0.608,0.112,1.054,0.337c0.246,0.125,0.44,0.187,0.588,0.187
			c0.132,0,0.235-0.037,0.305-0.108c0.071-0.073,0.121-0.217,0.149-0.437h0.811c-0.013,0.476-0.134,0.83-0.36,1.067
			c-0.224,0.238-0.513,0.355-0.861,0.355c-0.262,0-0.605-0.115-1.035-0.351c-0.279-0.147-0.48-0.223-0.612-0.223
			c-0.139,0-0.253,0.05-0.342,0.149c-0.093,0.099-0.134,0.248-0.132,0.442L154.779,111.516L154.779,111.516z M158.419,115.792
			c-0.407,0.165-1.019,0.308-1.832,0.423c-0.461,0.066-0.787,0.142-0.979,0.225c-0.19,0.084-0.338,0.205-0.441,0.363
			c-0.104,0.16-0.157,0.337-0.157,0.532c0,0.3,0.114,0.551,0.341,0.748c0.226,0.2,0.557,0.3,0.993,0.3
			c0.435,0,0.817-0.097,1.156-0.283c0.336-0.19,0.584-0.449,0.738-0.778c0.121-0.253,0.182-0.627,0.182-1.12V115.792z"/>
		<path fill="#958A7E" d="M161.065,115.804c0-1.225,0.342-2.133,1.022-2.725c0.567-0.489,1.264-0.735,2.079-0.735
			c0.91,0,1.654,0.3,2.231,0.896c0.579,0.593,0.867,1.419,0.867,2.47c0,0.853-0.13,1.522-0.385,2.01
			c-0.255,0.486-0.627,0.866-1.116,1.137c-0.488,0.272-1.021,0.404-1.6,0.404c-0.926,0-1.675-0.296-2.247-0.891
			C161.352,117.777,161.065,116.922,161.065,115.804z M162.219,115.804c0,0.848,0.186,1.481,0.555,1.904
			c0.368,0.422,0.835,0.632,1.394,0.632c0.558,0,1.021-0.212,1.391-0.636c0.369-0.424,0.553-1.068,0.553-1.938
			c0-0.817-0.184-1.438-0.556-1.86c-0.372-0.423-0.834-0.631-1.388-0.631c-0.559,0-1.025,0.208-1.394,0.627
			C162.404,114.322,162.219,114.956,162.219,115.804z"/>
		<path fill="#958A7E" d="M177.042,116.981l1.159,0.144c-0.182,0.677-0.521,1.202-1.016,1.576s-1.127,0.561-1.895,0.561
			c-0.969,0-1.736-0.299-2.304-0.894c-0.564-0.595-0.85-1.432-0.85-2.507c0-1.117,0.287-1.979,0.86-2.595s1.313-0.923,2.229-0.923
			c0.887,0,1.609,0.301,2.169,0.903c0.561,0.602,0.842,1.449,0.842,2.543c0,0.063-0.002,0.165-0.007,0.299h-4.937
			c0.043,0.727,0.248,1.282,0.618,1.67c0.37,0.387,0.832,0.581,1.384,0.581c0.411,0,0.762-0.108,1.054-0.324
			C176.641,117.8,176.873,117.455,177.042,116.981z M173.359,115.168h3.696c-0.052-0.556-0.192-0.972-0.425-1.253
			c-0.356-0.432-0.819-0.648-1.388-0.648c-0.517,0-0.949,0.173-1.3,0.519C173.591,114.13,173.396,114.592,173.359,115.168z"/>
		<path fill="#958A7E" d="M179.802,119.112v-6.618h1.003v0.929c0.21-0.322,0.484-0.586,0.829-0.779
			c0.344-0.198,0.737-0.298,1.178-0.298c0.491,0,0.894,0.104,1.205,0.307c0.315,0.203,0.536,0.487,0.664,0.854
			c0.523-0.774,1.206-1.159,2.045-1.159c0.657,0,1.161,0.182,1.515,0.547c0.353,0.363,0.529,0.924,0.529,1.681v4.541h-1.115v-4.169
			c0-0.446-0.037-0.772-0.11-0.969c-0.071-0.197-0.204-0.355-0.396-0.477c-0.19-0.12-0.415-0.179-0.672-0.179
			c-0.466,0-0.853,0.155-1.159,0.463c-0.306,0.311-0.461,0.806-0.461,1.487v3.847h-1.122v-4.301c0-0.499-0.091-0.873-0.274-1.12
			c-0.182-0.249-0.479-0.374-0.896-0.374c-0.316,0-0.607,0.082-0.876,0.248c-0.269,0.167-0.463,0.407-0.584,0.728
			c-0.119,0.322-0.18,0.782-0.18,1.386v3.435h-1.122V119.112L179.802,119.112z"/>
		<path fill="#958A7E" d="M194.507,119.112v-9.135h3.146c0.711,0,1.254,0.043,1.628,0.13c0.521,0.121,0.969,0.339,1.339,0.655
			c0.482,0.406,0.842,0.93,1.083,1.56c0.24,0.635,0.359,1.359,0.359,2.175c0,0.694-0.082,1.309-0.246,1.843
			c-0.162,0.536-0.366,0.979-0.623,1.33c-0.253,0.353-0.53,0.629-0.831,0.83c-0.302,0.201-0.666,0.354-1.09,0.458
			c-0.428,0.103-0.916,0.156-1.468,0.156L194.507,119.112L194.507,119.112z M195.716,118.035h1.95c0.604,0,1.075-0.057,1.419-0.171
			c0.342-0.112,0.616-0.269,0.819-0.474c0.287-0.287,0.509-0.671,0.67-1.157c0.16-0.482,0.24-1.07,0.24-1.762
			c0-0.954-0.157-1.689-0.471-2.202c-0.316-0.513-0.697-0.855-1.145-1.031c-0.324-0.125-0.848-0.187-1.565-0.187h-1.918V118.035
			L195.716,118.035z"/>
		<path fill="#958A7E" d="M203.779,111.267v-1.291h1.12v1.291H203.779z M203.779,119.112v-6.618h1.12v6.618H203.779z"/>
		<path fill="#958A7E" d="M206.787,119.112v-6.618h1.009v1.004c0.257-0.47,0.497-0.778,0.713-0.93
			c0.219-0.149,0.459-0.225,0.719-0.225c0.38,0,0.765,0.121,1.156,0.361l-0.387,1.042c-0.275-0.162-0.55-0.244-0.822-0.244
			c-0.246,0-0.467,0.073-0.661,0.222c-0.195,0.147-0.335,0.354-0.418,0.614c-0.127,0.398-0.188,0.835-0.188,1.311v3.465h-1.121
			V119.112z"/>
		<path fill="#958A7E" d="M215.772,116.981l1.159,0.144c-0.184,0.677-0.522,1.202-1.018,1.576c-0.493,0.374-1.123,0.561-1.893,0.561
			c-0.969,0-1.734-0.299-2.303-0.894c-0.565-0.595-0.851-1.432-0.851-2.507c0-1.117,0.285-1.979,0.858-2.595
			s1.317-0.923,2.231-0.923c0.885,0,1.607,0.301,2.169,0.903c0.561,0.602,0.842,1.449,0.842,2.543c0,0.063-0.002,0.165-0.007,0.299
			h-4.937c0.043,0.727,0.248,1.282,0.618,1.67c0.37,0.387,0.83,0.581,1.385,0.581c0.412,0,0.763-0.108,1.051-0.324
			C215.371,117.8,215.603,117.455,215.772,116.981z M212.09,115.168h3.694c-0.05-0.556-0.19-0.972-0.424-1.253
			c-0.357-0.432-0.82-0.648-1.389-0.648c-0.515,0-0.949,0.173-1.3,0.519C212.321,114.13,212.127,114.592,212.09,115.168z"/>
		<path fill="#958A7E" d="M218.537,111.267v-1.291h1.12v1.291H218.537z M218.537,119.112v-6.618h1.12v6.618H218.537z"/>
		<path fill="#958A7E" d="M224.008,118.11l0.162,0.989c-0.317,0.068-0.599,0.099-0.85,0.099c-0.404,0-0.723-0.062-0.945-0.192
			c-0.225-0.128-0.383-0.298-0.476-0.508c-0.093-0.208-0.137-0.651-0.137-1.324v-3.81h-0.821v-0.872h0.821v-1.639l1.118-0.673v2.312
			h1.125v0.872h-1.125v3.871c0,0.321,0.018,0.525,0.057,0.616c0.039,0.093,0.104,0.166,0.192,0.22
			c0.093,0.053,0.218,0.08,0.385,0.08C223.641,118.152,223.805,118.139,224.008,118.11z"/>
		<path fill="#958A7E" d="M224.879,115.804c0-1.225,0.342-2.133,1.021-2.725c0.57-0.489,1.267-0.735,2.082-0.735
			c0.91,0,1.654,0.3,2.231,0.896c0.578,0.593,0.867,1.419,0.867,2.47c0,0.853-0.13,1.522-0.385,2.01
			c-0.255,0.486-0.627,0.866-1.116,1.137c-0.488,0.272-1.021,0.404-1.6,0.404c-0.926,0-1.676-0.296-2.247-0.891
			C225.165,117.777,224.879,116.922,224.879,115.804z M226.032,115.804c0,0.848,0.186,1.481,0.553,1.904
			c0.37,0.422,0.835,0.632,1.396,0.632c0.558,0,1.021-0.212,1.391-0.636c0.367-0.424,0.553-1.068,0.553-1.938
			c0-0.817-0.186-1.438-0.556-1.86c-0.372-0.423-0.834-0.631-1.388-0.631c-0.561,0-1.025,0.208-1.396,0.627
			C226.218,114.322,226.032,114.956,226.032,115.804z"/>
	</g>
</g>
</svg>
