<svg xmlns="http://www.w3.org/2000/svg" width="300" height="171"><g fill="#958A7E"><path d="M67.988 50.37c1.945.705 3.027 1.058 3.25 1.058.579 0 1.042-.223 1.392-.668.348-.445.567-.913.656-1.402h1.269V60.02h-1.157c-1.097-2.315-2.218-4.14-3.359-5.476-2.134-2.465-4.548-3.696-7.246-3.696-3.056 0-5.223 1.317-6.505 3.95-1.281 2.634-1.921 6.17-1.921 10.606 0 3.266.377 5.951 1.133 8.058 1.408 3.948 4.024 5.921 7.848 5.921 2.341 0 4.52-.653 6.536-1.958 1.158-.757 2.521-1.966 4.091-3.628l1.358 1.113c-1.781 1.989-3.347 3.429-4.697 4.318-2.404 1.587-5.073 2.381-8.013 2.381-4.496 0-8.264-1.335-11.306-4.007-3.369-2.952-5.053-6.93-5.053-11.931 0-4.956 1.61-8.969 4.83-12.041 3.025-2.879 6.737-4.318 11.129-4.318 1.899 0 3.82.353 5.765 1.058zM106.651 53.652c3.132 3.042 4.697 6.96 4.697 11.754 0 4.792-1.566 8.709-4.697 11.752-3.058 2.968-6.878 4.452-11.462 4.452-4.868 0-8.836-1.625-11.908-4.875-2.864-3.057-4.296-6.75-4.296-11.084 0-4.778 1.498-8.703 4.496-11.775 3.027-3.116 6.931-4.674 11.71-4.674 4.596-.001 8.418 1.483 11.46 4.45zm-4.431 20.344c.684-2.195 1.026-5.059 1.026-8.592 0-4.853-.727-8.51-2.175-10.973-1.449-2.464-3.412-3.696-5.895-3.696-3.448 0-5.811 2.056-7.086 6.166-.669 2.182-1.005 5.016-1.005 8.503 0 3.547.342 6.411 1.026 8.592 1.263 4.051 3.618 6.078 7.066 6.078 3.418 0 5.765-2.026 7.043-6.078zM113.708 79.54c1.69-.044 2.782-.367 3.272-.968s.734-1.487.734-2.66V54.321c-1.393-1.558-2.256-2.475-2.581-2.75-.326-.274-.772-.449-1.336-.523V49.89h9.662l15.67 19.045h.223V55.544c0-1.543-.281-2.645-.842-3.305-.561-.661-1.683-1.058-3.365-1.191V49.89h9.794v1.158c-1.424.237-2.376.554-2.86.953-.483.398-.724 1.289-.724 2.676v26.867h-1.271L120.029 57.17h-.312v17.874c0 1.402.192 2.394.579 2.975.608.94 1.855 1.448 3.741 1.521v1.158h-10.328l-.001-1.158zM146.628 79.54c1.499-.104 2.502-.418 3.016-.946.512-.527.768-1.599.768-3.217V55.21c0-1.712-.26-2.793-.778-3.243-.52-.451-1.522-.757-3.005-.919V49.89h14.668c3.887 0 6.845.631 8.869 1.892 2.028 1.262 3.04 3.428 3.04 6.5 0 1.5-.397 2.904-1.191 4.218s-2.104 2.371-3.93 3.172c-1.38.563-2.759.905-4.141 1.024-1.38.118-3.428.177-6.142.177v8.503c0 1.676.281 2.775.846 3.293.563.52 1.615.809 3.161.869v1.158H146.63V79.54h-.002zm16.604-15.181c1.438-.92 2.158-2.901 2.158-5.944 0-2.076-.349-3.754-1.045-5.03-.698-1.275-2.034-1.915-4.007-1.915-.904 0-1.555.107-1.948.322s-.59.635-.59 1.257v12.242c2.717-.041 4.528-.353 5.432-.932zM174.474 80.697V79.54c1.306-.044 2.231-.223 2.782-.534.846-.476 1.27-1.366 1.27-2.672v-22.08c0-1.327-.437-2.219-1.312-2.674-.506-.281-1.419-.456-2.737-.531V49.89h26.266v9.193h-1.113c-.58-2.938-1.562-4.949-2.95-6.032-1.386-1.083-3.914-1.625-7.577-1.625-1.396 0-2.281.145-2.66.435-.378.289-.568.864-.568 1.726v10.55c2.597.03 4.354-.441 5.274-1.413.921-.973 1.624-2.749 2.114-5.331h1.159v15.403h-1.159c-.324-2.596-.99-4.425-1.991-5.486-1.004-1.061-2.803-1.592-5.399-1.592v11.04c0 .964.248 1.621.745 1.97.496.349 1.517.523 3.061.523 2.906 0 5.281-.563 7.121-1.691 1.841-1.127 3.475-3.242 4.896-6.343h1.271l-1.847 9.481-26.646-.001zM204.768 79.54c1.143-.073 1.966-.237 2.472-.49.892-.459 1.335-1.298 1.335-2.514V54.052c0-1.172-.424-1.988-1.27-2.448-.489-.267-1.335-.453-2.537-.556V49.89h13.934c5.624 0 9.913 1.499 12.866 4.498 2.683 2.729 4.029 6.395 4.029 10.996 0 4.126-1.352 7.62-4.051 10.484-3.044 3.221-7.168 4.83-12.376 4.83h-14.402V79.54zm11.697-1.002c.305.416.953.624 1.948.624 2.699 0 4.92-.953 6.654-2.861 1.736-1.906 2.605-5.567 2.605-10.984 0-3.219-.469-5.987-1.403-8.301-1.514-3.726-4.065-5.588-7.657-5.588-1.188 0-1.957.252-2.314.757-.237.327-.356.958-.356 1.892v22.437c.043.933.218 1.608.523 2.024zM237.8 79.54c1.291-.028 2.219-.185 2.783-.467.919-.475 1.38-1.387 1.38-2.738V54.253c0-1.341-.437-2.24-1.312-2.697-.536-.28-1.485-.45-2.85-.508V49.89h15.936v1.159c-1.423.059-2.403.221-2.938.485-.893.457-1.336 1.364-1.336 2.719v22.081c0 1.276.356 2.129 1.068 2.56.711.431 1.781.646 3.205.646v1.157H237.8V79.54z"/><g><path d="M64.053 100.593l1.209.305c-.254.994-.709 1.751-1.368 2.271-.661.521-1.464.782-2.416.782-.985 0-1.785-.2-2.403-.601-.616-.4-1.086-.982-1.409-1.743a6.195 6.195 0 0 1-.482-2.448c0-.951.182-1.783.545-2.489a3.761 3.761 0 0 1 1.552-1.615 4.539 4.539 0 0 1 2.217-.551c.915 0 1.683.231 2.304.7.624.465 1.058 1.118 1.304 1.961l-1.192.282c-.21-.666-.518-1.149-.922-1.452-.405-.303-.91-.454-1.521-.454-.702 0-1.289.167-1.761.504-.473.336-.804.788-.995 1.354s-.285 1.152-.285 1.756c0 .776.113 1.455.34 2.032.226.582.578 1.013 1.056 1.3.476.288.995.433 1.55.433.678 0 1.251-.196 1.722-.588.47-.391.788-.97.955-1.739zM66.382 100.486c0-1.225.341-2.133 1.022-2.723.569-.489 1.263-.735 2.082-.735.91 0 1.652.297 2.231.892.578.597.864 1.423.864 2.472 0 .854-.127 1.521-.384 2.011a2.682 2.682 0 0 1-1.114 1.136 3.241 3.241 0 0 1-1.599.406c-.929 0-1.676-.297-2.248-.894-.569-.59-.854-1.447-.854-2.565zm1.153 0c0 .848.184 1.483.553 1.905.37.42.835.632 1.396.632.555 0 1.02-.212 1.388-.635.37-.424.555-1.07.555-1.939 0-.817-.186-1.439-.557-1.859a1.774 1.774 0 0 0-1.386-.634 1.78 1.78 0 0 0-1.396.63c-.371.421-.553 1.053-.553 1.9zM74.089 103.797v-6.619h1.01v.94c.484-.729 1.188-1.09 2.106-1.09.4 0 .766.071 1.1.214.335.143.585.331.751.562.166.233.282.511.349.83.042.208.062.571.062 1.09v4.072h-1.122V99.77c0-.458-.043-.8-.131-1.025a1.085 1.085 0 0 0-.466-.542 1.468 1.468 0 0 0-.781-.204 1.81 1.81 0 0 0-1.236.454c-.348.305-.52.881-.52 1.729v3.615h-1.122zM80.931 101.82l1.109-.175c.062.445.237.785.521 1.022.285.238.682.357 1.194.357.514 0 .896-.104 1.147-.316.248-.209.373-.456.373-.739a.683.683 0 0 0-.33-.599c-.154-.098-.536-.226-1.146-.379-.823-.208-1.394-.389-1.71-.54a1.639 1.639 0 0 1-.971-1.517c0-.296.068-.568.202-.819.135-.251.322-.461.552-.627a2.3 2.3 0 0 1 .714-.327 3.4 3.4 0 0 1 .968-.134c.519 0 .976.075 1.368.225.396.149.683.353.87.606.187.255.316.597.386 1.026l-1.097.149c-.05-.34-.194-.607-.434-.798-.238-.19-.576-.287-1.012-.287-.514 0-.883.086-1.103.257-.22.169-.329.369-.329.599a.63.63 0 0 0 .135.392.994.994 0 0 0 .43.299c.112.041.442.136.993.285.792.212 1.347.389 1.659.52.316.136.56.332.741.59.178.257.268.577.268.96 0 .374-.109.727-.327 1.056-.218.329-.533.586-.945.768-.41.18-.877.271-1.394.271-.86 0-1.516-.178-1.967-.536-.45-.358-.74-.886-.865-1.589zM92.484 101.665l1.159.143c-.183.679-.522 1.202-1.016 1.576-.494.376-1.126.561-1.895.561-.968 0-1.735-.297-2.302-.894-.566-.595-.852-1.432-.852-2.509 0-1.113.287-1.979.86-2.593.573-.614 1.315-.923 2.23-.923.886 0 1.609.301 2.17.904.559.601.841 1.45.841 2.543 0 .064-.001.166-.006.298h-4.937c.042.729.247 1.283.617 1.67.371.389.831.581 1.384.581.411 0 .762-.109 1.053-.324.293-.216.524-.559.694-1.033zm-3.683-1.814h3.698c-.052-.554-.191-.974-.426-1.252a1.713 1.713 0 0 0-1.388-.648c-.515 0-.948.173-1.299.517-.354.344-.548.805-.585 1.383zM95.218 103.797V94.66h1.122v9.137h-1.122zM98.271 103.797V94.66h1.12v3.28a2.504 2.504 0 0 1 1.982-.91c.491 0 .916.094 1.278.288.36.194.62.461.776.802.155.342.233.835.233 1.483v4.193h-1.12v-4.193c0-.562-.121-.971-.365-1.228-.242-.254-.587-.383-1.031-.383-.332 0-.645.088-.938.259-.29.172-.501.405-.625.703-.125.294-.187.701-.187 1.222v3.62h-1.123zM105.143 100.486c0-1.225.339-2.133 1.021-2.723.569-.489 1.265-.735 2.082-.735.91 0 1.653.297 2.231.892.578.597.866 1.423.866 2.472 0 .854-.129 1.521-.384 2.011a2.7 2.7 0 0 1-1.117 1.136 3.241 3.241 0 0 1-1.599.406c-.927 0-1.675-.297-2.247-.894-.567-.59-.853-1.447-.853-2.565zm1.153 0c0 .848.185 1.483.553 1.905.37.42.835.632 1.396.632.557 0 1.021-.212 1.39-.635.368-.424.553-1.07.553-1.939 0-.817-.186-1.439-.556-1.859a1.775 1.775 0 0 0-1.387-.634c-.561 0-1.026.21-1.396.63-.368.421-.553 1.053-.553 1.9zM116.72 103.797V94.66h1.24l4.799 7.173V94.66h1.159v9.137h-1.24l-4.799-7.18v7.18h-1.159zM130.317 102.979c-.416.354-.815.602-1.198.748a3.49 3.49 0 0 1-1.237.217c-.728 0-1.286-.178-1.676-.532-.391-.356-.588-.811-.588-1.362a1.828 1.828 0 0 1 .804-1.534 2.63 2.63 0 0 1 .807-.367 8.15 8.15 0 0 1 .997-.169c.906-.108 1.574-.238 2-.388l.006-.291c0-.457-.106-.779-.318-.968-.287-.252-.712-.38-1.277-.38-.528 0-.917.095-1.168.278-.25.183-.436.511-.557.98l-1.096-.149c.098-.47.264-.85.492-1.138.229-.287.558-.511.991-.666.432-.155.931-.233 1.5-.233.565 0 1.024.066 1.377.199.355.136.614.302.779.503.166.202.282.455.349.764.037.19.057.536.057 1.036v1.496c0 1.041.022 1.702.07 1.979.049.275.142.541.285.794h-1.172a2.319 2.319 0 0 1-.227-.817zm-.093-2.505c-.407.168-1.018.309-1.833.424-.462.066-.786.141-.978.225s-.338.205-.442.363a.957.957 0 0 0-.156.532c0 .3.113.551.34.748.227.199.558.299.994.299.433 0 .817-.094 1.154-.284.336-.189.585-.445.741-.775.12-.254.181-.628.181-1.121v-.411zM137.607 101.371l1.103.145c-.12.761-.429 1.355-.925 1.786-.497.429-1.106.645-1.83.645-.905 0-1.634-.296-2.185-.889-.55-.591-.826-1.44-.826-2.546 0-.715.119-1.341.357-1.877a2.474 2.474 0 0 1 1.082-1.206c.483-.269 1.01-.4 1.58-.4.718 0 1.307.182 1.764.545.457.363.75.88.879 1.549l-1.089.168c-.104-.442-.288-.778-.551-1.003a1.427 1.427 0 0 0-.957-.337c-.565 0-1.024.203-1.377.607-.355.406-.53 1.047-.53 1.924 0 .888.17 1.534.511 1.937.341.403.785.605 1.333.605.441 0 .81-.135 1.103-.405.293-.27.479-.686.558-1.248zM139.868 95.949V94.66h1.12v1.289h-1.12zm0 7.848v-6.619h1.12v6.619h-1.12zM142.472 100.486c0-1.225.341-2.133 1.022-2.723.569-.489 1.264-.735 2.082-.735.91 0 1.652.297 2.231.892.578.597.864 1.423.864 2.472 0 .854-.127 1.521-.383 2.011a2.69 2.69 0 0 1-1.115 1.136 3.241 3.241 0 0 1-1.599.406c-.929 0-1.676-.297-2.248-.894-.568-.59-.854-1.447-.854-2.565zm1.152 0c0 .848.186 1.483.555 1.905.37.42.835.632 1.396.632.555 0 1.02-.212 1.388-.635.37-.424.555-1.07.555-1.939 0-.817-.186-1.439-.557-1.859a1.774 1.774 0 0 0-1.386-.634 1.78 1.78 0 0 0-1.396.63c-.37.421-.555 1.053-.555 1.9zM150.18 103.797v-6.619h1.01v.94c.484-.729 1.188-1.09 2.106-1.09.399 0 .766.071 1.099.214.335.143.586.331.752.562.165.233.283.511.349.83.043.208.062.571.062 1.09v4.072h-1.122V99.77c0-.458-.043-.8-.13-1.025a1.082 1.082 0 0 0-.467-.542 1.464 1.464 0 0 0-.779-.204c-.479 0-.893.151-1.238.454-.347.305-.518.881-.518 1.729v3.615h-1.124zM161.788 102.979c-.415.354-.817.602-1.2.748a3.483 3.483 0 0 1-1.233.217c-.73 0-1.286-.178-1.68-.532-.39-.356-.586-.811-.586-1.362a1.84 1.84 0 0 1 .802-1.534 2.63 2.63 0 0 1 .807-.367c.221-.057.554-.115.999-.169.904-.108 1.572-.238 1.999-.388l.006-.291c0-.457-.104-.779-.317-.968-.286-.252-.712-.38-1.278-.38-.527 0-.917.095-1.166.278-.251.183-.438.511-.558.98l-1.097-.149c.1-.47.264-.85.491-1.138.229-.287.56-.511.992-.666.431-.155.933-.233 1.501-.233.564 0 1.021.066 1.378.199.353.136.612.302.778.503.167.202.283.455.349.764.038.19.058.536.058 1.036v1.496c0 1.041.022 1.702.071 1.979.048.275.143.541.283.794h-1.17a2.258 2.258 0 0 1-.229-.817zm-.093-2.505c-.407.168-1.019.309-1.832.424-.461.066-.787.141-.979.225a.972.972 0 0 0-.598.895c0 .3.114.551.341.748.226.199.558.299.995.299.433 0 .817-.094 1.154-.284a1.71 1.71 0 0 0 .738-.775c.123-.254.182-.628.182-1.121v-.411zM164.735 103.797V94.66h1.122v9.137h-1.122zM175.818 103.797v-.835c-.418.657-1.036.984-1.85.984a2.596 2.596 0 0 1-1.457-.438 2.848 2.848 0 0 1-1.027-1.218c-.246-.52-.365-1.12-.365-1.798 0-.661.11-1.26.331-1.799.219-.538.551-.949.99-1.236a2.675 2.675 0 0 1 1.478-.431c.399 0 .754.084 1.065.251.312.169.566.389.761.659v-3.28h1.116v9.141h-1.042zm-3.545-3.304c0 .848.176 1.481.535 1.9.356.42.778.63 1.265.63.491 0 .906-.202 1.25-.602.342-.4.513-1.013.513-1.838 0-.902-.173-1.57-.521-1.994-.351-.424-.78-.636-1.291-.636-.498 0-.915.207-1.25.611-.334.411-.501 1.053-.501 1.929zM183.346 101.665l1.159.143c-.182.679-.521 1.202-1.016 1.576-.494.376-1.127.561-1.895.561-.969 0-1.736-.297-2.304-.894-.566-.595-.85-1.432-.85-2.509 0-1.113.287-1.979.86-2.593s1.313-.923 2.229-.923c.887 0 1.609.301 2.169.904.561.601.842 1.45.842 2.543 0 .064-.002.166-.007.298h-4.937c.043.729.248 1.283.618 1.67.37.389.832.581 1.384.581.411 0 .762-.109 1.054-.324.293-.216.525-.559.694-1.033zm-3.683-1.814h3.695c-.051-.554-.191-.974-.424-1.252-.356-.433-.819-.648-1.388-.648-.517 0-.949.173-1.3.517-.351.344-.546.805-.583 1.383zM189.985 103.797V94.66h3.448c.605 0 1.069.028 1.387.089.449.075.824.217 1.129.428.303.208.547.504.732.881a2.8 2.8 0 0 1 .279 1.247c0 .777-.248 1.433-.743 1.973-.493.538-1.385.807-2.68.807h-2.342v3.713h-1.21zm1.21-4.794h2.362c.78 0 1.336-.145 1.663-.437.328-.29.493-.701.493-1.229 0-.383-.098-.709-.29-.98a1.35 1.35 0 0 0-.764-.54c-.203-.054-.579-.08-1.127-.08h-2.337v3.266zM203.079 101.665l1.157.143c-.182.679-.521 1.202-1.015 1.576-.495.376-1.125.561-1.895.561-.969 0-1.734-.297-2.303-.894-.566-.595-.851-1.432-.851-2.509 0-1.113.286-1.979.859-2.593s1.316-.923 2.231-.923c.885 0 1.608.301 2.169.904.561.601.841 1.45.841 2.543 0 .064-.002.166-.006.298h-4.936c.041.729.245 1.283.616 1.67.37.389.831.581 1.385.581.41 0 .763-.109 1.053-.324.293-.216.524-.559.695-1.033zm-3.684-1.814h3.697c-.05-.554-.192-.974-.424-1.252a1.72 1.72 0 0 0-1.391-.648c-.513 0-.947.173-1.298.517-.352.344-.546.805-.584 1.383zM205.389 101.82l1.111-.175c.061.445.236.785.52 1.022.285.238.683.357 1.195.357s.896-.104 1.146-.316c.248-.209.374-.456.374-.739a.684.684 0 0 0-.331-.599c-.153-.098-.536-.226-1.146-.379-.823-.208-1.393-.389-1.71-.54a1.636 1.636 0 0 1-.971-1.517 1.7 1.7 0 0 1 .203-.819c.134-.251.321-.461.551-.627.174-.128.413-.238.714-.327s.625-.134.969-.134c.518 0 .976.075 1.367.225.396.149.683.353.869.606.188.255.319.597.389 1.026l-1.098.149c-.051-.34-.193-.607-.434-.798-.239-.19-.577-.287-1.012-.287-.515 0-.885.086-1.104.257-.219.169-.329.369-.329.599 0 .143.046.275.135.392.095.121.237.221.434.299.111.041.439.136.989.285.795.212 1.349.389 1.66.52.315.136.559.332.74.59.181.257.268.577.268.96 0 .374-.108.727-.326 1.056-.217.329-.534.586-.943.768-.411.18-.878.271-1.396.271-.86 0-1.515-.178-1.966-.536-.453-.358-.743-.886-.868-1.589zM216.631 106.332v-3.242a2.003 2.003 0 0 1-.732.612 2.146 2.146 0 0 1-1.001.244c-.785 0-1.462-.313-2.029-.942-.568-.626-.852-1.486-.852-2.58 0-.664.116-1.261.346-1.787.231-.527.566-.928 1.004-1.199a2.677 2.677 0 0 1 1.442-.407c.819 0 1.464.345 1.933 1.034v-.885h1.009v9.154l-1.12-.002zm-3.459-5.863c0 .853.179 1.492.536 1.918.358.425.785.639 1.284.639.478 0 .891-.204 1.234-.607.345-.405.516-1.021.516-1.848 0-.882-.182-1.544-.545-1.989-.364-.445-.79-.666-1.281-.666-.486 0-.897.208-1.234.62-.34.41-.51 1.057-.51 1.933zM224.04 103.797v-.973c-.515.748-1.217 1.122-2.102 1.122-.39 0-.755-.075-1.093-.225-.339-.149-.588-.338-.756-.564a2.153 2.153 0 0 1-.345-.831c-.045-.221-.066-.57-.066-1.046v-4.1h1.12v3.668c0 .588.023.981.068 1.187.07.294.221.525.448.696.229.167.511.251.848.251s.653-.088.947-.259c.296-.173.504-.407.627-.703.125-.297.184-.729.184-1.295V97.18h1.121v6.617h-1.001zM226.998 95.949V94.66h1.121v1.289h-1.121zm0 7.848v-6.619h1.121v6.619h-1.121zM229.57 101.82l1.109-.175c.062.445.235.785.521 1.022.285.238.682.357 1.193.357.516 0 .897-.104 1.146-.316.249-.209.374-.456.374-.739a.687.687 0 0 0-.328-.599c-.156-.098-.537-.226-1.148-.379-.82-.208-1.393-.389-1.711-.54s-.558-.361-.723-.628a1.67 1.67 0 0 1-.246-.889c0-.296.067-.568.201-.819a1.86 1.86 0 0 1 .552-.627c.173-.128.411-.238.713-.327.301-.089.626-.134.969-.134.518 0 .976.075 1.367.225.394.149.684.353.871.606.187.255.314.597.386 1.026l-1.097.149c-.05-.34-.194-.607-.435-.798s-.577-.287-1.012-.287c-.515 0-.883.086-1.104.257-.219.169-.329.369-.329.599 0 .143.046.275.137.392a.979.979 0 0 0 .429.299c.112.041.443.136.992.285.793.212 1.348.389 1.66.52.314.136.561.332.738.59.18.257.27.577.27.96 0 .374-.109.727-.326 1.056a2.138 2.138 0 0 1-.943.768c-.412.18-.878.271-1.396.271-.858 0-1.516-.178-1.966-.536-.452-.356-.739-.886-.864-1.589zM240.912 102.979c-.415.354-.815.602-1.198.748a3.49 3.49 0 0 1-1.237.217c-.727 0-1.284-.178-1.676-.532-.393-.356-.586-.811-.586-1.362 0-.322.072-.62.221-.889.146-.267.34-.482.58-.645.239-.164.508-.285.807-.367.22-.057.553-.115.997-.169.905-.108 1.574-.238 2-.388.006-.153.007-.25.007-.291 0-.457-.106-.779-.318-.968-.287-.252-.712-.38-1.276-.38-.529 0-.917.095-1.169.278-.251.183-.436.511-.557.98l-1.098-.149c.101-.47.264-.85.494-1.138.228-.287.559-.511.989-.666.433-.155.934-.233 1.502-.233.564 0 1.023.066 1.378.199.354.136.612.302.778.503.169.202.284.455.349.764.037.19.057.536.057 1.036v1.496c0 1.041.023 1.702.073 1.979.047.275.141.541.283.794h-1.172a2.258 2.258 0 0 1-.228-.817zm-.095-2.505c-.405.168-1.017.309-1.832.424-.461.066-.787.141-.978.225a.988.988 0 0 0-.443.363.973.973 0 0 0-.155.532c0 .3.112.551.341.748.226.199.557.299.993.299.433 0 .817-.094 1.154-.284.336-.189.584-.445.74-.775.119-.254.18-.628.18-1.121v-.411zM73.219 116.981l1.159.144c-.183.677-.521 1.202-1.016 1.576s-1.126.561-1.895.561c-.968 0-1.735-.299-2.303-.894-.566-.595-.85-1.432-.85-2.507 0-1.117.287-1.979.86-2.595s1.315-.923 2.229-.923c.887 0 1.61.301 2.169.903.561.602.843 1.449.843 2.543 0 .063-.002.165-.008.299h-4.935c.042.727.247 1.282.618 1.67.371.387.831.581 1.384.581.411 0 .762-.108 1.053-.324s.522-.56.692-1.034zm-3.684-1.813h3.696c-.05-.556-.191-.972-.423-1.253a1.716 1.716 0 0 0-1.388-.648c-.516 0-.948.173-1.299.519-.354.344-.548.806-.586 1.382zM79.859 119.112v-9.135h3.447c.606 0 1.07.026 1.388.087.449.075.825.218 1.128.426.304.21.547.506.732.884.185.377.279.792.279 1.246 0 .778-.248 1.434-.742 1.972-.494.539-1.386.808-2.68.808H81.07v3.715l-1.211-.003zm1.209-4.792h2.362c.781 0 1.335-.146 1.664-.436.327-.292.492-.702.492-1.23 0-.382-.097-.707-.289-.981a1.364 1.364 0 0 0-.764-.54c-.204-.053-.58-.08-1.128-.08H81.07l-.002 3.267zM88.003 115.804c0-1.225.341-2.133 1.022-2.725.569-.489 1.264-.735 2.082-.735.91 0 1.653.3 2.231.896.578.593.866 1.419.866 2.47 0 .853-.129 1.522-.385 2.01a2.715 2.715 0 0 1-1.115 1.137 3.229 3.229 0 0 1-1.599.404c-.929 0-1.676-.296-2.247-.891-.569-.593-.855-1.448-.855-2.566zm1.153 0c0 .848.185 1.481.553 1.904.37.422.835.632 1.396.632.557 0 1.021-.212 1.39-.636.368-.424.553-1.068.553-1.938 0-.817-.186-1.438-.558-1.86a1.765 1.765 0 0 0-1.386-.631c-.561 0-1.026.208-1.396.627-.37.42-.552 1.054-.552 1.902zm1.327-4.133l.827-1.745h1.471l-1.372 1.745h-.926zM95.262 117.138l1.111-.173c.061.443.236.783.519 1.021.285.238.682.356 1.195.356.514 0 .896-.105 1.147-.313.25-.21.374-.456.374-.741a.681.681 0 0 0-.331-.598c-.154-.099-.536-.227-1.146-.382-.823-.206-1.394-.386-1.71-.537a1.664 1.664 0 0 1-.723-.629 1.647 1.647 0 0 1-.248-.891c0-.294.068-.567.204-.817.133-.251.32-.459.55-.628.174-.129.412-.237.714-.324a3.27 3.27 0 0 1 .969-.136c.518 0 .975.075 1.368.225.395.149.683.353.869.609.187.254.318.596.388 1.023l-1.097.149c-.052-.34-.194-.605-.435-.798-.239-.19-.576-.286-1.011-.286-.516 0-.885.087-1.104.256-.219.171-.33.371-.33.599 0 .146.045.276.135.392.094.121.237.221.432.299.112.043.44.138.991.287.793.21 1.347.387 1.66.52.315.134.559.332.74.59.181.258.268.577.268.96 0 .374-.109.725-.326 1.056a2.125 2.125 0 0 1-.944.766 3.416 3.416 0 0 1-1.396.272c-.86 0-1.516-.18-1.967-.536-.454-.359-.741-.889-.866-1.591zM101.848 116.37v-1.127h3.446v1.127h-3.446zM106.521 119.661l1.089.162c.047.336.173.582.38.735.28.21.661.313 1.141.313.519 0 .922-.104 1.203-.313a1.52 1.52 0 0 0 .573-.873c.058-.228.085-.705.081-1.438-.49.579-1.101.865-1.832.865-.91 0-1.614-.325-2.113-.984-.498-.655-.746-1.442-.746-2.361 0-.632.114-1.215.343-1.749.229-.534.559-.945.994-1.235.434-.29.944-.437 1.53-.437.781 0 1.425.315 1.932.947v-.798h1.035v5.722c0 1.029-.104 1.76-.315 2.188a2.276 2.276 0 0 1-.997 1.019c-.454.249-1.014.374-1.679.374-.79 0-1.427-.178-1.915-.532-.486-.355-.722-.889-.704-1.605zm.928-3.976c0 .869.173 1.503.517 1.902.345.398.777.598 1.296.598.516 0 .947-.199 1.296-.595.349-.396.523-1.021.523-1.868 0-.81-.18-1.421-.54-1.832-.36-.411-.792-.618-1.299-.618-.5 0-.924.205-1.273.607-.345.408-.52 1.008-.52 1.806zM114.004 119.112v-6.618h1.008v1.004c.257-.47.496-.778.713-.93.219-.149.458-.225.72-.225.378 0 .762.121 1.153.361l-.386 1.042a1.604 1.604 0 0 0-.821-.244c-.247 0-.467.073-.663.222a1.198 1.198 0 0 0-.417.614 4.358 4.358 0 0 0-.187 1.311v3.465h-1.12v-.002zM122.777 118.297c-.416.353-.817.602-1.2.746a3.447 3.447 0 0 1-1.235.218c-.729 0-1.286-.177-1.678-.533-.391-.354-.586-.808-.586-1.362 0-.322.074-.619.221-.887.148-.269.341-.484.581-.646.239-.161.508-.284.807-.366.22-.058.553-.114.999-.169.904-.107 1.572-.237 1.999-.387l.006-.292c0-.458-.104-.78-.318-.969-.285-.251-.712-.379-1.278-.379-.526 0-.917.094-1.167.279-.252.184-.438.511-.558.981l-1.097-.15c.1-.472.263-.851.492-1.138.229-.288.559-.513.991-.666.434-.156.933-.234 1.502-.234.564 0 1.023.067 1.377.199.354.134.613.301.778.502.168.203.284.456.351.766.038.19.056.536.056 1.034v1.496c0 1.045.024 1.702.072 1.979.047.277.142.541.283.794h-1.17a2.313 2.313 0 0 1-.228-.816zm-.093-2.505c-.405.165-1.018.308-1.833.423-.461.066-.787.142-.979.225a.974.974 0 0 0-.44.363.957.957 0 0 0-.158.532c0 .3.114.551.34.748.227.2.558.3.996.3.432 0 .816-.097 1.153-.283.337-.19.584-.449.74-.778.122-.253.181-.627.181-1.12v-.41zM130.043 119.112v-.835c-.419.657-1.037.984-1.851.984a2.594 2.594 0 0 1-1.456-.436 2.874 2.874 0 0 1-1.027-1.219c-.246-.521-.365-1.121-.365-1.8 0-.661.11-1.259.33-1.797.22-.539.55-.951.991-1.237.44-.285.933-.431 1.478-.431.398 0 .754.085 1.065.252.312.17.565.389.76.657v-3.278h1.116v9.139h-1.041zm-3.546-3.302c0 .85.177 1.481.536 1.901.357.421.778.629 1.266.629.49 0 .906-.199 1.25-.601.342-.402.512-1.013.512-1.836 0-.906-.173-1.572-.521-1.996-.35-.424-.779-.636-1.29-.636-.499 0-.916.205-1.25.613-.336.408-.503 1.05-.503 1.926zM137.376 119.112v-.971c-.515.747-1.215 1.12-2.1 1.12-.393 0-.755-.074-1.093-.224-.339-.149-.59-.337-.755-.563a2.132 2.132 0 0 1-.345-.833c-.045-.217-.069-.568-.069-1.045v-4.102h1.122v3.672c0 .586.021.979.067 1.185.07.296.22.527.449.694.229.171.513.253.849.253.335 0 .653-.089.947-.258.293-.173.504-.408.627-.706.122-.295.184-.728.184-1.292v-3.548h1.12v6.619l-1.003-.001zM144.648 118.297c-.415.353-.815.602-1.198.746a3.45 3.45 0 0 1-1.237.218c-.728 0-1.285-.177-1.676-.533-.391-.354-.586-.808-.586-1.362 0-.322.074-.619.221-.887.146-.269.341-.484.581-.646.239-.161.507-.284.807-.366.22-.058.553-.114.997-.169.906-.107 1.574-.237 2.001-.387l.006-.292c0-.458-.106-.78-.318-.969-.287-.251-.712-.379-1.277-.379-.528 0-.917.094-1.168.279-.25.184-.436.511-.556.981l-1.097-.15c.098-.472.264-.851.493-1.138.229-.288.559-.513.991-.666.432-.156.931-.234 1.5-.234.565 0 1.024.067 1.379.199.354.134.613.301.778.502.167.203.284.456.349.766.037.19.057.536.057 1.034v1.496c0 1.045.022 1.702.072 1.979.047.277.14.541.283.794h-1.172a2.253 2.253 0 0 1-.23-.816zm-.093-2.505c-.407.165-1.018.308-1.833.423-.461.066-.787.142-.979.225a.99.99 0 0 0-.442.363.963.963 0 0 0-.156.532c0 .3.113.551.34.748.227.2.558.3.994.3.434 0 .817-.097 1.155-.283.337-.19.584-.449.74-.778.12-.253.181-.627.181-1.12v-.41zM151.938 116.689l1.104.142c-.121.761-.429 1.357-.926 1.786-.496.432-1.105.645-1.829.645-.905 0-1.634-.295-2.185-.887-.55-.593-.824-1.44-.824-2.546 0-.714.118-1.343.355-1.879a2.467 2.467 0 0 1 1.083-1.204 3.21 3.21 0 0 1 1.579-.402c.718 0 1.307.182 1.765.547.456.363.748.882.88 1.548l-1.092.171c-.104-.445-.287-.78-.551-1.006a1.43 1.43 0 0 0-.957-.337c-.565 0-1.024.205-1.377.608-.354.404-.53 1.046-.53 1.922 0 .891.172 1.537.511 1.939.342.402.785.604 1.335.604.439 0 .807-.134 1.103-.404.29-.271.477-.686.556-1.247zm-2.599 3.258l.322-1.102h.835l-.206.666c.354.042.619.151.797.325.18.177.269.374.269.59 0 .312-.149.586-.448.826-.299.238-.749.358-1.351.358-.341 0-.64-.025-.897-.075l.068-.73c.266.019.461.023.586.023.393 0 .665-.054.823-.162.12-.082.181-.184.181-.305a.31.31 0 0 0-.071-.199c-.048-.059-.136-.108-.265-.149-.13-.038-.343-.06-.643-.066zM158.512 118.297c-.415.353-.815.602-1.198.746a3.444 3.444 0 0 1-1.236.218c-.728 0-1.285-.177-1.677-.533-.391-.354-.586-.808-.586-1.362 0-.322.074-.619.221-.887.146-.269.342-.484.58-.646.239-.161.508-.284.807-.366.221-.058.554-.114.998-.169.906-.107 1.573-.237 2.001-.387l.006-.292c0-.458-.105-.78-.317-.969-.287-.251-.712-.379-1.278-.379-.527 0-.917.094-1.168.279-.25.184-.437.511-.556.981l-1.098-.15c.099-.472.264-.851.492-1.138.229-.288.559-.513.991-.666.432-.156.932-.234 1.5-.234.565 0 1.023.067 1.38.199.353.134.612.301.778.502.167.203.283.456.349.766.037.19.057.536.057 1.034v1.496c0 1.045.021 1.702.071 1.979.049.277.141.541.283.794h-1.172a2.313 2.313 0 0 1-.228-.816zm-3.733-6.781c-.005-.433.114-.776.354-1.034.238-.258.543-.387.91-.387.258 0 .608.112 1.054.337.246.125.44.187.588.187.132 0 .235-.037.305-.108.071-.073.121-.217.149-.437h.811c-.013.476-.134.83-.36 1.067a1.131 1.131 0 0 1-.861.355c-.262 0-.605-.115-1.035-.351-.279-.147-.48-.223-.612-.223a.44.44 0 0 0-.342.149c-.093.099-.134.248-.132.442l-.829.003zm3.64 4.276c-.407.165-1.019.308-1.832.423-.461.066-.787.142-.979.225a.956.956 0 0 0-.598.895c0 .3.114.551.341.748.226.2.557.3.993.3.435 0 .817-.097 1.156-.283.336-.19.584-.449.738-.778.121-.253.182-.627.182-1.12v-.41zM161.065 115.804c0-1.225.342-2.133 1.022-2.725.567-.489 1.264-.735 2.079-.735.91 0 1.654.3 2.231.896.579.593.867 1.419.867 2.47 0 .853-.13 1.522-.385 2.01a2.723 2.723 0 0 1-1.116 1.137 3.227 3.227 0 0 1-1.6.404c-.926 0-1.675-.296-2.247-.891-.564-.593-.851-1.448-.851-2.566zm1.154 0c0 .848.186 1.481.555 1.904.368.422.835.632 1.394.632.558 0 1.021-.212 1.391-.636.369-.424.553-1.068.553-1.938 0-.817-.184-1.438-.556-1.86a1.77 1.77 0 0 0-1.388-.631c-.559 0-1.025.208-1.394.627-.37.42-.555 1.054-.555 1.902zM177.042 116.981l1.159.144c-.182.677-.521 1.202-1.016 1.576s-1.127.561-1.895.561c-.969 0-1.736-.299-2.304-.894-.564-.595-.85-1.432-.85-2.507 0-1.117.287-1.979.86-2.595s1.313-.923 2.229-.923c.887 0 1.609.301 2.169.903.561.602.842 1.449.842 2.543 0 .063-.002.165-.007.299h-4.937c.043.727.248 1.282.618 1.67.37.387.832.581 1.384.581.411 0 .762-.108 1.054-.324.293-.215.525-.56.694-1.034zm-3.683-1.813h3.696c-.052-.556-.192-.972-.425-1.253a1.714 1.714 0 0 0-1.388-.648c-.517 0-.949.173-1.3.519-.351.344-.546.806-.583 1.382zM179.802 119.112v-6.618h1.003v.929a2.348 2.348 0 0 1 2.007-1.077c.491 0 .894.104 1.205.307.315.203.536.487.664.854.523-.774 1.206-1.159 2.045-1.159.657 0 1.161.182 1.515.547.353.363.529.924.529 1.681v4.541h-1.115v-4.169c0-.446-.037-.772-.11-.969a.935.935 0 0 0-.396-.477 1.234 1.234 0 0 0-.672-.179c-.466 0-.853.155-1.159.463-.306.311-.461.806-.461 1.487v3.847h-1.122v-4.301c0-.499-.091-.873-.274-1.12-.182-.249-.479-.374-.896-.374-.316 0-.607.082-.876.248a1.41 1.41 0 0 0-.584.728c-.119.322-.18.782-.18 1.386v3.435h-1.122v-.01h-.001zM194.507 119.112v-9.135h3.146c.711 0 1.254.043 1.628.13a3.11 3.11 0 0 1 1.339.655c.482.406.842.93 1.083 1.56.24.635.359 1.359.359 2.175 0 .694-.082 1.309-.246 1.843-.162.536-.366.979-.623 1.33a3.27 3.27 0 0 1-.831.83 3.427 3.427 0 0 1-1.09.458 6.29 6.29 0 0 1-1.468.156l-3.297-.002zm1.209-1.077h1.95c.604 0 1.075-.057 1.419-.171.342-.112.616-.269.819-.474.287-.287.509-.671.67-1.157.16-.482.24-1.07.24-1.762 0-.954-.157-1.689-.471-2.202-.316-.513-.697-.855-1.145-1.031-.324-.125-.848-.187-1.565-.187h-1.918v6.984h.001zM203.779 111.267v-1.291h1.12v1.291h-1.12zm0 7.845v-6.618h1.12v6.618h-1.12zM206.787 119.112v-6.618h1.009v1.004c.257-.47.497-.778.713-.93.219-.149.459-.225.719-.225.38 0 .765.121 1.156.361l-.387 1.042a1.613 1.613 0 0 0-.822-.244c-.246 0-.467.073-.661.222a1.206 1.206 0 0 0-.418.614 4.295 4.295 0 0 0-.188 1.311v3.465h-1.121v-.002zM215.772 116.981l1.159.144c-.184.677-.522 1.202-1.018 1.576-.493.374-1.123.561-1.893.561-.969 0-1.734-.299-2.303-.894-.565-.595-.851-1.432-.851-2.507 0-1.117.285-1.979.858-2.595s1.317-.923 2.231-.923c.885 0 1.607.301 2.169.903.561.602.842 1.449.842 2.543 0 .063-.002.165-.007.299h-4.937c.043.727.248 1.282.618 1.67.37.387.83.581 1.385.581.412 0 .763-.108 1.051-.324.295-.215.527-.56.696-1.034zm-3.682-1.813h3.694c-.05-.556-.19-.972-.424-1.253a1.718 1.718 0 0 0-1.389-.648 1.78 1.78 0 0 0-1.3.519c-.35.344-.544.806-.581 1.382zM218.537 111.267v-1.291h1.12v1.291h-1.12zm0 7.845v-6.618h1.12v6.618h-1.12zM224.008 118.11l.162.989a4.069 4.069 0 0 1-.85.099c-.404 0-.723-.062-.945-.192a1.088 1.088 0 0 1-.476-.508c-.093-.208-.137-.651-.137-1.324v-3.81h-.821v-.872h.821v-1.639l1.118-.673v2.312h1.125v.872h-1.125v3.871c0 .321.018.525.057.616a.466.466 0 0 0 .192.22c.093.053.218.08.385.08.127.001.291-.012.494-.041zM224.879 115.804c0-1.225.342-2.133 1.021-2.725.57-.489 1.267-.735 2.082-.735.91 0 1.654.3 2.231.896.578.593.867 1.419.867 2.47 0 .853-.13 1.522-.385 2.01a2.723 2.723 0 0 1-1.116 1.137 3.227 3.227 0 0 1-1.6.404c-.926 0-1.676-.296-2.247-.891-.567-.593-.853-1.448-.853-2.566zm1.153 0c0 .848.186 1.481.553 1.904.37.422.835.632 1.396.632.558 0 1.021-.212 1.391-.636.367-.424.553-1.068.553-1.938 0-.817-.186-1.438-.556-1.86a1.77 1.77 0 0 0-1.388-.631c-.561 0-1.025.208-1.396.627-.367.42-.553 1.054-.553 1.902z"/></g></g></svg>