<?xml version="1.0" encoding="utf-8"?>
<!-- Generator: Adobe Illustrator 16.0.0, SVG Export Plug-In . SVG Version: 6.00 Build 0)  -->
<!DOCTYPE svg PUBLIC "-//W3C//DTD SVG 1.0//EN" "http://www.w3.org/TR/2001/REC-SVG-20010904/DTD/svg10.dtd">
<svg version="1.0" id="Layer_1" xmlns="http://www.w3.org/2000/svg" xmlns:xlink="http://www.w3.org/1999/xlink" x="0px" y="0px"
	 width="1280px" height="800px" viewBox="0 0 1280 800" enable-background="new 0 0 1280 800" xml:space="preserve">
<g>
	<path fill="#958A7E" d="M775.519,360.4c2.132,0.773,3.32,1.16,3.564,1.16c0.635,0,1.144-0.244,1.526-0.732
		c0.382-0.488,0.622-1.001,0.72-1.538h1.392v11.694h-1.27c-1.203-2.539-2.431-4.541-3.683-6.006
		c-2.341-2.702-4.99-4.053-7.949-4.053c-3.35,0-5.727,1.445-7.133,4.333c-1.406,2.889-2.109,6.767-2.109,11.633
		c0,3.581,0.414,6.527,1.243,8.838c1.545,4.33,4.414,6.494,8.609,6.494c2.568,0,4.958-0.716,7.169-2.148
		c1.269-0.83,2.764-2.156,4.487-3.979l1.489,1.221c-1.953,2.181-3.671,3.76-5.151,4.736c-2.637,1.741-5.566,2.612-8.789,2.612
		c-4.932,0-9.066-1.465-12.402-4.395c-3.695-3.239-5.542-7.601-5.542-13.086c0-5.436,1.766-9.839,5.298-13.208
		c3.32-3.157,7.389-4.736,12.207-4.736C771.278,359.24,773.386,359.627,775.519,360.4z"/>
	<path fill="#958A7E" d="M817.926,364.001c3.434,3.337,5.151,7.634,5.151,12.891c0,5.257-1.718,9.554-5.151,12.891
		c-3.354,3.255-7.544,4.883-12.573,4.883c-5.339,0-9.692-1.782-13.062-5.347c-3.142-3.353-4.712-7.405-4.712-12.158
		c0-5.241,1.644-9.546,4.932-12.915c3.32-3.418,7.601-5.127,12.842-5.127C810.397,359.118,814.589,360.746,817.926,364.001z
		 M813.065,386.315c0.75-2.409,1.125-5.55,1.125-9.424c0-5.322-0.795-9.334-2.384-12.036c-1.589-2.702-3.744-4.053-6.466-4.053
		c-3.781,0-6.373,2.254-7.774,6.763c-0.734,2.393-1.101,5.501-1.101,9.326c0,3.89,0.375,7.031,1.125,9.424
		c1.385,4.443,3.969,6.665,7.75,6.665C809.089,392.98,811.664,390.759,813.065,386.315z"/>
	<path fill="#958A7E" d="M825.665,392.395c1.855-0.049,3.052-0.403,3.589-1.062s0.806-1.631,0.806-2.917v-23.682
		c-1.53-1.709-2.475-2.714-2.832-3.015c-0.358-0.301-0.847-0.492-1.465-0.574v-1.27h10.596l17.188,20.889h0.244v-14.688
		c0-1.692-0.308-2.901-0.923-3.625c-0.615-0.724-1.846-1.16-3.691-1.306v-1.27h10.742v1.27c-1.562,0.259-2.608,0.607-3.137,1.044
		c-0.529,0.437-0.794,1.415-0.794,2.936v29.468h-1.392l-21.997-26.733h-0.342v19.604c0,1.538,0.211,2.625,0.635,3.263
		c0.667,1.031,2.034,1.587,4.102,1.668v1.27h-11.328V392.395z"/>
	<path fill="#958A7E" d="M861.773,392.395c1.644-0.114,2.747-0.459,3.308-1.038c0.562-0.578,0.843-1.753,0.843-3.528V365.71
		c0-1.878-0.285-3.064-0.854-3.558c-0.57-0.494-1.669-0.83-3.296-1.008v-1.27h16.089c4.264,0,7.508,0.692,9.729,2.075
		c2.223,1.384,3.333,3.76,3.333,7.129c0,1.644-0.436,3.186-1.306,4.626c-0.871,1.44-2.308,2.6-4.31,3.479
		c-1.514,0.619-3.027,0.993-4.541,1.123c-1.514,0.13-3.76,0.195-6.738,0.195v9.326c0,1.839,0.309,3.044,0.928,3.613
		c0.618,0.57,1.773,0.887,3.467,0.952v1.27h-16.65V392.395z M879.986,375.744c1.578-1.009,2.368-3.182,2.368-6.519
		c0-2.278-0.383-4.118-1.147-5.518c-0.766-1.399-2.23-2.1-4.395-2.1c-0.993,0-1.705,0.118-2.136,0.354
		c-0.432,0.236-0.647,0.696-0.647,1.379v13.428C877.008,376.721,878.993,376.379,879.986,375.744z"/>
	<path fill="#958A7E" d="M892.315,393.664v-1.27c1.432-0.049,2.449-0.244,3.052-0.586c0.928-0.521,1.392-1.497,1.392-2.93V364.66
		c0-1.455-0.48-2.433-1.44-2.934c-0.554-0.307-1.555-0.5-3.003-0.582v-1.27h28.809v10.083h-1.221
		c-0.635-3.223-1.713-5.428-3.235-6.616c-1.521-1.188-4.293-1.782-8.312-1.782c-1.53,0-2.502,0.159-2.918,0.476
		c-0.414,0.317-0.622,0.948-0.622,1.892V375.5c2.848,0.033,4.776-0.484,5.786-1.55c1.009-1.066,1.782-3.015,2.319-5.847h1.27v16.895
		h-1.27c-0.358-2.848-1.087-4.854-2.185-6.018c-1.1-1.164-3.073-1.746-5.921-1.746v12.109c0,1.058,0.272,1.778,0.817,2.161
		c0.546,0.383,1.664,0.574,3.357,0.574c3.189,0,5.794-0.618,7.812-1.855c2.018-1.237,3.809-3.556,5.371-6.958h1.392l-2.026,10.4
		H892.315z"/>
	<path fill="#958A7E" d="M925.543,392.395c1.253-0.081,2.156-0.26,2.71-0.537c0.977-0.504,1.465-1.424,1.465-2.759V364.44
		c0-1.286-0.464-2.181-1.392-2.686c-0.537-0.293-1.465-0.496-2.783-0.61v-1.27h15.283c6.168,0,10.872,1.644,14.111,4.932
		c2.945,2.995,4.419,7.015,4.419,12.061c0,4.525-1.481,8.358-4.443,11.499c-3.337,3.532-7.861,5.298-13.574,5.298h-15.796V392.395z
		 M938.373,391.296c0.333,0.456,1.045,0.684,2.136,0.684c2.962,0,5.396-1.045,7.3-3.137c1.904-2.091,2.856-6.107,2.856-12.048
		c0-3.532-0.513-6.567-1.538-9.106c-1.66-4.085-4.46-6.128-8.398-6.128c-1.303,0-2.148,0.277-2.539,0.83
		c-0.261,0.358-0.391,1.05-0.391,2.075v24.609C937.848,390.1,938.039,390.84,938.373,391.296z"/>
	<path fill="#958A7E" d="M961.773,392.395c1.416-0.032,2.433-0.203,3.052-0.513c1.009-0.521,1.514-1.521,1.514-3.003V364.66
		c0-1.471-0.48-2.457-1.44-2.958c-0.586-0.307-1.628-0.493-3.125-0.558v-1.27h17.48v1.27c-1.562,0.065-2.637,0.243-3.223,0.533
		c-0.977,0.501-1.465,1.496-1.465,2.982v24.219c0,1.4,0.391,2.336,1.172,2.808c0.781,0.472,1.953,0.708,3.516,0.708v1.27h-17.48
		V392.395z"/>
</g>
<g>
	<path fill="#958A7E" d="M771.202,415.486l1.326,0.335c-0.278,1.089-0.778,1.92-1.5,2.491c-0.723,0.572-1.605,0.858-2.649,0.858
		c-1.08,0-1.958-0.22-2.636-0.659c-0.676-0.44-1.191-1.077-1.545-1.911c-0.353-0.834-0.529-1.729-0.529-2.687
		c0-1.043,0.199-1.954,0.598-2.73c0.399-0.777,0.967-1.367,1.703-1.771c0.735-0.402,1.546-0.604,2.43-0.604
		c1.003,0,1.846,0.255,2.529,0.766s1.16,1.228,1.429,2.153l-1.306,0.308c-0.232-0.729-0.569-1.261-1.012-1.593
		s-0.998-0.499-1.668-0.499c-0.771,0-1.414,0.185-1.932,0.554c-0.517,0.369-0.88,0.865-1.09,1.486
		c-0.21,0.623-0.314,1.264-0.314,1.925c0,0.853,0.124,1.597,0.373,2.231c0.248,0.637,0.634,1.111,1.158,1.426
		s1.092,0.472,1.702,0.472c0.743,0,1.372-0.214,1.887-0.643S771.02,416.33,771.202,415.486z"/>
	<path fill="#958A7E" d="M773.757,415.37c0-1.345,0.374-2.341,1.121-2.987c0.624-0.537,1.386-0.807,2.283-0.807
		c0.998,0,1.813,0.327,2.447,0.98c0.634,0.654,0.95,1.559,0.95,2.711c0,0.934-0.14,1.669-0.421,2.205
		c-0.279,0.535-0.688,0.951-1.223,1.247c-0.536,0.296-1.12,0.444-1.754,0.444c-1.017,0-1.838-0.326-2.465-0.978
		C774.07,417.535,773.757,416.596,773.757,415.37z M775.021,415.37c0,0.93,0.203,1.626,0.608,2.089
		c0.405,0.462,0.916,0.693,1.531,0.693c0.61,0,1.119-0.232,1.524-0.697s0.608-1.174,0.608-2.126c0-0.897-0.204-1.578-0.611-2.04
		c-0.408-0.463-0.915-0.694-1.521-0.694c-0.615,0-1.126,0.229-1.531,0.69S775.021,414.44,775.021,415.37z"/>
	<path fill="#958A7E" d="M782.211,419v-7.26h1.107v1.032c0.533-0.798,1.304-1.196,2.311-1.196c0.438,0,0.84,0.078,1.206,0.236
		c0.367,0.156,0.642,0.363,0.824,0.618s0.31,0.558,0.383,0.909c0.046,0.229,0.068,0.627,0.068,1.196V419h-1.23v-4.416
		c0-0.502-0.048-0.876-0.144-1.125c-0.096-0.248-0.266-0.446-0.509-0.594c-0.244-0.148-0.53-0.223-0.858-0.223
		c-0.524,0-0.977,0.166-1.356,0.499c-0.381,0.333-0.571,0.964-0.571,1.894V419H782.211z"/>
	<path fill="#958A7E" d="M789.715,416.833l1.217-0.191c0.068,0.487,0.259,0.861,0.571,1.121c0.312,0.26,0.748,0.39,1.309,0.39
		c0.565,0,0.984-0.115,1.258-0.346c0.273-0.229,0.41-0.5,0.41-0.81c0-0.278-0.121-0.497-0.362-0.656
		c-0.169-0.109-0.588-0.249-1.258-0.417c-0.902-0.229-1.528-0.425-1.876-0.592c-0.35-0.166-0.613-0.396-0.793-0.689
		c-0.181-0.295-0.271-0.619-0.271-0.975c0-0.324,0.074-0.623,0.222-0.898c0.148-0.276,0.351-0.506,0.605-0.688
		c0.191-0.141,0.452-0.261,0.783-0.359c0.33-0.098,0.685-0.146,1.062-0.146c0.569,0,1.07,0.082,1.5,0.246
		c0.432,0.164,0.749,0.387,0.954,0.666c0.205,0.281,0.347,0.656,0.424,1.125l-1.203,0.164c-0.055-0.373-0.213-0.666-0.476-0.875
		c-0.262-0.209-0.632-0.314-1.11-0.314c-0.565,0-0.969,0.094-1.21,0.28s-0.362,0.405-0.362,0.656c0,0.159,0.05,0.304,0.15,0.431
		c0.101,0.133,0.258,0.242,0.472,0.328c0.123,0.045,0.485,0.15,1.087,0.314c0.87,0.232,1.478,0.423,1.821,0.57
		c0.345,0.148,0.614,0.363,0.811,0.646s0.294,0.633,0.294,1.053c0,0.41-0.12,0.797-0.358,1.158c-0.24,0.363-0.585,0.643-1.036,0.842
		c-0.451,0.197-0.962,0.297-1.531,0.297c-0.943,0-1.662-0.195-2.157-0.588C790.167,418.184,789.852,417.604,789.715,416.833z"/>
	<path fill="#958A7E" d="M802.387,416.662l1.271,0.157c-0.2,0.743-0.572,1.319-1.114,1.729s-1.235,0.615-2.078,0.615
		c-1.062,0-1.903-0.327-2.526-0.98c-0.621-0.654-0.933-1.572-0.933-2.752c0-1.221,0.314-2.17,0.943-2.844s1.444-1.012,2.447-1.012
		c0.971,0,1.764,0.33,2.379,0.991s0.923,1.591,0.923,2.789c0,0.073-0.002,0.183-0.007,0.328h-5.414
		c0.046,0.798,0.271,1.408,0.677,1.832s0.911,0.636,1.518,0.636c0.451,0,0.836-0.119,1.155-0.355S802.2,417.182,802.387,416.662z
		 M798.347,414.673h4.054c-0.055-0.61-0.21-1.069-0.465-1.374c-0.392-0.475-0.9-0.711-1.524-0.711c-0.565,0-1.04,0.189-1.425,0.567
		C798.601,413.533,798.388,414.039,798.347,414.673z"/>
	<path fill="#958A7E" d="M805.386,419v-10.021h1.23V419H805.386z"/>
	<path fill="#958A7E" d="M808.733,419v-10.021h1.23v3.596c0.574-0.666,1.299-0.998,2.174-0.998c0.538,0,1.005,0.105,1.401,0.318
		c0.396,0.211,0.68,0.504,0.852,0.878c0.17,0.374,0.256,0.916,0.256,1.627V419h-1.23v-4.601c0-0.615-0.133-1.063-0.4-1.343
		c-0.266-0.281-0.644-0.421-1.131-0.421c-0.364,0-0.707,0.095-1.029,0.284c-0.32,0.188-0.55,0.445-0.687,0.769
		s-0.205,0.771-0.205,1.34V419H808.733z"/>
	<path fill="#958A7E" d="M816.271,415.37c0-1.345,0.374-2.341,1.121-2.987c0.624-0.537,1.386-0.807,2.283-0.807
		c0.998,0,1.813,0.327,2.447,0.98c0.634,0.654,0.95,1.559,0.95,2.711c0,0.934-0.14,1.669-0.421,2.205
		c-0.279,0.535-0.688,0.951-1.223,1.247c-0.536,0.296-1.12,0.444-1.754,0.444c-1.017,0-1.838-0.326-2.465-0.978
		C816.585,417.535,816.271,416.596,816.271,415.37z M817.536,415.37c0,0.93,0.203,1.626,0.608,2.089
		c0.405,0.462,0.916,0.693,1.531,0.693c0.61,0,1.119-0.232,1.524-0.697s0.608-1.174,0.608-2.126c0-0.897-0.204-1.578-0.611-2.04
		c-0.408-0.463-0.915-0.694-1.521-0.694c-0.615,0-1.126,0.229-1.531,0.69S817.536,414.44,817.536,415.37z"/>
	<path fill="#958A7E" d="M828.969,419v-10.021h1.36l5.264,7.868v-7.868h1.271V419h-1.36l-5.264-7.875V419H828.969z"/>
	<path fill="#958A7E" d="M843.883,418.104c-0.456,0.388-0.895,0.661-1.316,0.82c-0.421,0.159-0.873,0.239-1.356,0.239
		c-0.798,0-1.41-0.195-1.839-0.584c-0.429-0.391-0.643-0.889-0.643-1.494c0-0.355,0.081-0.68,0.242-0.975
		c0.162-0.293,0.374-0.529,0.637-0.707c0.262-0.178,0.557-0.312,0.885-0.403c0.241-0.063,0.606-0.126,1.094-0.185
		c0.993-0.119,1.725-0.26,2.194-0.424c0.005-0.168,0.007-0.275,0.007-0.321c0-0.501-0.116-0.854-0.349-1.06
		c-0.314-0.277-0.781-0.417-1.401-0.417c-0.579,0-1.006,0.102-1.281,0.304c-0.276,0.203-0.48,0.562-0.612,1.077l-1.203-0.164
		c0.109-0.515,0.289-0.931,0.54-1.247c0.251-0.317,0.613-0.561,1.087-0.732c0.474-0.17,1.023-0.256,1.647-0.256
		c0.62,0,1.123,0.072,1.511,0.219s0.672,0.329,0.854,0.551c0.183,0.221,0.31,0.5,0.383,0.837c0.041,0.21,0.062,0.588,0.062,1.135
		v1.641c0,1.144,0.026,1.867,0.079,2.171c0.052,0.303,0.155,0.594,0.311,0.871h-1.285
		C844.001,418.744,843.919,418.446,843.883,418.104z M843.78,415.356c-0.446,0.183-1.116,0.337-2.01,0.465
		c-0.506,0.073-0.863,0.155-1.073,0.246s-0.371,0.225-0.485,0.399c-0.114,0.176-0.171,0.371-0.171,0.585
		c0,0.328,0.124,0.602,0.373,0.82c0.248,0.219,0.611,0.328,1.09,0.328c0.474,0,0.896-0.104,1.265-0.312
		c0.369-0.207,0.641-0.49,0.813-0.851c0.132-0.278,0.198-0.688,0.198-1.23V415.356z"/>
	<path fill="#958A7E" d="M851.879,416.341l1.21,0.157c-0.132,0.834-0.471,1.486-1.015,1.959c-0.545,0.471-1.214,0.707-2.007,0.707
		c-0.993,0-1.792-0.324-2.396-0.975c-0.604-0.648-0.906-1.58-0.906-2.792c0-0.784,0.13-1.47,0.39-2.058s0.655-1.029,1.187-1.322
		c0.53-0.295,1.108-0.441,1.732-0.441c0.788,0,1.434,0.199,1.935,0.598c0.501,0.399,0.822,0.965,0.964,1.699l-1.196,0.185
		c-0.114-0.487-0.315-0.854-0.604-1.101c-0.29-0.246-0.64-0.369-1.05-0.369c-0.62,0-1.123,0.223-1.511,0.666
		c-0.388,0.445-0.581,1.148-0.581,2.109c0,0.975,0.187,1.684,0.561,2.126s0.861,0.663,1.463,0.663c0.483,0,0.887-0.148,1.21-0.444
		S851.792,416.956,851.879,416.341z"/>
	<path fill="#958A7E" d="M854.358,410.394v-1.415h1.23v1.415H854.358z M854.358,419v-7.26h1.23V419H854.358z"/>
	<path fill="#958A7E" d="M857.215,415.37c0-1.345,0.374-2.341,1.121-2.987c0.624-0.537,1.386-0.807,2.283-0.807
		c0.998,0,1.813,0.327,2.447,0.98c0.634,0.654,0.95,1.559,0.95,2.711c0,0.934-0.14,1.669-0.421,2.205
		c-0.279,0.535-0.688,0.951-1.223,1.247c-0.536,0.296-1.12,0.444-1.754,0.444c-1.017,0-1.838-0.326-2.465-0.978
		C857.528,417.535,857.215,416.596,857.215,415.37z M858.479,415.37c0,0.93,0.203,1.626,0.608,2.089
		c0.405,0.462,0.916,0.693,1.531,0.693c0.61,0,1.119-0.232,1.524-0.697s0.608-1.174,0.608-2.126c0-0.897-0.204-1.578-0.611-2.04
		c-0.408-0.463-0.915-0.694-1.521-0.694c-0.615,0-1.126,0.229-1.531,0.69S858.479,414.44,858.479,415.37z"/>
	<path fill="#958A7E" d="M865.669,419v-7.26h1.107v1.032c0.533-0.798,1.304-1.196,2.311-1.196c0.438,0,0.84,0.078,1.206,0.236
		c0.367,0.156,0.642,0.363,0.824,0.618s0.31,0.558,0.383,0.909c0.046,0.229,0.068,0.627,0.068,1.196V419h-1.23v-4.416
		c0-0.502-0.048-0.876-0.144-1.125c-0.096-0.248-0.266-0.446-0.509-0.594c-0.244-0.148-0.53-0.223-0.858-0.223
		c-0.524,0-0.977,0.166-1.356,0.499c-0.381,0.333-0.571,0.964-0.571,1.894V419H865.669z"/>
	<path fill="#958A7E" d="M878.402,418.104c-0.456,0.388-0.895,0.661-1.316,0.82c-0.421,0.159-0.873,0.239-1.356,0.239
		c-0.798,0-1.41-0.195-1.839-0.584c-0.429-0.391-0.643-0.889-0.643-1.494c0-0.355,0.081-0.68,0.242-0.975
		c0.162-0.293,0.374-0.529,0.637-0.707c0.262-0.178,0.557-0.312,0.885-0.403c0.241-0.063,0.606-0.126,1.094-0.185
		c0.993-0.119,1.725-0.26,2.194-0.424c0.005-0.168,0.007-0.275,0.007-0.321c0-0.501-0.116-0.854-0.349-1.06
		c-0.314-0.277-0.781-0.417-1.401-0.417c-0.579,0-1.006,0.102-1.281,0.304c-0.276,0.203-0.48,0.562-0.612,1.077l-1.203-0.164
		c0.109-0.515,0.289-0.931,0.54-1.247c0.251-0.317,0.613-0.561,1.087-0.732c0.474-0.17,1.023-0.256,1.647-0.256
		c0.62,0,1.123,0.072,1.511,0.219s0.672,0.329,0.854,0.551c0.183,0.221,0.31,0.5,0.383,0.837c0.041,0.21,0.062,0.588,0.062,1.135
		v1.641c0,1.144,0.026,1.867,0.079,2.171c0.052,0.303,0.155,0.594,0.311,0.871h-1.285
		C878.521,418.744,878.438,418.446,878.402,418.104z M878.3,415.356c-0.446,0.183-1.116,0.337-2.01,0.465
		c-0.506,0.073-0.863,0.155-1.073,0.246s-0.371,0.225-0.485,0.399c-0.114,0.176-0.171,0.371-0.171,0.585
		c0,0.328,0.124,0.602,0.373,0.82c0.248,0.219,0.611,0.328,1.09,0.328c0.474,0,0.896-0.104,1.265-0.312
		c0.369-0.207,0.641-0.49,0.813-0.851c0.132-0.278,0.198-0.688,0.198-1.23V415.356z"/>
	<path fill="#958A7E" d="M881.634,419v-10.021h1.23V419H881.634z"/>
	<path fill="#958A7E" d="M893.791,419v-0.916c-0.46,0.721-1.137,1.08-2.03,1.08c-0.579,0-1.11-0.16-1.597-0.479
		c-0.484-0.318-0.861-0.765-1.127-1.336c-0.268-0.572-0.4-1.23-0.4-1.973c0-0.725,0.121-1.382,0.362-1.973
		c0.241-0.59,0.604-1.042,1.087-1.356s1.023-0.472,1.62-0.472c0.438,0,0.827,0.092,1.169,0.277c0.342,0.184,0.62,0.424,0.834,0.721
		v-3.596h1.224V419H893.791z M889.901,415.377c0,0.93,0.196,1.625,0.588,2.085s0.854,0.69,1.388,0.69c0.538,0,0.994-0.22,1.371-0.66
		c0.375-0.439,0.563-1.11,0.563-2.013c0-0.993-0.191-1.723-0.574-2.188s-0.854-0.697-1.415-0.697c-0.547,0-1.004,0.224-1.371,0.67
		C890.085,413.711,889.901,414.416,889.901,415.377z"/>
	<path fill="#958A7E" d="M902.047,416.662l1.271,0.157c-0.2,0.743-0.572,1.319-1.114,1.729s-1.235,0.615-2.078,0.615
		c-1.062,0-1.903-0.327-2.526-0.98c-0.621-0.654-0.933-1.572-0.933-2.752c0-1.221,0.314-2.17,0.943-2.844s1.444-1.012,2.447-1.012
		c0.971,0,1.764,0.33,2.379,0.991s0.923,1.591,0.923,2.789c0,0.073-0.002,0.183-0.007,0.328h-5.414
		c0.046,0.798,0.271,1.408,0.677,1.832s0.911,0.636,1.518,0.636c0.451,0,0.836-0.119,1.155-0.355S901.86,417.182,902.047,416.662z
		 M898.007,414.673h4.054c-0.055-0.61-0.21-1.069-0.465-1.374c-0.392-0.475-0.9-0.711-1.524-0.711c-0.565,0-1.04,0.189-1.425,0.567
		C898.261,413.533,898.048,414.039,898.007,414.673z"/>
	<path fill="#958A7E" d="M909.33,419v-10.021h3.78c0.665,0,1.174,0.031,1.524,0.096c0.492,0.082,0.904,0.238,1.237,0.469
		c0.333,0.229,0.601,0.553,0.804,0.967c0.202,0.414,0.304,0.871,0.304,1.367c0,0.852-0.271,1.573-0.813,2.164
		c-0.542,0.59-1.522,0.885-2.939,0.885h-2.57V419H909.33z M910.656,413.743h2.591c0.856,0,1.465-0.159,1.825-0.479
		s0.54-0.769,0.54-1.347c0-0.42-0.106-0.778-0.317-1.076c-0.213-0.299-0.491-0.496-0.838-0.592
		c-0.224-0.059-0.636-0.089-1.237-0.089h-2.563V413.743z"/>
	<path fill="#958A7E" d="M923.69,416.662l1.271,0.157c-0.2,0.743-0.572,1.319-1.114,1.729s-1.235,0.615-2.078,0.615
		c-1.062,0-1.903-0.327-2.526-0.98c-0.621-0.654-0.933-1.572-0.933-2.752c0-1.221,0.314-2.17,0.943-2.844s1.444-1.012,2.447-1.012
		c0.971,0,1.764,0.33,2.379,0.991s0.923,1.591,0.923,2.789c0,0.073-0.002,0.183-0.007,0.328h-5.414
		c0.046,0.798,0.271,1.408,0.677,1.832s0.911,0.636,1.518,0.636c0.451,0,0.836-0.119,1.155-0.355S923.504,417.182,923.69,416.662z
		 M919.65,414.673h4.054c-0.055-0.61-0.21-1.069-0.465-1.374c-0.392-0.475-0.9-0.711-1.524-0.711c-0.565,0-1.04,0.189-1.425,0.567
		C919.904,413.533,919.691,414.039,919.65,414.673z"/>
	<path fill="#958A7E" d="M926.225,416.833l1.217-0.191c0.068,0.487,0.259,0.861,0.571,1.121c0.312,0.26,0.748,0.39,1.309,0.39
		c0.565,0,0.984-0.115,1.258-0.346c0.273-0.229,0.41-0.5,0.41-0.81c0-0.278-0.121-0.497-0.362-0.656
		c-0.169-0.109-0.588-0.249-1.258-0.417c-0.902-0.229-1.528-0.425-1.876-0.592c-0.35-0.166-0.613-0.396-0.793-0.689
		c-0.181-0.295-0.271-0.619-0.271-0.975c0-0.324,0.074-0.623,0.222-0.898c0.148-0.276,0.351-0.506,0.605-0.688
		c0.191-0.141,0.452-0.261,0.783-0.359c0.33-0.098,0.685-0.146,1.062-0.146c0.569,0,1.07,0.082,1.5,0.246
		c0.432,0.164,0.749,0.387,0.954,0.666c0.205,0.281,0.347,0.656,0.424,1.125l-1.203,0.164c-0.055-0.373-0.213-0.666-0.476-0.875
		c-0.262-0.209-0.632-0.314-1.11-0.314c-0.565,0-0.969,0.094-1.21,0.28s-0.362,0.405-0.362,0.656c0,0.159,0.05,0.304,0.15,0.431
		c0.101,0.133,0.258,0.242,0.472,0.328c0.123,0.045,0.485,0.15,1.087,0.314c0.87,0.232,1.478,0.423,1.821,0.57
		c0.345,0.148,0.614,0.363,0.811,0.646s0.294,0.633,0.294,1.053c0,0.41-0.12,0.797-0.358,1.158c-0.24,0.363-0.585,0.643-1.036,0.842
		c-0.451,0.197-0.962,0.297-1.531,0.297c-0.943,0-1.662-0.195-2.157-0.588C926.677,418.184,926.361,417.604,926.225,416.833z"/>
	<path fill="#958A7E" d="M938.555,421.782v-3.555c-0.191,0.269-0.459,0.492-0.803,0.67c-0.345,0.178-0.71,0.267-1.098,0.267
		c-0.861,0-1.604-0.344-2.225-1.032c-0.623-0.688-0.934-1.632-0.934-2.83c0-0.729,0.127-1.384,0.379-1.962
		c0.254-0.578,0.62-1.018,1.102-1.316c0.48-0.298,1.008-0.447,1.582-0.447c0.897,0,1.604,0.379,2.119,1.135v-0.971h1.107v10.042
		H938.555z M934.761,415.35c0,0.934,0.196,1.635,0.588,2.102c0.392,0.468,0.861,0.701,1.408,0.701c0.524,0,0.976-0.223,1.354-0.666
		c0.378-0.445,0.567-1.121,0.567-2.027c0-0.967-0.199-1.693-0.598-2.181c-0.399-0.487-0.867-0.731-1.405-0.731
		c-0.533,0-0.985,0.227-1.356,0.68C934.946,413.681,934.761,414.389,934.761,415.35z"/>
	<path fill="#958A7E" d="M946.681,419v-1.066c-0.565,0.82-1.333,1.23-2.304,1.23c-0.429,0-0.828-0.082-1.199-0.246
		c-0.372-0.164-0.647-0.37-0.828-0.619c-0.18-0.248-0.306-0.553-0.379-0.912c-0.05-0.242-0.075-0.625-0.075-1.148v-4.498h1.23v4.026
		c0,0.643,0.025,1.075,0.075,1.299c0.077,0.323,0.241,0.577,0.492,0.763c0.251,0.184,0.561,0.276,0.93,0.276
		s0.716-0.095,1.039-0.284c0.323-0.188,0.553-0.446,0.688-0.771c0.134-0.326,0.201-0.799,0.201-1.419v-3.89h1.23V419H946.681z"/>
	<path fill="#958A7E" d="M949.926,410.394v-1.415h1.23v1.415H949.926z M949.926,419v-7.26h1.23V419H949.926z"/>
	<path fill="#958A7E" d="M952.747,416.833l1.217-0.191c0.068,0.487,0.259,0.861,0.571,1.121c0.312,0.26,0.748,0.39,1.309,0.39
		c0.565,0,0.984-0.115,1.258-0.346c0.273-0.229,0.41-0.5,0.41-0.81c0-0.278-0.121-0.497-0.362-0.656
		c-0.169-0.109-0.588-0.249-1.258-0.417c-0.902-0.229-1.528-0.425-1.876-0.592c-0.35-0.166-0.613-0.396-0.793-0.689
		c-0.181-0.295-0.271-0.619-0.271-0.975c0-0.324,0.074-0.623,0.222-0.898c0.148-0.276,0.351-0.506,0.605-0.688
		c0.191-0.141,0.452-0.261,0.783-0.359c0.33-0.098,0.685-0.146,1.062-0.146c0.569,0,1.07,0.082,1.5,0.246
		c0.432,0.164,0.749,0.387,0.954,0.666c0.205,0.281,0.347,0.656,0.424,1.125l-1.203,0.164c-0.055-0.373-0.213-0.666-0.476-0.875
		c-0.262-0.209-0.632-0.314-1.11-0.314c-0.565,0-0.969,0.094-1.21,0.28s-0.362,0.405-0.362,0.656c0,0.159,0.05,0.304,0.15,0.431
		c0.101,0.133,0.258,0.242,0.472,0.328c0.123,0.045,0.485,0.15,1.087,0.314c0.87,0.232,1.478,0.423,1.821,0.57
		c0.345,0.148,0.614,0.363,0.811,0.646s0.294,0.633,0.294,1.053c0,0.41-0.12,0.797-0.358,1.158c-0.24,0.363-0.585,0.643-1.036,0.842
		c-0.451,0.197-0.962,0.297-1.531,0.297c-0.943,0-1.662-0.195-2.157-0.588C953.199,418.184,952.884,417.604,952.747,416.833z"/>
	<path fill="#958A7E" d="M965.187,418.104c-0.456,0.388-0.895,0.661-1.316,0.82c-0.421,0.159-0.873,0.239-1.356,0.239
		c-0.798,0-1.41-0.195-1.839-0.584c-0.429-0.391-0.643-0.889-0.643-1.494c0-0.355,0.081-0.68,0.242-0.975
		c0.162-0.293,0.374-0.529,0.637-0.707c0.262-0.178,0.557-0.312,0.885-0.403c0.241-0.063,0.606-0.126,1.094-0.185
		c0.993-0.119,1.725-0.26,2.194-0.424c0.005-0.168,0.007-0.275,0.007-0.321c0-0.501-0.116-0.854-0.349-1.06
		c-0.314-0.277-0.781-0.417-1.401-0.417c-0.579,0-1.006,0.102-1.281,0.304c-0.276,0.203-0.48,0.562-0.612,1.077l-1.203-0.164
		c0.109-0.515,0.289-0.931,0.54-1.247c0.251-0.317,0.613-0.561,1.087-0.732c0.474-0.17,1.023-0.256,1.647-0.256
		c0.62,0,1.123,0.072,1.511,0.219s0.672,0.329,0.854,0.551c0.183,0.221,0.31,0.5,0.383,0.837c0.041,0.21,0.062,0.588,0.062,1.135
		v1.641c0,1.144,0.026,1.867,0.079,2.171c0.052,0.303,0.155,0.594,0.311,0.871h-1.285
		C965.305,418.744,965.223,418.446,965.187,418.104z M965.084,415.356c-0.446,0.183-1.116,0.337-2.01,0.465
		c-0.506,0.073-0.863,0.155-1.073,0.246s-0.371,0.225-0.485,0.399c-0.114,0.176-0.171,0.371-0.171,0.585
		c0,0.328,0.124,0.602,0.373,0.82c0.248,0.219,0.611,0.328,1.09,0.328c0.474,0,0.896-0.104,1.265-0.312
		c0.369-0.207,0.641-0.49,0.813-0.851c0.132-0.278,0.198-0.688,0.198-1.23V415.356z"/>
	<path fill="#958A7E" d="M781.256,433.462l1.271,0.157c-0.2,0.742-0.572,1.319-1.114,1.729s-1.235,0.615-2.078,0.615
		c-1.062,0-1.903-0.327-2.526-0.981c-0.621-0.653-0.933-1.57-0.933-2.751c0-1.222,0.314-2.169,0.943-2.844s1.444-1.012,2.447-1.012
		c0.971,0,1.764,0.331,2.379,0.991s0.923,1.59,0.923,2.789c0,0.072-0.002,0.182-0.007,0.328h-5.414
		c0.046,0.797,0.271,1.408,0.677,1.832s0.911,0.636,1.518,0.636c0.451,0,0.836-0.118,1.155-0.355S781.069,433.981,781.256,433.462z
		 M777.216,431.473h4.054c-0.055-0.611-0.21-1.068-0.465-1.374c-0.392-0.474-0.9-0.711-1.524-0.711c-0.565,0-1.04,0.188-1.425,0.567
		C777.47,430.334,777.257,430.84,777.216,431.473z"/>
	<path fill="#958A7E" d="M788.539,435.8v-10.021h3.78c0.665,0,1.174,0.032,1.524,0.096c0.492,0.082,0.904,0.238,1.237,0.468
		c0.333,0.23,0.601,0.553,0.804,0.968c0.202,0.415,0.304,0.87,0.304,1.367c0,0.853-0.271,1.573-0.813,2.163
		c-0.542,0.591-1.522,0.886-2.939,0.886h-2.57v4.074H788.539z M789.865,430.543h2.591c0.856,0,1.465-0.16,1.825-0.479
		s0.54-0.768,0.54-1.347c0-0.419-0.106-0.778-0.317-1.077c-0.213-0.298-0.491-0.495-0.838-0.591
		c-0.224-0.06-0.636-0.089-1.237-0.089h-2.563V430.543z"/>
	<path fill="#958A7E" d="M797.472,432.17c0-1.344,0.374-2.34,1.121-2.987c0.624-0.538,1.386-0.807,2.283-0.807
		c0.998,0,1.813,0.327,2.447,0.981c0.634,0.653,0.95,1.557,0.95,2.71c0,0.935-0.14,1.669-0.421,2.204
		c-0.279,0.536-0.688,0.951-1.223,1.248c-0.536,0.297-1.12,0.444-1.754,0.444c-1.017,0-1.838-0.325-2.465-0.978
		C797.785,434.334,797.472,433.396,797.472,432.17z M798.736,432.17c0,0.93,0.203,1.626,0.608,2.088
		c0.405,0.463,0.916,0.694,1.531,0.694c0.61,0,1.119-0.232,1.524-0.697s0.608-1.173,0.608-2.126c0-0.898-0.204-1.578-0.611-2.041
		c-0.408-0.462-0.915-0.693-1.521-0.693c-0.615,0-1.126,0.23-1.531,0.69S798.736,431.24,798.736,432.17z M800.192,427.638
		l0.909-1.914h1.613l-1.504,1.914H800.192z"/>
	<path fill="#958A7E" d="M805.434,433.633l1.217-0.191c0.068,0.488,0.259,0.861,0.571,1.121c0.312,0.26,0.748,0.39,1.309,0.39
		c0.565,0,0.984-0.115,1.258-0.345c0.273-0.23,0.41-0.5,0.41-0.811c0-0.277-0.121-0.496-0.362-0.656
		c-0.169-0.109-0.588-0.248-1.258-0.417c-0.902-0.228-1.528-0.425-1.876-0.591c-0.35-0.167-0.613-0.396-0.793-0.691
		c-0.181-0.293-0.271-0.618-0.271-0.974c0-0.323,0.074-0.623,0.222-0.899c0.148-0.275,0.351-0.504,0.605-0.687
		c0.191-0.142,0.452-0.261,0.783-0.358c0.33-0.099,0.685-0.147,1.062-0.147c0.569,0,1.07,0.082,1.5,0.246
		c0.432,0.164,0.749,0.386,0.954,0.667c0.205,0.279,0.347,0.654,0.424,1.124l-1.203,0.164c-0.055-0.374-0.213-0.665-0.476-0.875
		c-0.262-0.21-0.632-0.314-1.11-0.314c-0.565,0-0.969,0.093-1.21,0.28s-0.362,0.406-0.362,0.656c0,0.16,0.05,0.303,0.15,0.431
		c0.101,0.132,0.258,0.241,0.472,0.328c0.123,0.046,0.485,0.15,1.087,0.314c0.87,0.232,1.478,0.423,1.821,0.571
		c0.345,0.147,0.614,0.363,0.811,0.646s0.294,0.634,0.294,1.053c0,0.41-0.12,0.796-0.358,1.159c-0.24,0.361-0.585,0.643-1.036,0.84
		c-0.451,0.199-0.962,0.298-1.531,0.298c-0.943,0-1.662-0.196-2.157-0.588C805.886,434.984,805.57,434.402,805.434,433.633z"/>
	<path fill="#958A7E" d="M812.657,432.792v-1.237h3.78v1.237H812.657z"/>
	<path fill="#958A7E" d="M817.782,436.401l1.196,0.178c0.05,0.369,0.189,0.638,0.417,0.807c0.306,0.228,0.723,0.342,1.251,0.342
		c0.569,0,1.01-0.114,1.319-0.342s0.52-0.547,0.629-0.957c0.063-0.251,0.094-0.776,0.089-1.579c-0.538,0.633-1.208,0.95-2.01,0.95
		c-0.998,0-1.771-0.36-2.317-1.08s-0.82-1.583-0.82-2.591c0-0.693,0.125-1.332,0.376-1.918c0.251-0.585,0.614-1.037,1.091-1.356
		c0.476-0.319,1.035-0.479,1.678-0.479c0.856,0,1.563,0.347,2.119,1.039v-0.875h1.135v6.275c0,1.13-0.115,1.931-0.346,2.403
		c-0.229,0.471-0.594,0.844-1.094,1.117c-0.498,0.273-1.112,0.41-1.842,0.41c-0.866,0-1.565-0.195-2.099-0.584
		C818.021,437.771,817.764,437.186,817.782,436.401z M818.801,432.04c0,0.952,0.189,1.647,0.567,2.085s0.853,0.656,1.422,0.656
		c0.565,0,1.039-0.218,1.422-0.652c0.383-0.436,0.574-1.118,0.574-2.048c0-0.889-0.197-1.559-0.592-2.01
		c-0.394-0.451-0.869-0.677-1.425-0.677c-0.547,0-1.012,0.223-1.395,0.666C818.992,430.506,818.801,431.165,818.801,432.04z"/>
	<path fill="#958A7E" d="M825.99,435.8v-7.26h1.107v1.101c0.282-0.516,0.544-0.854,0.782-1.019c0.24-0.164,0.503-0.246,0.79-0.246
		c0.415,0,0.836,0.132,1.265,0.396l-0.424,1.142c-0.301-0.178-0.602-0.267-0.902-0.267c-0.269,0-0.511,0.081-0.725,0.243
		c-0.214,0.161-0.367,0.386-0.458,0.673c-0.137,0.438-0.205,0.916-0.205,1.436v3.801H825.99z"/>
	<path fill="#958A7E" d="M835.613,434.904c-0.456,0.387-0.895,0.66-1.316,0.82c-0.421,0.16-0.873,0.239-1.356,0.239
		c-0.798,0-1.41-0.194-1.839-0.585c-0.429-0.389-0.643-0.887-0.643-1.493c0-0.355,0.081-0.681,0.242-0.974
		c0.162-0.295,0.374-0.53,0.637-0.708c0.262-0.178,0.557-0.312,0.885-0.403c0.241-0.064,0.606-0.125,1.094-0.185
		c0.993-0.118,1.725-0.26,2.194-0.424c0.005-0.169,0.007-0.276,0.007-0.321c0-0.502-0.116-0.854-0.349-1.06
		c-0.314-0.278-0.781-0.417-1.401-0.417c-0.579,0-1.006,0.102-1.281,0.305c-0.276,0.202-0.48,0.561-0.612,1.076l-1.203-0.164
		c0.109-0.516,0.289-0.931,0.54-1.248c0.251-0.316,0.613-0.561,1.087-0.73c0.474-0.172,1.023-0.257,1.647-0.257
		c0.62,0,1.123,0.073,1.511,0.219s0.672,0.329,0.854,0.55c0.183,0.222,0.31,0.5,0.383,0.838c0.041,0.209,0.062,0.588,0.062,1.135
		v1.641c0,1.145,0.026,1.867,0.079,2.17c0.052,0.304,0.155,0.594,0.311,0.872h-1.285
		C835.731,435.545,835.649,435.246,835.613,434.904z M835.511,432.156c-0.446,0.182-1.116,0.338-2.01,0.465
		c-0.506,0.072-0.863,0.154-1.073,0.246s-0.371,0.225-0.485,0.4c-0.114,0.175-0.171,0.369-0.171,0.584
		c0,0.328,0.124,0.602,0.373,0.82c0.248,0.219,0.611,0.328,1.09,0.328c0.474,0,0.896-0.104,1.265-0.311
		c0.369-0.208,0.641-0.492,0.813-0.852c0.132-0.277,0.198-0.688,0.198-1.23V432.156z"/>
	<path fill="#958A7E" d="M843.582,435.8v-0.916c-0.46,0.72-1.137,1.08-2.03,1.08c-0.579,0-1.11-0.159-1.597-0.479
		c-0.484-0.319-0.861-0.765-1.127-1.337c-0.268-0.571-0.4-1.229-0.4-1.972c0-0.725,0.121-1.382,0.362-1.972
		c0.241-0.591,0.604-1.043,1.087-1.357s1.023-0.472,1.62-0.472c0.438,0,0.827,0.093,1.169,0.276c0.342,0.186,0.62,0.426,0.834,0.722
		v-3.596h1.224V435.8H843.582z M839.692,432.177c0,0.93,0.196,1.624,0.588,2.085s0.854,0.69,1.388,0.69
		c0.538,0,0.994-0.22,1.371-0.659c0.375-0.44,0.563-1.111,0.563-2.014c0-0.994-0.191-1.723-0.574-2.188s-0.854-0.697-1.415-0.697
		c-0.547,0-1.004,0.223-1.371,0.67C839.876,430.512,839.692,431.215,839.692,432.177z"/>
	<path fill="#958A7E" d="M851.626,435.8v-1.066c-0.565,0.82-1.333,1.23-2.304,1.23c-0.429,0-0.828-0.082-1.199-0.246
		c-0.372-0.164-0.647-0.37-0.828-0.618c-0.18-0.249-0.306-0.553-0.379-0.913c-0.05-0.241-0.075-0.624-0.075-1.148v-4.498h1.23v4.026
		c0,0.643,0.025,1.076,0.075,1.299c0.077,0.324,0.241,0.578,0.492,0.762c0.251,0.186,0.561,0.277,0.93,0.277
		s0.716-0.095,1.039-0.283c0.323-0.189,0.553-0.447,0.688-0.773c0.134-0.325,0.201-0.799,0.201-1.418v-3.89h1.23v7.26H851.626z"/>
	<path fill="#958A7E" d="M859.602,434.904c-0.456,0.387-0.895,0.66-1.316,0.82c-0.421,0.16-0.873,0.239-1.356,0.239
		c-0.798,0-1.41-0.194-1.839-0.585c-0.429-0.389-0.643-0.887-0.643-1.493c0-0.355,0.081-0.681,0.242-0.974
		c0.162-0.295,0.374-0.53,0.637-0.708c0.262-0.178,0.557-0.312,0.885-0.403c0.241-0.064,0.606-0.125,1.094-0.185
		c0.993-0.118,1.725-0.26,2.194-0.424c0.005-0.169,0.007-0.276,0.007-0.321c0-0.502-0.116-0.854-0.349-1.06
		c-0.314-0.278-0.781-0.417-1.401-0.417c-0.579,0-1.006,0.102-1.281,0.305c-0.276,0.202-0.48,0.561-0.612,1.076l-1.203-0.164
		c0.109-0.516,0.289-0.931,0.54-1.248c0.251-0.316,0.613-0.561,1.087-0.73c0.474-0.172,1.023-0.257,1.647-0.257
		c0.62,0,1.123,0.073,1.511,0.219s0.672,0.329,0.854,0.55c0.183,0.222,0.31,0.5,0.383,0.838c0.041,0.209,0.062,0.588,0.062,1.135
		v1.641c0,1.145,0.026,1.867,0.079,2.17c0.052,0.304,0.155,0.594,0.311,0.872h-1.285
		C859.72,435.545,859.638,435.246,859.602,434.904z M859.499,432.156c-0.446,0.182-1.116,0.338-2.01,0.465
		c-0.506,0.072-0.863,0.154-1.073,0.246s-0.371,0.225-0.485,0.4c-0.114,0.175-0.171,0.369-0.171,0.584
		c0,0.328,0.124,0.602,0.373,0.82c0.248,0.219,0.611,0.328,1.09,0.328c0.474,0,0.896-0.104,1.265-0.311
		c0.369-0.208,0.641-0.492,0.813-0.852c0.132-0.277,0.198-0.688,0.198-1.23V432.156z"/>
	<path fill="#958A7E" d="M867.598,433.141l1.21,0.157c-0.132,0.834-0.471,1.487-1.015,1.958c-0.545,0.473-1.214,0.708-2.007,0.708
		c-0.993,0-1.792-0.325-2.396-0.974c-0.604-0.65-0.906-1.58-0.906-2.793c0-0.783,0.13-1.47,0.39-2.058s0.655-1.028,1.187-1.323
		c0.53-0.293,1.108-0.44,1.732-0.44c0.788,0,1.434,0.199,1.935,0.599c0.501,0.398,0.822,0.965,0.964,1.698l-1.196,0.185
		c-0.114-0.488-0.315-0.854-0.604-1.101c-0.29-0.246-0.64-0.369-1.05-0.369c-0.62,0-1.123,0.222-1.511,0.667
		c-0.388,0.443-0.581,1.146-0.581,2.108c0,0.976,0.187,1.685,0.561,2.126s0.861,0.663,1.463,0.663c0.483,0,0.887-0.147,1.21-0.444
		S867.511,433.756,867.598,433.141z M864.747,436.716l0.355-1.21h0.916l-0.226,0.731c0.388,0.046,0.679,0.165,0.875,0.358
		c0.196,0.194,0.294,0.41,0.294,0.646c0,0.342-0.164,0.644-0.492,0.906c-0.328,0.262-0.822,0.393-1.483,0.393
		c-0.374,0-0.702-0.027-0.984-0.082l0.075-0.8c0.292,0.019,0.506,0.027,0.643,0.027c0.429,0,0.729-0.06,0.902-0.178
		c0.132-0.091,0.198-0.202,0.198-0.335c0-0.082-0.026-0.154-0.078-0.219c-0.053-0.064-0.149-0.119-0.291-0.164
		S865.075,436.721,864.747,436.716z"/>
	<path fill="#958A7E" d="M874.809,434.904c-0.456,0.387-0.895,0.66-1.316,0.82c-0.421,0.16-0.873,0.239-1.356,0.239
		c-0.798,0-1.41-0.194-1.839-0.585c-0.429-0.389-0.643-0.887-0.643-1.493c0-0.355,0.081-0.681,0.242-0.974
		c0.162-0.295,0.374-0.53,0.637-0.708c0.262-0.178,0.557-0.312,0.885-0.403c0.241-0.064,0.606-0.125,1.094-0.185
		c0.993-0.118,1.725-0.26,2.194-0.424c0.005-0.169,0.007-0.276,0.007-0.321c0-0.502-0.116-0.854-0.349-1.06
		c-0.314-0.278-0.781-0.417-1.401-0.417c-0.579,0-1.006,0.102-1.281,0.305c-0.276,0.202-0.48,0.561-0.612,1.076l-1.203-0.164
		c0.109-0.516,0.289-0.931,0.54-1.248c0.251-0.316,0.613-0.561,1.087-0.73c0.474-0.172,1.023-0.257,1.647-0.257
		c0.62,0,1.123,0.073,1.511,0.219s0.672,0.329,0.854,0.55c0.183,0.222,0.31,0.5,0.383,0.838c0.041,0.209,0.062,0.588,0.062,1.135
		v1.641c0,1.145,0.026,1.867,0.079,2.17c0.052,0.304,0.155,0.594,0.311,0.872h-1.285
		C874.927,435.545,874.845,435.246,874.809,434.904z M870.714,427.467c-0.005-0.475,0.125-0.852,0.39-1.135
		c0.26-0.283,0.593-0.424,0.998-0.424c0.282,0,0.668,0.123,1.155,0.369c0.269,0.137,0.483,0.205,0.643,0.205
		c0.146,0,0.258-0.04,0.335-0.119c0.077-0.08,0.132-0.238,0.164-0.476h0.889c-0.014,0.52-0.145,0.909-0.393,1.169
		c-0.249,0.26-0.564,0.39-0.947,0.39c-0.287,0-0.665-0.128-1.135-0.383c-0.306-0.164-0.528-0.246-0.67-0.246
		c-0.155,0-0.28,0.055-0.376,0.164c-0.101,0.109-0.148,0.271-0.144,0.485H870.714z M874.706,432.156
		c-0.446,0.182-1.116,0.338-2.01,0.465c-0.506,0.072-0.863,0.154-1.073,0.246s-0.371,0.225-0.485,0.4
		c-0.114,0.175-0.171,0.369-0.171,0.584c0,0.328,0.124,0.602,0.373,0.82c0.248,0.219,0.611,0.328,1.09,0.328
		c0.474,0,0.896-0.104,1.265-0.311c0.369-0.208,0.641-0.492,0.813-0.852c0.132-0.277,0.198-0.688,0.198-1.23V432.156z"/>
	<path fill="#958A7E" d="M877.609,432.17c0-1.344,0.374-2.34,1.121-2.987c0.624-0.538,1.386-0.807,2.283-0.807
		c0.998,0,1.813,0.327,2.447,0.981c0.634,0.653,0.95,1.557,0.95,2.71c0,0.935-0.14,1.669-0.421,2.204
		c-0.279,0.536-0.688,0.951-1.223,1.248c-0.536,0.297-1.12,0.444-1.754,0.444c-1.017,0-1.838-0.325-2.465-0.978
		C877.923,434.334,877.609,433.396,877.609,432.17z M878.874,432.17c0,0.93,0.203,1.626,0.608,2.088
		c0.405,0.463,0.916,0.694,1.531,0.694c0.61,0,1.119-0.232,1.524-0.697s0.608-1.173,0.608-2.126c0-0.898-0.204-1.578-0.611-2.041
		c-0.408-0.462-0.915-0.693-1.521-0.693c-0.615,0-1.126,0.23-1.531,0.69S878.874,431.24,878.874,432.17z"/>
	<path fill="#958A7E" d="M895.133,433.462l1.271,0.157c-0.2,0.742-0.572,1.319-1.114,1.729s-1.235,0.615-2.078,0.615
		c-1.062,0-1.903-0.327-2.526-0.981c-0.621-0.653-0.933-1.57-0.933-2.751c0-1.222,0.314-2.169,0.943-2.844s1.444-1.012,2.447-1.012
		c0.971,0,1.764,0.331,2.379,0.991s0.923,1.59,0.923,2.789c0,0.072-0.002,0.182-0.007,0.328h-5.414
		c0.046,0.797,0.271,1.408,0.677,1.832s0.911,0.636,1.518,0.636c0.451,0,0.836-0.118,1.155-0.355S894.946,433.981,895.133,433.462z
		 M891.093,431.473h4.054c-0.055-0.611-0.21-1.068-0.465-1.374c-0.392-0.474-0.9-0.711-1.524-0.711c-0.565,0-1.04,0.188-1.425,0.567
		C891.347,430.334,891.134,430.84,891.093,431.473z"/>
	<path fill="#958A7E" d="M898.159,435.8v-7.26h1.101v1.019c0.228-0.355,0.531-0.642,0.909-0.857
		c0.378-0.217,0.809-0.325,1.292-0.325c0.538,0,0.979,0.112,1.322,0.335c0.345,0.223,0.587,0.535,0.729,0.937
		c0.574-0.848,1.321-1.271,2.242-1.271c0.72,0,1.273,0.199,1.661,0.599c0.388,0.398,0.581,1.012,0.581,1.842v4.983h-1.224v-4.573
		c0-0.492-0.04-0.847-0.12-1.062c-0.079-0.217-0.224-0.391-0.434-0.523s-0.456-0.198-0.738-0.198c-0.511,0-0.935,0.17-1.271,0.509
		c-0.337,0.34-0.506,0.883-0.506,1.631v4.218h-1.23v-4.717c0-0.547-0.101-0.957-0.301-1.23s-0.528-0.41-0.984-0.41
		c-0.347,0-0.666,0.091-0.961,0.273c-0.293,0.183-0.507,0.448-0.639,0.8s-0.198,0.857-0.198,1.518v3.767H898.159z"/>
	<path fill="#958A7E" d="M914.288,435.8v-10.021h3.452c0.779,0,1.374,0.048,1.784,0.144c0.574,0.133,1.064,0.371,1.47,0.718
		c0.528,0.446,0.924,1.018,1.187,1.712c0.262,0.695,0.393,1.49,0.393,2.383c0,0.762-0.089,1.436-0.267,2.023
		s-0.405,1.074-0.684,1.459c-0.278,0.386-0.582,0.688-0.913,0.91c-0.33,0.221-0.729,0.389-1.195,0.502
		c-0.468,0.113-1.004,0.171-1.61,0.171H914.288z M915.614,434.617h2.14c0.661,0,1.179-0.062,1.556-0.185
		c0.375-0.123,0.675-0.296,0.898-0.52c0.314-0.314,0.56-0.737,0.734-1.269c0.176-0.53,0.264-1.174,0.264-1.931
		c0-1.048-0.172-1.854-0.516-2.417c-0.345-0.562-0.763-0.939-1.255-1.131c-0.355-0.137-0.928-0.205-1.716-0.205h-2.105V434.617z"/>
	<path fill="#958A7E" d="M924.458,427.193v-1.415h1.23v1.415H924.458z M924.458,435.8v-7.26h1.23v7.26H924.458z"/>
	<path fill="#958A7E" d="M927.758,435.8v-7.26h1.107v1.101c0.282-0.516,0.544-0.854,0.782-1.019c0.24-0.164,0.503-0.246,0.79-0.246
		c0.415,0,0.836,0.132,1.265,0.396l-0.424,1.142c-0.301-0.178-0.602-0.267-0.902-0.267c-0.269,0-0.511,0.081-0.725,0.243
		c-0.214,0.161-0.367,0.386-0.458,0.673c-0.137,0.438-0.205,0.916-0.205,1.436v3.801H927.758z"/>
	<path fill="#958A7E" d="M937.613,433.462l1.271,0.157c-0.2,0.742-0.572,1.319-1.114,1.729s-1.235,0.615-2.078,0.615
		c-1.062,0-1.903-0.327-2.526-0.981c-0.621-0.653-0.933-1.57-0.933-2.751c0-1.222,0.314-2.169,0.943-2.844s1.444-1.012,2.447-1.012
		c0.971,0,1.764,0.331,2.379,0.991s0.923,1.59,0.923,2.789c0,0.072-0.002,0.182-0.007,0.328h-5.414
		c0.046,0.797,0.271,1.408,0.677,1.832s0.911,0.636,1.518,0.636c0.451,0,0.836-0.118,1.155-0.355S937.427,433.981,937.613,433.462z
		 M933.573,431.473h4.054c-0.055-0.611-0.21-1.068-0.465-1.374c-0.392-0.474-0.9-0.711-1.524-0.711c-0.565,0-1.04,0.188-1.425,0.567
		C933.827,430.334,933.614,430.84,933.573,431.473z"/>
	<path fill="#958A7E" d="M940.646,427.193v-1.415h1.23v1.415H940.646z M940.646,435.8v-7.26h1.23v7.26H940.646z"/>
	<path fill="#958A7E" d="M946.646,434.699l0.178,1.087c-0.347,0.073-0.656,0.109-0.93,0.109c-0.446,0-0.793-0.071-1.039-0.212
		s-0.419-0.327-0.52-0.557c-0.101-0.23-0.15-0.715-0.15-1.453v-4.177h-0.902v-0.957h0.902v-1.798l1.224-0.738v2.536h1.237v0.957
		h-1.237v4.245c0,0.352,0.021,0.576,0.065,0.677c0.043,0.101,0.113,0.181,0.211,0.239c0.099,0.059,0.238,0.089,0.421,0.089
		C946.243,434.747,946.423,434.73,946.646,434.699z"/>
	<path fill="#958A7E" d="M947.602,432.17c0-1.344,0.374-2.34,1.121-2.987c0.624-0.538,1.386-0.807,2.283-0.807
		c0.998,0,1.813,0.327,2.447,0.981c0.634,0.653,0.95,1.557,0.95,2.71c0,0.935-0.14,1.669-0.421,2.204
		c-0.279,0.536-0.688,0.951-1.223,1.248c-0.536,0.297-1.12,0.444-1.754,0.444c-1.017,0-1.838-0.325-2.465-0.978
		C947.915,434.334,947.602,433.396,947.602,432.17z M948.866,432.17c0,0.93,0.203,1.626,0.608,2.088
		c0.405,0.463,0.916,0.694,1.531,0.694c0.61,0,1.119-0.232,1.524-0.697s0.608-1.173,0.608-2.126c0-0.898-0.204-1.578-0.611-2.041
		c-0.408-0.462-0.915-0.693-1.521-0.693c-0.615,0-1.126,0.23-1.531,0.69S948.866,431.24,948.866,432.17z"/>
</g>
</svg>
