<?xml version="1.0" encoding="utf-8"?>
<!-- Generator: Adobe Illustrator 16.0.4, SVG Export Plug-In . SVG Version: 6.00 Build 0)  -->
<!DOCTYPE svg PUBLIC "-//W3C//DTD SVG 1.1//EN" "http://www.w3.org/Graphics/SVG/1.1/DTD/svg11.dtd">
<svg version="1.1" id="Layer_1" xmlns="http://www.w3.org/2000/svg" xmlns:xlink="http://www.w3.org/1999/xlink" x="0px" y="0px"
	 width="300px" height="171px" viewBox="350 414.5 300 171" enable-background="new 350 414.5 300 171" xml:space="preserve">
<g>
	<g>
		<path opacity="0.3" fill="#958A7E" enable-background="new    " d="M449.686,524.682c0.037-0.222-12.061-0.271-16.41,0.015
			c-0.83,0.055-1.689,0.057-2.47,0.471c0.249,0.152,0.492,0.24,0.743,0.279c1.583,0.245,3.189,0.286,4.779,0.312
			c4.459,0.08,8.92,0.027,13.38,0.027c0.124-0.038,0.233-0.096,0.295-0.218C449.613,525.374,449.74,524.997,449.686,524.682z"/>
		<path opacity="0.3" fill="#958A7E" enable-background="new    " d="M414.303,524.544c-1.907-0.154-8.45-0.554-9.815-0.494
			c-0.188,0.009-11.7,0.367-13.398,0.498c-0.348,0.028-0.734,0.061-0.915,0.461c0.238,0.402,0.625,0.403,0.978,0.452
			c2.866,0.389,5.758,0.314,8.636,0.46c3.593,0.183,13.344-0.35,14.62-0.483c0.313-0.033,0.697-0.053,0.815-0.517
			C414.972,524.648,414.643,524.572,414.303,524.544z"/>
		<path fill="#958A7E" d="M450.819,509.066c-0.021-0.773-0.227-1.525-0.295-2.288c-0.134-1.444-0.452-2.832-0.964-4.184
			c-0.158-1.029-2.339-5.441-2.439-5.623c-1.12-1.995-5.912-8.58-6.851-9.813c0,0,0.062-0.076,0.066-0.14
			c0.007-0.08-0.102-0.239-0.113-0.253c0.375-0.611,3.13-3.305,4.204-4.455c0.178-0.19,0.515-0.325,0.397-0.696
			c-0.131-0.158-0.242-0.345-0.549-0.353c-1.253,1.249-4.589,4.417-5.118,4.423c-0.118-0.07-0.236-0.134-0.345,0.016
			c-0.885-0.257-4.197-3.396-5.334-4.225c-1.475-1.079-6.377-4.109-6.946-4.295c-2.58-1.337-5.281-2.3-8.173-2.694
			c-3.992-0.544-7.994-0.538-12.002-0.255c-1.936,0.137-3.859,0.382-5.779,0.662c-0.277,0.041-0.693-0.049-0.872,0.449
			c0.72-0.033,1.314,0.079,1.895,0.466c2.181,1.449,4.146,3.128,5.8,5.16c1.809,2.222,3.018,4.719,3.496,7.557
			c0.111,0.664,0.12,1.263-0.68,1.521c-0.111,0.035-0.098,0.167-0.019,0.324c0.588,0.008,1.151-0.7,1.799-0.175
			c0.553,0.35,1.119,0.681,1.657,1.053c3.131,2.166,6.065,4.573,8.814,7.206c0.866,0.829,1.839,1.56,2.519,2.574
			c-1.073,1.095-16.229,16.175-16.611,16.322c-0.059,0.005-0.115,0.021-0.168,0.056c-0.334,0.175-0.554,0.478-0.812,0.735
			c-1.12,1.653-4.012,4.162-4.312,4.365c-1.803,1.127-3.007,1.273-4.198,0.627c-1.269-0.688-1.871-1.856-1.788-3.267
			c0.083-1.388,0.788-2.414,2.195-2.854c0.503-0.156,0.745-0.639,0.601-1.102c-0.165-0.53-0.517-0.684-1.107-0.483
			c-2.901,0.979-4.266,4.553-2.783,7.244c0.282,0.513,1.024,1.377,1.024,1.377s1.712,1.271,2.952,1.307
			c2.723,0.08,4.361-1.814,4.53-2.012c1.936-1.968,3.431-3.361,5.084-5.502c0.546-0.708,1.271-1.316,1.922-1.964
			c0.055-0.053,0.131-0.082,0.199-0.123c0.207,0.03,0.312,0.312,0.576,0.212c0.203-0.207,0.548-0.374,0.467-0.742
			c-0.111-0.503,0.174-0.778,0.479-1.082c2.397-2.392,10.624-10.647,12.343-12.38c0.272-0.004,0.42,0.199,0.577,0.369
			c3.344,3.621,6.477,7.391,8.435,11.986c0.051,0.423-0.506,0.729-0.268,1.237c0.537-0.153,0.46-1.056,1.206-0.86
			c0.505,0.13,1.04,0.146,1.552,0.257c1.681,0.366,3.239,1.052,4.744,1.869c0.107,0.073,0.213,0.15,0.322,0.22
			c2.984,1.883,5.449,4.294,7.394,7.24c0.206,0.27-0.105,0.477-0.088,0.721c-0.075,0.442-0.104,0.854,0.553,0.769
			c-0.104-0.469,0.193-0.858,0.258-1.295c0.325-2.208,0.56-4.426,0.694-6.654C451.129,514.767,451.121,511.914,450.819,509.066z"/>
	</g>
	<g>
		<path fill="#958A7E" d="M473.054,499.678c-0.09-0.682-0.319-1.298-0.689-1.846c-0.539-0.738-1.374-1.107-2.508-1.107
			c-1.614,0-2.72,0.8-3.313,2.399c-0.314,0.848-0.471,1.977-0.471,3.382c0,1.339,0.156,2.417,0.471,3.231
			c0.572,1.521,1.649,2.283,3.229,2.283c1.122,0,1.919-0.303,2.39-0.906c0.471-0.604,0.757-1.387,0.857-2.351h4.885
			c-0.112,1.455-0.64,2.831-1.579,4.13c-1.501,2.092-3.726,3.139-6.67,3.139c-2.946,0-5.113-0.873-6.502-2.619
			c-1.39-1.745-2.083-4.009-2.083-6.79c0-3.138,0.767-5.58,2.301-7.326c1.535-1.746,3.65-2.619,6.351-2.619
			c2.296,0,4.175,0.516,5.638,1.544c1.461,1.029,2.326,2.849,2.596,5.455L473.054,499.678L473.054,499.678z"/>
		<path fill="#958A7E" d="M494.766,509.172c-1.544,1.906-3.888,2.859-7.032,2.859c-3.146,0-5.488-0.953-7.033-2.859
			c-1.544-1.905-2.316-4.201-2.316-6.884c0-2.639,0.772-4.925,2.316-6.859c1.544-1.934,3.888-2.9,7.033-2.9
			c3.145,0,5.488,0.967,7.032,2.9c1.544,1.935,2.316,4.221,2.316,6.859C497.082,504.971,496.31,507.267,494.766,509.172z
			 M490.938,506.528c0.75-0.995,1.125-2.408,1.125-4.24s-0.375-3.243-1.125-4.231c-0.75-0.989-1.823-1.483-3.223-1.483
			c-1.398,0-2.476,0.495-3.23,1.483c-0.756,0.987-1.134,2.398-1.134,4.231s0.377,3.246,1.134,4.24
			c0.756,0.994,1.832,1.491,3.23,1.491C489.115,508.021,490.188,507.523,490.938,506.528z"/>
		<path fill="#958A7E" d="M514.045,509.172c-1.544,1.906-3.888,2.859-7.033,2.859c-3.145,0-5.487-0.953-7.033-2.859
			c-1.544-1.905-2.315-4.201-2.315-6.884c0-2.639,0.771-4.925,2.315-6.859c1.544-1.934,3.889-2.9,7.033-2.9
			c3.146,0,5.489,0.967,7.033,2.9c1.544,1.935,2.316,4.221,2.316,6.859C516.361,504.971,515.589,507.267,514.045,509.172z
			 M510.218,506.528c0.75-0.995,1.125-2.408,1.125-4.24s-0.375-3.243-1.125-4.231c-0.75-0.989-1.824-1.483-3.223-1.483
			c-1.399,0-2.477,0.495-3.231,1.483c-0.755,0.987-1.133,2.398-1.133,4.231s0.377,3.246,1.133,4.24s1.832,1.491,3.231,1.491
			C508.394,508.021,509.468,507.523,510.218,506.528z"/>
		<path fill="#958A7E" d="M522.95,511.41h-4.784v-24.74h4.784V511.41z"/>
		<path fill="#958A7E" d="M537.819,493.486c1.275,0.572,2.33,1.474,3.161,2.707c0.749,1.087,1.235,2.348,1.458,3.782
			c0.13,0.84,0.182,2.051,0.158,3.631h-13.325c0.074,1.835,0.713,3.122,1.913,3.859c0.731,0.459,1.61,0.688,2.639,0.688
			c1.089,0,1.975-0.279,2.655-0.839c0.371-0.303,0.7-0.723,0.984-1.26h4.884c-0.129,1.086-0.72,2.188-1.772,3.307
			c-1.64,1.779-3.934,2.669-6.884,2.669c-2.435,0-4.582-0.75-6.443-2.251s-2.792-3.942-2.792-7.325c0-3.169,0.84-5.599,2.52-7.291
			c1.681-1.691,3.861-2.537,6.542-2.537C535.108,492.628,536.543,492.915,537.819,493.486z M530.663,497.618
			c-0.676,0.697-1.102,1.641-1.274,2.832h8.241c-0.087-1.271-0.511-2.233-1.273-2.891c-0.764-0.657-1.709-0.986-2.838-0.986
			C532.291,496.573,531.339,496.921,530.663,497.618z"/>
		<path fill="#958A7E" d="M558.049,494.164c1.198,0.99,1.797,2.633,1.797,4.926v12.32h-4.9v-11.128c0-0.962-0.128-1.701-0.384-2.216
			c-0.467-0.94-1.354-1.41-2.666-1.41c-1.61,0-2.716,0.688-3.314,2.063c-0.312,0.729-0.467,1.656-0.467,2.786v9.903h-4.783v-18.26
			h4.632v2.668c0.613-0.94,1.192-1.617,1.738-2.031c0.979-0.739,2.223-1.108,3.727-1.108
			C555.311,492.679,556.851,493.174,558.049,494.164z"/>
		<path fill="#958A7E" d="M572.276,493.409c0.861,0.487,1.561,1.161,2.098,2.023v-8.729h4.851v24.707h-4.648v-2.535
			c-0.684,1.086-1.46,1.875-2.333,2.367s-1.958,0.739-3.256,0.739c-2.139,0-3.937-0.865-5.396-2.593
			c-1.46-1.729-2.189-3.947-2.189-6.655c0-3.122,0.719-5.578,2.156-7.368c1.438-1.79,3.359-2.687,5.766-2.687
			C570.43,492.679,571.414,492.922,572.276,493.409z M573.451,506.442c0.705-1.007,1.058-2.312,1.058-3.911
			c0-2.238-0.564-3.838-1.695-4.8c-0.693-0.582-1.5-0.873-2.417-0.873c-1.398,0-2.425,0.528-3.079,1.586
			c-0.655,1.057-0.982,2.369-0.982,3.936c0,1.689,0.333,3.041,0.999,4.054s1.675,1.519,3.029,1.519
			C571.717,507.952,572.746,507.449,573.451,506.442z"/>
		<path fill="#958A7E" d="M589.099,500.282c0.892-0.112,1.527-0.252,1.91-0.42c0.688-0.291,1.033-0.744,1.033-1.359
			c0-0.75-0.266-1.267-0.793-1.553c-0.527-0.285-1.301-0.428-2.322-0.428c-1.145,0-1.955,0.279-2.432,0.839
			c-0.341,0.414-0.568,0.973-0.682,1.678h-4.615c0.101-1.6,0.551-2.915,1.349-3.944c1.271-1.61,3.45-2.417,6.54-2.417
			c2.012,0,3.799,0.397,5.361,1.192c1.562,0.795,2.342,2.294,2.342,4.498v8.392c0,0.582,0.012,1.287,0.035,2.115
			c0.033,0.627,0.127,1.052,0.285,1.276c0.155,0.224,0.391,0.409,0.705,0.554v0.705h-5.203c-0.146-0.369-0.246-0.716-0.304-1.041
			c-0.057-0.325-0.102-0.694-0.135-1.108c-0.664,0.717-1.43,1.326-2.295,1.83c-1.035,0.593-2.207,0.891-3.512,0.891
			c-1.666,0-3.042-0.474-4.127-1.418c-1.086-0.945-1.629-2.285-1.629-4.021c0-2.249,0.874-3.877,2.62-4.884
			c0.958-0.548,2.368-0.939,4.228-1.175L589.099,500.282z M592.024,502.516c-0.308,0.189-0.615,0.344-0.929,0.461
			c-0.312,0.116-0.74,0.227-1.285,0.326l-1.088,0.202c-1.021,0.18-1.754,0.397-2.199,0.654c-0.753,0.437-1.13,1.114-1.13,2.031
			c0,0.816,0.23,1.406,0.69,1.771c0.459,0.364,1.02,0.545,1.678,0.545c1.047,0,2.008-0.302,2.89-0.905
			c0.881-0.604,1.338-1.706,1.372-3.308L592.024,502.516L592.024,502.516z"/>
		<path fill="#958A7E" d="M609.415,492.688c0.062,0.006,0.198,0.014,0.411,0.024v4.901c-0.304-0.033-0.571-0.056-0.807-0.067
			c-0.234-0.011-0.426-0.017-0.57-0.017c-1.925,0-3.218,0.627-3.877,1.88c-0.369,0.705-0.555,1.791-0.555,3.256v8.745h-4.816
			v-18.295h4.564v3.188c0.738-1.219,1.382-2.053,1.932-2.501c0.895-0.75,2.059-1.125,3.49-1.125
			C609.277,492.679,609.354,492.683,609.415,492.688z"/>
	</g>
</g>
</svg>
