<?xml version="1.0" encoding="utf-8"?>
<!-- Generator: Adobe Illustrator 16.0.0, SVG Export Plug-In . SVG Version: 6.00 Build 0)  -->
<!DOCTYPE svg PUBLIC "-//W3C//DTD SVG 1.0//EN" "http://www.w3.org/TR/2001/REC-SVG-20010904/DTD/svg10.dtd">
<svg version="1.0" id="Layer_1" xmlns="http://www.w3.org/2000/svg" xmlns:xlink="http://www.w3.org/1999/xlink" x="0px" y="0px"
	 width="1000px" height="1000px" viewBox="0 0 1000 1000" enable-background="new 0 0 1000 1000" xml:space="preserve">
<g>
	<path opacity="0.3" fill-rule="evenodd" clip-rule="evenodd" fill="#958A7E" d="M361.308,287.512
		c0.037-0.221-12.061-0.271-16.411,0.015c-0.83,0.055-1.689,0.057-2.469,0.471c0.249,0.152,0.492,0.24,0.743,0.279
		c1.583,0.245,3.189,0.286,4.779,0.313c4.459,0.08,8.92,0.027,13.38,0.027c0.124-0.038,0.233-0.096,0.295-0.218
		C361.235,288.205,361.362,287.828,361.308,287.512z"/>
	<path opacity="0.3" fill-rule="evenodd" clip-rule="evenodd" fill="#958A7E" d="M325.925,287.375
		c-1.907-0.155-8.45-0.554-9.816-0.494c-0.188,0.008-11.7,0.367-13.398,0.498c-0.348,0.028-0.734,0.06-0.915,0.461
		c0.238,0.402,0.625,0.403,0.978,0.452c2.866,0.388,5.758,0.314,8.636,0.46c3.593,0.182,13.344-0.35,14.62-0.484
		c0.314-0.033,0.698-0.052,0.816-0.516C326.594,287.479,326.265,287.403,325.925,287.375z"/>
	<path fill-rule="evenodd" clip-rule="evenodd" fill="#958A7E" d="M362.441,271.897c-0.021-0.773-0.226-1.525-0.295-2.288
		c-0.133-1.444-0.452-2.832-0.963-4.183c-0.159-1.03-2.339-5.442-2.44-5.623c-1.12-1.996-5.912-8.581-6.85-9.814
		c0,0,0.062-0.076,0.066-0.14c0.007-0.08-0.102-0.239-0.113-0.253c0.375-0.611,3.13-3.304,4.204-4.455
		c0.178-0.19,0.514-0.325,0.397-0.696c-0.131-0.158-0.242-0.345-0.549-0.352c-1.252,1.249-4.588,4.417-5.118,4.422
		c-0.118-0.07-0.236-0.133-0.344,0.016c-0.885-0.257-4.198-3.395-5.334-4.225c-1.475-1.079-6.377-4.109-6.947-4.294
		c-2.58-1.337-5.281-2.3-8.173-2.695c-3.992-0.544-7.994-0.538-12.001-0.255c-1.936,0.137-3.86,0.382-5.78,0.662
		c-0.277,0.041-0.693-0.048-0.872,0.45c0.72-0.034,1.315,0.079,1.895,0.465c2.18,1.45,4.146,3.128,5.8,5.161
		c1.808,2.221,3.017,4.718,3.496,7.556c0.111,0.664,0.12,1.263-0.68,1.521c-0.111,0.035-0.098,0.167-0.019,0.324
		c0.588,0.008,1.152-0.7,1.799-0.175c0.553,0.35,1.119,0.681,1.657,1.053c3.131,2.166,6.066,4.573,8.815,7.206
		c0.866,0.829,1.839,1.56,2.518,2.574c-1.073,1.095-16.229,16.175-16.611,16.322c-0.059,0.005-0.115,0.021-0.168,0.056
		c-0.334,0.175-0.554,0.478-0.812,0.735c-1.121,1.654-4.012,4.163-4.313,4.366c-1.803,1.127-3.007,1.273-4.198,0.627
		c-1.269-0.689-1.871-1.857-1.788-3.267c0.083-1.388,0.788-2.414,2.195-2.853c0.503-0.157,0.745-0.639,0.601-1.102
		c-0.165-0.53-0.517-0.684-1.108-0.483c-2.901,0.978-4.265,4.552-2.783,7.244c0.282,0.512,1.024,1.377,1.024,1.377
		s1.712,1.27,2.953,1.306c2.722,0.08,4.361-1.814,4.53-2.011c1.935-1.968,3.431-3.362,5.084-5.502
		c0.546-0.708,1.27-1.317,1.922-1.964c0.054-0.053,0.131-0.082,0.199-0.123c0.207,0.03,0.312,0.312,0.576,0.212
		c0.203-0.207,0.548-0.374,0.467-0.743c-0.111-0.502,0.174-0.778,0.479-1.082c2.398-2.391,10.624-10.647,12.343-12.379
		c0.273-0.004,0.42,0.199,0.577,0.369c3.344,3.621,6.477,7.39,8.435,11.986c0.051,0.423-0.506,0.729-0.268,1.237
		c0.537-0.153,0.46-1.055,1.206-0.86c0.505,0.13,1.04,0.146,1.552,0.257c1.681,0.366,3.239,1.052,4.744,1.869
		c0.108,0.073,0.213,0.15,0.323,0.22c2.984,1.882,5.449,4.294,7.393,7.24c0.206,0.269-0.105,0.476-0.088,0.721
		c-0.075,0.442-0.104,0.853,0.553,0.768c-0.105-0.469,0.193-0.858,0.258-1.295c0.325-2.208,0.559-4.426,0.694-6.654
		C362.751,277.597,362.743,274.745,362.441,271.897z"/>
</g>
<g>
	<path fill="#958A7E" d="M384.676,262.509c-0.09-0.682-0.32-1.298-0.69-1.846c-0.539-0.738-1.374-1.108-2.507-1.108
		c-1.615,0-2.72,0.8-3.314,2.4c-0.314,0.848-0.471,1.976-0.471,3.382c0,1.339,0.157,2.417,0.471,3.231
		c0.572,1.522,1.649,2.283,3.23,2.283c1.122,0,1.918-0.302,2.389-0.906c0.471-0.604,0.757-1.387,0.858-2.35h4.884
		c-0.112,1.455-0.639,2.831-1.579,4.129c-1.501,2.092-3.725,3.139-6.67,3.139c-2.946,0-5.113-0.873-6.502-2.619
		c-1.389-1.745-2.083-4.009-2.083-6.79c0-3.138,0.767-5.58,2.301-7.326c1.535-1.746,3.651-2.619,6.351-2.619
		c2.296,0,4.175,0.515,5.637,1.544c1.461,1.029,2.327,2.848,2.596,5.455H384.676z"/>
	<path fill="#958A7E" d="M406.388,272.003c-1.544,1.906-3.888,2.859-7.033,2.859s-5.488-0.953-7.033-2.859
		c-1.544-1.906-2.316-4.201-2.316-6.884c0-2.639,0.772-4.925,2.316-6.859c1.544-1.934,3.888-2.901,7.033-2.901
		s5.489,0.967,7.033,2.901c1.544,1.934,2.316,4.22,2.316,6.859C408.704,267.802,407.932,270.097,406.388,272.003z M402.561,269.359
		c0.75-0.995,1.125-2.408,1.125-4.24s-0.375-3.243-1.125-4.232c-0.75-0.989-1.824-1.483-3.223-1.483
		c-1.399,0-2.476,0.495-3.231,1.483s-1.133,2.399-1.133,4.232s0.377,3.246,1.133,4.24s1.832,1.491,3.231,1.491
		C400.737,270.851,401.811,270.354,402.561,269.359z"/>
	<path fill="#958A7E" d="M425.667,272.003c-1.544,1.906-3.888,2.859-7.033,2.859s-5.488-0.953-7.033-2.859
		c-1.544-1.906-2.316-4.201-2.316-6.884c0-2.639,0.772-4.925,2.316-6.859c1.544-1.934,3.888-2.901,7.033-2.901
		s5.489,0.967,7.033,2.901c1.544,1.934,2.316,4.22,2.316,6.859C427.983,267.802,427.211,270.097,425.667,272.003z M421.84,269.359
		c0.75-0.995,1.125-2.408,1.125-4.24s-0.375-3.243-1.125-4.232c-0.75-0.989-1.824-1.483-3.223-1.483
		c-1.399,0-2.476,0.495-3.231,1.483s-1.133,2.399-1.133,4.232s0.377,3.246,1.133,4.24s1.832,1.491,3.231,1.491
		C420.016,270.851,421.09,270.354,421.84,269.359z"/>
	<path fill="#958A7E" d="M434.572,274.241h-4.784v-24.74h4.784V274.241z"/>
	<path fill="#958A7E" d="M449.441,256.317c1.276,0.572,2.33,1.474,3.162,2.707c0.749,1.087,1.235,2.348,1.458,3.782
		c0.129,0.84,0.181,2.051,0.158,3.631h-13.325c0.074,1.835,0.712,3.122,1.913,3.86c0.731,0.459,1.61,0.688,2.638,0.688
		c1.089,0,1.975-0.279,2.656-0.839c0.371-0.302,0.7-0.722,0.984-1.259h4.884c-0.129,1.085-0.72,2.188-1.773,3.306
		c-1.639,1.779-3.933,2.669-6.883,2.669c-2.435,0-4.583-0.75-6.444-2.251s-2.792-3.942-2.792-7.325c0-3.169,0.84-5.599,2.52-7.291
		c1.68-1.691,3.861-2.537,6.542-2.537C446.73,255.459,448.165,255.746,449.441,256.317z M442.285,260.449
		c-0.676,0.697-1.101,1.641-1.274,2.832h8.241c-0.087-1.27-0.511-2.233-1.274-2.891c-0.763-0.657-1.708-0.986-2.837-0.986
		C443.913,259.404,442.961,259.752,442.285,260.449z"/>
	<path fill="#958A7E" d="M469.671,256.995c1.198,0.99,1.797,2.633,1.797,4.926v12.32h-4.901v-11.128
		c0-0.962-0.128-1.701-0.383-2.216c-0.467-0.94-1.355-1.41-2.666-1.41c-1.611,0-2.716,0.688-3.315,2.064
		c-0.311,0.728-0.467,1.656-0.467,2.786v9.903h-4.783V255.98h4.632v2.668c0.613-0.94,1.192-1.617,1.738-2.031
		c0.98-0.739,2.223-1.108,3.727-1.108C466.933,255.51,468.473,256.005,469.671,256.995z"/>
	<path fill="#958A7E" d="M483.898,256.24c0.862,0.487,1.561,1.161,2.098,2.023v-8.728h4.851v24.707h-4.649v-2.535
		c-0.683,1.086-1.46,1.875-2.333,2.367c-0.873,0.492-1.958,0.739-3.256,0.739c-2.138,0-3.936-0.865-5.396-2.593
		c-1.46-1.729-2.19-3.947-2.19-6.655c0-3.122,0.719-5.578,2.157-7.368c1.438-1.79,3.359-2.686,5.765-2.686
		C482.052,255.51,483.036,255.753,483.898,256.24z M485.073,269.273c0.705-1.007,1.058-2.311,1.058-3.911
		c0-2.238-0.565-3.838-1.695-4.8c-0.694-0.582-1.5-0.873-2.417-0.873c-1.399,0-2.425,0.529-3.08,1.586
		c-0.655,1.057-0.982,2.369-0.982,3.936c0,1.689,0.333,3.041,0.999,4.053c0.666,1.013,1.675,1.519,3.029,1.519
		S484.368,270.28,485.073,269.273z"/>
	<path fill="#958A7E" d="M500.721,263.113c0.891-0.112,1.527-0.252,1.91-0.42c0.688-0.291,1.033-0.744,1.033-1.359
		c0-0.75-0.266-1.267-0.793-1.553c-0.527-0.285-1.301-0.428-2.322-0.428c-1.145,0-1.955,0.28-2.432,0.839
		c-0.341,0.414-0.568,0.973-0.681,1.678h-4.616c0.101-1.6,0.551-2.915,1.349-3.944c1.27-1.611,3.45-2.417,6.54-2.417
		c2.012,0,3.799,0.397,5.361,1.192s2.342,2.294,2.342,4.498v8.392c0,0.582,0.012,1.287,0.035,2.115
		c0.033,0.627,0.127,1.052,0.285,1.276c0.156,0.224,0.391,0.409,0.705,0.554v0.705h-5.203c-0.146-0.369-0.246-0.716-0.303-1.041
		s-0.102-0.694-0.135-1.108c-0.664,0.716-1.43,1.326-2.295,1.83c-1.035,0.593-2.207,0.89-3.512,0.89
		c-1.666,0-3.042-0.473-4.127-1.418c-1.086-0.945-1.629-2.285-1.629-4.02c0-2.249,0.874-3.877,2.621-4.884
		c0.958-0.548,2.368-0.939,4.227-1.175L500.721,263.113z M503.646,265.346c-0.307,0.19-0.615,0.344-0.928,0.461
		s-0.74,0.227-1.285,0.327l-1.088,0.202c-1.021,0.179-1.754,0.397-2.199,0.654c-0.753,0.437-1.13,1.114-1.13,2.031
		c0,0.817,0.23,1.407,0.69,1.771c0.459,0.364,1.02,0.545,1.678,0.545c1.047,0,2.008-0.302,2.889-0.906s1.338-1.706,1.373-3.307
		V265.346z"/>
	<path fill="#958A7E" d="M521.037,255.518c0.062,0.006,0.198,0.014,0.411,0.025v4.901c-0.303-0.033-0.571-0.056-0.806-0.067
		c-0.235-0.011-0.426-0.017-0.571-0.017c-1.924,0-3.217,0.627-3.877,1.88c-0.369,0.705-0.554,1.791-0.554,3.256v8.745h-4.817
		v-18.295h4.565v3.189c0.738-1.219,1.382-2.053,1.931-2.501c0.895-0.75,2.059-1.125,3.491-1.125
		C520.899,255.51,520.976,255.513,521.037,255.518z"/>
</g>
<g>
</g>
<g>
</g>
<g>
</g>
<g>
</g>
<g>
</g>
<g>
</g>
</svg>
