<svg xmlns="http://www.w3.org/2000/svg" width="300" height="171" viewBox="350 414.5 300 171"><g fill="#958A7E"><path opacity=".3" d="M449.686 524.682c.037-.222-12.061-.271-16.41.015-.83.055-1.689.057-2.47.471.249.152.492.24.743.279 1.583.245 3.189.286 4.779.312 4.459.08 8.92.027 13.38.027.124-.038.233-.096.295-.218-.39-.194-.263-.571-.317-.886zM414.303 524.544c-1.907-.154-8.45-.554-9.815-.494-.188.009-11.7.367-13.398.498-.348.028-.734.061-.915.461.238.402.625.403.978.452 2.866.389 5.758.314 8.636.46 3.593.183 13.344-.35 14.62-.483.313-.033.697-.053.815-.517-.252-.273-.581-.349-.921-.377z"/><path d="M450.819 509.066c-.021-.773-.227-1.525-.295-2.288a15.87 15.87 0 0 0-.964-4.184c-.158-1.029-2.339-5.441-2.439-5.623-1.12-1.995-5.912-8.58-6.851-9.813 0 0 .062-.076.066-.14.007-.08-.102-.239-.113-.253.375-.611 3.13-3.305 4.204-4.455.178-.19.515-.325.397-.696-.131-.158-.242-.345-.549-.353-1.253 1.249-4.589 4.417-5.118 4.423-.118-.07-.236-.134-.345.016-.885-.257-4.197-3.396-5.334-4.225-1.475-1.079-6.377-4.109-6.946-4.295-2.58-1.337-5.281-2.3-8.173-2.694-3.992-.544-7.994-.538-12.002-.255-1.936.137-3.859.382-5.779.662-.277.041-.693-.049-.872.449.72-.033 1.314.079 1.895.466 2.181 1.449 4.146 3.128 5.8 5.16 1.809 2.222 3.018 4.719 3.496 7.557.111.664.12 1.263-.68 1.521-.111.035-.098.167-.019.324.588.008 1.151-.7 1.799-.175.553.35 1.119.681 1.657 1.053a71.722 71.722 0 0 1 8.814 7.206c.866.829 1.839 1.56 2.519 2.574-1.073 1.095-16.229 16.175-16.611 16.322a.35.35 0 0 0-.168.056c-.334.175-.554.478-.812.735-1.12 1.653-4.012 4.162-4.312 4.365-1.803 1.127-3.007 1.273-4.198.627-1.269-.688-1.871-1.856-1.788-3.267.083-1.388.788-2.414 2.195-2.854.503-.156.745-.639.601-1.102-.165-.53-.517-.684-1.107-.483-2.901.979-4.266 4.553-2.783 7.244.282.513 1.024 1.377 1.024 1.377s1.712 1.271 2.952 1.307c2.723.08 4.361-1.814 4.53-2.012 1.936-1.968 3.431-3.361 5.084-5.502.546-.708 1.271-1.316 1.922-1.964.055-.053.131-.082.199-.123.207.03.312.312.576.212.203-.207.548-.374.467-.742-.111-.503.174-.778.479-1.082a6848.795 6848.795 0 0 0 12.343-12.38c.272-.004.42.199.577.369 3.344 3.621 6.477 7.391 8.435 11.986.051.423-.506.729-.268 1.237.537-.153.46-1.056 1.206-.86.505.13 1.04.146 1.552.257 1.681.366 3.239 1.052 4.744 1.869.107.073.213.15.322.22a24.293 24.293 0 0 1 7.394 7.24c.206.27-.105.477-.088.721-.075.442-.104.854.553.769-.104-.469.193-.858.258-1.295.325-2.208.56-4.426.694-6.654.17-2.854.162-5.707-.14-8.555z"/><g><path d="M473.054 499.678a4.243 4.243 0 0 0-.689-1.846c-.539-.738-1.374-1.107-2.508-1.107-1.614 0-2.72.8-3.313 2.399-.314.848-.471 1.977-.471 3.382 0 1.339.156 2.417.471 3.231.572 1.521 1.649 2.283 3.229 2.283 1.122 0 1.919-.303 2.39-.906.471-.604.757-1.387.857-2.351h4.885c-.112 1.455-.64 2.831-1.579 4.13-1.501 2.092-3.726 3.139-6.67 3.139-2.946 0-5.113-.873-6.502-2.619-1.39-1.745-2.083-4.009-2.083-6.79 0-3.138.767-5.58 2.301-7.326 1.535-1.746 3.65-2.619 6.351-2.619 2.296 0 4.175.516 5.638 1.544 1.461 1.029 2.326 2.849 2.596 5.455l-4.903.001zM494.766 509.172c-1.544 1.906-3.888 2.859-7.032 2.859-3.146 0-5.488-.953-7.033-2.859-1.544-1.905-2.316-4.201-2.316-6.884 0-2.639.772-4.925 2.316-6.859 1.544-1.934 3.888-2.9 7.033-2.9 3.145 0 5.488.967 7.032 2.9 1.544 1.935 2.316 4.221 2.316 6.859 0 2.683-.772 4.979-2.316 6.884zm-3.828-2.644c.75-.995 1.125-2.408 1.125-4.24s-.375-3.243-1.125-4.231c-.75-.989-1.823-1.483-3.223-1.483-1.398 0-2.476.495-3.23 1.483-.756.987-1.134 2.398-1.134 4.231s.377 3.246 1.134 4.24c.756.994 1.832 1.491 3.23 1.491 1.4.002 2.473-.496 3.223-1.491zM514.045 509.172c-1.544 1.906-3.888 2.859-7.033 2.859-3.145 0-5.487-.953-7.033-2.859-1.544-1.905-2.315-4.201-2.315-6.884 0-2.639.771-4.925 2.315-6.859 1.544-1.934 3.889-2.9 7.033-2.9 3.146 0 5.489.967 7.033 2.9 1.544 1.935 2.316 4.221 2.316 6.859 0 2.683-.772 4.979-2.316 6.884zm-3.827-2.644c.75-.995 1.125-2.408 1.125-4.24s-.375-3.243-1.125-4.231c-.75-.989-1.824-1.483-3.223-1.483-1.399 0-2.477.495-3.231 1.483-.755.987-1.133 2.398-1.133 4.231s.377 3.246 1.133 4.24 1.832 1.491 3.231 1.491c1.399.002 2.473-.496 3.223-1.491zM522.95 511.41h-4.784v-24.74h4.784v24.74zM537.819 493.486c1.275.572 2.33 1.474 3.161 2.707.749 1.087 1.235 2.348 1.458 3.782.13.84.182 2.051.158 3.631h-13.325c.074 1.835.713 3.122 1.913 3.859.731.459 1.61.688 2.639.688 1.089 0 1.975-.279 2.655-.839.371-.303.7-.723.984-1.26h4.884c-.129 1.086-.72 2.188-1.772 3.307-1.64 1.779-3.934 2.669-6.884 2.669-2.435 0-4.582-.75-6.443-2.251s-2.792-3.942-2.792-7.325c0-3.169.84-5.599 2.52-7.291 1.681-1.691 3.861-2.537 6.542-2.537 1.591.002 3.026.289 4.302.86zm-7.156 4.132c-.676.697-1.102 1.641-1.274 2.832h8.241c-.087-1.271-.511-2.233-1.273-2.891-.764-.657-1.709-.986-2.838-.986-1.228 0-2.18.348-2.856 1.045zM558.049 494.164c1.198.99 1.797 2.633 1.797 4.926v12.32h-4.9v-11.128c0-.962-.128-1.701-.384-2.216-.467-.94-1.354-1.41-2.666-1.41-1.61 0-2.716.688-3.314 2.063-.312.729-.467 1.656-.467 2.786v9.903h-4.783v-18.26h4.632v2.668c.613-.94 1.192-1.617 1.738-2.031.979-.739 2.223-1.108 3.727-1.108 1.882.002 3.422.497 4.62 1.487zM572.276 493.409a5.814 5.814 0 0 1 2.098 2.023v-8.729h4.851v24.707h-4.648v-2.535c-.684 1.086-1.46 1.875-2.333 2.367s-1.958.739-3.256.739c-2.139 0-3.937-.865-5.396-2.593-1.46-1.729-2.189-3.947-2.189-6.655 0-3.122.719-5.578 2.156-7.368 1.438-1.79 3.359-2.687 5.766-2.687 1.105.001 2.089.244 2.951.731zm1.175 13.033c.705-1.007 1.058-2.312 1.058-3.911 0-2.238-.564-3.838-1.695-4.8a3.648 3.648 0 0 0-2.417-.873c-1.398 0-2.425.528-3.079 1.586-.655 1.057-.982 2.369-.982 3.936 0 1.689.333 3.041.999 4.054s1.675 1.519 3.029 1.519c1.353-.001 2.382-.504 3.087-1.511zM589.099 500.282c.892-.112 1.527-.252 1.91-.42.688-.291 1.033-.744 1.033-1.359 0-.75-.266-1.267-.793-1.553-.527-.285-1.301-.428-2.322-.428-1.145 0-1.955.279-2.432.839-.341.414-.568.973-.682 1.678h-4.615c.101-1.6.551-2.915 1.349-3.944 1.271-1.61 3.45-2.417 6.54-2.417 2.012 0 3.799.397 5.361 1.192 1.562.795 2.342 2.294 2.342 4.498v8.392c0 .582.012 1.287.035 2.115.033.627.127 1.052.285 1.276.155.224.391.409.705.554v.705h-5.203a5.436 5.436 0 0 1-.304-1.041 11.974 11.974 0 0 1-.135-1.108 9.895 9.895 0 0 1-2.295 1.83c-1.035.593-2.207.891-3.512.891-1.666 0-3.042-.474-4.127-1.418-1.086-.945-1.629-2.285-1.629-4.021 0-2.249.874-3.877 2.62-4.884.958-.548 2.368-.939 4.228-1.175l1.641-.202zm2.925 2.234a5.349 5.349 0 0 1-.929.461 7.83 7.83 0 0 1-1.285.326l-1.088.202c-1.021.18-1.754.397-2.199.654-.753.437-1.13 1.114-1.13 2.031 0 .816.23 1.406.69 1.771.459.364 1.02.545 1.678.545a5.01 5.01 0 0 0 2.89-.905c.881-.604 1.338-1.706 1.372-3.308l.001-1.777zM609.415 492.688c.062.006.198.014.411.024v4.901a13.359 13.359 0 0 0-1.377-.084c-1.925 0-3.218.627-3.877 1.88-.369.705-.555 1.791-.555 3.256v8.745h-4.816v-18.295h4.564v3.188c.738-1.219 1.382-2.053 1.932-2.501.895-.75 2.059-1.125 3.49-1.125.09.002.167.006.228.011z"/></g></g></svg>