<svg xmlns="http://www.w3.org/2000/svg" width="300" height="171"><g fill="#958A7E"><path d="M89.573 79.527l-8.067.467c0-2.638-1.321-3.957-3.879-3.957-1.008 0-1.783.233-2.326.699-.621.463-.854 1.008-.854 1.705-.077.465.156.931.623 1.396.388.465 1.396 1.01 3.023 1.707a38.106 38.106 0 0 1 5.042 2.481c1.319.775 2.327 1.861 3.102 3.025.855 1.318 1.164 2.87 1.164 4.811-.077 1.784-.62 3.414-1.552 4.964-.93 1.476-2.325 2.793-4.033 3.724-1.706 1.008-4.19 1.476-7.292 1.476-4.345 0-7.448-.931-9.23-2.795-1.86-1.782-2.637-4.188-2.558-7.135v-.62l8.144-.621c-.079 1.861.233 3.181 1.011 3.958.697.852 1.705 1.162 3.1 1.162 1.399 0 2.404-.311 3.104-.931.777-.699 1.086-1.396 1.243-2.249-.078-.622-.234-1.165-.7-1.707-.463-.542-1.552-1.164-3.258-1.861-4.034-1.629-6.593-3.103-7.603-4.422-1.085-1.396-1.551-3.024-1.473-4.964 0-1.706.542-3.337 1.473-4.733s2.25-2.559 3.957-3.412a16.565 16.565 0 0 1 6.127-1.165c7.524 0 11.403 3.024 11.712 8.997zm29.323-8.456l-1.474 6.594h-14.12l-1.008 4.811h13.575l-1.476 6.207h-13.496l-1.398 5.896h15.205l-1.553 6.98H89.335l6.903-30.487h22.658v-.001zm5.354 0h12.799c1.552 0 2.868.077 3.801.233 1.088.156 2.018.544 2.949 1.165.932.621 1.628 1.396 2.014 2.404.544 1.087.776 2.173.699 3.335 0 1.552-.465 3.026-1.319 4.422-.931 1.319-2.25 2.25-4.032 2.87v.077c2.87 1.009 4.343 3.104 4.188 6.44-.079 2.404-1.01 4.576-2.949 6.593-1.938 1.938-4.499 2.948-7.912 2.948H117.42l6.83-30.487zm5.97 11.948h2.872c1.32 0 2.248-.155 2.949-.388.697-.154 1.24-.542 1.706-1.163.465-.622.697-1.242.697-1.861 0-.776-.232-1.319-.62-1.785-.466-.386-1.32-.62-2.715-.62h-3.646l-1.243 5.817zm-2.79 11.945h4.653c3.182 0 4.888-1.164 4.965-3.489 0-.854-.235-1.553-.699-2.016-.465-.466-1.319-.699-2.792-.699h-4.656l-1.471 6.204zm26.917-23.893h15.825c2.713 0 4.652.778 5.894 2.329 1.164 1.552 1.784 3.489 1.707 5.661-.154 2.403-.855 4.499-2.25 6.284-1.396 1.706-3.491 2.871-6.515 3.337 1.705 1.629 3.646 5.896 5.816 12.876h-9.076a257.906 257.906 0 0 0-2.404-7.292c-1.008-2.561-1.628-4.034-2.171-4.501-.465-.464-1.164-.62-1.861-.62h-.466l-2.794 12.412h-8.529l6.824-30.486zm5.818 12.413h1.63c2.715 0 4.499-.155 5.275-.388.854-.309 1.474-.776 1.858-1.473.388-.699.619-1.242.619-1.862.079-.854-.154-1.396-.619-1.861-.464-.466-1.474-.697-3.024-.697h-4.345l-1.394 6.281zm44.524 18.075h-8.454l-.231-5.042h-8.997l-2.327 5.042h-9.23l16.6-30.487h9.153l3.486 30.487zm-8.997-11.482l-.544-11.093h-.077l-5.119 11.093h5.74zm41.579-19.006l-1.474 6.594h-14.04l-1.088 4.811h13.576l-1.476 6.207h-13.496l-1.396 5.896h15.28l-1.554 6.98h-23.812l6.826-30.487h22.654v-.001zM131.308 39.5h52.749l-2.25 11.094h-52.903l2.404-11.094zm-3.335 15.282h52.98l-2.327 11.17h-53.06l2.407-11.17zm-10.704 50.189h53.368l-2.326 11.172h-53.448l2.406-11.172zm-3.337 15.36h53.526L165.13 131.5h-53.603l2.405-11.169z"/></g></svg>