<?xml version="1.0" encoding="utf-8"?>
<!-- Generator: Adobe Illustrator 16.0.0, SVG Export Plug-In . SVG Version: 6.00 Build 0)  -->
<!DOCTYPE svg PUBLIC "-//W3C//DTD SVG 1.0//EN" "http://www.w3.org/TR/2001/REC-SVG-20010904/DTD/svg10.dtd">
<svg version="1.0" id="Layer_1" xmlns="http://www.w3.org/2000/svg" xmlns:xlink="http://www.w3.org/1999/xlink" x="0px" y="0px"
	 width="1280px" height="800px" viewBox="0 0 1280 800" enable-background="new 0 0 1280 800" xml:space="preserve">
<g>
	<path fill-rule="evenodd" clip-rule="evenodd" fill="#958A7E" d="M784.006,358.511l-8.768,0.506c0-2.867-1.435-4.3-4.217-4.3
		c-1.096,0-1.938,0.253-2.529,0.759c-0.674,0.505-0.928,1.096-0.928,1.855c-0.084,0.505,0.169,1.012,0.675,1.517
		c0.422,0.506,1.519,1.097,3.288,1.855c2.276,0.927,4.048,1.855,5.48,2.697c1.434,0.843,2.529,2.024,3.372,3.289
		c0.929,1.433,1.266,3.12,1.266,5.228c-0.084,1.939-0.674,3.71-1.688,5.396c-1.011,1.603-2.527,3.036-4.383,4.047
		c-1.856,1.096-4.554,1.603-7.927,1.603c-4.721,0-8.094-1.012-10.033-3.036c-2.023-1.939-2.867-4.553-2.781-7.756v-0.675
		l8.852-0.674c-0.085,2.023,0.254,3.457,1.097,4.301c0.759,0.927,1.855,1.264,3.372,1.264c1.519,0,2.614-0.337,3.373-1.012
		c0.844-0.759,1.18-1.518,1.35-2.445c-0.085-0.675-0.254-1.265-0.76-1.855c-0.505-0.59-1.687-1.265-3.541-2.024
		c-4.385-1.771-7.167-3.373-8.263-4.806c-1.181-1.517-1.687-3.288-1.602-5.396c0-1.855,0.59-3.626,1.602-5.143
		c1.011-1.518,2.445-2.782,4.3-3.71c1.939-0.759,4.131-1.265,6.661-1.265C779.453,348.73,783.67,352.018,784.006,358.511
		L784.006,358.511z M815.879,349.32l-1.603,7.167h-15.346l-1.096,5.228h14.755l-1.603,6.746h-14.67l-1.519,6.408h16.526
		l-1.686,7.588h-25.887l7.504-33.137H815.879L815.879,349.32z M821.696,349.32h13.912c1.687,0,3.119,0.084,4.131,0.253
		c1.182,0.169,2.194,0.591,3.205,1.265c1.012,0.675,1.771,1.518,2.191,2.614c0.592,1.181,0.844,2.361,0.76,3.625
		c0,1.687-0.507,3.289-1.434,4.806c-1.013,1.433-2.445,2.445-4.384,3.12v0.084c3.119,1.096,4.721,3.373,4.553,6.999
		c-0.085,2.614-1.097,4.975-3.205,7.166c-2.108,2.108-4.89,3.205-8.599,3.205h-18.551L821.696,349.32L821.696,349.32z
		 M828.188,362.305h3.12c1.434,0,2.444-0.168,3.205-0.421c0.758-0.168,1.347-0.59,1.854-1.265c0.505-0.674,0.758-1.349,0.758-2.023
		c0-0.843-0.253-1.433-0.675-1.939c-0.506-0.421-1.433-0.674-2.951-0.674h-3.963L828.188,362.305L828.188,362.305z M825.154,375.29
		h5.057c3.458,0,5.313-1.265,5.397-3.794c0-0.927-0.254-1.686-0.759-2.191c-0.506-0.506-1.433-0.759-3.035-0.759h-5.06
		L825.154,375.29L825.154,375.29z M854.411,349.32h17.201c2.951,0,5.058,0.844,6.408,2.53c1.265,1.687,1.939,3.794,1.854,6.155
		c-0.168,2.613-0.928,4.89-2.444,6.83c-1.519,1.855-3.795,3.12-7.083,3.626c1.854,1.771,3.963,6.408,6.322,13.996h-9.864
		c-0.758-2.445-1.602-4.975-2.614-7.926c-1.096-2.782-1.77-4.384-2.36-4.891c-0.506-0.505-1.265-0.674-2.023-0.674h-0.506
		l-3.036,13.491h-9.273L854.411,349.32L854.411,349.32z M860.735,362.811h1.771c2.95,0,4.89-0.169,5.733-0.422
		c0.928-0.336,1.603-0.843,2.023-1.602c0.422-0.759,0.674-1.349,0.674-2.023c0.085-0.928-0.168-1.518-0.674-2.023
		c-0.505-0.506-1.602-0.759-3.288-0.759h-4.722L860.735,362.811L860.735,362.811z M909.133,382.457h-9.19l-0.253-5.48h-9.78
		l-2.53,5.48h-10.033l18.043-33.137h9.95L909.133,382.457L909.133,382.457z M899.353,369.978l-0.591-12.058h-0.085l-5.564,12.058
		H899.353L899.353,369.978z M944.546,349.32l-1.602,7.167h-15.261l-1.182,5.228h14.756l-1.603,6.746h-14.671l-1.517,6.408h16.61
		l-1.687,7.588h-25.886l7.42-33.137H944.546L944.546,349.32z"/>
	<path fill-rule="evenodd" clip-rule="evenodd" fill="#958A7E" d="M829.369,315.003h57.336l-2.445,12.058h-57.505L829.369,315.003
		L829.369,315.003z M825.743,331.614h57.589l-2.529,12.141h-57.674L825.743,331.614L825.743,331.614z M814.108,386.167h58.009
		l-2.529,12.142h-58.094L814.108,386.167L814.108,386.167z M810.481,402.861h58.18l-2.529,12.142h-58.264L810.481,402.861
		L810.481,402.861z"/>
</g>
</svg>
