<?xml version="1.0" encoding="utf-8"?>
<!-- Generator: Adobe Illustrator 16.0.4, SVG Export Plug-In . SVG Version: 6.00 Build 0)  -->
<!DOCTYPE svg PUBLIC "-//W3C//DTD SVG 1.1//EN" "http://www.w3.org/Graphics/SVG/1.1/DTD/svg11.dtd">
<svg version="1.1" id="Layer_1" xmlns="http://www.w3.org/2000/svg" xmlns:xlink="http://www.w3.org/1999/xlink" x="0px" y="0px"
	 width="300px" height="171px" viewBox="0 0 300 171" enable-background="new 0 0 300 171" xml:space="preserve">
<g>
	<path fill="#958A7E" d="M89.573,79.527l-8.067,0.467c0-2.638-1.321-3.957-3.879-3.957c-1.008,0-1.783,0.233-2.326,0.699
		c-0.621,0.463-0.854,1.008-0.854,1.705c-0.077,0.465,0.156,0.931,0.623,1.396c0.388,0.465,1.396,1.01,3.023,1.707
		c2.093,0.852,3.726,1.706,5.042,2.481c1.319,0.775,2.327,1.861,3.102,3.025c0.855,1.318,1.164,2.87,1.164,4.811
		c-0.077,1.784-0.62,3.414-1.552,4.964c-0.93,1.476-2.325,2.793-4.033,3.724c-1.706,1.008-4.19,1.476-7.292,1.476
		c-4.345,0-7.448-0.931-9.23-2.795c-1.86-1.782-2.637-4.188-2.558-7.135v-0.62l8.144-0.621c-0.079,1.861,0.233,3.181,1.011,3.958
		c0.697,0.852,1.705,1.162,3.1,1.162c1.399,0,2.404-0.311,3.104-0.931c0.777-0.699,1.086-1.396,1.243-2.249
		c-0.078-0.622-0.234-1.165-0.7-1.707c-0.463-0.542-1.552-1.164-3.258-1.861c-4.034-1.629-6.593-3.103-7.603-4.422
		c-1.085-1.396-1.551-3.024-1.473-4.964c0-1.706,0.542-3.337,1.473-4.733s2.25-2.559,3.957-3.412
		c1.784-0.699,3.801-1.165,6.127-1.165C85.385,70.53,89.264,73.554,89.573,79.527L89.573,79.527z M118.896,71.071l-1.474,6.594
		h-14.12l-1.008,4.811h13.575l-1.476,6.207h-13.496l-1.398,5.896h15.205l-1.553,6.98H89.335l6.903-30.487H118.896L118.896,71.071z
		 M124.25,71.071h12.799c1.552,0,2.868,0.077,3.801,0.233c1.088,0.156,2.018,0.544,2.949,1.165c0.932,0.621,1.628,1.396,2.014,2.404
		c0.544,1.087,0.776,2.173,0.699,3.335c0,1.552-0.465,3.026-1.319,4.422c-0.931,1.319-2.25,2.25-4.032,2.87v0.077
		c2.87,1.009,4.343,3.104,4.188,6.44c-0.079,2.404-1.01,4.576-2.949,6.593c-1.938,1.938-4.499,2.948-7.912,2.948H117.42
		L124.25,71.071L124.25,71.071z M130.22,83.019h2.872c1.32,0,2.248-0.155,2.949-0.388c0.697-0.154,1.24-0.542,1.706-1.163
		c0.465-0.622,0.697-1.242,0.697-1.861c0-0.776-0.232-1.319-0.62-1.785c-0.466-0.386-1.32-0.62-2.715-0.62h-3.646L130.22,83.019
		L130.22,83.019z M127.43,94.964h4.653c3.182,0,4.888-1.164,4.965-3.489c0-0.854-0.235-1.553-0.699-2.016
		c-0.465-0.466-1.319-0.699-2.792-0.699h-4.656L127.43,94.964L127.43,94.964z M154.347,71.071h15.825
		c2.713,0,4.652,0.778,5.894,2.329c1.164,1.552,1.784,3.489,1.707,5.661c-0.154,2.403-0.855,4.499-2.25,6.284
		c-1.396,1.706-3.491,2.871-6.515,3.337c1.705,1.629,3.646,5.896,5.816,12.876h-9.076c-0.697-2.25-1.474-4.578-2.404-7.292
		c-1.008-2.561-1.628-4.034-2.171-4.501c-0.465-0.464-1.164-0.62-1.861-0.62h-0.466l-2.794,12.412h-8.529L154.347,71.071
		L154.347,71.071z M160.165,83.484h1.63c2.715,0,4.499-0.155,5.275-0.388c0.854-0.309,1.474-0.776,1.858-1.473
		c0.388-0.699,0.619-1.242,0.619-1.862c0.079-0.854-0.154-1.396-0.619-1.861c-0.464-0.466-1.474-0.697-3.024-0.697h-4.345
		L160.165,83.484L160.165,83.484z M204.689,101.559h-8.454l-0.231-5.042h-8.997l-2.327,5.042h-9.23l16.6-30.487h9.153
		L204.689,101.559L204.689,101.559z M195.692,90.077l-0.544-11.093h-0.077l-5.119,11.093H195.692L195.692,90.077z M237.271,71.071
		l-1.474,6.594h-14.04l-1.088,4.811h13.576l-1.476,6.207h-13.496l-1.396,5.896h15.28l-1.554,6.98h-23.812l6.826-30.487H237.271
		L237.271,71.071z"/>
	<path fill="#958A7E" d="M131.308,39.5h52.749l-2.25,11.094h-52.903L131.308,39.5L131.308,39.5z M127.973,54.782h52.98l-2.327,11.17
		h-53.06L127.973,54.782L127.973,54.782z M117.269,104.971h53.368l-2.326,11.172h-53.448L117.269,104.971L117.269,104.971z
		 M113.932,120.331h53.526L165.13,131.5h-53.603L113.932,120.331L113.932,120.331z"/>
</g>
</svg>
