<?xml version="1.0" encoding="utf-8"?>
<!-- Generator: Adobe Illustrator 16.0.4, SVG Export Plug-In . SVG Version: 6.00 Build 0)  -->
<!DOCTYPE svg PUBLIC "-//W3C//DTD SVG 1.1//EN" "http://www.w3.org/Graphics/SVG/1.1/DTD/svg11.dtd">
<svg version="1.1" id="Layer_1" xmlns="http://www.w3.org/2000/svg" xmlns:xlink="http://www.w3.org/1999/xlink" x="0px" y="0px"
	 width="300px" height="171px" viewBox="490 314.5 300 171" enable-background="new 490 314.5 300 171" xml:space="preserve">
<g>
	<path fill="#958A7E" d="M542.136,414.775c-2.184,0-4.102-0.21-5.755-0.633c-1.653-0.422-3.188-0.944-4.604-1.569v-6.78h0.649
		c1.43,1.213,3.007,2.146,4.73,2.797c1.724,0.65,3.396,0.977,5.018,0.977c0.408,0,0.948-0.045,1.618-0.135
		c0.671-0.088,1.21-0.229,1.618-0.42c0.498-0.218,0.92-0.521,1.265-0.91s0.518-0.903,0.518-1.543c0-0.715-0.281-1.295-0.844-1.742
		c-0.562-0.447-1.231-0.772-2.011-0.977c-0.971-0.256-2.008-0.498-3.112-0.729c-1.104-0.229-2.135-0.51-3.093-0.844
		c-2.209-0.777-3.792-1.824-4.749-3.141c-0.958-1.315-1.437-2.962-1.437-4.941c0-2.668,1.13-4.829,3.39-6.482
		c2.26-1.653,5.081-2.48,8.465-2.48c1.698,0,3.388,0.172,5.065,0.517c1.678,0.345,3.183,0.811,4.51,1.398v6.511h-0.632
		c-1.061-0.906-2.354-1.672-3.878-2.298c-1.525-0.625-3.094-0.938-4.701-0.938c-0.626,0-1.188,0.045-1.686,0.134
		c-0.498,0.089-1.021,0.262-1.57,0.517c-0.447,0.205-0.833,0.507-1.159,0.91c-0.325,0.402-0.488,0.852-0.488,1.35
		c0,0.728,0.259,1.306,0.776,1.733c0.517,0.428,1.516,0.814,2.997,1.159c0.957,0.217,1.88,0.428,2.767,0.632
		c0.889,0.204,1.836,0.485,2.846,0.843c1.979,0.715,3.449,1.675,4.414,2.882c0.964,1.207,1.444,2.799,1.444,4.777
		c0,2.834-1.112,5.113-3.342,6.838C548.938,413.913,545.928,414.775,542.136,414.775z"/>
	<path fill="#958A7E" d="M580.112,394.743c0,1.328-0.211,2.592-0.633,3.792s-1.027,2.203-1.818,3.007
		c-0.485,0.498-1.02,0.958-1.601,1.38c-0.58,0.42-1.223,0.778-1.925,1.071c-0.702,0.294-1.465,0.524-2.288,0.688
		c-0.822,0.166-1.746,0.25-2.768,0.25h-3.754v9.326h-7.162v-28.516h11.068c1.647,0,3.067,0.15,4.262,0.45
		c1.193,0.3,2.275,0.776,3.246,1.427c1.072,0.715,1.901,1.669,2.489,2.863C579.818,391.676,580.112,393.096,580.112,394.743z
		 M572.758,394.915c0-0.804-0.19-1.497-0.574-2.078c-0.383-0.581-0.843-0.979-1.379-1.197c-0.677-0.294-1.324-0.463-1.942-0.508
		c-0.62-0.044-1.459-0.067-2.52-0.067h-1.016v8.542h0.498c0.677,0,1.314-0.006,1.915-0.02c0.601-0.012,1.124-0.057,1.569-0.134
		c0.385-0.064,0.789-0.188,1.218-0.374c0.428-0.186,0.756-0.393,0.985-0.623c0.484-0.472,0.813-0.964,0.986-1.475
		C572.672,396.473,572.758,395.784,572.758,394.915z"/>
	<path fill="#958A7E" d="M610.313,414.258h-8.732l-7.947-10.457h-2.565v10.457h-7.124v-28.516h11.472
		c1.583,0,2.962,0.099,4.137,0.297c1.174,0.198,2.26,0.61,3.256,1.235c1.021,0.651,1.831,1.478,2.433,2.48
		c0.6,1.002,0.899,2.276,0.899,3.821c0,2.183-0.492,3.955-1.475,5.314c-0.983,1.36-2.299,2.442-3.945,3.246L610.313,414.258z
		 M598.784,394.475c0-0.715-0.138-1.331-0.411-1.848c-0.275-0.517-0.731-0.916-1.369-1.197c-0.447-0.191-0.945-0.312-1.494-0.364
		c-0.549-0.051-1.231-0.077-2.049-0.077h-2.396v7.68h2.051c0.995,0,1.841-0.061,2.536-0.182s1.286-0.379,1.771-0.775
		c0.46-0.356,0.801-0.785,1.024-1.283C598.671,395.931,598.784,395.28,598.784,394.475z"/>
	<path fill="#958A7E" d="M612.42,414.258v-28.516h19.285v5.439h-12.161v4.999h11.203v5.439h-11.203v7.201h12.161v5.439H612.42
		V414.258z"/>
	<path fill="#958A7E" d="M633.485,414.258l9.633-28.516h7.813l9.633,28.516h-7.372l-1.781-5.822h-8.963l-1.781,5.822H633.485z
		 M649.841,403.266l-2.911-9.403l-2.911,9.403H649.841z"/>
	<path fill="#958A7E" d="M688.871,400.029c0,2.654-0.581,5.034-1.742,7.134c-1.162,2.101-2.631,3.712-4.405,4.835
		c-1.48,0.958-3.093,1.574-4.835,1.848c-1.743,0.274-3.598,0.412-5.562,0.412H663.4v-28.516h8.849c2.005,0,3.881,0.128,5.631,0.383
		c1.749,0.255,3.39,0.875,4.922,1.857c1.876,1.2,3.357,2.819,4.442,4.855C688.328,394.874,688.871,397.271,688.871,400.029z
		 M681.518,399.971c0-1.877-0.322-3.482-0.968-4.816c-0.645-1.334-1.637-2.378-2.978-3.131c-0.972-0.536-1.989-0.83-3.056-0.881
		c-1.065-0.051-2.34-0.077-3.819-0.077h-0.136v17.849h0.136c1.607,0,2.965-0.028,4.068-0.086c1.104-0.058,2.154-0.399,3.15-1.024
		c1.175-0.74,2.068-1.763,2.681-3.064C681.211,403.438,681.518,401.848,681.518,399.971z"/>
	<path fill="#958A7E" d="M710.596,414.258h-6.065v-9.601c0-0.781-0.032-1.56-0.096-2.335c-0.062-0.775-0.182-1.348-0.354-1.715
		c-0.207-0.437-0.506-0.75-0.896-0.939c-0.391-0.188-0.913-0.284-1.567-0.284c-0.494,0-0.994,0.092-1.5,0.276
		c-0.505,0.184-1.045,0.477-1.62,0.879v13.721h-6.032v-19.356h6.032v2.137c0.988-0.838,1.951-1.494,2.888-1.965
		c0.938-0.471,1.975-0.707,3.11-0.707c1.977,0,3.487,0.624,4.533,1.87s1.567,3.054,1.567,5.42V414.258L710.596,414.258z"/>
	<path fill="#958A7E" d="M724.971,414.775c-3.653,0-6.455-0.873-8.402-2.62s-2.922-4.233-2.922-7.463
		c0-3.16,0.907-5.682,2.724-7.566c1.814-1.885,4.354-2.827,7.619-2.827c2.964,0,5.192,0.798,6.688,2.396
		c1.493,1.597,2.24,3.884,2.24,6.859v2.172h-13.22c0.058,0.896,0.247,1.646,0.567,2.25c0.321,0.604,0.747,1.082,1.275,1.438
		c0.518,0.356,1.121,0.612,1.81,0.767c0.689,0.156,1.442,0.232,2.26,0.232c0.699,0,1.39-0.078,2.067-0.232s1.298-0.358,1.861-0.611
		c0.493-0.219,0.95-0.454,1.37-0.707c0.419-0.252,0.761-0.477,1.024-0.672h0.639v4.98c-0.494,0.196-0.945,0.377-1.354,0.543
		c-0.408,0.168-0.969,0.336-1.681,0.508c-0.655,0.172-1.33,0.309-2.025,0.405S725.97,414.775,724.971,414.775z M726.97,402.09
		c-0.034-1.274-0.33-2.247-0.888-2.913c-0.559-0.666-1.411-1-2.561-1c-1.172,0-2.089,0.351-2.749,1.051
		c-0.66,0.701-1.024,1.655-1.095,2.862H726.97L726.97,402.09z"/>
	<path fill="#958A7E" d="M743.43,414.637c-2.459,0-4.248-0.506-5.368-1.517s-1.681-2.666-1.681-4.964v-9.049h-2.31v-4.206h2.31
		v-5.533h6.032v5.533h5.809v4.206h-5.809v6.859c0,0.678,0.006,1.271,0.018,1.775c0.011,0.506,0.104,0.959,0.275,1.361
		c0.161,0.402,0.445,0.722,0.854,0.957c0.407,0.236,1.002,0.354,1.783,0.354c0.322,0,0.744-0.068,1.269-0.207
		c0.521-0.138,0.888-0.264,1.094-0.379h0.518v4.257c-0.654,0.173-1.351,0.308-2.086,0.405
		C745.4,414.588,744.499,414.637,743.43,414.637z"/>
</g>
</svg>
