<?xml version="1.0" encoding="utf-8"?>
<!-- Generator: Adobe Illustrator 16.0.0, SVG Export Plug-In . SVG Version: 6.00 Build 0)  -->
<!DOCTYPE svg PUBLIC "-//W3C//DTD SVG 1.0//EN" "http://www.w3.org/TR/2001/REC-SVG-20010904/DTD/svg10.dtd">
<svg version="1.0" id="Layer_1" xmlns="http://www.w3.org/2000/svg" xmlns:xlink="http://www.w3.org/1999/xlink" x="0px" y="0px"
	 width="1280px" height="800px" viewBox="0 0 1280 800" enable-background="new 0 0 1280 800" xml:space="preserve">
<g>
	<path fill="#958A7E" d="M745.341,194.742c-2.184,0-4.102-0.21-5.755-0.632s-3.188-0.945-4.605-1.57v-6.78h0.65
		c1.43,1.213,3.007,2.145,4.73,2.796c1.724,0.651,3.396,0.977,5.018,0.977c0.408,0,0.948-0.045,1.618-0.134
		c0.671-0.089,1.21-0.229,1.618-0.421c0.498-0.217,0.92-0.52,1.265-0.91c0.345-0.389,0.517-0.903,0.517-1.542
		c0-0.715-0.281-1.296-0.843-1.743s-1.232-0.772-2.011-0.977c-0.971-0.255-2.008-0.498-3.112-0.728
		c-1.104-0.229-2.135-0.51-3.093-0.843c-2.209-0.778-3.792-1.825-4.749-3.141c-0.958-1.315-1.437-2.962-1.437-4.941
		c0-2.668,1.13-4.829,3.39-6.482s5.081-2.48,8.465-2.48c1.698,0,3.387,0.172,5.065,0.517s3.183,0.811,4.51,1.398v6.511h-0.632
		c-1.06-0.906-2.353-1.672-3.878-2.298c-1.525-0.625-3.093-0.938-4.701-0.938c-0.626,0-1.188,0.045-1.686,0.134
		s-1.021,0.262-1.57,0.517c-0.447,0.205-0.833,0.507-1.159,0.91c-0.325,0.402-0.488,0.852-0.488,1.35
		c0,0.728,0.259,1.306,0.776,1.733c0.517,0.428,1.516,0.814,2.997,1.159c0.957,0.217,1.88,0.428,2.767,0.632
		c0.888,0.204,1.836,0.485,2.845,0.843c1.979,0.715,3.45,1.675,4.414,2.882s1.445,2.799,1.445,4.778
		c0,2.834-1.113,5.113-3.342,6.837C752.143,193.88,749.133,194.742,745.341,194.742z"/>
	<path fill="#958A7E" d="M783.317,174.71c0,1.328-0.211,2.592-0.632,3.792c-0.422,1.2-1.028,2.203-1.819,3.007
		c-0.485,0.498-1.019,0.958-1.6,1.379s-1.223,0.779-1.925,1.072c-0.702,0.294-1.465,0.524-2.288,0.689
		c-0.823,0.166-1.746,0.249-2.768,0.249h-3.754v9.327h-7.162v-28.516h11.069c1.647,0,3.067,0.15,4.261,0.45
		c1.194,0.3,2.276,0.776,3.246,1.427c1.073,0.715,1.902,1.669,2.49,2.863C783.023,171.643,783.317,173.063,783.317,174.71z
		 M775.963,174.882c0-0.804-0.191-1.497-0.574-2.078s-0.843-0.979-1.379-1.197c-0.677-0.294-1.324-0.463-1.943-0.508
		c-0.62-0.044-1.459-0.067-2.519-0.067h-1.016v8.542h0.498c0.677,0,1.315-0.006,1.915-0.02c0.601-0.012,1.124-0.057,1.57-0.134
		c0.384-0.064,0.789-0.188,1.217-0.374s0.756-0.393,0.986-0.623c0.484-0.472,0.813-0.964,0.986-1.475
		C775.877,176.44,775.963,175.751,775.963,174.882z"/>
	<path fill="#958A7E" d="M813.519,194.225h-8.733l-7.947-10.457h-2.566v10.457h-7.124v-28.516h11.472
		c1.583,0,2.962,0.099,4.137,0.297c1.174,0.198,2.26,0.61,3.256,1.235c1.021,0.651,1.831,1.478,2.432,2.48
		c0.6,1.002,0.9,2.276,0.9,3.821c0,2.183-0.492,3.955-1.475,5.314c-0.983,1.36-2.299,2.442-3.945,3.246L813.519,194.225z
		 M801.989,174.442c0-0.715-0.137-1.331-0.411-1.848c-0.275-0.517-0.731-0.916-1.369-1.197c-0.447-0.191-0.945-0.312-1.494-0.364
		c-0.549-0.051-1.232-0.077-2.049-0.077h-2.395v7.68h2.05c0.995,0,1.841-0.061,2.537-0.182c0.695-0.121,1.286-0.379,1.771-0.775
		c0.46-0.357,0.801-0.785,1.024-1.283S801.989,175.247,801.989,174.442z"/>
	<path fill="#958A7E" d="M815.625,194.225v-28.516h19.285v5.439h-12.161v4.999h11.203v5.439h-11.203v7.201h12.161v5.439H815.625z"/>
	<path fill="#958A7E" d="M836.69,194.225l9.633-28.516h7.814l9.633,28.516h-7.373l-1.781-5.822h-8.963l-1.781,5.822H836.69z
		 M853.046,183.232l-2.911-9.403l-2.911,9.403H853.046z"/>
	<path fill="#958A7E" d="M892.076,179.996c0,2.655-0.581,5.034-1.742,7.134c-1.162,2.1-2.631,3.712-4.405,4.835
		c-1.481,0.958-3.093,1.574-4.835,1.848c-1.743,0.274-3.598,0.412-5.563,0.412h-8.925v-28.516h8.848
		c2.005,0,3.881,0.128,5.631,0.383c1.749,0.255,3.39,0.875,4.922,1.857c1.876,1.2,3.357,2.819,4.442,4.855
		C891.533,174.841,892.076,177.238,892.076,179.996z M884.723,179.938c0-1.877-0.323-3.482-0.968-4.816s-1.637-2.378-2.978-3.131
		c-0.971-0.536-1.989-0.83-3.055-0.881c-1.066-0.051-2.34-0.077-3.82-0.077h-0.135v17.849h0.135c1.608,0,2.965-0.029,4.069-0.086
		c1.104-0.058,2.154-0.399,3.15-1.025c1.175-0.74,2.068-1.762,2.681-3.064C884.416,183.405,884.723,181.815,884.723,179.938z"/>
	<path fill="#958A7E" d="M913.801,194.225h-6.066v-9.601c0-0.781-0.032-1.56-0.095-2.335c-0.063-0.775-0.182-1.347-0.354-1.715
		c-0.207-0.437-0.506-0.75-0.896-0.939c-0.391-0.189-0.913-0.284-1.568-0.284c-0.494,0-0.994,0.092-1.5,0.276
		c-0.505,0.184-1.045,0.477-1.62,0.879v13.72h-6.032v-19.356h6.032v2.137c0.988-0.838,1.951-1.494,2.888-1.965
		s1.974-0.707,3.11-0.707c1.977,0,3.487,0.624,4.533,1.87s1.568,3.054,1.568,5.42V194.225z"/>
	<path fill="#958A7E" d="M928.176,194.742c-3.654,0-6.455-0.873-8.403-2.62c-1.947-1.747-2.921-4.234-2.921-7.463
		c0-3.16,0.907-5.682,2.723-7.566c1.815-1.885,4.355-2.827,7.619-2.827c2.964,0,5.193,0.798,6.688,2.396
		c1.493,1.597,2.24,3.884,2.24,6.86v2.172h-13.22c0.058,0.896,0.247,1.646,0.568,2.249c0.321,0.604,0.747,1.083,1.275,1.439
		c0.518,0.356,1.121,0.612,1.81,0.767c0.689,0.155,1.442,0.232,2.259,0.232c0.7,0,1.39-0.078,2.068-0.232
		c0.678-0.155,1.298-0.359,1.861-0.612c0.493-0.218,0.95-0.454,1.37-0.707c0.419-0.252,0.761-0.477,1.025-0.672h0.638v4.981
		c-0.494,0.196-0.945,0.376-1.353,0.543c-0.408,0.167-0.969,0.336-1.681,0.508c-0.655,0.172-1.33,0.308-2.025,0.405
		S929.175,194.742,928.176,194.742z M930.175,182.057c-0.034-1.275-0.33-2.247-0.888-2.913c-0.558-0.666-1.411-1-2.56-1
		c-1.172,0-2.089,0.351-2.749,1.051c-0.661,0.701-1.025,1.655-1.095,2.861H930.175z"/>
	<path fill="#958A7E" d="M946.635,194.604c-2.459,0-4.248-0.506-5.368-1.517c-1.121-1.011-1.681-2.666-1.681-4.964v-9.049h-2.31
		v-4.206h2.31v-5.533h6.032v5.533h5.809v4.206h-5.809v6.86c0,0.678,0.006,1.27,0.018,1.775c0.011,0.506,0.104,0.959,0.275,1.362
		c0.161,0.402,0.445,0.721,0.854,0.957c0.407,0.235,1.002,0.353,1.783,0.353c0.322,0,0.744-0.069,1.268-0.207
		c0.522-0.138,0.888-0.264,1.094-0.379h0.518v4.257c-0.655,0.172-1.351,0.307-2.086,0.405
		C948.605,194.555,947.704,194.604,946.635,194.604z"/>
</g>
</svg>
