<svg xmlns="http://www.w3.org/2000/svg" width="300" height="171" viewBox="490 314.5 300 171"><g fill="#958A7E"><path d="M542.136 414.775c-2.184 0-4.102-.21-5.755-.633a29.393 29.393 0 0 1-4.604-1.569v-6.78h.649a16.022 16.022 0 0 0 4.73 2.797c1.724.65 3.396.977 5.018.977.408 0 .948-.045 1.618-.135.671-.088 1.21-.229 1.618-.42.498-.218.92-.521 1.265-.91s.518-.903.518-1.543c0-.715-.281-1.295-.844-1.742-.562-.447-1.231-.772-2.011-.977a62.24 62.24 0 0 0-3.112-.729 24.53 24.53 0 0 1-3.093-.844c-2.209-.777-3.792-1.824-4.749-3.141-.958-1.315-1.437-2.962-1.437-4.941 0-2.668 1.13-4.829 3.39-6.482 2.26-1.653 5.081-2.48 8.465-2.48 1.698 0 3.388.172 5.065.517 1.678.345 3.183.811 4.51 1.398v6.511h-.632c-1.061-.906-2.354-1.672-3.878-2.298a12.296 12.296 0 0 0-4.701-.938c-.626 0-1.188.045-1.686.134a6.44 6.44 0 0 0-1.57.517 3.183 3.183 0 0 0-1.159.91 2.094 2.094 0 0 0-.488 1.35c0 .728.259 1.306.776 1.733.517.428 1.516.814 2.997 1.159.957.217 1.88.428 2.767.632.889.204 1.836.485 2.846.843 1.979.715 3.449 1.675 4.414 2.882.964 1.207 1.444 2.799 1.444 4.777 0 2.834-1.112 5.113-3.342 6.838-2.227 1.725-5.237 2.587-9.029 2.587zM580.112 394.743c0 1.328-.211 2.592-.633 3.792s-1.027 2.203-1.818 3.007c-.485.498-1.02.958-1.601 1.38-.58.42-1.223.778-1.925 1.071-.702.294-1.465.524-2.288.688-.822.166-1.746.25-2.768.25h-3.754v9.326h-7.162v-28.516h11.068c1.647 0 3.067.15 4.262.45 1.193.3 2.275.776 3.246 1.427 1.072.715 1.901 1.669 2.489 2.863.59 1.195.884 2.615.884 4.262zm-7.354.172c0-.804-.19-1.497-.574-2.078-.383-.581-.843-.979-1.379-1.197-.677-.294-1.324-.463-1.942-.508a37.387 37.387 0 0 0-2.52-.067h-1.016v8.542h.498c.677 0 1.314-.006 1.915-.02a10.553 10.553 0 0 0 1.569-.134 5.226 5.226 0 0 0 1.218-.374c.428-.186.756-.393.985-.623.484-.472.813-.964.986-1.475.174-.508.26-1.197.26-2.066zM610.313 414.258h-8.732l-7.947-10.457h-2.565v10.457h-7.124v-28.516h11.472c1.583 0 2.962.099 4.137.297 1.174.198 2.26.61 3.256 1.235a7.485 7.485 0 0 1 2.433 2.48c.6 1.002.899 2.276.899 3.821 0 2.183-.492 3.955-1.475 5.314-.983 1.36-2.299 2.442-3.945 3.246l9.591 12.123zm-11.529-19.783c0-.715-.138-1.331-.411-1.848-.275-.517-.731-.916-1.369-1.197a4.976 4.976 0 0 0-1.494-.364 22.743 22.743 0 0 0-2.049-.077h-2.396v7.68h2.051c.995 0 1.841-.061 2.536-.182s1.286-.379 1.771-.775a3.33 3.33 0 0 0 1.024-1.283c.224-.498.337-1.149.337-1.954zM612.42 414.258v-28.516h19.285v5.439h-12.161v4.999h11.203v5.439h-11.203v7.201h12.161v5.439H612.42v-.001zM633.485 414.258l9.633-28.516h7.813l9.633 28.516h-7.372l-1.781-5.822h-8.963l-1.781 5.822h-7.182zm16.356-10.992l-2.911-9.403-2.911 9.403h5.822zM688.871 400.029c0 2.654-.581 5.034-1.742 7.134-1.162 2.101-2.631 3.712-4.405 4.835a12.33 12.33 0 0 1-4.835 1.848 35.834 35.834 0 0 1-5.562.412H663.4v-28.516h8.849c2.005 0 3.881.128 5.631.383a12.33 12.33 0 0 1 4.922 1.857c1.876 1.2 3.357 2.819 4.442 4.855 1.084 2.037 1.627 4.434 1.627 7.192zm-7.353-.058c0-1.877-.322-3.482-.968-4.816-.645-1.334-1.637-2.378-2.978-3.131a6.94 6.94 0 0 0-3.056-.881 81.44 81.44 0 0 0-3.819-.077h-.136v17.849h.136c1.607 0 2.965-.028 4.068-.086 1.104-.058 2.154-.399 3.15-1.024 1.175-.74 2.068-1.763 2.681-3.064.615-1.303.922-2.893.922-4.77zM710.596 414.258h-6.065v-9.601c0-.781-.032-1.56-.096-2.335-.062-.775-.182-1.348-.354-1.715-.207-.437-.506-.75-.896-.939-.391-.188-.913-.284-1.567-.284-.494 0-.994.092-1.5.276-.505.184-1.045.477-1.62.879v13.721h-6.032v-19.356h6.032v2.137c.988-.838 1.951-1.494 2.888-1.965.938-.471 1.975-.707 3.11-.707 1.977 0 3.487.624 4.533 1.87s1.567 3.054 1.567 5.42v12.599zM724.971 414.775c-3.653 0-6.455-.873-8.402-2.62s-2.922-4.233-2.922-7.463c0-3.16.907-5.682 2.724-7.566 1.814-1.885 4.354-2.827 7.619-2.827 2.964 0 5.192.798 6.688 2.396 1.493 1.597 2.24 3.884 2.24 6.859v2.172h-13.22c.058.896.247 1.646.567 2.25a3.913 3.913 0 0 0 1.275 1.438 5.159 5.159 0 0 0 1.81.767c.689.156 1.442.232 2.26.232.699 0 1.39-.078 2.067-.232s1.298-.358 1.861-.611a13.06 13.06 0 0 0 2.394-1.379h.639v4.98c-.494.196-.945.377-1.354.543-.408.168-.969.336-1.681.508-.655.172-1.33.309-2.025.405s-1.541.148-2.54.148zm1.999-12.685c-.034-1.274-.33-2.247-.888-2.913-.559-.666-1.411-1-2.561-1-1.172 0-2.089.351-2.749 1.051-.66.701-1.024 1.655-1.095 2.862h7.293zM743.43 414.637c-2.459 0-4.248-.506-5.368-1.517s-1.681-2.666-1.681-4.964v-9.049h-2.31v-4.206h2.31v-5.533h6.032v5.533h5.809v4.206h-5.809v6.859c0 .678.006 1.271.018 1.775.011.506.104.959.275 1.361.161.402.445.722.854.957.407.236 1.002.354 1.783.354.322 0 .744-.068 1.269-.207.521-.138.888-.264 1.094-.379h.518v4.257c-.654.173-1.351.308-2.086.405-.738.099-1.639.148-2.708.148z"/></g></svg>