<svg xmlns="http://www.w3.org/2000/svg" width="300" height="171" viewBox="490 314.5 300 171"><path fill="#94897E" d="M535.075 403.395c2.082 0 4.188-.736 6.319-2.205 2.13-1.469 3.832-3.188 5.105-5.162 1.273-1.971 1.91-3.726 1.91-5.27-.147.195-.68.293-1.598.293-.919 0-1.66-.299-2.223-.9-.564-.601-.843-1.323-.843-2.168 0-.844.317-1.598.955-2.258.635-.663 1.518-.992 2.644-.992 3.11 0 4.665 1.701 4.665 5.105 0 1.542-.478 3.306-1.432 5.29-.955 1.984-2.259 3.907-3.912 5.767-1.652 1.862-3.782 3.43-6.392 4.702-2.608 1.272-5.363 1.909-8.264 1.909s-4.352-1.408-4.352-4.225c0-1.591.459-3.751 1.376-6.482.919-2.731 1.379-4.476 1.379-5.234 0-.76-.221-1.14-.663-1.14-.662 0-1.971 1.592-3.93 4.775l-2.388-1.359c3.6-6.072 6.906-9.11 9.918-9.11.808 0 1.512.299 2.112.9.599.603.9 1.58.9 2.938s-.491 3.862-1.47 7.513c-.979 3.648-1.47 5.582-1.47 5.803.001 1.007.551 1.51 1.654 1.51zM561.064 407.508c-1.042 0-1.856-.319-2.444-.954-.588-.637-.881-1.512-.881-2.627s.288-2.632.863-4.555a90.344 90.344 0 0 1 1.727-5.234c.576-1.568.863-2.615.863-3.141s-.17-.791-.513-.791c-.857 0-2.241 1.69-4.151 5.07l-2.462-1.433c3.6-6.073 6.908-9.11 9.918-9.11 2.058 0 3.086 1.298 3.086 3.893 0 .76-.246 1.973-.736 3.637l-2.644 7.567c-.271.71-.404 1.353-.404 1.928 0 .576.219.864.66.864.833 0 2.364-1.544 4.592-4.629l1.542 1.433c-1.323 2.449-2.896 4.408-4.72 5.877-1.822 1.47-3.256 2.205-4.296 2.205zm10.45-33.63c0 .992-.329 1.892-.992 2.7-.662.808-1.555 1.212-2.681 1.212-1.126 0-1.972-.336-2.533-1.009-.564-.673-.846-1.525-.846-2.554s.35-1.94 1.047-2.736c.699-.795 1.597-1.194 2.699-1.194 1.102 0 1.929.35 2.479 1.047.551.699.827 1.545.827 2.534zM611.369 399.684c.146 2.816 2.044 4.225 5.692 4.225 1.347 0 2.749-.386 4.207-1.156 1.457-.773 2.639-1.684 3.543-2.736l1.581 1.027c-2.033 3.405-5.277 5.486-9.734 6.246-.979.146-1.922.221-2.83.221-2.645 0-4.848-.876-6.611-2.627-1.765-1.751-2.645-3.889-2.645-6.409 0-2.523.771-4.856 2.313-6.998s3.471-3.802 5.786-4.978c2.315-1.175 4.598-1.763 6.851-1.763 2.254 0 4.208.514 5.859 1.542 1.653 1.029 2.498 2.412 2.533 4.151.037 1.739-.469 3.24-1.523 4.5-1.055 1.262-2.387 2.221-4.004 2.884-3.208 1.297-6.355 1.946-9.439 1.946l-1.579-.075zm-.221-2.021c2.718-.098 4.902-.532 6.556-1.303 1.653-.771 2.803-1.654 3.454-2.646.648-.992.972-2.032.972-3.122 0-1.089-.282-1.897-.845-2.425-.562-.527-1.162-.789-1.8-.789-1.567 0-3.005.544-4.315 1.634a10.75 10.75 0 0 0-2.995 3.967c-.684 1.557-1.027 3.118-1.027 4.684zM630.506 398.177c0-1.837.446-3.604 1.34-5.308.895-1.701 2.051-3.14 3.473-4.314 3.133-2.548 6.329-3.822 9.586-3.822 3.258 0 5.927.871 8.007 2.608 2.082 1.739 3.124 3.913 3.124 6.521 0 2.607-.717 4.953-2.148 7.033-1.434 2.081-3.325 3.704-5.677 4.867-2.351 1.162-4.915 1.745-7.694 1.745-2.781 0-5.144-.876-7.091-2.627-1.947-1.749-2.92-3.984-2.92-6.703zm12.011 7.052c1.127 0 2.185-.367 3.177-1.102.993-.734 1.745-1.689 2.261-2.865 1.003-2.253 1.505-4.579 1.505-6.979 0-2.4-.44-4.218-1.322-5.455-.882-1.237-2.132-1.855-3.746-1.855-1.617 0-3.216 1.053-4.794 3.159-1.58 2.106-2.368 4.787-2.368 8.043-.002 4.705 1.761 7.054 5.287 7.054zM698.203 385.542h5.729l-2.902 10.983c-.465 1.542-.697 2.944-.697 4.207 0 1.26.221 1.892.661 1.892s1.045-.387 1.816-1.158a16.721 16.721 0 0 0 1.966-2.332l.846-1.176 1.579 1.47c-.808 1.566-1.838 3-3.086 4.297-2.424 2.523-4.529 3.784-6.316 3.784-2.106 0-3.161-1.628-3.161-4.885 0-.539.026-.943.074-1.213-.366 1.248-1.063 2.351-2.093 3.306-1.959 1.861-4.17 2.792-6.63 2.792-2.461 0-4.433-.839-5.916-2.517-1.48-1.676-2.222-3.777-2.222-6.299 0-3.918 1.273-7.224 3.821-9.917 2.548-2.694 5.534-4.042 8.963-4.042 1.713 0 3.134.472 4.261 1.416 1.126.943 1.861 2.173 2.204 3.692l1.103-4.3zm-6.134 2.351c-1.422 0-2.75.595-3.986 1.782s-2.185 2.62-2.847 4.297-.992 3.312-.992 4.904c0 1.593.351 2.877 1.048 3.856.698.979 1.775 1.47 3.232 1.47s2.774-.661 3.948-1.983c2.229-2.547 3.343-5.571 3.343-9.073-.001-3.502-1.249-5.253-3.746-5.253zM728.25 399.316l1.505 1.066c-1.077 2.18-2.736 3.912-4.976 5.197-2.242 1.286-4.586 1.929-7.034 1.929-2.45 0-4.514-.746-6.191-2.241-1.678-1.492-2.517-3.605-2.517-6.335 0-2.731.839-5.199 2.517-7.401 1.678-2.205 3.741-3.889 6.191-5.051 2.448-1.164 4.922-1.746 7.419-1.746 3.061 0 5.118.734 6.17 2.204.441.588.663 1.329.663 2.222 0 .895-.306 1.647-.92 2.258a3 3 0 0 1-2.204.919c-.856 0-1.579-.275-2.167-.827-.588-.55-.881-1.253-.881-2.111 0-.858.526-1.641 1.58-2.353-.931-.293-1.789-.439-2.571-.439-1.69 0-3.244.623-4.666 1.873a12.175 12.175 0 0 0-3.233 4.536c-.732 1.777-1.101 3.521-1.101 5.236 0 1.713.41 3.091 1.231 4.131.819 1.042 2.001 1.562 3.544 1.562 1.542 0 3.025-.435 4.445-1.304 1.422-.871 2.485-1.978 3.196-3.325zM740.555 399.684c.146 2.816 2.044 4.225 5.694 4.225 1.346 0 2.748-.386 4.205-1.156 1.457-.773 2.638-1.684 3.544-2.736l1.58 1.027c-2.032 3.405-5.275 5.486-9.733 6.246-.98.146-1.922.221-2.829.221-2.645 0-4.85-.876-6.612-2.627s-2.644-3.889-2.644-6.409c0-2.523.771-4.856 2.313-6.998 1.543-2.142 3.472-3.802 5.786-4.978 2.313-1.175 4.598-1.763 6.851-1.763s4.206.514 5.859 1.542c1.651 1.029 2.497 2.412 2.534 4.151s-.472 3.24-1.525 4.5c-1.053 1.262-2.388 2.221-4.002 2.884-3.21 1.297-6.355 1.946-9.441 1.946l-1.58-.075zm-.221-2.021c2.72-.098 4.904-.532 6.558-1.303 1.651-.771 2.803-1.654 3.452-2.646.65-.992.975-2.032.975-3.122 0-1.089-.282-1.897-.845-2.425-.564-.527-1.162-.789-1.801-.789-1.565 0-3.005.544-4.314 1.634a10.708 10.708 0 0 0-2.995 3.967c-.686 1.556-1.03 3.118-1.03 4.684z"/><path fill="#94897E" d="M672.563 385.542c.864-6.65 3.165-11.448 5.146-14.496.734-1.125 1.573-2.025 2.517-2.7.943-.672 2.112-1.167 2.791-1.26 1.436-.196 2.385.13 2.481.875-.662.906-.992 1.837-.992 2.792 0 .955.361 1.733 1.084 2.332.721.601 1.603.9 2.643.9 1.043 0 1.946-.324 2.719-.973.771-.648 1.157-1.538 1.157-2.662 0-1.935-.704-3.318-2.112-4.15-1.407-.833-3.14-1.25-5.197-1.25-4.579 0-8.485 1.922-11.719 5.767-2.708 3.233-5.834 8.176-7.018 14.826h-12.588c.194.143.392.282.576.436a11.199 11.199 0 0 1 1.868 1.989h9.63l-.883 3.746c-.221.931-.532 2.393-.937 4.389s-.765 3.716-1.084 5.161c-2.008 9.159-4.021 17.477-10.615 15.337.564.525 1.538.789 2.921.789 1.384 0 2.748-.294 4.097-.883 3.255-1.42 5.925-4.811 8.007-10.174 1.077-2.815 2.437-7.689 4.076-14.618l.882-3.747h8.014c.12-.136.229-.28.356-.414a16.305 16.305 0 0 1 2.276-2.01l-10.096-.002z"/><path fill="#94897E" d="M692.332 414.777c-1.321-1.03-3.435-1.511-5.046-1.773-.243-.038-.26.546-.039.604 1.322.372 3.278 1.055 4.4 2.077-13.811 12.035-42.265 25.575-58.247 3.992-.433-.583-.774.444-.53.849 6.416 10.603 17.533 16.044 29.643 14.154 11.28-1.76 22.239-9.654 29.847-18.208.729.868 1.116 1.408 1.106 3.123-.002.441.38.471.506-.024a4.603 4.603 0 0 0-1.64-4.794zM596.381 402.623c-.391 0-.587-.479-.587-1.434 0-2.693 1.667-9.421 4.997-20.184a382.38 382.38 0 0 1 3.146-9.772h-6.007c-.155.427-.309.844-.463 1.288-2.117 6.11-3.74 11.479-4.866 16.107-.369-1.199-1.182-2.148-2.444-2.847-1.261-.697-2.772-1.046-4.536-1.046-3.403 0-6.477 1.328-9.22 3.985-2.743 2.658-4.115 5.811-4.115 9.459 0 2.717.833 4.954 2.497 6.704 1.667 1.751 3.698 2.627 6.099 2.627 3.575 0 6.648-1.701 9.219-5.105 0 .073-.006.179-.017.312a3.09 3.09 0 0 0-.02.276c0 1.469.301 2.59.901 3.36.601.771 1.432 1.157 2.498 1.157 1.064 0 2.479-.662 4.242-1.983 1.763-1.322 3.417-3.354 4.959-6.096l-1.581-1.47c-2.155 3.106-3.722 4.662-4.702 4.662zm-5.877-4.446c-1.837 3.796-4.174 5.693-7.017 5.693-3.035 0-4.553-1.97-4.553-5.913 0-3.013.887-5.443 2.663-7.292 1.774-1.849 3.666-2.772 5.674-2.772 3.012 0 4.519 1.983 4.519 5.951.001 1.101-.429 2.547-1.286 4.333z"/></svg>