<?xml version="1.0" encoding="utf-8"?>
<!-- Generator: Adobe Illustrator 16.0.4, SVG Export Plug-In . SVG Version: 6.00 Build 0)  -->
<!DOCTYPE svg PUBLIC "-//W3C//DTD SVG 1.1//EN" "http://www.w3.org/Graphics/SVG/1.1/DTD/svg11.dtd">
<svg version="1.1" id="Layer_1" xmlns="http://www.w3.org/2000/svg" xmlns:xlink="http://www.w3.org/1999/xlink" x="0px" y="0px"
	 width="300px" height="171px" viewBox="490 314.5 300 171" enable-background="new 490 314.5 300 171" xml:space="preserve">
<g>
	<g>
		<path fill="#94897E" d="M535.075,403.395c2.082,0,4.188-0.736,6.319-2.205c2.13-1.469,3.832-3.188,5.105-5.162
			c1.273-1.971,1.91-3.726,1.91-5.27c-0.147,0.195-0.68,0.293-1.598,0.293c-0.919,0-1.66-0.299-2.223-0.9
			c-0.564-0.601-0.843-1.323-0.843-2.168c0-0.844,0.317-1.598,0.955-2.258c0.635-0.663,1.518-0.992,2.644-0.992
			c3.11,0,4.665,1.701,4.665,5.105c0,1.542-0.478,3.306-1.432,5.29c-0.955,1.984-2.259,3.907-3.912,5.767
			c-1.652,1.862-3.782,3.43-6.392,4.702c-2.608,1.272-5.363,1.909-8.264,1.909s-4.352-1.408-4.352-4.225
			c0-1.591,0.459-3.751,1.376-6.482c0.919-2.731,1.379-4.476,1.379-5.234c0-0.76-0.221-1.14-0.663-1.14
			c-0.662,0-1.971,1.592-3.93,4.775l-2.388-1.359c3.6-6.072,6.906-9.11,9.918-9.11c0.808,0,1.512,0.299,2.112,0.9
			c0.599,0.603,0.9,1.58,0.9,2.938s-0.491,3.862-1.47,7.513c-0.979,3.648-1.47,5.582-1.47,5.803
			C533.422,402.892,533.972,403.395,535.075,403.395z"/>
		<path fill="#94897E" d="M561.064,407.508c-1.042,0-1.856-0.319-2.444-0.954c-0.588-0.637-0.881-1.512-0.881-2.627
			s0.288-2.632,0.863-4.555c0.575-1.921,1.151-3.667,1.727-5.234c0.576-1.568,0.863-2.615,0.863-3.141s-0.17-0.791-0.513-0.791
			c-0.857,0-2.241,1.69-4.151,5.07l-2.462-1.433c3.6-6.073,6.908-9.11,9.918-9.11c2.058,0,3.086,1.298,3.086,3.893
			c0,0.76-0.246,1.973-0.736,3.637l-2.644,7.567c-0.271,0.71-0.404,1.353-0.404,1.928c0,0.576,0.219,0.864,0.66,0.864
			c0.833,0,2.364-1.544,4.592-4.629l1.542,1.433c-1.323,2.449-2.896,4.408-4.72,5.877
			C563.538,406.773,562.104,407.508,561.064,407.508z M571.514,373.878c0,0.992-0.329,1.892-0.992,2.7
			c-0.662,0.808-1.555,1.212-2.681,1.212c-1.126,0-1.972-0.336-2.533-1.009c-0.564-0.673-0.846-1.525-0.846-2.554
			s0.35-1.94,1.047-2.736c0.699-0.795,1.597-1.194,2.699-1.194c1.102,0,1.929,0.35,2.479,1.047
			C571.238,372.043,571.514,372.889,571.514,373.878z"/>
		<path fill="#94897E" d="M611.369,399.684c0.146,2.816,2.044,4.225,5.692,4.225c1.347,0,2.749-0.386,4.207-1.156
			c1.457-0.773,2.639-1.684,3.543-2.736l1.581,1.027c-2.033,3.405-5.277,5.486-9.734,6.246c-0.979,0.146-1.922,0.221-2.83,0.221
			c-2.645,0-4.848-0.876-6.611-2.627c-1.765-1.751-2.645-3.889-2.645-6.409c0-2.523,0.771-4.856,2.313-6.998
			s3.471-3.802,5.786-4.978c2.315-1.175,4.598-1.763,6.851-1.763c2.254,0,4.208,0.514,5.859,1.542
			c1.653,1.029,2.498,2.412,2.533,4.151c0.037,1.739-0.469,3.24-1.523,4.5c-1.055,1.262-2.387,2.221-4.004,2.884
			c-3.208,1.297-6.355,1.946-9.439,1.946L611.369,399.684z M611.148,397.663c2.718-0.098,4.902-0.532,6.556-1.303
			c1.653-0.771,2.803-1.654,3.454-2.646c0.648-0.992,0.972-2.032,0.972-3.122c0-1.089-0.282-1.897-0.845-2.425
			c-0.562-0.527-1.162-0.789-1.8-0.789c-1.567,0-3.005,0.544-4.315,1.634c-1.31,1.09-2.307,2.412-2.995,3.967
			C611.491,394.536,611.148,396.097,611.148,397.663z"/>
		<path fill="#94897E" d="M630.506,398.177c0-1.837,0.446-3.604,1.34-5.308c0.895-1.701,2.051-3.14,3.473-4.314
			c3.133-2.548,6.329-3.822,9.586-3.822c3.258,0,5.927,0.871,8.007,2.608c2.082,1.739,3.124,3.913,3.124,6.521
			c0,2.607-0.717,4.953-2.148,7.033c-1.434,2.081-3.325,3.704-5.677,4.867c-2.351,1.162-4.915,1.745-7.694,1.745
			c-2.781,0-5.144-0.876-7.091-2.627C631.479,403.131,630.506,400.896,630.506,398.177z M642.517,405.229
			c1.127,0,2.185-0.367,3.177-1.102c0.993-0.734,1.745-1.689,2.261-2.865c1.003-2.253,1.505-4.579,1.505-6.979
			c0-2.4-0.44-4.218-1.322-5.455c-0.882-1.237-2.132-1.855-3.746-1.855c-1.617,0-3.216,1.053-4.794,3.159
			c-1.58,2.106-2.368,4.787-2.368,8.043C637.228,402.88,638.991,405.229,642.517,405.229z"/>
		<path fill="#94897E" d="M698.203,385.542h5.729l-2.902,10.983c-0.465,1.542-0.697,2.944-0.697,4.207
			c0,1.26,0.221,1.892,0.661,1.892s1.045-0.387,1.816-1.158c0.771-0.77,1.426-1.548,1.966-2.332l0.846-1.176l1.579,1.47
			c-0.808,1.566-1.838,3-3.086,4.297c-2.424,2.523-4.529,3.784-6.316,3.784c-2.106,0-3.161-1.628-3.161-4.885
			c0-0.539,0.026-0.943,0.074-1.213c-0.366,1.248-1.063,2.351-2.093,3.306c-1.959,1.861-4.17,2.792-6.63,2.792
			c-2.461,0-4.433-0.839-5.916-2.517c-1.48-1.676-2.222-3.777-2.222-6.299c0-3.918,1.273-7.224,3.821-9.917
			c2.548-2.694,5.534-4.042,8.963-4.042c1.713,0,3.134,0.472,4.261,1.416c1.126,0.943,1.861,2.173,2.204,3.692L698.203,385.542z
			 M692.069,387.893c-1.422,0-2.75,0.595-3.986,1.782s-2.185,2.62-2.847,4.297s-0.992,3.312-0.992,4.904
			c0,1.593,0.351,2.877,1.048,3.856c0.698,0.979,1.775,1.47,3.232,1.47s2.774-0.661,3.948-1.983
			c2.229-2.547,3.343-5.571,3.343-9.073C695.814,389.644,694.566,387.893,692.069,387.893z"/>
		<path fill="#94897E" d="M728.25,399.316l1.505,1.066c-1.077,2.18-2.736,3.912-4.976,5.197c-2.242,1.286-4.586,1.929-7.034,1.929
			c-2.45,0-4.514-0.746-6.191-2.241c-1.678-1.492-2.517-3.605-2.517-6.335c0-2.731,0.839-5.199,2.517-7.401
			c1.678-2.205,3.741-3.889,6.191-5.051c2.448-1.164,4.922-1.746,7.419-1.746c3.061,0,5.118,0.734,6.17,2.204
			c0.441,0.588,0.663,1.329,0.663,2.222c0,0.895-0.306,1.647-0.92,2.258c-0.611,0.613-1.346,0.919-2.204,0.919
			c-0.856,0-1.579-0.275-2.167-0.827c-0.588-0.55-0.881-1.253-0.881-2.111c0-0.858,0.526-1.641,1.58-2.353
			c-0.931-0.293-1.789-0.439-2.571-0.439c-1.69,0-3.244,0.623-4.666,1.873c-1.42,1.25-2.496,2.761-3.233,4.536
			c-0.732,1.777-1.101,3.521-1.101,5.236c0,1.713,0.41,3.091,1.231,4.131c0.819,1.042,2.001,1.562,3.544,1.562
			c1.542,0,3.025-0.435,4.445-1.304C726.476,401.77,727.539,400.663,728.25,399.316z"/>
		<path fill="#94897E" d="M740.555,399.684c0.146,2.816,2.044,4.225,5.694,4.225c1.346,0,2.748-0.386,4.205-1.156
			c1.457-0.773,2.638-1.684,3.544-2.736l1.58,1.027c-2.032,3.405-5.275,5.486-9.733,6.246c-0.98,0.146-1.922,0.221-2.829,0.221
			c-2.645,0-4.85-0.876-6.612-2.627s-2.644-3.889-2.644-6.409c0-2.523,0.771-4.856,2.313-6.998c1.543-2.142,3.472-3.802,5.786-4.978
			c2.313-1.175,4.598-1.763,6.851-1.763s4.206,0.514,5.859,1.542c1.651,1.029,2.497,2.412,2.534,4.151s-0.472,3.24-1.525,4.5
			c-1.053,1.262-2.388,2.221-4.002,2.884c-3.21,1.297-6.355,1.946-9.441,1.946L740.555,399.684z M740.334,397.663
			c2.72-0.098,4.904-0.532,6.558-1.303c1.651-0.771,2.803-1.654,3.452-2.646c0.65-0.992,0.975-2.032,0.975-3.122
			c0-1.089-0.282-1.897-0.845-2.425c-0.564-0.527-1.162-0.789-1.801-0.789c-1.565,0-3.005,0.544-4.314,1.634
			c-1.311,1.09-2.31,2.412-2.995,3.967C740.678,394.535,740.334,396.097,740.334,397.663z"/>
		<path fill="#94897E" d="M672.563,385.542c0.864-6.65,3.165-11.448,5.146-14.496c0.734-1.125,1.573-2.025,2.517-2.7
			c0.943-0.672,2.112-1.167,2.791-1.26c1.436-0.196,2.385,0.13,2.481,0.875c-0.662,0.906-0.992,1.837-0.992,2.792
			c0,0.955,0.361,1.733,1.084,2.332c0.721,0.601,1.603,0.9,2.643,0.9c1.043,0,1.946-0.324,2.719-0.973
			c0.771-0.648,1.157-1.538,1.157-2.662c0-1.935-0.704-3.318-2.112-4.15c-1.407-0.833-3.14-1.25-5.197-1.25
			c-4.579,0-8.485,1.922-11.719,5.767c-2.708,3.233-5.834,8.176-7.018,14.826h-12.588c0.194,0.143,0.392,0.282,0.576,0.436
			c0.733,0.612,1.348,1.279,1.868,1.989h9.63l-0.883,3.746c-0.221,0.931-0.532,2.393-0.937,4.389s-0.765,3.716-1.084,5.161
			c-2.008,9.159-4.021,17.477-10.615,15.337c0.564,0.525,1.538,0.789,2.921,0.789c1.384,0,2.748-0.294,4.097-0.883
			c3.255-1.42,5.925-4.811,8.007-10.174c1.077-2.815,2.437-7.689,4.076-14.618l0.882-3.747h8.014c0.12-0.136,0.229-0.28,0.356-0.414
			c0.725-0.765,1.482-1.436,2.276-2.01L672.563,385.542L672.563,385.542z"/>
		<path fill="#94897E" d="M692.332,414.777c-1.321-1.03-3.435-1.511-5.046-1.773c-0.243-0.038-0.26,0.546-0.039,0.604
			c1.322,0.372,3.278,1.055,4.4,2.077c-13.811,12.035-42.265,25.575-58.247,3.992c-0.433-0.583-0.774,0.444-0.53,0.849
			c6.416,10.603,17.533,16.044,29.643,14.154c11.28-1.76,22.239-9.654,29.847-18.208c0.729,0.868,1.116,1.408,1.106,3.123
			c-0.002,0.441,0.38,0.471,0.506-0.024C694.428,417.775,693.795,415.922,692.332,414.777z"/>
		<g>
			<path fill="#94897E" d="M662.913,394.028"/>
		</g>
		<path fill="#94897E" d="M596.381,402.623c-0.391,0-0.587-0.479-0.587-1.434c0-2.693,1.667-9.421,4.997-20.184
			c1.12-3.622,2.158-6.859,3.146-9.772h-6.007c-0.155,0.427-0.309,0.844-0.463,1.288c-2.117,6.11-3.74,11.479-4.866,16.107
			c-0.369-1.199-1.182-2.148-2.444-2.847c-1.261-0.697-2.772-1.046-4.536-1.046c-3.403,0-6.477,1.328-9.22,3.985
			c-2.743,2.658-4.115,5.811-4.115,9.459c0,2.717,0.833,4.954,2.497,6.704c1.667,1.751,3.698,2.627,6.099,2.627
			c3.575,0,6.648-1.701,9.219-5.105c0,0.073-0.006,0.179-0.017,0.312c-0.014,0.135-0.02,0.226-0.02,0.276
			c0,1.469,0.301,2.59,0.901,3.36c0.601,0.771,1.432,1.157,2.498,1.157c1.064,0,2.479-0.662,4.242-1.983
			c1.763-1.322,3.417-3.354,4.959-6.096l-1.581-1.47C598.928,401.067,597.361,402.623,596.381,402.623z M590.504,398.177
			c-1.837,3.796-4.174,5.693-7.017,5.693c-3.035,0-4.553-1.97-4.553-5.913c0-3.013,0.887-5.443,2.663-7.292
			c1.774-1.849,3.666-2.772,5.674-2.772c3.012,0,4.519,1.983,4.519,5.951C591.791,394.945,591.361,396.391,590.504,398.177z"/>
	</g>
</g>
</svg>
