<?xml version="1.0" encoding="utf-8"?>
<!-- Generator: Adobe Illustrator 16.0.0, SVG Export Plug-In . SVG Version: 6.00 Build 0)  -->
<!DOCTYPE svg PUBLIC "-//W3C//DTD SVG 1.0//EN" "http://www.w3.org/TR/2001/REC-SVG-20010904/DTD/svg10.dtd">
<svg version="1.0" id="Layer_1" xmlns="http://www.w3.org/2000/svg" xmlns:xlink="http://www.w3.org/1999/xlink" x="0px" y="0px"
	 width="1280px" height="800px" viewBox="0 0 1280 800" enable-background="new 0 0 1280 800" xml:space="preserve">
<g>
	<g>
		<path fill="#94897E" d="M722.895,366.017c2.525,0,5.08-0.893,7.666-2.674c2.584-1.783,4.648-3.869,6.193-6.262
			c1.545-2.391,2.316-4.521,2.316-6.393c-0.178,0.237-0.824,0.355-1.938,0.355c-1.115,0-2.014-0.363-2.697-1.092
			c-0.684-0.728-1.023-1.604-1.023-2.629s0.385-1.938,1.158-2.74c0.771-0.803,1.842-1.203,3.207-1.203
			c3.773,0,5.66,2.064,5.66,6.193c0,1.871-0.58,4.011-1.738,6.417s-2.74,4.739-4.746,6.995c-2.004,2.258-4.588,4.16-7.754,5.704
			c-3.164,1.544-6.506,2.317-10.025,2.317s-5.279-1.709-5.279-5.125c0-1.93,0.557-4.551,1.67-7.864
			c1.115-3.312,1.672-5.429,1.672-6.35s-0.268-1.382-0.803-1.382c-0.803,0-2.391,1.932-4.768,5.793l-2.896-1.648
			c4.367-7.367,8.377-11.051,12.031-11.051c0.98,0,1.834,0.363,2.562,1.092c0.727,0.729,1.092,1.916,1.092,3.564
			s-0.596,4.686-1.783,9.113c-1.188,4.426-1.783,6.771-1.783,7.039C720.889,365.407,721.557,366.017,722.895,366.017z"/>
		<path fill="#94897E" d="M754.422,371.007c-1.264,0-2.252-0.387-2.965-1.158c-0.713-0.773-1.068-1.834-1.068-3.187
			s0.348-3.192,1.047-5.525c0.697-2.331,1.396-4.448,2.094-6.35c0.699-1.901,1.047-3.171,1.047-3.81s-0.207-0.959-0.623-0.959
			c-1.039,0-2.719,2.051-5.035,6.15l-2.986-1.738c4.367-7.367,8.379-11.051,12.031-11.051c2.496,0,3.744,1.575,3.744,4.723
			c0,0.922-0.299,2.393-0.893,4.412l-3.207,9.18c-0.328,0.861-0.49,1.641-0.49,2.339s0.266,1.048,0.801,1.048
			c1.01,0,2.867-1.873,5.57-5.615l1.871,1.738c-1.604,2.971-3.512,5.347-5.725,7.129
			C757.422,370.116,755.684,371.007,754.422,371.007z M767.098,330.212c0,1.203-0.4,2.295-1.203,3.275s-1.887,1.471-3.252,1.471
			c-1.367,0-2.393-0.408-3.074-1.225c-0.684-0.817-1.025-1.85-1.025-3.098s0.424-2.354,1.27-3.319
			c0.848-0.965,1.938-1.448,3.275-1.448c1.336,0,2.34,0.424,3.008,1.27C766.764,327.985,767.098,329.01,767.098,330.212z"/>
		<path fill="#94897E" d="M815.445,361.515c0.178,3.417,2.48,5.125,6.906,5.125c1.633,0,3.334-0.468,5.102-1.403
			c1.768-0.937,3.201-2.042,4.299-3.319l1.918,1.247c-2.467,4.13-6.402,6.655-11.809,7.575c-1.188,0.178-2.332,0.268-3.432,0.268
			c-3.209,0-5.881-1.062-8.02-3.186c-2.141-2.124-3.209-4.717-3.209-7.775c0-3.061,0.936-5.89,2.807-8.489s4.211-4.612,7.018-6.038
			c2.809-1.426,5.578-2.139,8.311-2.139c2.734,0,5.104,0.624,7.107,1.871c2.006,1.248,3.031,2.926,3.074,5.035
			c0.045,2.11-0.57,3.93-1.848,5.459c-1.279,1.531-2.896,2.695-4.857,3.498c-3.893,1.574-7.709,2.361-11.451,2.361L815.445,361.515z
			 M815.178,359.064c3.297-0.118,5.947-0.646,7.953-1.581s3.4-2.006,4.189-3.209c0.787-1.203,1.18-2.465,1.18-3.787
			c0-1.321-0.342-2.302-1.025-2.941c-0.682-0.639-1.41-0.958-2.184-0.958c-1.9,0-3.645,0.661-5.234,1.983s-2.799,2.926-3.633,4.812
			C815.594,355.271,815.178,357.164,815.178,359.064z"/>
		<path fill="#94897E" d="M838.66,359.688c0-2.229,0.541-4.373,1.625-6.439c1.086-2.064,2.488-3.809,4.213-5.234
			c3.801-3.09,7.678-4.635,11.629-4.635s7.189,1.055,9.713,3.164c2.525,2.109,3.789,4.745,3.789,7.909
			c0,3.163-0.869,6.009-2.607,8.532c-1.738,2.525-4.033,4.494-6.885,5.904s-5.963,2.117-9.334,2.117
			c-3.373,0-6.24-1.062-8.602-3.186C839.84,365.697,838.66,362.985,838.66,359.688z M853.23,368.243c1.367,0,2.65-0.445,3.854-1.336
			c1.205-0.891,2.117-2.05,2.742-3.476c1.217-2.733,1.826-5.555,1.826-8.466c0-2.912-0.535-5.117-1.604-6.617
			c-1.07-1.5-2.586-2.25-4.545-2.25c-1.961,0-3.9,1.277-5.816,3.832s-2.873,5.808-2.873,9.758
			C846.814,365.392,848.953,368.243,853.23,368.243z"/>
		<path fill="#94897E" d="M920.783,344.36h6.949l-3.52,13.323c-0.564,1.871-0.846,3.571-0.846,5.103
			c0,1.529,0.268,2.295,0.803,2.295c0.533,0,1.268-0.469,2.203-1.404s1.73-1.879,2.385-2.83l1.025-1.426l1.916,1.783
			c-0.98,1.9-2.229,3.639-3.744,5.213c-2.939,3.06-5.494,4.59-7.662,4.59c-2.555,0-3.834-1.976-3.834-5.926
			c0-0.654,0.031-1.145,0.09-1.471c-0.445,1.514-1.291,2.852-2.539,4.01c-2.377,2.258-5.059,3.387-8.043,3.387
			c-2.986,0-5.377-1.018-7.176-3.053c-1.797-2.034-2.695-4.582-2.695-7.642c0-4.753,1.545-8.763,4.635-12.03
			c3.09-3.269,6.713-4.902,10.873-4.902c2.078,0,3.801,0.572,5.168,1.716s2.258,2.636,2.674,4.478L920.783,344.36z M913.342,347.212
			c-1.725,0-3.336,0.721-4.836,2.161c-1.5,1.441-2.65,3.179-3.453,5.214s-1.203,4.018-1.203,5.948c0,1.932,0.424,3.491,1.27,4.679
			c0.848,1.188,2.154,1.782,3.922,1.782s3.365-0.802,4.789-2.405c2.703-3.09,4.055-6.758,4.055-11.007
			C917.885,349.336,916.371,347.212,913.342,347.212z"/>
		<path fill="#94897E" d="M957.232,361.069l1.826,1.293c-1.307,2.645-3.32,4.746-6.037,6.305c-2.719,1.56-5.562,2.34-8.533,2.34
			s-5.475-0.906-7.51-2.719c-2.035-1.811-3.053-4.373-3.053-7.686s1.018-6.306,3.053-8.979c2.035-2.674,4.539-4.717,7.51-6.127
			c2.971-1.411,5.971-2.117,9-2.117c3.713,0,6.209,0.891,7.486,2.674c0.535,0.713,0.803,1.611,0.803,2.695
			c0,1.086-0.371,1.998-1.115,2.74c-0.742,0.743-1.633,1.114-2.674,1.114c-1.039,0-1.916-0.334-2.629-1.003
			c-0.713-0.668-1.068-1.521-1.068-2.562s0.639-1.989,1.916-2.853c-1.129-0.355-2.17-0.533-3.119-0.533
			c-2.051,0-3.936,0.756-5.66,2.271c-1.723,1.516-3.029,3.35-3.922,5.503c-0.889,2.155-1.336,4.271-1.336,6.351
			c0,2.078,0.498,3.75,1.494,5.012c0.994,1.264,2.428,1.895,4.299,1.895s3.67-0.527,5.393-1.582S956.369,362.704,957.232,361.069z"
			/>
		<path fill="#94897E" d="M972.158,361.515c0.178,3.417,2.48,5.125,6.908,5.125c1.633,0,3.334-0.468,5.102-1.403
			c1.768-0.937,3.199-2.042,4.299-3.319l1.916,1.247c-2.465,4.13-6.4,6.655-11.807,7.575c-1.189,0.178-2.332,0.268-3.432,0.268
			c-3.209,0-5.883-1.062-8.021-3.186c-2.139-2.124-3.207-4.717-3.207-7.775c0-3.061,0.936-5.89,2.807-8.489s4.211-4.612,7.018-6.038
			s5.578-2.139,8.311-2.139s5.102,0.624,7.107,1.871c2.004,1.248,3.029,2.926,3.074,5.035c0.045,2.11-0.572,3.93-1.85,5.459
			c-1.277,1.531-2.896,2.695-4.855,3.498c-3.893,1.574-7.709,2.361-11.453,2.361L972.158,361.515z M971.891,359.064
			c3.299-0.118,5.949-0.646,7.955-1.581c2.004-0.936,3.4-2.006,4.188-3.209s1.182-2.465,1.182-3.787
			c0-1.321-0.342-2.302-1.025-2.941c-0.684-0.639-1.41-0.958-2.184-0.958c-1.9,0-3.646,0.661-5.234,1.983
			c-1.59,1.322-2.801,2.926-3.633,4.812S971.891,357.164,971.891,359.064z"/>
		<path fill="#94897E" d="M889.68,344.36c1.049-8.066,3.84-13.888,6.242-17.584c0.891-1.365,1.908-2.457,3.053-3.275
			c1.143-0.816,2.561-1.416,3.385-1.529c1.742-0.238,2.893,0.158,3.01,1.062c-0.803,1.1-1.203,2.228-1.203,3.387
			c0,1.158,0.438,2.102,1.314,2.828c0.875,0.729,1.945,1.092,3.207,1.092c1.264,0,2.361-0.393,3.297-1.18s1.404-1.865,1.404-3.23
			c0-2.347-0.854-4.025-2.562-5.035c-1.707-1.01-3.809-1.516-6.305-1.516c-5.555,0-10.293,2.332-14.215,6.996
			c-3.285,3.922-7.078,9.918-8.514,17.984h-15.27c0.236,0.174,0.475,0.341,0.699,0.529c0.889,0.742,1.635,1.552,2.266,2.412h11.682
			l-1.07,4.545c-0.268,1.129-0.646,2.903-1.137,5.324c-0.49,2.422-0.928,4.508-1.314,6.261c-2.436,11.11-4.877,21.2-12.877,18.604
			c0.684,0.638,1.865,0.958,3.543,0.958s3.334-0.357,4.969-1.07c3.949-1.723,7.188-5.836,9.713-12.342
			c1.307-3.416,2.955-9.328,4.945-17.734l1.07-4.545h9.721c0.146-0.166,0.277-0.34,0.432-0.502c0.879-0.928,1.799-1.742,2.762-2.439
			H889.68z"/>
		<path fill="#94897E" d="M913.66,379.825c-1.602-1.25-4.166-1.832-6.121-2.15c-0.295-0.047-0.314,0.662-0.047,0.731
			c1.604,0.452,3.977,1.281,5.338,2.521c-16.754,14.6-51.27,31.024-70.658,4.843c-0.525-0.708-0.939,0.538-0.643,1.03
			c7.783,12.861,21.27,19.463,35.959,17.17c13.684-2.135,26.979-11.712,36.207-22.089c0.883,1.054,1.354,1.71,1.342,3.79
			c-0.002,0.535,0.461,0.57,0.613-0.031C916.203,383.462,915.436,381.214,913.66,379.825z"/>
		<g>
			<path fill="#94897E" d="M877.973,354.655"/>
		</g>
		<path fill="#94897E" d="M797.264,365.081c-0.475,0-0.713-0.58-0.713-1.738c0-3.268,2.021-11.43,6.061-24.486
			c1.359-4.393,2.619-8.322,3.816-11.854h-7.287c-0.188,0.518-0.375,1.024-0.562,1.562c-2.568,7.412-4.537,13.926-5.902,19.539
			c-0.447-1.454-1.434-2.605-2.965-3.453c-1.529-0.846-3.363-1.27-5.502-1.27c-4.129,0-7.857,1.611-11.184,4.834
			c-3.328,3.225-4.992,7.049-4.992,11.475c0,3.297,1.01,6.009,3.029,8.133c2.021,2.123,4.486,3.186,7.398,3.186
			c4.336,0,8.064-2.064,11.184-6.193c0,0.088-0.008,0.215-0.021,0.378c-0.016,0.163-0.023,0.274-0.023,0.335
			c0,1.781,0.365,3.141,1.092,4.076c0.729,0.936,1.738,1.404,3.031,1.404c1.291,0,3.008-0.803,5.146-2.406
			c2.139-1.604,4.145-4.07,6.016-7.396l-1.918-1.783C800.354,363.194,798.453,365.081,797.264,365.081z M790.135,359.688
			c-2.229,4.605-5.064,6.906-8.512,6.906c-3.682,0-5.523-2.391-5.523-7.174c0-3.654,1.076-6.602,3.23-8.845
			c2.152-2.243,4.447-3.364,6.883-3.364c3.654,0,5.482,2.406,5.482,7.219C791.695,355.767,791.174,357.521,790.135,359.688z"/>
	</g>
</g>
</svg>
