<?xml version="1.0" encoding="utf-8"?>
<!-- Generator: Adobe Illustrator 16.0.4, SVG Export Plug-In . SVG Version: 6.00 Build 0)  -->
<!DOCTYPE svg PUBLIC "-//W3C//DTD SVG 1.1//EN" "http://www.w3.org/Graphics/SVG/1.1/DTD/svg11.dtd">
<svg version="1.1" id="Layer_1" xmlns="http://www.w3.org/2000/svg" xmlns:xlink="http://www.w3.org/1999/xlink" x="0px" y="0px"
	 width="300px" height="171px" viewBox="62.599 197.964 300 171" enable-background="new 62.599 197.964 300 171"
	 xml:space="preserve">
<g id="Grid" display="none">
</g>
<g id="Camada_1" display="none">
</g>
<g id="_x23_Layer_1" display="none">
</g>
<g id="Desktop">
</g>
<g id="Guides">
</g>
<g id="Page_1">
	<g id="Camada_1_1_">
	</g>
	<g id="_x23_Layer_1_1_">
		<polygon fill="#958A7E" points="151.273,275.732 143.756,300.363 133.191,300.363 120.598,264.302 130.59,264.302 
			138.541,289.537 146.402,264.302 156.52,264.302 164.553,289.537 172.504,264.302 182.291,264.302 170.096,300.363 
			159.133,300.363 		"/>
		<path fill="#958A7E" d="M191.332,293.107h11.943l-0.068-15.539c-0.01-2.145-0.625-3.653-1.883-4.517
			c-1.264-0.871-3.514-1.3-6.742-1.3h-18.869v-7.451h22.475c4.928,0,8.639,1.127,11.135,3.389c2.502,2.268,3.742,5.625,3.742,10.072
			v22.599h-25.611c-3.582,0-6.342-0.9-8.271-2.701c-1.928-1.814-2.887-4.371-2.887-7.691c0-4.107,1.107-7.038,3.332-8.829
			c2.215-1.78,5.898-2.668,11.043-2.668h10.119v7.188h-8.75c-2.225,0-3.764,0.295-4.621,0.9c-0.844,0.604-1.266,1.654-1.266,3.139
			c0,1.277,0.342,2.156,1.016,2.656C187.852,292.855,189.244,293.107,191.332,293.107L191.332,293.107z"/>
		<path fill="#958A7E" d="M230.436,292.412h7.656v-28.11h9.523v35.09c0,4.77-1.117,8.307-3.342,10.6
			c-2.227,2.293-5.637,3.445-10.234,3.445h-18.674v-7.324h17.045c1.824,0,3.229-0.445,4.209-1.322
			c0.98-0.879,1.473-2.156,1.473-3.822v-0.604h-8.432c-5.385,0-9.229-1.062-11.521-3.195c-2.293-2.121-3.443-5.668-3.443-10.643
			v-22.225h9.422v21.493c0,2.715,0.41,4.494,1.221,5.35C226.146,291.99,227.848,292.412,230.436,292.412L230.436,292.412z"/>
		<path fill="#958A7E" d="M252.58,304.519h0.904v0.826h-0.904v2.223c0,0.209,0.035,0.348,0.105,0.418
			c0.068,0.07,0.209,0.105,0.418,0.105c0.139,0,0.266-0.012,0.383-0.035v0.963c-0.1,0.02-0.24,0.029-0.418,0.035
			c-0.18,0.006-0.281,0.01-0.305,0.01c-0.445,0-0.793-0.074-1.041-0.221c-0.248-0.148-0.373-0.432-0.373-0.846v-2.65h-0.748v-0.826
			h0.748v-1.346h1.232L252.58,304.519L252.58,304.519z M255.092,307.064c0,0.383,0.096,0.668,0.285,0.855
			c0.191,0.188,0.465,0.283,0.816,0.283c0.238,0,0.449-0.061,0.635-0.18c0.186-0.117,0.297-0.254,0.34-0.404h1.086
			c-0.168,0.521-0.43,0.904-0.781,1.146c-0.355,0.244-0.793,0.365-1.32,0.365c-0.701,0-1.258-0.219-1.672-0.656
			c-0.416-0.436-0.621-1.006-0.621-1.707c0-0.684,0.211-1.25,0.639-1.697c0.424-0.449,0.977-0.674,1.654-0.674
			c0.711,0,1.252,0.26,1.623,0.773c0.371,0.516,0.557,1.146,0.557,1.893L255.092,307.064L255.092,307.064z M257.098,306.283
			c-0.059-0.33-0.162-0.57-0.312-0.725c-0.148-0.152-0.373-0.23-0.67-0.23c-0.346,0-0.604,0.104-0.771,0.309
			s-0.252,0.42-0.252,0.646H257.098L257.098,306.283z M262.117,306.101c-0.041-0.256-0.137-0.447-0.291-0.578
			c-0.152-0.131-0.359-0.195-0.621-0.195c-0.359,0-0.625,0.146-0.795,0.441s-0.256,0.633-0.256,1.016s0.08,0.715,0.244,0.996
			c0.16,0.281,0.422,0.42,0.779,0.42c0.277,0,0.502-0.08,0.67-0.244c0.168-0.162,0.271-0.383,0.312-0.668h1.189
			c-0.074,0.586-0.307,1.039-0.691,1.357c-0.383,0.322-0.875,0.482-1.471,0.482c-0.678,0-1.227-0.213-1.643-0.643
			c-0.418-0.428-0.627-0.98-0.627-1.658c0-0.711,0.205-1.295,0.613-1.75s0.969-0.682,1.68-0.682c0.58,0,1.076,0.146,1.49,0.441
			s0.621,0.715,0.621,1.26L262.117,306.101L262.117,306.101z M264.045,302.808h1.234v2.336c0.168-0.244,0.371-0.428,0.607-0.555
			s0.479-0.191,0.729-0.191c0.619,0,1.049,0.156,1.285,0.469c0.238,0.312,0.355,0.773,0.355,1.381v2.762h-1.232v-2.537
			c0-0.734-0.264-1.102-0.791-1.102c-0.342,0-0.586,0.1-0.732,0.299c-0.148,0.199-0.221,0.529-0.221,0.986v2.354h-1.234V302.808
			L264.045,302.808z M269.195,304.519h1.174v0.625c0.168-0.248,0.373-0.436,0.617-0.561c0.242-0.123,0.502-0.186,0.781-0.186
			c0.619,0,1.049,0.156,1.283,0.469c0.238,0.312,0.357,0.771,0.357,1.379v2.764h-1.232v-2.537c0-0.736-0.266-1.102-0.791-1.102
			c-0.344,0-0.588,0.1-0.732,0.299c-0.148,0.199-0.223,0.529-0.223,0.984v2.355h-1.234V304.519L269.195,304.519z M276.527,304.398
			c0.713,0,1.277,0.217,1.697,0.646c0.42,0.432,0.629,1.006,0.629,1.725c0,0.711-0.213,1.283-0.639,1.715s-0.988,0.646-1.688,0.646
			c-0.707,0-1.27-0.215-1.691-0.646c-0.418-0.432-0.629-1.004-0.629-1.715c0-0.719,0.211-1.293,0.629-1.725
			C275.258,304.615,275.82,304.398,276.527,304.398L276.527,304.398z M276.527,308.203c0.387,0,0.668-0.137,0.838-0.408
			s0.256-0.613,0.256-1.025c0-0.416-0.084-0.762-0.252-1.033s-0.449-0.408-0.842-0.408c-0.383,0-0.66,0.139-0.83,0.418
			c-0.17,0.277-0.258,0.619-0.258,1.023c0,0.41,0.086,0.754,0.252,1.025C275.861,308.066,276.139,308.203,276.527,308.203
			L276.527,308.203z M279.688,302.808h1.232v6.201h-1.232V302.808L279.688,302.808z M284.074,304.398
			c0.713,0,1.277,0.217,1.699,0.646c0.418,0.432,0.629,1.006,0.629,1.725c0,0.711-0.213,1.283-0.639,1.715s-0.988,0.646-1.689,0.646
			c-0.705,0-1.27-0.215-1.688-0.646c-0.422-0.432-0.629-1.004-0.629-1.715c0-0.719,0.209-1.293,0.629-1.725
			C282.805,304.615,283.369,304.398,284.074,304.398L284.074,304.398z M284.074,308.203c0.389,0,0.668-0.137,0.838-0.408
			s0.256-0.613,0.256-1.025c0-0.416-0.084-0.762-0.252-1.033c-0.166-0.271-0.447-0.408-0.842-0.408c-0.383,0-0.658,0.139-0.83,0.418
			c-0.17,0.277-0.256,0.619-0.256,1.023c0,0.41,0.084,0.754,0.252,1.025S283.686,308.203,284.074,308.203L284.074,308.203z
			 M291.518,308.724c0,0.527-0.16,0.99-0.479,1.391c-0.318,0.396-0.936,0.598-1.85,0.598c-0.516,0-0.977-0.121-1.377-0.365
			c-0.402-0.244-0.605-0.602-0.605-1.078h1.227c0.053,0.215,0.16,0.371,0.326,0.471c0.164,0.098,0.361,0.146,0.594,0.146
			c0.324,0,0.572-0.102,0.738-0.303c0.168-0.203,0.252-0.473,0.252-0.811v-0.59c-0.139,0.227-0.33,0.398-0.574,0.518
			c-0.242,0.117-0.506,0.178-0.789,0.178c-0.637,0-1.117-0.211-1.439-0.635c-0.32-0.422-0.48-0.965-0.48-1.625
			c0-0.619,0.172-1.145,0.514-1.576c0.34-0.432,0.812-0.646,1.416-0.646c0.307,0,0.568,0.057,0.789,0.17s0.402,0.297,0.547,0.553
			l0.02-0.602h1.172V308.724L291.518,308.724z M290.346,306.708c0-0.406-0.082-0.738-0.248-0.996
			c-0.164-0.256-0.434-0.385-0.805-0.385c-0.32,0-0.57,0.121-0.74,0.363c-0.17,0.244-0.258,0.549-0.258,0.912
			c0,0.375,0.078,0.695,0.234,0.957c0.156,0.26,0.412,0.391,0.764,0.391c0.338,0,0.598-0.119,0.779-0.357
			C290.254,307.357,290.346,307.06,290.346,306.708L290.346,306.708z M294.723,309.576c-0.135,0.363-0.316,0.625-0.555,0.779
			c-0.238,0.156-0.568,0.236-0.99,0.236c-0.227,0-0.479-0.016-0.756-0.045v-1.016c0.1,0,0.234,0.008,0.408,0.021
			s0.277,0.021,0.312,0.021c0.148-0.018,0.27-0.08,0.352-0.188c0.084-0.105,0.127-0.23,0.127-0.377c0-0.098-0.018-0.191-0.053-0.279
			l-1.58-4.211h1.32l1.016,3.074l0.998-3.074h1.277L294.723,309.576L294.723,309.576z"/>
		<path fill="#958A7E" d="M250.584,285.181c0-5.044,1.275-8.658,3.836-10.829c2.551-2.182,6.803-3.266,12.752-3.266h6.512
			c2.951,0,5.01-0.424,6.174-1.275c1.174-0.85,1.754-2.281,1.754-4.295c0-2.125-0.557-3.611-1.688-4.462
			c-1.117-0.851-3.199-1.274-6.24-1.274h-23.1v-8.289h27.527c2.361,0,4.162,0.123,5.426,0.357c1.252,0.246,2.371,0.66,3.355,1.253
			c2.037,1.175,3.547,2.809,4.553,4.877c1.006,2.08,1.51,4.631,1.51,7.673c0,4.586-1.23,8.076-3.703,10.459
			c-2.473,2.384-6.072,3.568-10.816,3.568h-9.105c-2.861,0-4.887,0.525-6.072,1.577c-1.195,1.04-1.789,2.83-1.789,5.335v4.82h31.254
			v8.254h-42.137v-14.484H250.584z"/>
		<path fill="#958A7E" d="M244.598,251.82c1.961,0,3.549,1.589,3.549,3.549c0,1.958-1.588,3.547-3.549,3.547
			c-1.959,0-3.547-1.589-3.547-3.547C241.051,253.409,242.639,251.82,244.598,251.82L244.598,251.82z"/>
		<path fill="#958A7E" d="M235.719,251.82c1.959,0,3.549,1.589,3.549,3.549c0,1.958-1.59,3.547-3.549,3.547
			c-1.961,0-3.551-1.589-3.551-3.547C232.17,253.409,233.76,251.82,235.719,251.82L235.719,251.82z"/>
		<path fill="#958A7E" d="M226.838,251.82c1.961,0,3.547,1.589,3.547,3.549c0,1.958-1.586,3.547-3.547,3.547
			s-3.547-1.589-3.547-3.547C223.291,253.409,224.877,251.82,226.838,251.82L226.838,251.82z"/>
		<path fill="#958A7E" d="M217.957,251.82c1.961,0,3.551,1.589,3.551,3.549c0,1.958-1.59,3.547-3.551,3.547
			c-1.959,0-3.547-1.589-3.547-3.547C214.41,253.409,216,251.82,217.957,251.82L217.957,251.82z"/>
	</g>
</g>
</svg>
