<?xml version="1.0" encoding="utf-8"?>
<!-- Generator: Adobe Illustrator 16.0.0, SVG Export Plug-In . SVG Version: 6.00 Build 0)  -->
<!DOCTYPE svg PUBLIC "-//W3C//DTD SVG 1.0//EN" "http://www.w3.org/TR/2001/REC-SVG-20010904/DTD/svg10.dtd">
<svg version="1.0" id="Layer_1" xmlns="http://www.w3.org/2000/svg" xmlns:xlink="http://www.w3.org/1999/xlink" x="0px" y="0px"
	 width="425.197px" height="566.929px" viewBox="0 0 425.197 566.929" enable-background="new 0 0 425.197 566.929"
	 xml:space="preserve">
<g id="Grid" display="none">
</g>
<g id="Camada_1" display="none">
</g>
<g id="_x23_Layer_1" display="none">
</g>
<g id="Desktop">
</g>
<g id="Guides">
</g>
<g id="Page_1">
	<g id="Camada_1_1_">
	</g>
	<g id="_x23_Layer_1_1_">
		<polygon fill="#958A7E" points="158.279,104.007 150.761,128.637 140.197,128.637 127.604,92.576 137.596,92.576 145.547,117.81 
			153.408,92.576 163.526,92.576 171.558,117.81 179.509,92.576 189.297,92.576 177.102,128.637 166.139,128.637 		"/>
		<path fill="#958A7E" d="M198.337,121.381h11.944l-0.068-15.538c-0.01-2.145-0.626-3.654-1.883-4.517
			c-1.264-0.871-3.514-1.3-6.742-1.3h-18.87v-7.451h22.476c4.927,0,8.638,1.127,11.134,3.389c2.501,2.267,3.742,5.625,3.742,10.072
			v22.6h-25.611c-3.583,0-6.343-0.901-8.271-2.703c-1.928-1.813-2.887-4.37-2.887-7.69c0-4.107,1.107-7.038,3.332-8.829
			c2.214-1.78,5.897-2.668,11.043-2.668h10.118v7.187h-8.749c-2.225,0-3.765,0.296-4.621,0.901
			c-0.844,0.604-1.267,1.655-1.267,3.139c0,1.277,0.342,2.156,1.016,2.657C194.857,121.129,196.25,121.381,198.337,121.381
			L198.337,121.381z"/>
		<path fill="#958A7E" d="M237.441,120.685h7.655V92.576h9.525v35.091c0,4.768-1.118,8.305-3.343,10.598
			c-2.225,2.293-5.636,3.446-10.233,3.446h-18.675v-7.324h17.045c1.824,0,3.228-0.446,4.209-1.323
			c0.98-0.878,1.472-2.155,1.472-3.821v-0.605h-8.431c-5.385,0-9.229-1.061-11.521-3.194c-2.294-2.121-3.444-5.669-3.444-10.643
			V92.576h9.422v21.493c0,2.714,0.41,4.494,1.221,5.35C233.152,120.264,234.853,120.685,237.441,120.685L237.441,120.685z"/>
		<path fill="#958A7E" d="M259.586,132.794h0.904v0.826h-0.904v2.223c0,0.208,0.035,0.347,0.104,0.417
			c0.069,0.07,0.21,0.105,0.418,0.105c0.139,0,0.267-0.012,0.383-0.035v0.964c-0.1,0.018-0.239,0.029-0.418,0.035
			s-0.281,0.009-0.304,0.009c-0.446,0-0.794-0.074-1.042-0.221c-0.248-0.148-0.373-0.431-0.373-0.846v-2.649h-0.748v-0.826h0.748
			v-1.347h1.233L259.586,132.794L259.586,132.794z M262.097,135.339c0,0.382,0.096,0.667,0.286,0.855
			c0.191,0.188,0.464,0.282,0.816,0.282c0.238,0,0.449-0.059,0.635-0.178c0.185-0.119,0.297-0.254,0.339-0.405h1.086
			c-0.168,0.521-0.43,0.904-0.782,1.146c-0.354,0.244-0.792,0.365-1.319,0.365c-0.701,0-1.259-0.219-1.673-0.655
			c-0.415-0.437-0.621-1.007-0.621-1.707c0-0.684,0.212-1.25,0.639-1.698c0.425-0.449,0.977-0.673,1.654-0.673
			c0.711,0,1.252,0.258,1.623,0.772c0.371,0.516,0.557,1.147,0.557,1.894L262.097,135.339L262.097,135.339z M264.103,134.557
			c-0.059-0.33-0.162-0.571-0.313-0.725c-0.149-0.153-0.373-0.23-0.669-0.23c-0.346,0-0.604,0.103-0.772,0.308
			c-0.168,0.206-0.252,0.421-0.252,0.647H264.103L264.103,134.557z M269.122,134.375c-0.04-0.256-0.137-0.447-0.29-0.578
			s-0.361-0.196-0.622-0.196c-0.359,0-0.624,0.147-0.794,0.442c-0.171,0.296-0.257,0.634-0.257,1.016s0.081,0.714,0.244,0.995
			c0.161,0.282,0.422,0.421,0.78,0.421c0.278,0,0.502-0.081,0.67-0.244c0.168-0.162,0.271-0.384,0.313-0.668h1.189
			c-0.075,0.585-0.306,1.038-0.691,1.358c-0.384,0.322-0.875,0.482-1.472,0.482c-0.678,0-1.225-0.214-1.641-0.642
			c-0.419-0.429-0.627-0.982-0.627-1.659c0-0.712,0.204-1.295,0.613-1.751c0.407-0.454,0.968-0.681,1.68-0.681
			c0.579,0,1.075,0.146,1.489,0.442c0.414,0.294,0.621,0.715,0.621,1.259L269.122,134.375L269.122,134.375z M271.051,131.082h1.234
			v2.337c0.167-0.244,0.37-0.429,0.606-0.556c0.237-0.127,0.48-0.19,0.73-0.19c0.618,0,1.048,0.156,1.285,0.468
			c0.237,0.313,0.355,0.773,0.355,1.38v2.763h-1.233v-2.537c0-0.735-0.263-1.103-0.79-1.103c-0.342,0-0.587,0.101-0.733,0.299
			c-0.148,0.2-0.221,0.529-0.221,0.987v2.354h-1.234V131.082L271.051,131.082z M276.201,132.794h1.173v0.625
			c0.168-0.249,0.373-0.436,0.617-0.561c0.243-0.124,0.502-0.186,0.781-0.186c0.619,0,1.049,0.156,1.284,0.468
			c0.238,0.313,0.357,0.773,0.357,1.38v2.763h-1.233v-2.537c0-0.735-0.264-1.102-0.79-1.102c-0.343,0-0.588,0.1-0.733,0.299
			c-0.147,0.2-0.223,0.529-0.223,0.986v2.354h-1.233V132.794L276.201,132.794z M283.532,132.673c0.713,0,1.278,0.215,1.698,0.646
			c0.42,0.432,0.629,1.006,0.629,1.724c0,0.712-0.214,1.283-0.639,1.715c-0.425,0.432-0.988,0.646-1.688,0.646
			c-0.706,0-1.27-0.215-1.69-0.646c-0.419-0.432-0.629-1.003-0.629-1.715c0-0.718,0.211-1.292,0.629-1.724
			C282.263,132.888,282.826,132.673,283.532,132.673L283.532,132.673z M283.532,136.477c0.388,0,0.668-0.137,0.838-0.408
			c0.17-0.272,0.257-0.614,0.257-1.025c0-0.417-0.085-0.762-0.252-1.034c-0.169-0.272-0.449-0.408-0.843-0.408
			c-0.383,0-0.659,0.139-0.83,0.417c-0.17,0.278-0.257,0.62-0.257,1.025c0,0.41,0.085,0.753,0.252,1.024
			C282.866,136.34,283.144,136.477,283.532,136.477L283.532,136.477z M286.693,131.082h1.233v6.202h-1.233V131.082L286.693,131.082z
			 M291.079,132.673c0.713,0,1.278,0.215,1.699,0.646c0.419,0.432,0.629,1.006,0.629,1.724c0,0.712-0.213,1.283-0.639,1.715
			c-0.425,0.432-0.988,0.646-1.689,0.646c-0.705,0-1.269-0.215-1.688-0.646c-0.421-0.432-0.629-1.003-0.629-1.715
			c0-0.718,0.209-1.292,0.629-1.724C289.81,132.888,290.374,132.673,291.079,132.673L291.079,132.673z M291.079,136.477
			c0.389,0,0.668-0.137,0.839-0.408c0.17-0.272,0.256-0.614,0.256-1.025c0-0.417-0.084-0.762-0.253-1.034
			c-0.166-0.272-0.448-0.408-0.842-0.408c-0.382,0-0.657,0.139-0.829,0.417c-0.17,0.278-0.256,0.62-0.256,1.025
			c0,0.41,0.084,0.753,0.251,1.024C290.413,136.34,290.691,136.477,291.079,136.477L291.079,136.477z M298.522,136.998
			c0,0.527-0.159,0.99-0.478,1.39c-0.318,0.398-0.936,0.599-1.85,0.599c-0.516,0-0.975-0.121-1.377-0.365
			c-0.401-0.244-0.604-0.602-0.604-1.078h1.225c0.053,0.214,0.161,0.371,0.326,0.469c0.165,0.099,0.363,0.148,0.595,0.148
			c0.324,0,0.571-0.103,0.737-0.304c0.169-0.203,0.253-0.472,0.253-0.809v-0.591c-0.139,0.226-0.331,0.399-0.574,0.518
			c-0.242,0.118-0.506,0.178-0.79,0.178c-0.636,0-1.116-0.212-1.438-0.635c-0.321-0.422-0.481-0.964-0.481-1.625
			c0-0.62,0.171-1.144,0.513-1.576c0.341-0.431,0.813-0.646,1.416-0.646c0.307,0,0.569,0.056,0.79,0.169
			c0.22,0.113,0.402,0.297,0.547,0.552l0.018-0.6h1.172V136.998L298.522,136.998z M297.351,134.982c0-0.405-0.082-0.737-0.248-0.995
			c-0.164-0.257-0.433-0.386-0.804-0.386c-0.322,0-0.571,0.121-0.742,0.365c-0.17,0.244-0.256,0.547-0.256,0.912
			c0,0.375,0.077,0.695,0.233,0.956c0.157,0.261,0.412,0.391,0.765,0.391c0.337,0,0.596-0.119,0.778-0.357
			C297.259,135.631,297.351,135.335,297.351,134.982L297.351,134.982z M301.727,137.849c-0.133,0.365-0.316,0.625-0.554,0.781
			c-0.238,0.156-0.568,0.235-0.99,0.235c-0.226,0-0.479-0.016-0.756-0.044v-1.016c0.099,0,0.235,0.007,0.409,0.021
			c0.173,0.015,0.277,0.022,0.312,0.022c0.149-0.017,0.269-0.08,0.352-0.187c0.084-0.107,0.127-0.232,0.127-0.377
			c0-0.099-0.019-0.192-0.053-0.279l-1.581-4.212h1.321l1.015,3.074l0.999-3.074h1.276L301.727,137.849L301.727,137.849z"/>
		<path fill="#958A7E" d="M257.589,113.456c0-5.045,1.275-8.658,3.836-10.829c2.551-2.182,6.803-3.266,12.752-3.266h6.511
			c2.952,0,5.01-0.424,6.174-1.275c1.175-0.85,1.755-2.282,1.755-4.295c0-2.125-0.558-3.612-1.688-4.462
			c-1.118-0.851-3.199-1.275-6.241-1.275h-23.098v-8.289h27.527c2.361,0,4.161,0.123,5.425,0.358
			c1.253,0.246,2.372,0.66,3.355,1.253c2.037,1.175,3.548,2.808,4.553,4.877c1.007,2.08,1.51,4.631,1.51,7.673
			c0,4.586-1.23,8.076-3.703,10.459c-2.472,2.383-6.073,3.568-10.816,3.568h-9.105c-2.862,0-4.887,0.525-6.073,1.577
			c-1.196,1.04-1.789,2.83-1.789,5.335v4.82h31.253v8.255h-42.136V113.456L257.589,113.456z"/>
		<path fill="#958A7E" d="M251.603,80.095c1.96,0,3.549,1.588,3.549,3.548c0,1.958-1.589,3.547-3.549,3.547
			c-1.959,0-3.548-1.589-3.548-3.547C248.055,81.683,249.644,80.095,251.603,80.095L251.603,80.095z"/>
		<path fill="#958A7E" d="M242.723,80.095c1.959,0,3.549,1.588,3.549,3.548c0,1.958-1.59,3.547-3.549,3.547
			c-1.96,0-3.549-1.589-3.549-3.547C239.175,81.683,240.764,80.095,242.723,80.095L242.723,80.095z"/>
		<path fill="#958A7E" d="M233.844,80.095c1.959,0,3.546,1.588,3.546,3.548c0,1.958-1.587,3.547-3.546,3.547
			c-1.961,0-3.548-1.589-3.548-3.547C230.296,81.683,231.883,80.095,233.844,80.095L233.844,80.095z"/>
		<path fill="#958A7E" d="M224.963,80.095c1.96,0,3.549,1.588,3.549,3.548c0,1.958-1.589,3.547-3.549,3.547
			c-1.959,0-3.548-1.589-3.548-3.547C221.416,81.683,223.005,80.095,224.963,80.095L224.963,80.095z"/>
	</g>
</g>
</svg>
