<svg xmlns="http://www.w3.org/2000/svg" width="300" height="171" viewBox="62.599 197.964 300 171"><g fill="#958A7E"><path d="M151.273 275.732l-7.517 24.631h-10.565l-12.593-36.061h9.992l7.951 25.235 7.861-25.235h10.118l8.033 25.235 7.951-25.235h9.787l-12.195 36.061h-10.963z"/><path d="M191.332 293.107h11.943l-.068-15.539c-.01-2.145-.625-3.653-1.883-4.517-1.264-.871-3.514-1.3-6.742-1.3h-18.869V264.3h22.475c4.928 0 8.639 1.127 11.135 3.389 2.502 2.268 3.742 5.625 3.742 10.072v22.599h-25.611c-3.582 0-6.342-.9-8.271-2.701-1.928-1.814-2.887-4.371-2.887-7.691 0-4.107 1.107-7.038 3.332-8.829 2.215-1.78 5.898-2.668 11.043-2.668h10.119v7.188h-8.75c-2.225 0-3.764.295-4.621.9-.844.604-1.266 1.654-1.266 3.139 0 1.277.342 2.156 1.016 2.656.683.501 2.075.753 4.163.753zM230.436 292.412h7.656v-28.11h9.523v35.09c0 4.77-1.117 8.307-3.342 10.6-2.227 2.293-5.637 3.445-10.234 3.445h-18.674v-7.324h17.045c1.824 0 3.229-.445 4.209-1.322.98-.879 1.473-2.156 1.473-3.822v-.604h-8.432c-5.385 0-9.229-1.062-11.521-3.195-2.293-2.121-3.443-5.668-3.443-10.643v-22.225h9.422v21.493c0 2.715.41 4.494 1.221 5.35.807.845 2.509 1.267 5.097 1.267zM252.58 304.519h.904v.826h-.904v2.223c0 .209.035.348.105.418.068.07.209.105.418.105.139 0 .266-.012.383-.035v.963c-.1.02-.24.029-.418.035l-.305.01c-.445 0-.793-.074-1.041-.221-.248-.148-.373-.432-.373-.846v-2.65h-.748v-.826h.748v-1.346h1.232l-.001 1.344zm2.512 2.545c0 .383.096.668.285.855.191.188.465.283.816.283.238 0 .449-.061.635-.18.186-.117.297-.254.34-.404h1.086c-.168.521-.43.904-.781 1.146-.355.244-.793.365-1.32.365-.701 0-1.258-.219-1.672-.656-.416-.436-.621-1.006-.621-1.707 0-.684.211-1.25.639-1.697.424-.449.977-.674 1.654-.674.711 0 1.252.26 1.623.773.371.516.557 1.146.557 1.893l-3.241.003zm2.006-.781c-.059-.33-.162-.57-.312-.725-.148-.152-.373-.23-.67-.23-.346 0-.604.104-.771.309s-.252.42-.252.646h2.005zm5.019-.182c-.041-.256-.137-.447-.291-.578-.152-.131-.359-.195-.621-.195-.359 0-.625.146-.795.441s-.256.633-.256 1.016.08.715.244.996c.16.281.422.42.779.42.277 0 .502-.08.67-.244.168-.162.271-.383.312-.668h1.189c-.074.586-.307 1.039-.691 1.357-.383.322-.875.482-1.471.482-.678 0-1.227-.213-1.643-.643-.418-.428-.627-.98-.627-1.658 0-.711.205-1.295.613-1.75s.969-.682 1.68-.682c.58 0 1.076.146 1.49.441s.621.715.621 1.26l-1.203.005zm1.928-3.293h1.234v2.336c.168-.244.371-.428.607-.555s.479-.191.729-.191c.619 0 1.049.156 1.285.469.238.312.355.773.355 1.381v2.762h-1.232v-2.537c0-.734-.264-1.102-.791-1.102-.342 0-.586.1-.732.299-.148.199-.221.529-.221.986v2.354h-1.234v-6.202zm5.15 1.711h1.174v.625c.168-.248.373-.436.617-.561a1.7 1.7 0 0 1 .781-.186c.619 0 1.049.156 1.283.469.238.312.357.771.357 1.379v2.764h-1.232v-2.537c0-.736-.266-1.102-.791-1.102-.344 0-.588.1-.732.299-.148.199-.223.529-.223.984v2.355h-1.234v-4.489zm7.332-.121c.713 0 1.277.217 1.697.646.42.432.629 1.006.629 1.725 0 .711-.213 1.283-.639 1.715s-.988.646-1.688.646c-.707 0-1.27-.215-1.691-.646-.418-.432-.629-1.004-.629-1.715 0-.719.211-1.293.629-1.725.423-.429.985-.646 1.692-.646zm0 3.805c.387 0 .668-.137.838-.408s.256-.613.256-1.025c0-.416-.084-.762-.252-1.033s-.449-.408-.842-.408c-.383 0-.66.139-.83.418-.17.277-.258.619-.258 1.023 0 .41.086.754.252 1.025.17.271.448.408.836.408zm3.161-5.395h1.232v6.201h-1.232v-6.201zm4.386 1.59c.713 0 1.277.217 1.699.646.418.432.629 1.006.629 1.725 0 .711-.213 1.283-.639 1.715s-.988.646-1.689.646c-.705 0-1.27-.215-1.688-.646-.422-.432-.629-1.004-.629-1.715 0-.719.209-1.293.629-1.725.419-.429.983-.646 1.688-.646zm0 3.805c.389 0 .668-.137.838-.408s.256-.613.256-1.025c0-.416-.084-.762-.252-1.033-.166-.271-.447-.408-.842-.408-.383 0-.658.139-.83.418-.17.277-.256.619-.256 1.023 0 .41.084.754.252 1.025s.446.408.834.408zm7.444.521c0 .527-.16.99-.479 1.391-.318.396-.936.598-1.85.598-.516 0-.977-.121-1.377-.365-.402-.244-.605-.602-.605-1.078h1.227a.72.72 0 0 0 .326.471c.164.098.361.146.594.146.324 0 .572-.102.738-.303.168-.203.252-.473.252-.811v-.59c-.139.227-.33.398-.574.518a1.793 1.793 0 0 1-.789.178c-.637 0-1.117-.211-1.439-.635-.32-.422-.48-.965-.48-1.625 0-.619.172-1.145.514-1.576.34-.432.812-.646 1.416-.646.307 0 .568.057.789.17s.402.297.547.553l.02-.602h1.172v4.206h-.002zm-1.172-2.016c0-.406-.082-.738-.248-.996-.164-.256-.434-.385-.805-.385-.32 0-.57.121-.74.363-.17.244-.258.549-.258.912 0 .375.078.695.234.957.156.26.412.391.764.391.338 0 .598-.119.779-.357.182-.236.274-.533.274-.885zm4.377 2.868c-.135.363-.316.625-.555.779-.238.156-.568.236-.99.236-.227 0-.479-.016-.756-.045v-1.016c.1 0 .234.008.408.021s.277.021.312.021a.5.5 0 0 0 .352-.188.584.584 0 0 0 .127-.377.748.748 0 0 0-.053-.279l-1.58-4.211h1.32l1.016 3.074.998-3.074h1.277l-1.876 5.059zM250.584 285.181c0-5.044 1.275-8.658 3.836-10.829 2.551-2.182 6.803-3.266 12.752-3.266h6.512c2.951 0 5.01-.424 6.174-1.275 1.174-.85 1.754-2.281 1.754-4.295 0-2.125-.557-3.611-1.688-4.462-1.117-.851-3.199-1.274-6.24-1.274h-23.1v-8.289h27.527c2.361 0 4.162.123 5.426.357 1.252.246 2.371.66 3.355 1.253 2.037 1.175 3.547 2.809 4.553 4.877 1.006 2.08 1.51 4.631 1.51 7.673 0 4.586-1.23 8.076-3.703 10.459-2.473 2.384-6.072 3.568-10.816 3.568h-9.105c-2.861 0-4.887.525-6.072 1.577-1.195 1.04-1.789 2.83-1.789 5.335v4.82h31.254v8.254h-42.137V285.18h-.003zM244.598 251.82a3.548 3.548 0 1 1 .001 7.097 3.548 3.548 0 0 1-.001-7.097zM235.719 251.82a3.55 3.55 0 0 1 3.549 3.549 3.55 3.55 0 0 1-7.1 0 3.553 3.553 0 0 1 3.551-3.549zM226.838 251.82a3.547 3.547 0 0 1 3.547 3.549 3.546 3.546 0 1 1-7.094 0 3.547 3.547 0 0 1 3.547-3.549zM217.957 251.82a3.55 3.55 0 0 1 3.551 3.549 3.55 3.55 0 0 1-7.098 0 3.55 3.55 0 0 1 3.547-3.549z"/></g></svg>